M48
INCH
T79C0.050
T78C0.138
T77C0.035
T76C0.020
T75C0.051
T74C0.048
T73C0.043
T72C0.030
T71C0.060
T70C0.038
%
T76
X006450Y016070
X006450Y015270
X008450Y012670
X008620Y012380
X008800Y012670
X009250Y008720
X009450Y008920
X009650Y009120
X009700Y012720
X009750Y017720
X010050Y020170
X010100Y018020
X010100Y012470
X010460Y005870
X010460Y005520
X010800Y020220
X010800Y018170
X010800Y004220
X010800Y003520
X011200Y010670
X011400Y010870
X011600Y011070
X011650Y006070
X011650Y005720
X011650Y005370
X011800Y014770
X012200Y019570
X012200Y018170
X012350Y013920
X012650Y015570
X012800Y002520
X013300Y004270
X013600Y018170
X013650Y020220
X013650Y016070
X013710Y015610
X013800Y006420
X013850Y013920
X013850Y012620
X014050Y010770
X014050Y010320
X014050Y009870
X014150Y007370
X014650Y015820
X014800Y015120
X014950Y020120
X014950Y017020
X014950Y016420
X015000Y018170
X015400Y003070
X015450Y010330
X015550Y015170
X015550Y009470
X015700Y010670
X015750Y003420
X015950Y005120
X016300Y005120
X016650Y005120
X016850Y019620
X017100Y020020
X017600Y002866
X017600Y002516
X017600Y002166
X018500Y007520
X020271Y004115
X020271Y003665
X020300Y022320
X020300Y021920
X020300Y019720
X020300Y019320
X020300Y017120
X020300Y016720
X020300Y014520
X020300Y014120
X020300Y011920
X020300Y011520
X020300Y009320
X020300Y008920
X020300Y006720
X020300Y006320
X021650Y000870
X022050Y000870
T72
X000800Y032170
X000800Y030770
X001650Y027970
X002000Y033820
X003650Y027970
X003800Y032170
X003800Y030770
X004450Y032170
X004450Y030770
X005050Y022070
X006000Y033820
X007050Y022070
X007060Y018620
X007450Y032170
X007450Y030770
X009060Y018620
T77
X010400Y005070
X014650Y010170
T70
X003650Y016670
X003650Y015670
X004000Y010770
X004000Y009770
X004000Y008770
X004000Y007770
X004000Y006770
X004000Y005770
X004000Y004770
X004000Y003770
X004000Y002770
X004000Y001770
X004000Y000770
X005000Y010770
X005000Y009770
X005000Y008770
X005000Y007770
X005000Y006770
X005000Y005770
X005000Y004770
X005000Y003770
X005000Y002770
X005000Y001770
X008500Y016170
X008500Y015170
X009900Y023770
X009900Y022770
X010750Y016670
X010900Y023770
X010900Y022770
X011750Y016670
X011900Y023770
X011900Y022770
X011900Y021770
X011900Y020770
X012750Y016670
X012900Y023770
X012900Y022770
X012900Y021770
X012900Y020770
X013750Y016670
X013900Y023770
X013900Y022770
X013900Y021770
X013900Y020770
X014900Y023770
X014900Y022770
X014900Y021770
X014900Y020770
X015250Y007420
X015250Y006420
X015250Y005420
X015900Y023770
X015900Y022770
X016800Y018970
X016800Y017970
X016800Y016970
X016800Y015970
X016800Y014970
X016800Y013970
X016800Y012970
X016800Y011970
X016900Y023770
X016900Y022770
X017050Y004670
X017050Y003670
X017500Y005870
X017800Y018970
X017800Y017970
X017800Y016970
X017800Y015970
X017800Y014970
X017800Y013970
X017800Y012970
X017800Y011970
X018050Y004670
X018050Y003670
X018500Y005870
X019050Y004670
X019050Y003670
X027550Y019920
X027550Y018920
X027550Y017920
X027550Y016920
X027550Y015920
X027550Y014920
X027550Y013920
X027550Y012920
X027550Y007470
X027550Y006470
X027550Y005470
X028550Y019920
X028550Y018920
X028550Y017920
X028550Y016920
X028550Y015920
X028550Y014920
X028550Y013920
X028550Y012920
X028550Y007470
X028550Y006470
X028550Y005470
T73
X008697Y026920
X011650Y026920
X015097Y026920
X018050Y026920
X021497Y026920
X024450Y026920
X027897Y026920
X030850Y026920
T74
X001900Y037670
X003840Y037670
X005780Y037670
X007800Y037670
X009740Y037670
X011680Y037670
X013700Y037670
X015640Y037670
X017580Y037670
X019600Y037670
X021540Y037670
X023480Y037670
X025500Y037670
X027440Y037670
X029380Y037670
T79
X008700Y034820
X015100Y034820
X021500Y034820
X027900Y034820
X030850Y033420
T75
X008697Y033416
X011650Y034794
X015097Y033416
X018050Y034794
X021497Y033416
X024450Y034794
X027897Y033416
X030850Y034794
T71
X007250Y027920
X007250Y026920
X007250Y025920
X013650Y027920
X013650Y026920
X013650Y025920
X020050Y027920
X020050Y026920
X020050Y025920
X026450Y027920
X026450Y026920
X026450Y025920
X026530Y001870
X028500Y001870
T78
X001575Y022429
X027953Y022429
M30
