G04 start of page 9 for group -4015 idx -4015 *
G04 Title: (unknown), toppaste *
G04 Creator: pcb 4.1.3 *
G04 CreationDate: Fri Aug 16 20:44:32 2019 UTC *
G04 For: leha *
G04 Format: Gerber/RS-274X *
G04 PCB-Dimensions (mil): 3149.61 3937.01 *
G04 PCB-Coordinate-Origin: lower left *
%MOIN*%
%FSLAX25Y25*%
%LNTOPPASTE*%
%ADD107C,0.0240*%
%ADD106C,0.0340*%
%ADD105C,0.0001*%
G54D105*G36*
X170500Y84701D02*X168500D01*
Y76201D01*
X170500D01*
Y84701D01*
G37*
G36*
X175500D02*X173500D01*
Y76201D01*
X175500D01*
Y84701D01*
G37*
G36*
X180500D02*X178500D01*
Y76201D01*
X180500D01*
Y84701D01*
G37*
G36*
X185500D02*X183500D01*
Y76201D01*
X185500D01*
Y84701D01*
G37*
G36*
Y105201D02*X183500D01*
Y96701D01*
X185500D01*
Y105201D01*
G37*
G36*
X180500D02*X178500D01*
Y96701D01*
X180500D01*
Y105201D01*
G37*
G36*
X175500D02*X173500D01*
Y96701D01*
X175500D01*
Y105201D01*
G37*
G36*
X170500D02*X168500D01*
Y96701D01*
X170500D01*
Y105201D01*
G37*
G36*
X158102Y150653D02*X152984D01*
Y144749D01*
X158102D01*
Y150653D01*
G37*
G36*
X151016D02*X145898D01*
Y144749D01*
X151016D01*
Y150653D01*
G37*
G36*
X111548Y160846D02*Y155728D01*
X117452D01*
Y160846D01*
X111548D01*
G37*
G36*
Y153760D02*Y148642D01*
X117452D01*
Y153760D01*
X111548D01*
G37*
G36*
X229516Y10653D02*X224398D01*
Y4749D01*
X229516D01*
Y10653D01*
G37*
G36*
X236602D02*X231484D01*
Y4749D01*
X236602D01*
Y10653D01*
G37*
G36*
X243016D02*X237898D01*
Y4749D01*
X243016D01*
Y10653D01*
G37*
G36*
X250102D02*X244984D01*
Y4749D01*
X250102D01*
Y10653D01*
G37*
G36*
X33102Y30653D02*X27984D01*
Y24749D01*
X33102D01*
Y30653D01*
G37*
G36*
X26016D02*X20898D01*
Y24749D01*
X26016D01*
Y30653D01*
G37*
G36*
X33102Y20653D02*X27984D01*
Y14749D01*
X33102D01*
Y20653D01*
G37*
G36*
X26016D02*X20898D01*
Y14749D01*
X26016D01*
Y20653D01*
G37*
G36*
X33102Y60653D02*X27984D01*
Y54749D01*
X33102D01*
Y60653D01*
G37*
G36*
X26016D02*X20898D01*
Y54749D01*
X26016D01*
Y60653D01*
G37*
G36*
X33102Y50653D02*X27984D01*
Y44749D01*
X33102D01*
Y50653D01*
G37*
G36*
X26016D02*X20898D01*
Y44749D01*
X26016D01*
Y50653D01*
G37*
G36*
X33102Y80653D02*X27984D01*
Y74749D01*
X33102D01*
Y80653D01*
G37*
G36*
X26016D02*X20898D01*
Y74749D01*
X26016D01*
Y80653D01*
G37*
G36*
X33102Y70653D02*X27984D01*
Y64749D01*
X33102D01*
Y70653D01*
G37*
G36*
X26016D02*X20898D01*
Y64749D01*
X26016D01*
Y70653D01*
G37*
G36*
X33102Y40653D02*X27984D01*
Y34749D01*
X33102D01*
Y40653D01*
G37*
G36*
X26016D02*X20898D01*
Y34749D01*
X26016D01*
Y40653D01*
G37*
G36*
X33102Y90653D02*X27984D01*
Y84749D01*
X33102D01*
Y90653D01*
G37*
G36*
X26016D02*X20898D01*
Y84749D01*
X26016D01*
Y90653D01*
G37*
G36*
X33102Y100653D02*X27984D01*
Y94749D01*
X33102D01*
Y100653D01*
G37*
G36*
X26016D02*X20898D01*
Y94749D01*
X26016D01*
Y100653D01*
G37*
G36*
X195628Y24972D02*Y21429D01*
X199172D01*
Y24972D01*
X195628D01*
G37*
G36*
Y19461D02*Y15917D01*
X199172D01*
Y19461D01*
X195628D01*
G37*
G36*
X206652Y23004D02*X203502D01*
Y17886D01*
X206652D01*
Y23004D01*
G37*
G36*
X223500Y24001D02*Y20601D01*
X227500D01*
Y24001D01*
X223500D01*
G37*
G36*
Y16201D02*Y12801D01*
X227500D01*
Y16201D01*
X223500D01*
G37*
G36*
X231700Y20101D02*Y16701D01*
X235700D01*
Y20101D01*
X231700D01*
G37*
G36*
X33102Y110653D02*X27984D01*
Y104749D01*
X33102D01*
Y110653D01*
G37*
G36*
X26016D02*X20898D01*
Y104749D01*
X26016D01*
Y110653D01*
G37*
G36*
X89548Y128846D02*Y123728D01*
X95452D01*
Y128846D01*
X89548D01*
G37*
G36*
Y121760D02*Y116642D01*
X95452D01*
Y121760D01*
X89548D01*
G37*
G36*
X155602Y110653D02*X150484D01*
Y104749D01*
X155602D01*
Y110653D01*
G37*
G36*
X148516D02*X143398D01*
Y104749D01*
X148516D01*
Y110653D01*
G37*
G36*
X105700Y178701D02*X102300D01*
Y174701D01*
X105700D01*
Y178701D01*
G37*
G36*
X113500D02*X110100D01*
Y174701D01*
X113500D01*
Y178701D01*
G37*
G36*
X109600Y186901D02*X106200D01*
Y182901D01*
X109600D01*
Y186901D01*
G37*
G36*
X119700Y178701D02*X116300D01*
Y174701D01*
X119700D01*
Y178701D01*
G37*
G36*
X127500D02*X124100D01*
Y174701D01*
X127500D01*
Y178701D01*
G37*
G36*
X123600Y186901D02*X120200D01*
Y182901D01*
X123600D01*
Y186901D01*
G37*
G36*
X133700Y178701D02*X130300D01*
Y174701D01*
X133700D01*
Y178701D01*
G37*
G36*
X141500D02*X138100D01*
Y174701D01*
X141500D01*
Y178701D01*
G37*
G36*
X137600Y186901D02*X134200D01*
Y182901D01*
X137600D01*
Y186901D01*
G37*
G36*
X147700Y178701D02*X144300D01*
Y174701D01*
X147700D01*
Y178701D01*
G37*
G54D106*X153800Y177001D02*Y176401D01*
G54D105*G36*
X151600Y186901D02*X148200D01*
Y182901D01*
X151600D01*
Y186901D01*
G37*
G36*
X147700Y192701D02*X144300D01*
Y188701D01*
X147700D01*
Y192701D01*
G37*
G36*
X155500D02*X152100D01*
Y188701D01*
X155500D01*
Y192701D01*
G37*
G36*
X151600Y200901D02*X148200D01*
Y196901D01*
X151600D01*
Y200901D01*
G37*
G36*
X133700Y192701D02*X130300D01*
Y188701D01*
X133700D01*
Y192701D01*
G37*
G36*
X141500D02*X138100D01*
Y188701D01*
X141500D01*
Y192701D01*
G37*
G36*
X137600Y200901D02*X134200D01*
Y196901D01*
X137600D01*
Y200901D01*
G37*
G36*
X119700Y192701D02*X116300D01*
Y188701D01*
X119700D01*
Y192701D01*
G37*
G36*
X127500D02*X124100D01*
Y188701D01*
X127500D01*
Y192701D01*
G37*
G36*
X123600Y200901D02*X120200D01*
Y196901D01*
X123600D01*
Y200901D01*
G37*
G36*
X105700Y192701D02*X102300D01*
Y188701D01*
X105700D01*
Y192701D01*
G37*
G36*
X113500D02*X110100D01*
Y188701D01*
X113500D01*
Y192701D01*
G37*
G36*
X109600Y200901D02*X106200D01*
Y196901D01*
X109600D01*
Y200901D01*
G37*
G36*
X112221Y143078D02*Y141976D01*
X116721D01*
Y143078D01*
X112221D01*
G37*
G36*
Y141110D02*Y140008D01*
X116721D01*
Y141110D01*
X112221D01*
G37*
G36*
Y139141D02*Y138039D01*
X116721D01*
Y139141D01*
X112221D01*
G37*
G36*
Y137173D02*Y136071D01*
X116721D01*
Y137173D01*
X112221D01*
G37*
G36*
Y135204D02*Y134102D01*
X116721D01*
Y135204D01*
X112221D01*
G37*
G36*
Y133236D02*Y132134D01*
X116721D01*
Y133236D01*
X112221D01*
G37*
G36*
Y131267D02*Y130165D01*
X116721D01*
Y131267D01*
X112221D01*
G37*
G36*
Y129299D02*Y128197D01*
X116721D01*
Y129299D01*
X112221D01*
G37*
G36*
Y127330D02*Y126228D01*
X116721D01*
Y127330D01*
X112221D01*
G37*
G36*
Y125362D02*Y124260D01*
X116721D01*
Y125362D01*
X112221D01*
G37*
G36*
Y123393D02*Y122291D01*
X116721D01*
Y123393D01*
X112221D01*
G37*
G36*
Y121425D02*Y120323D01*
X116721D01*
Y121425D01*
X112221D01*
G37*
G36*
X120725Y117422D02*X119623D01*
Y112922D01*
X120725D01*
Y117422D01*
G37*
G36*
X122693D02*X121591D01*
Y112922D01*
X122693D01*
Y117422D01*
G37*
G36*
X124662D02*X123560D01*
Y112922D01*
X124662D01*
Y117422D01*
G37*
G36*
X126630D02*X125528D01*
Y112922D01*
X126630D01*
Y117422D01*
G37*
G36*
X128599D02*X127497D01*
Y112922D01*
X128599D01*
Y117422D01*
G37*
G36*
X130567D02*X129465D01*
Y112922D01*
X130567D01*
Y117422D01*
G37*
G36*
X132536D02*X131434D01*
Y112922D01*
X132536D01*
Y117422D01*
G37*
G36*
X134504D02*X133402D01*
Y112922D01*
X134504D01*
Y117422D01*
G37*
G36*
X136473D02*X135371D01*
Y112922D01*
X136473D01*
Y117422D01*
G37*
G36*
X138441D02*X137339D01*
Y112922D01*
X138441D01*
Y117422D01*
G37*
G36*
X140410D02*X139308D01*
Y112922D01*
X140410D01*
Y117422D01*
G37*
G36*
X142378D02*X141276D01*
Y112922D01*
X142378D01*
Y117422D01*
G37*
G36*
X145279Y121426D02*Y120324D01*
X149779D01*
Y121426D01*
X145279D01*
G37*
G36*
Y123394D02*Y122292D01*
X149779D01*
Y123394D01*
X145279D01*
G37*
G36*
Y125363D02*Y124261D01*
X149779D01*
Y125363D01*
X145279D01*
G37*
G36*
Y127331D02*Y126229D01*
X149779D01*
Y127331D01*
X145279D01*
G37*
G36*
Y129300D02*Y128198D01*
X149779D01*
Y129300D01*
X145279D01*
G37*
G36*
Y131268D02*Y130166D01*
X149779D01*
Y131268D01*
X145279D01*
G37*
G36*
Y133237D02*Y132135D01*
X149779D01*
Y133237D01*
X145279D01*
G37*
G36*
Y135205D02*Y134103D01*
X149779D01*
Y135205D01*
X145279D01*
G37*
G36*
Y137174D02*Y136072D01*
X149779D01*
Y137174D01*
X145279D01*
G37*
G36*
Y139142D02*Y138040D01*
X149779D01*
Y139142D01*
X145279D01*
G37*
G36*
Y141111D02*Y140009D01*
X149779D01*
Y141111D01*
X145279D01*
G37*
G36*
Y143079D02*Y141977D01*
X149779D01*
Y143079D01*
X145279D01*
G37*
G36*
X142377Y150480D02*X141275D01*
Y145980D01*
X142377D01*
Y150480D01*
G37*
G36*
X140409D02*X139307D01*
Y145980D01*
X140409D01*
Y150480D01*
G37*
G36*
X138440D02*X137338D01*
Y145980D01*
X138440D01*
Y150480D01*
G37*
G36*
X136472D02*X135370D01*
Y145980D01*
X136472D01*
Y150480D01*
G37*
G36*
X134503D02*X133401D01*
Y145980D01*
X134503D01*
Y150480D01*
G37*
G36*
X132535D02*X131433D01*
Y145980D01*
X132535D01*
Y150480D01*
G37*
G36*
X130566D02*X129464D01*
Y145980D01*
X130566D01*
Y150480D01*
G37*
G36*
X128598D02*X127496D01*
Y145980D01*
X128598D01*
Y150480D01*
G37*
G36*
X126629D02*X125527D01*
Y145980D01*
X126629D01*
Y150480D01*
G37*
G36*
X124661D02*X123559D01*
Y145980D01*
X124661D01*
Y150480D01*
G37*
G36*
X122692D02*X121590D01*
Y145980D01*
X122692D01*
Y150480D01*
G37*
G36*
X120724D02*X119622D01*
Y145980D01*
X120724D01*
Y150480D01*
G37*
G36*
X71016Y155653D02*X65898D01*
Y149749D01*
X71016D01*
Y155653D01*
G37*
G36*
X78102D02*X72984D01*
Y149749D01*
X78102D01*
Y155653D01*
G37*
G36*
X71016Y163653D02*X65898D01*
Y157749D01*
X71016D01*
Y163653D01*
G37*
G36*
X78102D02*X72984D01*
Y157749D01*
X78102D01*
Y163653D01*
G37*
G36*
X88516Y138653D02*X83398D01*
Y132749D01*
X88516D01*
Y138653D01*
G37*
G36*
X95602D02*X90484D01*
Y132749D01*
X95602D01*
Y138653D01*
G37*
G36*
X82602D02*X77484D01*
Y132749D01*
X82602D01*
Y138653D01*
G37*
G36*
X75516D02*X70398D01*
Y132749D01*
X75516D01*
Y138653D01*
G37*
G36*
X82602Y145653D02*X77484D01*
Y139749D01*
X82602D01*
Y145653D01*
G37*
G36*
X75516D02*X70398D01*
Y139749D01*
X75516D01*
Y145653D01*
G37*
G36*
X88516D02*X83398D01*
Y139749D01*
X88516D01*
Y145653D01*
G37*
G36*
X95602D02*X90484D01*
Y139749D01*
X95602D01*
Y145653D01*
G37*
G36*
X187473Y20153D02*X182355D01*
Y14249D01*
X187473D01*
Y20153D01*
G37*
G36*
X194559D02*X189441D01*
Y14249D01*
X194559D01*
Y20153D01*
G37*
G36*
Y27153D02*X189441D01*
Y21249D01*
X194559D01*
Y27153D01*
G37*
G36*
X187473D02*X182355D01*
Y21249D01*
X187473D01*
Y27153D01*
G37*
G36*
X243059Y18153D02*X237941D01*
Y12249D01*
X243059D01*
Y18153D01*
G37*
G36*
X250145D02*X245027D01*
Y12249D01*
X250145D01*
Y18153D01*
G37*
G36*
X122964Y62515D02*X117846D01*
Y51887D01*
X122964D01*
Y62515D01*
G37*
G36*
X111154D02*X106036D01*
Y51887D01*
X111154D01*
Y62515D01*
G37*
G36*
X241500Y25101D02*X238100D01*
Y21101D01*
X241500D01*
Y25101D01*
G37*
G36*
X249300D02*X245900D01*
Y21101D01*
X249300D01*
Y25101D01*
G37*
G36*
X245400Y33301D02*X242000D01*
Y29301D01*
X245400D01*
Y33301D01*
G37*
G36*
X208800Y24301D02*Y20901D01*
X212800D01*
Y24301D01*
X208800D01*
G37*
G36*
Y16501D02*Y13101D01*
X212800D01*
Y16501D01*
X208800D01*
G37*
G36*
X217000Y20401D02*Y17001D01*
X221000D01*
Y20401D01*
X217000D01*
G37*
G36*
X113100Y48901D02*X110700D01*
Y44901D01*
X113100D01*
Y48901D01*
G37*
G36*
X105300D02*X102900D01*
Y44901D01*
X105300D01*
Y48901D01*
G37*
G36*
Y40701D02*X102900D01*
Y36701D01*
X105300D01*
Y40701D01*
G37*
G36*
X109200D02*X106800D01*
Y36701D01*
X109200D01*
Y40701D01*
G37*
G36*
X113100D02*X110700D01*
Y36701D01*
X113100D01*
Y40701D01*
G37*
G36*
X159548Y11174D02*Y6056D01*
X165452D01*
Y11174D01*
X159548D01*
G37*
G36*
Y18260D02*Y13142D01*
X165452D01*
Y18260D01*
X159548D01*
G37*
G36*
X173548D02*Y13142D01*
X179452D01*
Y18260D01*
X173548D01*
G37*
G36*
Y11174D02*Y6056D01*
X179452D01*
Y11174D01*
X173548D01*
G37*
G36*
X167048Y18260D02*Y13142D01*
X172952D01*
Y18260D01*
X167048D01*
G37*
G36*
Y11174D02*Y6056D01*
X172952D01*
Y11174D01*
X167048D01*
G37*
G36*
X174464Y30372D02*X169346D01*
Y19744D01*
X174464D01*
Y30372D01*
G37*
G36*
X162654D02*X157536D01*
Y19744D01*
X162654D01*
Y30372D01*
G37*
G54D107*X142900Y60301D02*X144500D01*
X142900Y68101D02*X144500D01*
G54D105*G36*
X133500Y69301D02*Y66901D01*
X137500D01*
Y69301D01*
X133500D01*
G37*
G36*
Y65401D02*Y63001D01*
X137500D01*
Y65401D01*
X133500D01*
G37*
G36*
Y61501D02*Y59101D01*
X137500D01*
Y61501D01*
X133500D01*
G37*
G36*
X149548Y29803D02*Y24685D01*
X155452D01*
Y29803D01*
X149548D01*
G37*
G36*
Y22717D02*Y17599D01*
X155452D01*
Y22717D01*
X149548D01*
G37*
G36*
X143406Y21217D02*Y17673D01*
X146949D01*
Y21217D01*
X143406D01*
G37*
G36*
Y26728D02*Y23185D01*
X146949D01*
Y26728D01*
X143406D01*
G37*
G36*
X139075Y24760D02*X135925D01*
Y19642D01*
X139075D01*
Y24760D01*
G37*
G36*
X128500Y21401D02*Y18001D01*
X132500D01*
Y21401D01*
X128500D01*
G37*
G36*
Y29201D02*Y25801D01*
X132500D01*
Y29201D01*
X128500D01*
G37*
G36*
X120300Y25301D02*Y21901D01*
X124300D01*
Y25301D01*
X120300D01*
G37*
G36*
X128500Y33901D02*Y30501D01*
X132500D01*
Y33901D01*
X128500D01*
G37*
G36*
Y41701D02*Y38301D01*
X132500D01*
Y41701D01*
X128500D01*
G37*
G36*
X120300Y37801D02*Y34401D01*
X124300D01*
Y37801D01*
X120300D01*
G37*
G36*
X139016Y33653D02*X133898D01*
Y27749D01*
X139016D01*
Y33653D01*
G37*
G36*
X146102D02*X140984D01*
Y27749D01*
X146102D01*
Y33653D01*
G37*
G36*
X137700Y39201D02*X134300D01*
Y35201D01*
X137700D01*
Y39201D01*
G37*
G36*
X145500D02*X142100D01*
Y35201D01*
X145500D01*
Y39201D01*
G37*
G36*
X141600Y47401D02*X138200D01*
Y43401D01*
X141600D01*
Y47401D01*
G37*
G36*
X157686Y57855D02*Y52737D01*
X168314D01*
Y57855D01*
X157686D01*
G37*
G36*
Y69665D02*Y64547D01*
X168314D01*
Y69665D01*
X157686D01*
G37*
G36*
X148048Y40217D02*Y35099D01*
X153952D01*
Y40217D01*
X148048D01*
G37*
G36*
Y47303D02*Y42185D01*
X153952D01*
Y47303D01*
X148048D01*
G37*
G36*
X150548Y93303D02*Y88185D01*
X156452D01*
Y93303D01*
X150548D01*
G37*
G36*
Y86217D02*Y81099D01*
X156452D01*
Y86217D01*
X150548D01*
G37*
G36*
X155548Y40217D02*Y35099D01*
X161452D01*
Y40217D01*
X155548D01*
G37*
G36*
Y47303D02*Y42185D01*
X161452D01*
Y47303D01*
X155548D01*
G37*
G36*
X207000Y53401D02*Y50001D01*
X211000D01*
Y53401D01*
X207000D01*
G37*
G36*
Y45601D02*Y42201D01*
X211000D01*
Y45601D01*
X207000D01*
G37*
G36*
X215200Y49501D02*Y46101D01*
X219200D01*
Y49501D01*
X215200D01*
G37*
G36*
X220752Y59512D02*Y35890D01*
X252248D01*
Y59512D01*
X220752D01*
G37*
G36*
X203822Y41795D02*Y35496D01*
X217602D01*
Y41795D01*
X203822D01*
G37*
G36*
Y59905D02*Y53606D01*
X217602D01*
Y59905D01*
X203822D01*
G37*
G36*
X220752Y85512D02*Y61890D01*
X252248D01*
Y85512D01*
X220752D01*
G37*
G36*
X203822Y67795D02*Y61496D01*
X217602D01*
Y67795D01*
X203822D01*
G37*
G36*
Y85905D02*Y79606D01*
X217602D01*
Y85905D01*
X203822D01*
G37*
G36*
X207000Y79401D02*Y76001D01*
X211000D01*
Y79401D01*
X207000D01*
G37*
G36*
Y71601D02*Y68201D01*
X211000D01*
Y71601D01*
X207000D01*
G37*
G36*
X215200Y75501D02*Y72101D01*
X219200D01*
Y75501D01*
X215200D01*
G37*
G36*
X220752Y111512D02*Y87890D01*
X252248D01*
Y111512D01*
X220752D01*
G37*
G36*
X203822Y93795D02*Y87496D01*
X217602D01*
Y93795D01*
X203822D01*
G37*
G36*
Y111905D02*Y105606D01*
X217602D01*
Y111905D01*
X203822D01*
G37*
G36*
X207000Y105401D02*Y102001D01*
X211000D01*
Y105401D01*
X207000D01*
G37*
G36*
Y97601D02*Y94201D01*
X211000D01*
Y97601D01*
X207000D01*
G37*
G36*
X215200Y101501D02*Y98101D01*
X219200D01*
Y101501D01*
X215200D01*
G37*
G36*
X220752Y137512D02*Y113890D01*
X252248D01*
Y137512D01*
X220752D01*
G37*
G36*
X203822Y119795D02*Y113496D01*
X217602D01*
Y119795D01*
X203822D01*
G37*
G36*
Y137905D02*Y131606D01*
X217602D01*
Y137905D01*
X203822D01*
G37*
G36*
X207000Y131401D02*Y128001D01*
X211000D01*
Y131401D01*
X207000D01*
G37*
G36*
Y123601D02*Y120201D01*
X211000D01*
Y123601D01*
X207000D01*
G37*
G36*
X215200Y127501D02*Y124101D01*
X219200D01*
Y127501D01*
X215200D01*
G37*
G36*
X220752Y163512D02*Y139890D01*
X252248D01*
Y163512D01*
X220752D01*
G37*
G36*
X203822Y145795D02*Y139496D01*
X217602D01*
Y145795D01*
X203822D01*
G37*
G36*
Y163905D02*Y157606D01*
X217602D01*
Y163905D01*
X203822D01*
G37*
G36*
X207000Y157401D02*Y154001D01*
X211000D01*
Y157401D01*
X207000D01*
G37*
G36*
Y149601D02*Y146201D01*
X211000D01*
Y149601D01*
X207000D01*
G37*
G36*
X215200Y153501D02*Y150101D01*
X219200D01*
Y153501D01*
X215200D01*
G37*
G36*
X220752Y189512D02*Y165890D01*
X252248D01*
Y189512D01*
X220752D01*
G37*
G36*
X203822Y171795D02*Y165496D01*
X217602D01*
Y171795D01*
X203822D01*
G37*
G36*
Y189905D02*Y183606D01*
X217602D01*
Y189905D01*
X203822D01*
G37*
G36*
X207000Y183401D02*Y180001D01*
X211000D01*
Y183401D01*
X207000D01*
G37*
G36*
Y175601D02*Y172201D01*
X211000D01*
Y175601D01*
X207000D01*
G37*
G36*
X215200Y179501D02*Y176101D01*
X219200D01*
Y179501D01*
X215200D01*
G37*
G36*
X220752Y215512D02*Y191890D01*
X252248D01*
Y215512D01*
X220752D01*
G37*
G36*
X203822Y197795D02*Y191496D01*
X217602D01*
Y197795D01*
X203822D01*
G37*
G36*
Y215905D02*Y209606D01*
X217602D01*
Y215905D01*
X203822D01*
G37*
G36*
X207000Y209401D02*Y206001D01*
X211000D01*
Y209401D01*
X207000D01*
G37*
G36*
Y201601D02*Y198201D01*
X211000D01*
Y201601D01*
X207000D01*
G37*
G36*
X215200Y205501D02*Y202101D01*
X219200D01*
Y205501D01*
X215200D01*
G37*
G36*
X220752Y241512D02*Y217890D01*
X252248D01*
Y241512D01*
X220752D01*
G37*
G36*
X203822Y223795D02*Y217496D01*
X217602D01*
Y223795D01*
X203822D01*
G37*
G36*
Y241905D02*Y235606D01*
X217602D01*
Y241905D01*
X203822D01*
G37*
G36*
X207000Y235401D02*Y232001D01*
X211000D01*
Y235401D01*
X207000D01*
G37*
G36*
Y227601D02*Y224201D01*
X211000D01*
Y227601D01*
X207000D01*
G37*
G36*
X215200Y231501D02*Y228101D01*
X219200D01*
Y231501D01*
X215200D01*
G37*
M02*
