G04 start of page 3 for group 5 idx 5 *
G04 Title: (unknown), bottom *
G04 Creator: pcb 4.1.3 *
G04 CreationDate: Fri Aug 16 20:44:32 2019 UTC *
G04 For: leha *
G04 Format: Gerber/RS-274X *
G04 PCB-Dimensions (mil): 3149.61 3937.01 *
G04 PCB-Coordinate-Origin: lower left *
%MOIN*%
%FSLAX25Y25*%
%LNBOTTOM*%
%ADD69C,0.0512*%
%ADD68C,0.0480*%
%ADD67C,0.0433*%
%ADD66C,0.0300*%
%ADD65C,0.0380*%
%ADD64C,0.0500*%
%ADD63C,0.1378*%
%ADD62C,0.0350*%
%ADD61C,0.0200*%
%ADD60C,0.0757*%
%ADD59C,0.0281*%
%ADD58C,0.1969*%
%ADD57C,0.0360*%
%ADD56C,0.0900*%
%ADD55C,0.0748*%
%ADD54C,0.0669*%
%ADD53C,0.0550*%
%ADD52C,0.1100*%
%ADD51C,0.0600*%
%ADD50C,0.0171*%
%ADD49C,0.0407*%
%ADD48C,0.0886*%
%ADD47C,0.0250*%
%ADD46C,0.0486*%
%ADD45C,0.0098*%
%ADD44C,0.0001*%
G54D44*G36*
X289042Y204201D02*X295500D01*
Y11701D01*
X289042D01*
Y52219D01*
X290000Y51261D01*
Y58140D01*
X289042Y57182D01*
Y62219D01*
X289175Y62086D01*
X289522Y62652D01*
X289793Y63306D01*
X289958Y63995D01*
X290000Y64701D01*
X289958Y65407D01*
X289793Y66096D01*
X289522Y66750D01*
X289175Y67316D01*
X289042Y67182D01*
Y72219D01*
X289175Y72086D01*
X289522Y72652D01*
X289793Y73306D01*
X289958Y73995D01*
X290000Y74701D01*
X289958Y75407D01*
X289793Y76096D01*
X289522Y76750D01*
X289175Y77316D01*
X289042Y77182D01*
Y124802D01*
X289183Y124860D01*
X289384Y124984D01*
X289564Y125137D01*
X289717Y125316D01*
X289841Y125518D01*
X289931Y125736D01*
X289986Y125965D01*
X290000Y126201D01*
X289986Y132436D01*
X289931Y132666D01*
X289841Y132884D01*
X289717Y133085D01*
X289564Y133265D01*
X289384Y133418D01*
X289183Y133541D01*
X289042Y133600D01*
Y136419D01*
X289152Y136548D01*
X289522Y137152D01*
X289793Y137806D01*
X289958Y138495D01*
X290000Y139201D01*
X289958Y139907D01*
X289793Y140596D01*
X289522Y141250D01*
X289152Y141854D01*
X289042Y141982D01*
Y146419D01*
X289152Y146548D01*
X289522Y147152D01*
X289793Y147806D01*
X289958Y148495D01*
X290000Y149201D01*
X289958Y149907D01*
X289793Y150596D01*
X289522Y151250D01*
X289152Y151854D01*
X289042Y151982D01*
Y156419D01*
X289152Y156548D01*
X289522Y157152D01*
X289793Y157806D01*
X289958Y158495D01*
X290000Y159201D01*
X289958Y159907D01*
X289793Y160596D01*
X289522Y161250D01*
X289152Y161854D01*
X289042Y161982D01*
Y166719D01*
X289175Y166586D01*
X289522Y167152D01*
X289793Y167806D01*
X289958Y168495D01*
X290000Y169201D01*
X289958Y169907D01*
X289793Y170596D01*
X289522Y171250D01*
X289175Y171816D01*
X289042Y171682D01*
Y176719D01*
X289175Y176586D01*
X289522Y177152D01*
X289793Y177806D01*
X289958Y178495D01*
X290000Y179201D01*
X289958Y179907D01*
X289793Y180596D01*
X289522Y181250D01*
X289175Y181816D01*
X289042Y181682D01*
Y186719D01*
X289175Y186586D01*
X289522Y187152D01*
X289793Y187806D01*
X289958Y188495D01*
X290000Y189201D01*
X289958Y189907D01*
X289793Y190596D01*
X289522Y191250D01*
X289175Y191816D01*
X289042Y191682D01*
Y196719D01*
X289175Y196586D01*
X289522Y197152D01*
X289793Y197806D01*
X289958Y198495D01*
X290000Y199201D01*
X289958Y199907D01*
X289793Y200596D01*
X289522Y201250D01*
X289175Y201816D01*
X289042Y201682D01*
Y204201D01*
G37*
G36*
Y151982D02*X288692Y152393D01*
X288153Y152853D01*
X287549Y153223D01*
X286895Y153494D01*
X286206Y153659D01*
X285500Y153715D01*
Y154687D01*
X286206Y154742D01*
X286895Y154908D01*
X287549Y155179D01*
X288153Y155549D01*
X288692Y156009D01*
X289042Y156419D01*
Y151982D01*
G37*
G36*
Y141982D02*X288692Y142393D01*
X288153Y142853D01*
X287549Y143223D01*
X286895Y143494D01*
X286206Y143659D01*
X285500Y143715D01*
Y144687D01*
X286206Y144742D01*
X286895Y144908D01*
X287549Y145179D01*
X288153Y145549D01*
X288692Y146009D01*
X289042Y146419D01*
Y141982D01*
G37*
G36*
Y133600D02*X288965Y133632D01*
X288735Y133687D01*
X288500Y133701D01*
X285500Y133694D01*
Y134687D01*
X286206Y134742D01*
X286895Y134908D01*
X287549Y135179D01*
X288153Y135549D01*
X288692Y136009D01*
X289042Y136419D01*
Y133600D01*
G37*
G36*
Y11701D02*X285500D01*
Y50201D01*
X288939D01*
X287439Y51701D01*
X285500D01*
Y57701D01*
X287439D01*
X288939Y59201D01*
X285500D01*
Y60187D01*
X286206Y60242D01*
X286895Y60408D01*
X287549Y60679D01*
X288115Y61025D01*
X287024Y62116D01*
X286866Y62020D01*
X286430Y61839D01*
X285971Y61729D01*
X285500Y61692D01*
Y67710D01*
X285971Y67673D01*
X286430Y67563D01*
X286866Y67382D01*
X287024Y67285D01*
X288115Y68376D01*
X287549Y68723D01*
X286895Y68994D01*
X286206Y69159D01*
X285500Y69215D01*
Y70187D01*
X286206Y70242D01*
X286895Y70408D01*
X287549Y70679D01*
X288115Y71025D01*
X287024Y72116D01*
X286866Y72020D01*
X286430Y71839D01*
X285971Y71729D01*
X285500Y71692D01*
Y77710D01*
X285971Y77673D01*
X286430Y77563D01*
X286866Y77382D01*
X287024Y77285D01*
X288115Y78376D01*
X287549Y78723D01*
X286895Y78994D01*
X286206Y79159D01*
X285500Y79215D01*
Y124707D01*
X288735Y124715D01*
X288965Y124770D01*
X289042Y124802D01*
Y77182D01*
X288085Y76225D01*
X288181Y76067D01*
X288362Y75631D01*
X288472Y75172D01*
X288500Y74701D01*
X288472Y74230D01*
X288362Y73771D01*
X288181Y73335D01*
X288085Y73177D01*
X289042Y72219D01*
Y67182D01*
X288085Y66225D01*
X288181Y66067D01*
X288362Y65631D01*
X288472Y65172D01*
X288500Y64701D01*
X288472Y64230D01*
X288362Y63771D01*
X288181Y63335D01*
X288085Y63177D01*
X289042Y62219D01*
Y57182D01*
X288500Y56640D01*
Y52761D01*
X289042Y52219D01*
Y11701D01*
G37*
G36*
X285500Y204201D02*X289042D01*
Y201682D01*
X288085Y200725D01*
X288181Y200567D01*
X288362Y200131D01*
X288472Y199672D01*
X288500Y199201D01*
X288472Y198730D01*
X288362Y198271D01*
X288181Y197835D01*
X288085Y197677D01*
X289042Y196719D01*
Y191682D01*
X288085Y190725D01*
X288181Y190567D01*
X288362Y190131D01*
X288472Y189672D01*
X288500Y189201D01*
X288472Y188730D01*
X288362Y188271D01*
X288181Y187835D01*
X288085Y187677D01*
X289042Y186719D01*
Y181682D01*
X288085Y180725D01*
X288181Y180567D01*
X288362Y180131D01*
X288472Y179672D01*
X288500Y179201D01*
X288472Y178730D01*
X288362Y178271D01*
X288181Y177835D01*
X288085Y177677D01*
X289042Y176719D01*
Y171682D01*
X288085Y170725D01*
X288181Y170567D01*
X288362Y170131D01*
X288472Y169672D01*
X288500Y169201D01*
X288472Y168730D01*
X288362Y168271D01*
X288181Y167835D01*
X288085Y167677D01*
X289042Y166719D01*
Y161982D01*
X288692Y162393D01*
X288153Y162853D01*
X287549Y163223D01*
X286895Y163494D01*
X286206Y163659D01*
X285500Y163715D01*
Y164687D01*
X286206Y164742D01*
X286895Y164908D01*
X287549Y165179D01*
X288115Y165525D01*
X287024Y166616D01*
X286866Y166520D01*
X286430Y166339D01*
X285971Y166229D01*
X285500Y166192D01*
Y172210D01*
X285971Y172173D01*
X286430Y172063D01*
X286866Y171882D01*
X287024Y171785D01*
X288115Y172876D01*
X287549Y173223D01*
X286895Y173494D01*
X286206Y173659D01*
X285500Y173715D01*
Y174687D01*
X286206Y174742D01*
X286895Y174908D01*
X287549Y175179D01*
X288115Y175525D01*
X287024Y176616D01*
X286866Y176520D01*
X286430Y176339D01*
X285971Y176229D01*
X285500Y176192D01*
Y182210D01*
X285971Y182173D01*
X286430Y182063D01*
X286866Y181882D01*
X287024Y181785D01*
X288115Y182876D01*
X287549Y183223D01*
X286895Y183494D01*
X286206Y183659D01*
X285500Y183715D01*
Y184687D01*
X286206Y184742D01*
X286895Y184908D01*
X287549Y185179D01*
X288115Y185525D01*
X287024Y186616D01*
X286866Y186520D01*
X286430Y186339D01*
X285971Y186229D01*
X285500Y186192D01*
Y192210D01*
X285971Y192173D01*
X286430Y192063D01*
X286866Y191882D01*
X287024Y191785D01*
X288115Y192876D01*
X287549Y193223D01*
X286895Y193494D01*
X286206Y193659D01*
X285500Y193715D01*
Y194687D01*
X286206Y194742D01*
X286895Y194908D01*
X287549Y195179D01*
X288115Y195525D01*
X287024Y196616D01*
X286866Y196520D01*
X286430Y196339D01*
X285971Y196229D01*
X285500Y196192D01*
Y202210D01*
X285971Y202173D01*
X286430Y202063D01*
X286866Y201882D01*
X287024Y201785D01*
X288115Y202876D01*
X287549Y203223D01*
X286895Y203494D01*
X286206Y203659D01*
X285500Y203715D01*
Y204201D01*
G37*
G36*
Y153715D02*X284794Y153659D01*
X284105Y153494D01*
X283451Y153223D01*
X282847Y152853D01*
X282308Y152393D01*
X281951Y151974D01*
Y156428D01*
X282308Y156009D01*
X282847Y155549D01*
X283451Y155179D01*
X284105Y154908D01*
X284794Y154742D01*
X285500Y154687D01*
Y153715D01*
G37*
G36*
Y143715D02*X284794Y143659D01*
X284105Y143494D01*
X283451Y143223D01*
X282847Y142853D01*
X282308Y142393D01*
X281951Y141974D01*
Y146428D01*
X282308Y146009D01*
X282847Y145549D01*
X283451Y145179D01*
X284105Y144908D01*
X284794Y144742D01*
X285500Y144687D01*
Y143715D01*
G37*
G36*
Y133694D02*X282265Y133687D01*
X282035Y133632D01*
X281951Y133597D01*
Y136428D01*
X282308Y136009D01*
X282847Y135549D01*
X283451Y135179D01*
X284105Y134908D01*
X284794Y134742D01*
X285500Y134687D01*
Y133694D01*
G37*
G36*
Y11701D02*X281951D01*
Y52212D01*
X282500Y52761D01*
Y56640D01*
X281951Y57189D01*
Y62212D01*
X282915Y63177D01*
X282819Y63335D01*
X282638Y63771D01*
X282528Y64230D01*
X282491Y64701D01*
X282528Y65172D01*
X282638Y65631D01*
X282819Y66067D01*
X282915Y66225D01*
X281951Y67189D01*
Y72212D01*
X282915Y73177D01*
X282819Y73335D01*
X282638Y73771D01*
X282528Y74230D01*
X282491Y74701D01*
X282528Y75172D01*
X282638Y75631D01*
X282819Y76067D01*
X282915Y76225D01*
X281951Y77189D01*
Y124805D01*
X282035Y124770D01*
X282265Y124715D01*
X282500Y124701D01*
X285500Y124707D01*
Y79215D01*
X284794Y79159D01*
X284105Y78994D01*
X283451Y78723D01*
X282885Y78376D01*
X283976Y77285D01*
X284134Y77382D01*
X284570Y77563D01*
X285029Y77673D01*
X285500Y77710D01*
Y71692D01*
X285029Y71729D01*
X284570Y71839D01*
X284134Y72020D01*
X283976Y72116D01*
X282885Y71025D01*
X283451Y70679D01*
X284105Y70408D01*
X284794Y70242D01*
X285500Y70187D01*
Y69215D01*
X284794Y69159D01*
X284105Y68994D01*
X283451Y68723D01*
X282885Y68376D01*
X283976Y67285D01*
X284134Y67382D01*
X284570Y67563D01*
X285029Y67673D01*
X285500Y67710D01*
Y61692D01*
X285029Y61729D01*
X284570Y61839D01*
X284134Y62020D01*
X283976Y62116D01*
X282885Y61025D01*
X283451Y60679D01*
X284105Y60408D01*
X284794Y60242D01*
X285500Y60187D01*
Y59201D01*
X282061D01*
X283561Y57701D01*
X285500D01*
Y51701D01*
X283561D01*
X282061Y50201D01*
X285500D01*
Y11701D01*
G37*
G36*
X281951Y204201D02*X285500D01*
Y203715D01*
X284794Y203659D01*
X284105Y203494D01*
X283451Y203223D01*
X282885Y202876D01*
X283976Y201785D01*
X284134Y201882D01*
X284570Y202063D01*
X285029Y202173D01*
X285500Y202210D01*
Y196192D01*
X285029Y196229D01*
X284570Y196339D01*
X284134Y196520D01*
X283976Y196616D01*
X282885Y195525D01*
X283451Y195179D01*
X284105Y194908D01*
X284794Y194742D01*
X285500Y194687D01*
Y193715D01*
X284794Y193659D01*
X284105Y193494D01*
X283451Y193223D01*
X282885Y192876D01*
X283976Y191785D01*
X284134Y191882D01*
X284570Y192063D01*
X285029Y192173D01*
X285500Y192210D01*
Y186192D01*
X285029Y186229D01*
X284570Y186339D01*
X284134Y186520D01*
X283976Y186616D01*
X282885Y185525D01*
X283451Y185179D01*
X284105Y184908D01*
X284794Y184742D01*
X285500Y184687D01*
Y183715D01*
X284794Y183659D01*
X284105Y183494D01*
X283451Y183223D01*
X282885Y182876D01*
X283976Y181785D01*
X284134Y181882D01*
X284570Y182063D01*
X285029Y182173D01*
X285500Y182210D01*
Y176192D01*
X285029Y176229D01*
X284570Y176339D01*
X284134Y176520D01*
X283976Y176616D01*
X282885Y175525D01*
X283451Y175179D01*
X284105Y174908D01*
X284794Y174742D01*
X285500Y174687D01*
Y173715D01*
X284794Y173659D01*
X284105Y173494D01*
X283451Y173223D01*
X282885Y172876D01*
X283976Y171785D01*
X284134Y171882D01*
X284570Y172063D01*
X285029Y172173D01*
X285500Y172210D01*
Y166192D01*
X285029Y166229D01*
X284570Y166339D01*
X284134Y166520D01*
X283976Y166616D01*
X282885Y165525D01*
X283451Y165179D01*
X284105Y164908D01*
X284794Y164742D01*
X285500Y164687D01*
Y163715D01*
X284794Y163659D01*
X284105Y163494D01*
X283451Y163223D01*
X282847Y162853D01*
X282308Y162393D01*
X281951Y161974D01*
Y166712D01*
X282915Y167677D01*
X282819Y167835D01*
X282638Y168271D01*
X282528Y168730D01*
X282491Y169201D01*
X282528Y169672D01*
X282638Y170131D01*
X282819Y170567D01*
X282915Y170725D01*
X281951Y171689D01*
Y176712D01*
X282915Y177677D01*
X282819Y177835D01*
X282638Y178271D01*
X282528Y178730D01*
X282491Y179201D01*
X282528Y179672D01*
X282638Y180131D01*
X282819Y180567D01*
X282915Y180725D01*
X281951Y181689D01*
Y186712D01*
X282915Y187677D01*
X282819Y187835D01*
X282638Y188271D01*
X282528Y188730D01*
X282491Y189201D01*
X282528Y189672D01*
X282638Y190131D01*
X282819Y190567D01*
X282915Y190725D01*
X281951Y191689D01*
Y196712D01*
X282915Y197677D01*
X282819Y197835D01*
X282638Y198271D01*
X282528Y198730D01*
X282491Y199201D01*
X282528Y199672D01*
X282638Y200131D01*
X282819Y200567D01*
X282915Y200725D01*
X281951Y201689D01*
Y204201D01*
G37*
G36*
X280500D02*X281951D01*
Y201689D01*
X281825Y201816D01*
X281478Y201250D01*
X281207Y200596D01*
X281042Y199907D01*
X280986Y199201D01*
X281042Y198495D01*
X281207Y197806D01*
X281478Y197152D01*
X281825Y196586D01*
X281951Y196712D01*
Y191689D01*
X281825Y191816D01*
X281478Y191250D01*
X281207Y190596D01*
X281042Y189907D01*
X280986Y189201D01*
X281042Y188495D01*
X281207Y187806D01*
X281478Y187152D01*
X281825Y186586D01*
X281951Y186712D01*
Y181689D01*
X281825Y181816D01*
X281478Y181250D01*
X281207Y180596D01*
X281042Y179907D01*
X280986Y179201D01*
X281042Y178495D01*
X281207Y177806D01*
X281478Y177152D01*
X281825Y176586D01*
X281951Y176712D01*
Y171689D01*
X281825Y171816D01*
X281478Y171250D01*
X281207Y170596D01*
X281042Y169907D01*
X280986Y169201D01*
X281042Y168495D01*
X281207Y167806D01*
X281478Y167152D01*
X281825Y166586D01*
X281951Y166712D01*
Y161974D01*
X281848Y161854D01*
X281478Y161250D01*
X281207Y160596D01*
X281042Y159907D01*
X280986Y159201D01*
X281042Y158495D01*
X281207Y157806D01*
X281478Y157152D01*
X281848Y156548D01*
X281951Y156428D01*
Y151974D01*
X281848Y151854D01*
X281478Y151250D01*
X281207Y150596D01*
X281042Y149907D01*
X280986Y149201D01*
X281042Y148495D01*
X281207Y147806D01*
X281478Y147152D01*
X281848Y146548D01*
X281951Y146428D01*
Y141974D01*
X281848Y141854D01*
X281478Y141250D01*
X281207Y140596D01*
X281042Y139907D01*
X280986Y139201D01*
X281042Y138495D01*
X281207Y137806D01*
X281478Y137152D01*
X281848Y136548D01*
X281951Y136428D01*
Y133597D01*
X281817Y133541D01*
X281616Y133418D01*
X281436Y133265D01*
X281283Y133085D01*
X281159Y132884D01*
X281069Y132666D01*
X281014Y132436D01*
X281000Y132201D01*
X281014Y125965D01*
X281069Y125736D01*
X281159Y125518D01*
X281283Y125316D01*
X281436Y125137D01*
X281616Y124984D01*
X281817Y124860D01*
X281951Y124805D01*
Y77189D01*
X281825Y77316D01*
X281478Y76750D01*
X281207Y76096D01*
X281042Y75407D01*
X280986Y74701D01*
X281042Y73995D01*
X281207Y73306D01*
X281478Y72652D01*
X281825Y72086D01*
X281951Y72212D01*
Y67189D01*
X281825Y67316D01*
X281478Y66750D01*
X281207Y66096D01*
X281042Y65407D01*
X280986Y64701D01*
X281042Y63995D01*
X281207Y63306D01*
X281478Y62652D01*
X281825Y62086D01*
X281951Y62212D01*
Y57189D01*
X281000Y58140D01*
Y51261D01*
X281951Y52212D01*
Y11701D01*
X280500D01*
Y204201D01*
G37*
G36*
X263780Y243976D02*X295276D01*
Y208543D01*
X263780D01*
Y243976D01*
G37*
G36*
X100500Y47201D02*Y126701D01*
X107500D01*
Y47201D01*
X100500D01*
G37*
G36*
X95370Y127970D02*X95391Y128020D01*
X95539Y128262D01*
X95723Y128478D01*
X95939Y128662D01*
X96003Y128701D01*
X97997D01*
X98000Y128699D01*
Y125703D01*
X97820Y125592D01*
X97558Y125484D01*
X97500Y125470D01*
Y124441D01*
X97868Y124530D01*
X98000Y124584D01*
Y10701D01*
X95370D01*
Y124916D01*
X95725Y124698D01*
X96132Y124530D01*
X96500Y124441D01*
Y125470D01*
X96442Y125484D01*
X96180Y125592D01*
X95939Y125740D01*
X95723Y125924D01*
X95539Y126140D01*
X95391Y126381D01*
X95370Y126432D01*
Y127970D01*
G37*
G36*
X52599Y128701D02*X94635D01*
X94497Y128476D01*
X94329Y128069D01*
X94240Y127701D01*
X95269D01*
X95283Y127759D01*
X95370Y127970D01*
Y126432D01*
X95283Y126643D01*
X95269Y126701D01*
X94240D01*
X94329Y126333D01*
X94497Y125926D01*
X94728Y125550D01*
X95014Y125215D01*
X95349Y124929D01*
X95370Y124916D01*
Y10701D01*
X52599D01*
Y14016D01*
X52653Y14049D01*
X53192Y14509D01*
X53652Y15048D01*
X54022Y15652D01*
X54293Y16306D01*
X54448Y16951D01*
X52905D01*
X52862Y16771D01*
X52681Y16335D01*
X52599Y16200D01*
Y19201D01*
X52681Y19067D01*
X52862Y18631D01*
X52905Y18451D01*
X54448D01*
X54293Y19096D01*
X54022Y19750D01*
X53652Y20354D01*
X53192Y20893D01*
X52653Y21353D01*
X52599Y21386D01*
Y24016D01*
X52653Y24049D01*
X53192Y24509D01*
X53652Y25048D01*
X54022Y25652D01*
X54293Y26306D01*
X54448Y26951D01*
X52905D01*
X52862Y26771D01*
X52681Y26335D01*
X52599Y26200D01*
Y29201D01*
X52681Y29067D01*
X52862Y28631D01*
X52905Y28451D01*
X54448D01*
X54293Y29096D01*
X54022Y29750D01*
X53652Y30354D01*
X53192Y30893D01*
X52653Y31353D01*
X52599Y31386D01*
Y34016D01*
X52653Y34049D01*
X53192Y34509D01*
X53652Y35048D01*
X54022Y35652D01*
X54293Y36306D01*
X54448Y36951D01*
X52905D01*
X52862Y36771D01*
X52681Y36335D01*
X52599Y36200D01*
Y39201D01*
X52681Y39067D01*
X52862Y38631D01*
X52905Y38451D01*
X54448D01*
X54293Y39096D01*
X54022Y39750D01*
X53652Y40354D01*
X53192Y40893D01*
X52653Y41353D01*
X52599Y41386D01*
Y44016D01*
X52653Y44049D01*
X53192Y44509D01*
X53652Y45048D01*
X54022Y45652D01*
X54293Y46306D01*
X54448Y46951D01*
X52905D01*
X52862Y46771D01*
X52681Y46335D01*
X52599Y46200D01*
Y49201D01*
X52681Y49067D01*
X52862Y48631D01*
X52905Y48451D01*
X54448D01*
X54293Y49096D01*
X54022Y49750D01*
X53652Y50354D01*
X53192Y50893D01*
X52653Y51353D01*
X52599Y51386D01*
Y54016D01*
X52653Y54049D01*
X53192Y54509D01*
X53652Y55048D01*
X54022Y55652D01*
X54293Y56306D01*
X54448Y56951D01*
X52905D01*
X52862Y56771D01*
X52681Y56335D01*
X52599Y56200D01*
Y59201D01*
X52681Y59067D01*
X52862Y58631D01*
X52905Y58451D01*
X54448D01*
X54293Y59096D01*
X54022Y59750D01*
X53652Y60354D01*
X53192Y60893D01*
X52653Y61353D01*
X52599Y61386D01*
Y64016D01*
X52653Y64049D01*
X53192Y64509D01*
X53652Y65048D01*
X54022Y65652D01*
X54293Y66306D01*
X54448Y66951D01*
X52905D01*
X52862Y66771D01*
X52681Y66335D01*
X52599Y66200D01*
Y69201D01*
X52681Y69067D01*
X52862Y68631D01*
X52905Y68451D01*
X54448D01*
X54293Y69096D01*
X54022Y69750D01*
X53652Y70354D01*
X53192Y70893D01*
X52653Y71353D01*
X52599Y71386D01*
Y74016D01*
X52653Y74049D01*
X53192Y74509D01*
X53652Y75048D01*
X54022Y75652D01*
X54293Y76306D01*
X54448Y76951D01*
X52905D01*
X52862Y76771D01*
X52681Y76335D01*
X52599Y76200D01*
Y79201D01*
X52681Y79067D01*
X52862Y78631D01*
X52905Y78451D01*
X54448D01*
X54293Y79096D01*
X54022Y79750D01*
X53652Y80354D01*
X53192Y80893D01*
X52653Y81353D01*
X52599Y81386D01*
Y84016D01*
X52653Y84049D01*
X53192Y84509D01*
X53652Y85048D01*
X54022Y85652D01*
X54293Y86306D01*
X54448Y86951D01*
X52905D01*
X52862Y86771D01*
X52681Y86335D01*
X52599Y86200D01*
Y89201D01*
X52681Y89067D01*
X52862Y88631D01*
X52905Y88451D01*
X54448D01*
X54293Y89096D01*
X54022Y89750D01*
X53652Y90354D01*
X53192Y90893D01*
X52653Y91353D01*
X52599Y91386D01*
Y94016D01*
X52653Y94049D01*
X53192Y94509D01*
X53652Y95048D01*
X54022Y95652D01*
X54293Y96306D01*
X54448Y96951D01*
X52905D01*
X52862Y96771D01*
X52681Y96335D01*
X52599Y96200D01*
Y99201D01*
X52681Y99067D01*
X52862Y98631D01*
X52905Y98451D01*
X54448D01*
X54293Y99096D01*
X54022Y99750D01*
X53652Y100354D01*
X53192Y100893D01*
X52653Y101353D01*
X52599Y101386D01*
Y104016D01*
X52653Y104049D01*
X53192Y104509D01*
X53652Y105048D01*
X54022Y105652D01*
X54293Y106306D01*
X54448Y106951D01*
X52905D01*
X52862Y106771D01*
X52681Y106335D01*
X52599Y106200D01*
Y109201D01*
X52681Y109067D01*
X52862Y108631D01*
X52905Y108451D01*
X54448D01*
X54293Y109096D01*
X54022Y109750D01*
X53652Y110354D01*
X53192Y110893D01*
X52653Y111353D01*
X52599Y111386D01*
Y128701D01*
G37*
G36*
X47401D02*X52599D01*
Y111386D01*
X52049Y111723D01*
X51395Y111994D01*
X50750Y112149D01*
Y110606D01*
X50930Y110563D01*
X51366Y110382D01*
X51769Y110135D01*
X52128Y109829D01*
X52435Y109470D01*
X52599Y109201D01*
Y106200D01*
X52435Y105932D01*
X52128Y105573D01*
X51769Y105266D01*
X51366Y105020D01*
X50930Y104839D01*
X50750Y104796D01*
Y103253D01*
X51395Y103408D01*
X52049Y103679D01*
X52599Y104016D01*
Y101386D01*
X52049Y101723D01*
X51395Y101994D01*
X50750Y102149D01*
Y100606D01*
X50930Y100563D01*
X51366Y100382D01*
X51769Y100135D01*
X52128Y99829D01*
X52435Y99470D01*
X52599Y99201D01*
Y96200D01*
X52435Y95932D01*
X52128Y95573D01*
X51769Y95266D01*
X51366Y95020D01*
X50930Y94839D01*
X50750Y94796D01*
Y93253D01*
X51395Y93408D01*
X52049Y93679D01*
X52599Y94016D01*
Y91386D01*
X52049Y91723D01*
X51395Y91994D01*
X50750Y92149D01*
Y90606D01*
X50930Y90563D01*
X51366Y90382D01*
X51769Y90135D01*
X52128Y89829D01*
X52435Y89470D01*
X52599Y89201D01*
Y86200D01*
X52435Y85932D01*
X52128Y85573D01*
X51769Y85266D01*
X51366Y85020D01*
X50930Y84839D01*
X50750Y84796D01*
Y83253D01*
X51395Y83408D01*
X52049Y83679D01*
X52599Y84016D01*
Y81386D01*
X52049Y81723D01*
X51395Y81994D01*
X50750Y82149D01*
Y80606D01*
X50930Y80563D01*
X51366Y80382D01*
X51769Y80135D01*
X52128Y79829D01*
X52435Y79470D01*
X52599Y79201D01*
Y76200D01*
X52435Y75932D01*
X52128Y75573D01*
X51769Y75266D01*
X51366Y75020D01*
X50930Y74839D01*
X50750Y74796D01*
Y73253D01*
X51395Y73408D01*
X52049Y73679D01*
X52599Y74016D01*
Y71386D01*
X52049Y71723D01*
X51395Y71994D01*
X50750Y72149D01*
Y70606D01*
X50930Y70563D01*
X51366Y70382D01*
X51769Y70135D01*
X52128Y69829D01*
X52435Y69470D01*
X52599Y69201D01*
Y66200D01*
X52435Y65932D01*
X52128Y65573D01*
X51769Y65266D01*
X51366Y65020D01*
X50930Y64839D01*
X50750Y64796D01*
Y63253D01*
X51395Y63408D01*
X52049Y63679D01*
X52599Y64016D01*
Y61386D01*
X52049Y61723D01*
X51395Y61994D01*
X50750Y62149D01*
Y60606D01*
X50930Y60563D01*
X51366Y60382D01*
X51769Y60135D01*
X52128Y59829D01*
X52435Y59470D01*
X52599Y59201D01*
Y56200D01*
X52435Y55932D01*
X52128Y55573D01*
X51769Y55266D01*
X51366Y55020D01*
X50930Y54839D01*
X50750Y54796D01*
Y53253D01*
X51395Y53408D01*
X52049Y53679D01*
X52599Y54016D01*
Y51386D01*
X52049Y51723D01*
X51395Y51994D01*
X50750Y52149D01*
Y50606D01*
X50930Y50563D01*
X51366Y50382D01*
X51769Y50135D01*
X52128Y49829D01*
X52435Y49470D01*
X52599Y49201D01*
Y46200D01*
X52435Y45932D01*
X52128Y45573D01*
X51769Y45266D01*
X51366Y45020D01*
X50930Y44839D01*
X50750Y44796D01*
Y43253D01*
X51395Y43408D01*
X52049Y43679D01*
X52599Y44016D01*
Y41386D01*
X52049Y41723D01*
X51395Y41994D01*
X50750Y42149D01*
Y40606D01*
X50930Y40563D01*
X51366Y40382D01*
X51769Y40135D01*
X52128Y39829D01*
X52435Y39470D01*
X52599Y39201D01*
Y36200D01*
X52435Y35932D01*
X52128Y35573D01*
X51769Y35266D01*
X51366Y35020D01*
X50930Y34839D01*
X50750Y34796D01*
Y33253D01*
X51395Y33408D01*
X52049Y33679D01*
X52599Y34016D01*
Y31386D01*
X52049Y31723D01*
X51395Y31994D01*
X50750Y32149D01*
Y30606D01*
X50930Y30563D01*
X51366Y30382D01*
X51769Y30135D01*
X52128Y29829D01*
X52435Y29470D01*
X52599Y29201D01*
Y26200D01*
X52435Y25932D01*
X52128Y25573D01*
X51769Y25266D01*
X51366Y25020D01*
X50930Y24839D01*
X50750Y24796D01*
Y23253D01*
X51395Y23408D01*
X52049Y23679D01*
X52599Y24016D01*
Y21386D01*
X52049Y21723D01*
X51395Y21994D01*
X50750Y22149D01*
Y20606D01*
X50930Y20563D01*
X51366Y20382D01*
X51769Y20135D01*
X52128Y19829D01*
X52435Y19470D01*
X52599Y19201D01*
Y16200D01*
X52435Y15932D01*
X52128Y15573D01*
X51769Y15266D01*
X51366Y15020D01*
X50930Y14839D01*
X50750Y14796D01*
Y13253D01*
X51395Y13408D01*
X52049Y13679D01*
X52599Y14016D01*
Y10701D01*
X47401D01*
Y14016D01*
X47951Y13679D01*
X48605Y13408D01*
X49250Y13253D01*
Y14796D01*
X49070Y14839D01*
X48634Y15020D01*
X48231Y15266D01*
X47872Y15573D01*
X47565Y15932D01*
X47401Y16200D01*
Y19201D01*
X47565Y19470D01*
X47872Y19829D01*
X48231Y20135D01*
X48634Y20382D01*
X49070Y20563D01*
X49250Y20606D01*
Y22149D01*
X48605Y21994D01*
X47951Y21723D01*
X47401Y21386D01*
Y24016D01*
X47951Y23679D01*
X48605Y23408D01*
X49250Y23253D01*
Y24796D01*
X49070Y24839D01*
X48634Y25020D01*
X48231Y25266D01*
X47872Y25573D01*
X47565Y25932D01*
X47401Y26200D01*
Y29201D01*
X47565Y29470D01*
X47872Y29829D01*
X48231Y30135D01*
X48634Y30382D01*
X49070Y30563D01*
X49250Y30606D01*
Y32149D01*
X48605Y31994D01*
X47951Y31723D01*
X47401Y31386D01*
Y34016D01*
X47951Y33679D01*
X48605Y33408D01*
X49250Y33253D01*
Y34796D01*
X49070Y34839D01*
X48634Y35020D01*
X48231Y35266D01*
X47872Y35573D01*
X47565Y35932D01*
X47401Y36200D01*
Y39201D01*
X47565Y39470D01*
X47872Y39829D01*
X48231Y40135D01*
X48634Y40382D01*
X49070Y40563D01*
X49250Y40606D01*
Y42149D01*
X48605Y41994D01*
X47951Y41723D01*
X47401Y41386D01*
Y44016D01*
X47951Y43679D01*
X48605Y43408D01*
X49250Y43253D01*
Y44796D01*
X49070Y44839D01*
X48634Y45020D01*
X48231Y45266D01*
X47872Y45573D01*
X47565Y45932D01*
X47401Y46200D01*
Y49201D01*
X47565Y49470D01*
X47872Y49829D01*
X48231Y50135D01*
X48634Y50382D01*
X49070Y50563D01*
X49250Y50606D01*
Y52149D01*
X48605Y51994D01*
X47951Y51723D01*
X47401Y51386D01*
Y54016D01*
X47951Y53679D01*
X48605Y53408D01*
X49250Y53253D01*
Y54796D01*
X49070Y54839D01*
X48634Y55020D01*
X48231Y55266D01*
X47872Y55573D01*
X47565Y55932D01*
X47401Y56200D01*
Y59201D01*
X47565Y59470D01*
X47872Y59829D01*
X48231Y60135D01*
X48634Y60382D01*
X49070Y60563D01*
X49250Y60606D01*
Y62149D01*
X48605Y61994D01*
X47951Y61723D01*
X47401Y61386D01*
Y64016D01*
X47951Y63679D01*
X48605Y63408D01*
X49250Y63253D01*
Y64796D01*
X49070Y64839D01*
X48634Y65020D01*
X48231Y65266D01*
X47872Y65573D01*
X47565Y65932D01*
X47401Y66200D01*
Y69201D01*
X47565Y69470D01*
X47872Y69829D01*
X48231Y70135D01*
X48634Y70382D01*
X49070Y70563D01*
X49250Y70606D01*
Y72149D01*
X48605Y71994D01*
X47951Y71723D01*
X47401Y71386D01*
Y74016D01*
X47951Y73679D01*
X48605Y73408D01*
X49250Y73253D01*
Y74796D01*
X49070Y74839D01*
X48634Y75020D01*
X48231Y75266D01*
X47872Y75573D01*
X47565Y75932D01*
X47401Y76200D01*
Y79201D01*
X47565Y79470D01*
X47872Y79829D01*
X48231Y80135D01*
X48634Y80382D01*
X49070Y80563D01*
X49250Y80606D01*
Y82149D01*
X48605Y81994D01*
X47951Y81723D01*
X47401Y81386D01*
Y84016D01*
X47951Y83679D01*
X48605Y83408D01*
X49250Y83253D01*
Y84796D01*
X49070Y84839D01*
X48634Y85020D01*
X48231Y85266D01*
X47872Y85573D01*
X47565Y85932D01*
X47401Y86200D01*
Y89201D01*
X47565Y89470D01*
X47872Y89829D01*
X48231Y90135D01*
X48634Y90382D01*
X49070Y90563D01*
X49250Y90606D01*
Y92149D01*
X48605Y91994D01*
X47951Y91723D01*
X47401Y91386D01*
Y94016D01*
X47951Y93679D01*
X48605Y93408D01*
X49250Y93253D01*
Y94796D01*
X49070Y94839D01*
X48634Y95020D01*
X48231Y95266D01*
X47872Y95573D01*
X47565Y95932D01*
X47401Y96200D01*
Y99201D01*
X47565Y99470D01*
X47872Y99829D01*
X48231Y100135D01*
X48634Y100382D01*
X49070Y100563D01*
X49250Y100606D01*
Y102149D01*
X48605Y101994D01*
X47951Y101723D01*
X47401Y101386D01*
Y104016D01*
X47951Y103679D01*
X48605Y103408D01*
X49250Y103253D01*
Y104796D01*
X49070Y104839D01*
X48634Y105020D01*
X48231Y105266D01*
X47872Y105573D01*
X47565Y105932D01*
X47401Y106200D01*
Y109201D01*
X47565Y109470D01*
X47872Y109829D01*
X48231Y110135D01*
X48634Y110382D01*
X49070Y110563D01*
X49250Y110606D01*
Y112149D01*
X48605Y111994D01*
X47951Y111723D01*
X47401Y111386D01*
Y128701D01*
G37*
G36*
X40000D02*X47401D01*
Y111386D01*
X47347Y111353D01*
X46808Y110893D01*
X46348Y110354D01*
X45978Y109750D01*
X45707Y109096D01*
X45552Y108451D01*
X47095D01*
X47138Y108631D01*
X47319Y109067D01*
X47401Y109201D01*
Y106200D01*
X47319Y106335D01*
X47138Y106771D01*
X47095Y106951D01*
X45552D01*
X45707Y106306D01*
X45978Y105652D01*
X46348Y105048D01*
X46808Y104509D01*
X47347Y104049D01*
X47401Y104016D01*
Y101386D01*
X47347Y101353D01*
X46808Y100893D01*
X46348Y100354D01*
X45978Y99750D01*
X45707Y99096D01*
X45552Y98451D01*
X47095D01*
X47138Y98631D01*
X47319Y99067D01*
X47401Y99201D01*
Y96200D01*
X47319Y96335D01*
X47138Y96771D01*
X47095Y96951D01*
X45552D01*
X45707Y96306D01*
X45978Y95652D01*
X46348Y95048D01*
X46808Y94509D01*
X47347Y94049D01*
X47401Y94016D01*
Y91386D01*
X47347Y91353D01*
X46808Y90893D01*
X46348Y90354D01*
X45978Y89750D01*
X45707Y89096D01*
X45552Y88451D01*
X47095D01*
X47138Y88631D01*
X47319Y89067D01*
X47401Y89201D01*
Y86200D01*
X47319Y86335D01*
X47138Y86771D01*
X47095Y86951D01*
X45552D01*
X45707Y86306D01*
X45978Y85652D01*
X46348Y85048D01*
X46808Y84509D01*
X47347Y84049D01*
X47401Y84016D01*
Y81386D01*
X47347Y81353D01*
X46808Y80893D01*
X46348Y80354D01*
X45978Y79750D01*
X45707Y79096D01*
X45552Y78451D01*
X47095D01*
X47138Y78631D01*
X47319Y79067D01*
X47401Y79201D01*
Y76200D01*
X47319Y76335D01*
X47138Y76771D01*
X47095Y76951D01*
X45552D01*
X45707Y76306D01*
X45978Y75652D01*
X46348Y75048D01*
X46808Y74509D01*
X47347Y74049D01*
X47401Y74016D01*
Y71386D01*
X47347Y71353D01*
X46808Y70893D01*
X46348Y70354D01*
X45978Y69750D01*
X45707Y69096D01*
X45552Y68451D01*
X47095D01*
X47138Y68631D01*
X47319Y69067D01*
X47401Y69201D01*
Y66200D01*
X47319Y66335D01*
X47138Y66771D01*
X47095Y66951D01*
X45552D01*
X45707Y66306D01*
X45978Y65652D01*
X46348Y65048D01*
X46808Y64509D01*
X47347Y64049D01*
X47401Y64016D01*
Y61386D01*
X47347Y61353D01*
X46808Y60893D01*
X46348Y60354D01*
X45978Y59750D01*
X45707Y59096D01*
X45552Y58451D01*
X47095D01*
X47138Y58631D01*
X47319Y59067D01*
X47401Y59201D01*
Y56200D01*
X47319Y56335D01*
X47138Y56771D01*
X47095Y56951D01*
X45552D01*
X45707Y56306D01*
X45978Y55652D01*
X46348Y55048D01*
X46808Y54509D01*
X47347Y54049D01*
X47401Y54016D01*
Y51386D01*
X47347Y51353D01*
X46808Y50893D01*
X46348Y50354D01*
X45978Y49750D01*
X45707Y49096D01*
X45552Y48451D01*
X47095D01*
X47138Y48631D01*
X47319Y49067D01*
X47401Y49201D01*
Y46200D01*
X47319Y46335D01*
X47138Y46771D01*
X47095Y46951D01*
X45552D01*
X45707Y46306D01*
X45978Y45652D01*
X46348Y45048D01*
X46808Y44509D01*
X47347Y44049D01*
X47401Y44016D01*
Y41386D01*
X47347Y41353D01*
X46808Y40893D01*
X46348Y40354D01*
X45978Y39750D01*
X45707Y39096D01*
X45552Y38451D01*
X47095D01*
X47138Y38631D01*
X47319Y39067D01*
X47401Y39201D01*
Y36200D01*
X47319Y36335D01*
X47138Y36771D01*
X47095Y36951D01*
X45552D01*
X45707Y36306D01*
X45978Y35652D01*
X46348Y35048D01*
X46808Y34509D01*
X47347Y34049D01*
X47401Y34016D01*
Y31386D01*
X47347Y31353D01*
X46808Y30893D01*
X46348Y30354D01*
X45978Y29750D01*
X45707Y29096D01*
X45552Y28451D01*
X47095D01*
X47138Y28631D01*
X47319Y29067D01*
X47401Y29201D01*
Y26200D01*
X47319Y26335D01*
X47138Y26771D01*
X47095Y26951D01*
X45552D01*
X45707Y26306D01*
X45978Y25652D01*
X46348Y25048D01*
X46808Y24509D01*
X47347Y24049D01*
X47401Y24016D01*
Y21386D01*
X47347Y21353D01*
X46808Y20893D01*
X46348Y20354D01*
X45978Y19750D01*
X45707Y19096D01*
X45552Y18451D01*
X47095D01*
X47138Y18631D01*
X47319Y19067D01*
X47401Y19201D01*
Y16200D01*
X47319Y16335D01*
X47138Y16771D01*
X47095Y16951D01*
X45552D01*
X45707Y16306D01*
X45978Y15652D01*
X46348Y15048D01*
X46808Y14509D01*
X47347Y14049D01*
X47401Y14016D01*
Y10701D01*
X44487D01*
X44486Y10936D01*
X44431Y11166D01*
X44341Y11384D01*
X44217Y11585D01*
X44064Y11765D01*
X43884Y11918D01*
X43683Y12041D01*
X43465Y12132D01*
X43235Y12187D01*
X43000Y12201D01*
X40000Y12194D01*
Y13207D01*
X43235Y13215D01*
X43465Y13270D01*
X43683Y13360D01*
X43884Y13484D01*
X44064Y13637D01*
X44217Y13816D01*
X44341Y14018D01*
X44431Y14236D01*
X44486Y14465D01*
X44500Y14701D01*
X44486Y20936D01*
X44431Y21166D01*
X44341Y21384D01*
X44217Y21585D01*
X44064Y21765D01*
X43884Y21918D01*
X43683Y22041D01*
X43465Y22132D01*
X43235Y22187D01*
X43000Y22201D01*
X40000Y22194D01*
Y23207D01*
X43235Y23215D01*
X43465Y23270D01*
X43683Y23360D01*
X43884Y23484D01*
X44064Y23637D01*
X44217Y23816D01*
X44341Y24018D01*
X44431Y24236D01*
X44486Y24465D01*
X44500Y24701D01*
X44486Y30936D01*
X44431Y31166D01*
X44341Y31384D01*
X44217Y31585D01*
X44064Y31765D01*
X43884Y31918D01*
X43683Y32041D01*
X43465Y32132D01*
X43235Y32187D01*
X43000Y32201D01*
X40000Y32194D01*
Y33207D01*
X43235Y33215D01*
X43465Y33270D01*
X43683Y33360D01*
X43884Y33484D01*
X44064Y33637D01*
X44217Y33816D01*
X44341Y34018D01*
X44431Y34236D01*
X44486Y34465D01*
X44500Y34701D01*
X44486Y40936D01*
X44431Y41166D01*
X44341Y41384D01*
X44217Y41585D01*
X44064Y41765D01*
X43884Y41918D01*
X43683Y42041D01*
X43465Y42132D01*
X43235Y42187D01*
X43000Y42201D01*
X40000Y42194D01*
Y43207D01*
X43235Y43215D01*
X43465Y43270D01*
X43683Y43360D01*
X43884Y43484D01*
X44064Y43637D01*
X44217Y43816D01*
X44341Y44018D01*
X44431Y44236D01*
X44486Y44465D01*
X44500Y44701D01*
X44486Y50936D01*
X44431Y51166D01*
X44341Y51384D01*
X44217Y51585D01*
X44064Y51765D01*
X43884Y51918D01*
X43683Y52041D01*
X43465Y52132D01*
X43235Y52187D01*
X43000Y52201D01*
X40000Y52194D01*
Y53207D01*
X43235Y53215D01*
X43465Y53270D01*
X43683Y53360D01*
X43884Y53484D01*
X44064Y53637D01*
X44217Y53816D01*
X44341Y54018D01*
X44431Y54236D01*
X44486Y54465D01*
X44500Y54701D01*
X44486Y60936D01*
X44431Y61166D01*
X44341Y61384D01*
X44217Y61585D01*
X44064Y61765D01*
X43884Y61918D01*
X43683Y62041D01*
X43465Y62132D01*
X43235Y62187D01*
X43000Y62201D01*
X40000Y62194D01*
Y63207D01*
X43235Y63215D01*
X43465Y63270D01*
X43683Y63360D01*
X43884Y63484D01*
X44064Y63637D01*
X44217Y63816D01*
X44341Y64018D01*
X44431Y64236D01*
X44486Y64465D01*
X44500Y64701D01*
X44486Y70936D01*
X44431Y71166D01*
X44341Y71384D01*
X44217Y71585D01*
X44064Y71765D01*
X43884Y71918D01*
X43683Y72041D01*
X43465Y72132D01*
X43235Y72187D01*
X43000Y72201D01*
X40000Y72194D01*
Y73207D01*
X43235Y73215D01*
X43465Y73270D01*
X43683Y73360D01*
X43884Y73484D01*
X44064Y73637D01*
X44217Y73816D01*
X44341Y74018D01*
X44431Y74236D01*
X44486Y74465D01*
X44500Y74701D01*
X44486Y80936D01*
X44431Y81166D01*
X44341Y81384D01*
X44217Y81585D01*
X44064Y81765D01*
X43884Y81918D01*
X43683Y82041D01*
X43465Y82132D01*
X43235Y82187D01*
X43000Y82201D01*
X40000Y82194D01*
Y83207D01*
X43235Y83215D01*
X43465Y83270D01*
X43683Y83360D01*
X43884Y83484D01*
X44064Y83637D01*
X44217Y83816D01*
X44341Y84018D01*
X44431Y84236D01*
X44486Y84465D01*
X44500Y84701D01*
X44486Y90936D01*
X44431Y91166D01*
X44341Y91384D01*
X44217Y91585D01*
X44064Y91765D01*
X43884Y91918D01*
X43683Y92041D01*
X43465Y92132D01*
X43235Y92187D01*
X43000Y92201D01*
X40000Y92194D01*
Y93207D01*
X43235Y93215D01*
X43465Y93270D01*
X43683Y93360D01*
X43884Y93484D01*
X44064Y93637D01*
X44217Y93816D01*
X44341Y94018D01*
X44431Y94236D01*
X44486Y94465D01*
X44500Y94701D01*
X44486Y100936D01*
X44431Y101166D01*
X44341Y101384D01*
X44217Y101585D01*
X44064Y101765D01*
X43884Y101918D01*
X43683Y102041D01*
X43465Y102132D01*
X43235Y102187D01*
X43000Y102201D01*
X40000Y102194D01*
Y103207D01*
X43235Y103215D01*
X43465Y103270D01*
X43683Y103360D01*
X43884Y103484D01*
X44064Y103637D01*
X44217Y103816D01*
X44341Y104018D01*
X44431Y104236D01*
X44486Y104465D01*
X44500Y104701D01*
X44486Y110936D01*
X44431Y111166D01*
X44341Y111384D01*
X44217Y111585D01*
X44064Y111765D01*
X43884Y111918D01*
X43683Y112041D01*
X43465Y112132D01*
X43235Y112187D01*
X43000Y112201D01*
X40000Y112194D01*
Y128701D01*
G37*
G36*
X26500D02*X40000D01*
Y112194D01*
X36765Y112187D01*
X36535Y112132D01*
X36317Y112041D01*
X36116Y111918D01*
X35936Y111765D01*
X35783Y111585D01*
X35659Y111384D01*
X35569Y111166D01*
X35514Y110936D01*
X35500Y110701D01*
X35514Y104465D01*
X35569Y104236D01*
X35659Y104018D01*
X35783Y103816D01*
X35936Y103637D01*
X36116Y103484D01*
X36317Y103360D01*
X36535Y103270D01*
X36765Y103215D01*
X37000Y103201D01*
X40000Y103207D01*
Y102194D01*
X36765Y102187D01*
X36535Y102132D01*
X36317Y102041D01*
X36116Y101918D01*
X35936Y101765D01*
X35783Y101585D01*
X35659Y101384D01*
X35569Y101166D01*
X35514Y100936D01*
X35500Y100701D01*
X35514Y94465D01*
X35569Y94236D01*
X35659Y94018D01*
X35783Y93816D01*
X35936Y93637D01*
X36116Y93484D01*
X36317Y93360D01*
X36535Y93270D01*
X36765Y93215D01*
X37000Y93201D01*
X40000Y93207D01*
Y92194D01*
X36765Y92187D01*
X36535Y92132D01*
X36317Y92041D01*
X36116Y91918D01*
X35936Y91765D01*
X35783Y91585D01*
X35659Y91384D01*
X35569Y91166D01*
X35514Y90936D01*
X35500Y90701D01*
X35514Y84465D01*
X35569Y84236D01*
X35659Y84018D01*
X35783Y83816D01*
X35936Y83637D01*
X36116Y83484D01*
X36317Y83360D01*
X36535Y83270D01*
X36765Y83215D01*
X37000Y83201D01*
X40000Y83207D01*
Y82194D01*
X36765Y82187D01*
X36535Y82132D01*
X36317Y82041D01*
X36116Y81918D01*
X35936Y81765D01*
X35783Y81585D01*
X35659Y81384D01*
X35569Y81166D01*
X35514Y80936D01*
X35500Y80701D01*
X35514Y74465D01*
X35569Y74236D01*
X35659Y74018D01*
X35783Y73816D01*
X35936Y73637D01*
X36116Y73484D01*
X36317Y73360D01*
X36535Y73270D01*
X36765Y73215D01*
X37000Y73201D01*
X40000Y73207D01*
Y72194D01*
X36765Y72187D01*
X36535Y72132D01*
X36317Y72041D01*
X36116Y71918D01*
X35936Y71765D01*
X35783Y71585D01*
X35659Y71384D01*
X35569Y71166D01*
X35514Y70936D01*
X35500Y70701D01*
X35514Y64465D01*
X35569Y64236D01*
X35659Y64018D01*
X35783Y63816D01*
X35936Y63637D01*
X36116Y63484D01*
X36317Y63360D01*
X36535Y63270D01*
X36765Y63215D01*
X37000Y63201D01*
X40000Y63207D01*
Y62194D01*
X36765Y62187D01*
X36535Y62132D01*
X36317Y62041D01*
X36116Y61918D01*
X35936Y61765D01*
X35783Y61585D01*
X35659Y61384D01*
X35569Y61166D01*
X35514Y60936D01*
X35500Y60701D01*
X35514Y54465D01*
X35569Y54236D01*
X35659Y54018D01*
X35783Y53816D01*
X35936Y53637D01*
X36116Y53484D01*
X36317Y53360D01*
X36535Y53270D01*
X36765Y53215D01*
X37000Y53201D01*
X40000Y53207D01*
Y52194D01*
X36765Y52187D01*
X36535Y52132D01*
X36317Y52041D01*
X36116Y51918D01*
X35936Y51765D01*
X35783Y51585D01*
X35659Y51384D01*
X35569Y51166D01*
X35514Y50936D01*
X35500Y50701D01*
X35514Y44465D01*
X35569Y44236D01*
X35659Y44018D01*
X35783Y43816D01*
X35936Y43637D01*
X36116Y43484D01*
X36317Y43360D01*
X36535Y43270D01*
X36765Y43215D01*
X37000Y43201D01*
X40000Y43207D01*
Y42194D01*
X36765Y42187D01*
X36535Y42132D01*
X36317Y42041D01*
X36116Y41918D01*
X35936Y41765D01*
X35783Y41585D01*
X35659Y41384D01*
X35569Y41166D01*
X35514Y40936D01*
X35500Y40701D01*
X35514Y34465D01*
X35569Y34236D01*
X35659Y34018D01*
X35783Y33816D01*
X35936Y33637D01*
X36116Y33484D01*
X36317Y33360D01*
X36535Y33270D01*
X36765Y33215D01*
X37000Y33201D01*
X40000Y33207D01*
Y32194D01*
X36765Y32187D01*
X36535Y32132D01*
X36317Y32041D01*
X36116Y31918D01*
X35936Y31765D01*
X35783Y31585D01*
X35659Y31384D01*
X35569Y31166D01*
X35514Y30936D01*
X35500Y30701D01*
X35514Y24465D01*
X35569Y24236D01*
X35659Y24018D01*
X35783Y23816D01*
X35936Y23637D01*
X36116Y23484D01*
X36317Y23360D01*
X36535Y23270D01*
X36765Y23215D01*
X37000Y23201D01*
X40000Y23207D01*
Y22194D01*
X36765Y22187D01*
X36535Y22132D01*
X36317Y22041D01*
X36116Y21918D01*
X35936Y21765D01*
X35783Y21585D01*
X35659Y21384D01*
X35569Y21166D01*
X35514Y20936D01*
X35500Y20701D01*
X35514Y14465D01*
X35569Y14236D01*
X35659Y14018D01*
X35783Y13816D01*
X35936Y13637D01*
X36116Y13484D01*
X36317Y13360D01*
X36535Y13270D01*
X36765Y13215D01*
X37000Y13201D01*
X40000Y13207D01*
Y12194D01*
X36765Y12187D01*
X36535Y12132D01*
X36317Y12041D01*
X36116Y11918D01*
X35936Y11765D01*
X35783Y11585D01*
X35659Y11384D01*
X35569Y11166D01*
X35514Y10936D01*
X35500Y10701D01*
X26500D01*
Y128701D01*
G37*
G36*
X109500D02*X117500D01*
Y118201D01*
X132500D01*
Y85701D01*
X120000Y73201D01*
Y26701D01*
X96000D01*
Y44701D01*
X109500D01*
Y128701D01*
G37*
G36*
X107500Y150201D02*X116144Y150110D01*
X115846Y149855D01*
X115535Y149492D01*
X115285Y149084D01*
X115102Y148642D01*
X114991Y148177D01*
X114953Y147701D01*
X114991Y147224D01*
X115102Y146759D01*
X115285Y146318D01*
X115535Y145910D01*
X115846Y145546D01*
X116209Y145236D01*
X116617Y144986D01*
X117058Y144803D01*
X117523Y144692D01*
X118000Y144663D01*
X143463D01*
Y117701D01*
X141992D01*
Y119142D01*
X141997Y119201D01*
X141978Y119435D01*
X141923Y119663D01*
X141834Y119880D01*
X141711Y120081D01*
X141558Y120259D01*
X141514Y120297D01*
X125096Y136715D01*
X125058Y136759D01*
X124880Y136912D01*
X124680Y137034D01*
X124463Y137124D01*
X124234Y137179D01*
X124000Y137198D01*
X123942Y137193D01*
X115118D01*
X107500Y144811D01*
Y150201D01*
G37*
G36*
X101500Y153701D02*X117500D01*
Y150704D01*
X117058Y150598D01*
X116617Y150415D01*
X116209Y150166D01*
X115846Y149855D01*
X115535Y149492D01*
X115285Y149084D01*
X115102Y148642D01*
X114991Y148177D01*
X114953Y147701D01*
X114991Y147224D01*
X115102Y146759D01*
X115285Y146318D01*
X115535Y145910D01*
X115846Y145546D01*
X116209Y145236D01*
X116617Y144986D01*
X117058Y144803D01*
X117485Y144701D01*
X107610D01*
X101500Y150811D01*
Y153701D01*
G37*
G36*
X271750Y124901D02*X271817Y124860D01*
X272035Y124770D01*
X272265Y124715D01*
X272500Y124701D01*
X274500Y124705D01*
Y79089D01*
X274105Y78994D01*
X273451Y78723D01*
X272885Y78376D01*
X273976Y77285D01*
X274134Y77382D01*
X274500Y77534D01*
Y71868D01*
X274134Y72020D01*
X273976Y72116D01*
X272885Y71025D01*
X273451Y70679D01*
X274105Y70408D01*
X274500Y70313D01*
Y69089D01*
X274105Y68994D01*
X273451Y68723D01*
X272885Y68376D01*
X273976Y67285D01*
X274134Y67382D01*
X274500Y67534D01*
Y61868D01*
X274134Y62020D01*
X273976Y62116D01*
X272885Y61025D01*
X273451Y60679D01*
X274105Y60408D01*
X274500Y60313D01*
Y59201D01*
X272061D01*
X273561Y57701D01*
X274500D01*
Y51701D01*
X273561D01*
X272061Y50201D01*
X274500D01*
Y2201D01*
X271750D01*
Y52011D01*
X272500Y52761D01*
Y56640D01*
X271750Y57390D01*
Y62208D01*
X271825Y62086D01*
X272915Y63177D01*
X272819Y63335D01*
X272638Y63771D01*
X272528Y64230D01*
X272491Y64701D01*
X272528Y65172D01*
X272638Y65631D01*
X272819Y66067D01*
X272915Y66225D01*
X271825Y67316D01*
X271750Y67194D01*
Y72208D01*
X271825Y72086D01*
X272915Y73177D01*
X272819Y73335D01*
X272638Y73771D01*
X272528Y74230D01*
X272491Y74701D01*
X272528Y75172D01*
X272638Y75631D01*
X272819Y76067D01*
X272915Y76225D01*
X271825Y77316D01*
X271750Y77194D01*
Y124901D01*
G37*
G36*
Y136708D02*X271848Y136548D01*
X272308Y136009D01*
X272847Y135549D01*
X273451Y135179D01*
X274105Y134908D01*
X274500Y134813D01*
Y133692D01*
X272265Y133687D01*
X272035Y133632D01*
X271817Y133541D01*
X271750Y133500D01*
Y136708D01*
G37*
G36*
Y146708D02*X271848Y146548D01*
X272308Y146009D01*
X272847Y145549D01*
X273451Y145179D01*
X274105Y144908D01*
X274500Y144813D01*
Y143589D01*
X274105Y143494D01*
X273451Y143223D01*
X272847Y142853D01*
X272308Y142393D01*
X271848Y141854D01*
X271750Y141694D01*
Y146708D01*
G37*
G36*
Y156708D02*X271848Y156548D01*
X272308Y156009D01*
X272847Y155549D01*
X273451Y155179D01*
X274105Y154908D01*
X274500Y154813D01*
Y153589D01*
X274105Y153494D01*
X273451Y153223D01*
X272847Y152853D01*
X272308Y152393D01*
X271848Y151854D01*
X271750Y151694D01*
Y156708D01*
G37*
G36*
Y166708D02*X271848Y166548D01*
X272308Y166009D01*
X272847Y165549D01*
X273451Y165179D01*
X274105Y164908D01*
X274500Y164813D01*
Y163589D01*
X274105Y163494D01*
X273451Y163223D01*
X272847Y162853D01*
X272308Y162393D01*
X271848Y161854D01*
X271750Y161694D01*
Y166708D01*
G37*
G36*
Y176708D02*X271848Y176548D01*
X272308Y176009D01*
X272847Y175549D01*
X273451Y175179D01*
X274105Y174908D01*
X274500Y174813D01*
Y173589D01*
X274105Y173494D01*
X273451Y173223D01*
X272847Y172853D01*
X272308Y172393D01*
X271848Y171854D01*
X271750Y171694D01*
Y176708D01*
G37*
G36*
Y186708D02*X271848Y186548D01*
X272308Y186009D01*
X272847Y185549D01*
X273451Y185179D01*
X274105Y184908D01*
X274500Y184813D01*
Y183589D01*
X274105Y183494D01*
X273451Y183223D01*
X272847Y182853D01*
X272308Y182393D01*
X271848Y181854D01*
X271750Y181694D01*
Y186708D01*
G37*
G36*
Y196708D02*X271848Y196548D01*
X272308Y196009D01*
X272847Y195549D01*
X273451Y195179D01*
X274105Y194908D01*
X274500Y194813D01*
Y193589D01*
X274105Y193494D01*
X273451Y193223D01*
X272847Y192853D01*
X272308Y192393D01*
X271848Y191854D01*
X271750Y191694D01*
Y196708D01*
G37*
G36*
Y246201D02*X274500D01*
Y203589D01*
X274105Y203494D01*
X273451Y203223D01*
X272847Y202853D01*
X272308Y202393D01*
X271848Y201854D01*
X271750Y201694D01*
Y246201D01*
G37*
G36*
X205189D02*X271750D01*
Y201694D01*
X271478Y201250D01*
X271207Y200596D01*
X271042Y199907D01*
X270986Y199201D01*
X271042Y198495D01*
X271207Y197806D01*
X271478Y197152D01*
X271750Y196708D01*
Y191694D01*
X271478Y191250D01*
X271207Y190596D01*
X271042Y189907D01*
X270986Y189201D01*
X271042Y188495D01*
X271207Y187806D01*
X271478Y187152D01*
X271750Y186708D01*
Y181694D01*
X271478Y181250D01*
X271207Y180596D01*
X271042Y179907D01*
X270986Y179201D01*
X271042Y178495D01*
X271207Y177806D01*
X271478Y177152D01*
X271750Y176708D01*
Y171694D01*
X271478Y171250D01*
X271207Y170596D01*
X271042Y169907D01*
X270986Y169201D01*
X271042Y168495D01*
X271207Y167806D01*
X271478Y167152D01*
X271750Y166708D01*
Y161694D01*
X271478Y161250D01*
X271207Y160596D01*
X271042Y159907D01*
X270986Y159201D01*
X271042Y158495D01*
X271207Y157806D01*
X271478Y157152D01*
X271750Y156708D01*
Y151694D01*
X271478Y151250D01*
X271207Y150596D01*
X271042Y149907D01*
X270986Y149201D01*
X271042Y148495D01*
X271207Y147806D01*
X271478Y147152D01*
X271750Y146708D01*
Y141694D01*
X271478Y141250D01*
X271207Y140596D01*
X271042Y139907D01*
X270986Y139201D01*
X271042Y138495D01*
X271207Y137806D01*
X271478Y137152D01*
X271750Y136708D01*
Y133500D01*
X271616Y133418D01*
X271436Y133265D01*
X271283Y133085D01*
X271159Y132884D01*
X271069Y132666D01*
X271014Y132436D01*
X271000Y132201D01*
X271014Y125965D01*
X271069Y125736D01*
X271159Y125518D01*
X271283Y125316D01*
X271436Y125137D01*
X271616Y124984D01*
X271750Y124901D01*
Y77194D01*
X271478Y76750D01*
X271207Y76096D01*
X271042Y75407D01*
X270986Y74701D01*
X271042Y73995D01*
X271207Y73306D01*
X271478Y72652D01*
X271750Y72208D01*
Y67194D01*
X271478Y66750D01*
X271207Y66096D01*
X271042Y65407D01*
X270986Y64701D01*
X271042Y63995D01*
X271207Y63306D01*
X271478Y62652D01*
X271750Y62208D01*
Y57390D01*
X271000Y58140D01*
Y51261D01*
X271750Y52011D01*
Y2201D01*
X205189D01*
Y35330D01*
X205214Y35371D01*
X205383Y35778D01*
X205485Y36206D01*
X205511Y36646D01*
X205485Y37085D01*
X205383Y37514D01*
X205214Y37921D01*
X205189Y37962D01*
Y39830D01*
X205214Y39871D01*
X205383Y40278D01*
X205485Y40706D01*
X205511Y41146D01*
X205485Y41585D01*
X205383Y42014D01*
X205214Y42421D01*
X205189Y42462D01*
Y61719D01*
X205305Y61603D01*
X205503Y61926D01*
X205671Y62333D01*
X205774Y62761D01*
X205800Y63201D01*
X205774Y63640D01*
X205671Y64069D01*
X205503Y64476D01*
X205305Y64798D01*
X205189Y64682D01*
Y65719D01*
X205305Y65603D01*
X205503Y65926D01*
X205671Y66333D01*
X205774Y66761D01*
X205800Y67201D01*
X205774Y67640D01*
X205671Y68069D01*
X205503Y68476D01*
X205305Y68798D01*
X205189Y68682D01*
Y87719D01*
X205305Y87603D01*
X205503Y87926D01*
X205671Y88333D01*
X205774Y88761D01*
X205800Y89201D01*
X205774Y89640D01*
X205671Y90069D01*
X205503Y90476D01*
X205305Y90798D01*
X205189Y90682D01*
Y91719D01*
X205305Y91603D01*
X205503Y91926D01*
X205671Y92333D01*
X205774Y92761D01*
X205800Y93201D01*
X205774Y93640D01*
X205671Y94069D01*
X205503Y94476D01*
X205305Y94798D01*
X205189Y94682D01*
Y113719D01*
X205305Y113603D01*
X205503Y113926D01*
X205671Y114333D01*
X205774Y114761D01*
X205800Y115201D01*
X205774Y115640D01*
X205671Y116069D01*
X205503Y116476D01*
X205305Y116798D01*
X205189Y116682D01*
Y117719D01*
X205305Y117603D01*
X205503Y117926D01*
X205671Y118333D01*
X205774Y118761D01*
X205800Y119201D01*
X205774Y119640D01*
X205671Y120069D01*
X205503Y120476D01*
X205305Y120798D01*
X205189Y120682D01*
Y139719D01*
X205305Y139603D01*
X205503Y139926D01*
X205671Y140333D01*
X205774Y140761D01*
X205800Y141201D01*
X205774Y141640D01*
X205671Y142069D01*
X205503Y142476D01*
X205305Y142798D01*
X205189Y142682D01*
Y143719D01*
X205305Y143603D01*
X205503Y143926D01*
X205671Y144333D01*
X205774Y144761D01*
X205800Y145201D01*
X205774Y145640D01*
X205671Y146069D01*
X205503Y146476D01*
X205305Y146798D01*
X205189Y146682D01*
Y165719D01*
X205305Y165603D01*
X205503Y165926D01*
X205671Y166333D01*
X205774Y166761D01*
X205800Y167201D01*
X205774Y167640D01*
X205671Y168069D01*
X205503Y168476D01*
X205305Y168798D01*
X205189Y168682D01*
Y169719D01*
X205305Y169603D01*
X205503Y169926D01*
X205671Y170333D01*
X205774Y170761D01*
X205800Y171201D01*
X205774Y171640D01*
X205671Y172069D01*
X205503Y172476D01*
X205305Y172798D01*
X205189Y172682D01*
Y191719D01*
X205305Y191603D01*
X205503Y191926D01*
X205671Y192333D01*
X205774Y192761D01*
X205800Y193201D01*
X205774Y193640D01*
X205671Y194069D01*
X205503Y194476D01*
X205305Y194798D01*
X205189Y194682D01*
Y195719D01*
X205305Y195603D01*
X205503Y195926D01*
X205671Y196333D01*
X205774Y196761D01*
X205800Y197201D01*
X205774Y197640D01*
X205671Y198069D01*
X205503Y198476D01*
X205305Y198798D01*
X205189Y198682D01*
Y217719D01*
X205305Y217603D01*
X205503Y217926D01*
X205671Y218333D01*
X205774Y218761D01*
X205800Y219201D01*
X205774Y219640D01*
X205671Y220069D01*
X205503Y220476D01*
X205305Y220798D01*
X205189Y220682D01*
Y221719D01*
X205305Y221603D01*
X205503Y221926D01*
X205671Y222333D01*
X205774Y222761D01*
X205800Y223201D01*
X205774Y223640D01*
X205671Y224069D01*
X205503Y224476D01*
X205305Y224798D01*
X205189Y224682D01*
Y246201D01*
G37*
G36*
X203000D02*X205189D01*
Y224682D01*
X204578Y224071D01*
X204609Y224020D01*
X204717Y223759D01*
X204783Y223483D01*
X204800Y223201D01*
X204783Y222918D01*
X204717Y222643D01*
X204609Y222381D01*
X204578Y222330D01*
X205189Y221719D01*
Y220682D01*
X204578Y220071D01*
X204609Y220020D01*
X204717Y219759D01*
X204783Y219483D01*
X204800Y219201D01*
X204783Y218918D01*
X204717Y218643D01*
X204609Y218381D01*
X204578Y218330D01*
X205189Y217719D01*
Y198682D01*
X204578Y198071D01*
X204609Y198020D01*
X204717Y197759D01*
X204783Y197483D01*
X204800Y197201D01*
X204783Y196918D01*
X204717Y196643D01*
X204609Y196381D01*
X204578Y196330D01*
X205189Y195719D01*
Y194682D01*
X204578Y194071D01*
X204609Y194020D01*
X204717Y193759D01*
X204783Y193483D01*
X204800Y193201D01*
X204783Y192918D01*
X204717Y192643D01*
X204609Y192381D01*
X204578Y192330D01*
X205189Y191719D01*
Y172682D01*
X204578Y172071D01*
X204609Y172020D01*
X204717Y171759D01*
X204783Y171483D01*
X204800Y171201D01*
X204783Y170918D01*
X204717Y170643D01*
X204609Y170381D01*
X204578Y170330D01*
X205189Y169719D01*
Y168682D01*
X204578Y168071D01*
X204609Y168020D01*
X204717Y167759D01*
X204783Y167483D01*
X204800Y167201D01*
X204783Y166918D01*
X204717Y166643D01*
X204609Y166381D01*
X204578Y166330D01*
X205189Y165719D01*
Y146682D01*
X204578Y146071D01*
X204609Y146020D01*
X204717Y145759D01*
X204783Y145483D01*
X204800Y145201D01*
X204783Y144918D01*
X204717Y144643D01*
X204609Y144381D01*
X204578Y144330D01*
X205189Y143719D01*
Y142682D01*
X204578Y142071D01*
X204609Y142020D01*
X204717Y141759D01*
X204783Y141483D01*
X204800Y141201D01*
X204783Y140918D01*
X204717Y140643D01*
X204609Y140381D01*
X204578Y140330D01*
X205189Y139719D01*
Y120682D01*
X204578Y120071D01*
X204609Y120020D01*
X204717Y119759D01*
X204783Y119483D01*
X204800Y119201D01*
X204783Y118918D01*
X204717Y118643D01*
X204609Y118381D01*
X204578Y118330D01*
X205189Y117719D01*
Y116682D01*
X204578Y116071D01*
X204609Y116020D01*
X204717Y115759D01*
X204783Y115483D01*
X204800Y115201D01*
X204783Y114918D01*
X204717Y114643D01*
X204609Y114381D01*
X204578Y114330D01*
X205189Y113719D01*
Y94682D01*
X204578Y94071D01*
X204609Y94020D01*
X204717Y93759D01*
X204783Y93483D01*
X204800Y93201D01*
X204783Y92918D01*
X204717Y92643D01*
X204609Y92381D01*
X204578Y92330D01*
X205189Y91719D01*
Y90682D01*
X204578Y90071D01*
X204609Y90020D01*
X204717Y89759D01*
X204783Y89483D01*
X204800Y89201D01*
X204783Y88918D01*
X204717Y88643D01*
X204609Y88381D01*
X204578Y88330D01*
X205189Y87719D01*
Y68682D01*
X204578Y68071D01*
X204609Y68020D01*
X204717Y67759D01*
X204783Y67483D01*
X204800Y67201D01*
X204783Y66918D01*
X204717Y66643D01*
X204609Y66381D01*
X204578Y66330D01*
X205189Y65719D01*
Y64682D01*
X204578Y64071D01*
X204609Y64020D01*
X204717Y63759D01*
X204783Y63483D01*
X204800Y63201D01*
X204783Y62918D01*
X204717Y62643D01*
X204609Y62381D01*
X204578Y62330D01*
X205189Y61719D01*
Y42462D01*
X205016Y42743D01*
X204289Y42016D01*
X204320Y41965D01*
X204429Y41704D01*
X204495Y41428D01*
X204511Y41146D01*
X204495Y40863D01*
X204429Y40588D01*
X204320Y40326D01*
X204289Y40275D01*
X205016Y39548D01*
X205189Y39830D01*
Y37962D01*
X205016Y38243D01*
X204289Y37516D01*
X204320Y37465D01*
X204429Y37204D01*
X204495Y36928D01*
X204511Y36646D01*
X204495Y36363D01*
X204429Y36088D01*
X204320Y35826D01*
X204289Y35775D01*
X205016Y35048D01*
X205189Y35330D01*
Y2201D01*
X203000D01*
Y33860D01*
X203151Y33872D01*
X203579Y33974D01*
X203987Y34143D01*
X204309Y34341D01*
X203582Y35068D01*
X203531Y35037D01*
X203269Y34928D01*
X203000Y34864D01*
Y38360D01*
X203151Y38372D01*
X203192Y38381D01*
X203269Y38363D01*
X203531Y38254D01*
X203582Y38223D01*
X204026Y38667D01*
X204309Y38841D01*
X204254Y38896D01*
X204309Y38950D01*
X204026Y39124D01*
X203582Y39568D01*
X203531Y39537D01*
X203269Y39428D01*
X203192Y39410D01*
X203151Y39420D01*
X203000Y39432D01*
Y42928D01*
X203269Y42863D01*
X203531Y42754D01*
X203582Y42723D01*
X204309Y43450D01*
X203987Y43648D01*
X203579Y43817D01*
X203151Y43920D01*
X203000Y43932D01*
Y60392D01*
X203439Y60427D01*
X203868Y60530D01*
X204275Y60698D01*
X204598Y60896D01*
X203871Y61623D01*
X203820Y61592D01*
X203558Y61484D01*
X203282Y61417D01*
X203000Y61395D01*
Y64392D01*
X203439Y64427D01*
X203868Y64530D01*
X204275Y64698D01*
X204598Y64896D01*
X204293Y65201D01*
X204598Y65506D01*
X204275Y65703D01*
X203868Y65872D01*
X203439Y65975D01*
X203000Y66009D01*
Y69006D01*
X203282Y68984D01*
X203558Y68918D01*
X203820Y68810D01*
X203871Y68778D01*
X204598Y69506D01*
X204275Y69703D01*
X203868Y69872D01*
X203439Y69975D01*
X203000Y70009D01*
Y86392D01*
X203439Y86427D01*
X203868Y86530D01*
X204275Y86698D01*
X204598Y86896D01*
X203871Y87623D01*
X203820Y87592D01*
X203558Y87484D01*
X203282Y87417D01*
X203000Y87395D01*
Y90392D01*
X203439Y90427D01*
X203868Y90530D01*
X204275Y90698D01*
X204598Y90896D01*
X204293Y91201D01*
X204598Y91506D01*
X204275Y91703D01*
X203868Y91872D01*
X203439Y91975D01*
X203000Y92009D01*
Y95006D01*
X203282Y94984D01*
X203558Y94918D01*
X203820Y94810D01*
X203871Y94778D01*
X204598Y95506D01*
X204275Y95703D01*
X203868Y95872D01*
X203439Y95975D01*
X203000Y96009D01*
Y112392D01*
X203439Y112427D01*
X203868Y112530D01*
X204275Y112698D01*
X204598Y112896D01*
X203871Y113623D01*
X203820Y113592D01*
X203558Y113484D01*
X203282Y113417D01*
X203000Y113395D01*
Y116392D01*
X203439Y116427D01*
X203868Y116530D01*
X204275Y116698D01*
X204598Y116896D01*
X204293Y117201D01*
X204598Y117506D01*
X204275Y117703D01*
X203868Y117872D01*
X203439Y117975D01*
X203000Y118009D01*
Y121006D01*
X203282Y120984D01*
X203558Y120918D01*
X203820Y120810D01*
X203871Y120778D01*
X204598Y121506D01*
X204275Y121703D01*
X203868Y121872D01*
X203439Y121975D01*
X203000Y122009D01*
Y138392D01*
X203439Y138427D01*
X203868Y138530D01*
X204275Y138698D01*
X204598Y138896D01*
X203871Y139623D01*
X203820Y139592D01*
X203558Y139484D01*
X203282Y139417D01*
X203000Y139395D01*
Y142392D01*
X203439Y142427D01*
X203868Y142530D01*
X204275Y142698D01*
X204598Y142896D01*
X204293Y143201D01*
X204598Y143506D01*
X204275Y143703D01*
X203868Y143872D01*
X203439Y143975D01*
X203000Y144009D01*
Y147006D01*
X203282Y146984D01*
X203558Y146918D01*
X203820Y146810D01*
X203871Y146778D01*
X204598Y147506D01*
X204275Y147703D01*
X203868Y147872D01*
X203439Y147975D01*
X203000Y148009D01*
Y164392D01*
X203439Y164427D01*
X203868Y164530D01*
X204275Y164698D01*
X204598Y164896D01*
X203871Y165623D01*
X203820Y165592D01*
X203558Y165484D01*
X203282Y165417D01*
X203000Y165395D01*
Y168392D01*
X203439Y168427D01*
X203868Y168530D01*
X204275Y168698D01*
X204598Y168896D01*
X204293Y169201D01*
X204598Y169506D01*
X204275Y169703D01*
X203868Y169872D01*
X203439Y169975D01*
X203000Y170009D01*
Y173006D01*
X203282Y172984D01*
X203558Y172918D01*
X203820Y172810D01*
X203871Y172778D01*
X204598Y173506D01*
X204275Y173703D01*
X203868Y173872D01*
X203439Y173975D01*
X203000Y174009D01*
Y190392D01*
X203439Y190427D01*
X203868Y190530D01*
X204275Y190698D01*
X204598Y190896D01*
X203871Y191623D01*
X203820Y191592D01*
X203558Y191484D01*
X203282Y191417D01*
X203000Y191395D01*
Y194392D01*
X203439Y194427D01*
X203868Y194530D01*
X204275Y194698D01*
X204598Y194896D01*
X204293Y195201D01*
X204598Y195506D01*
X204275Y195703D01*
X203868Y195872D01*
X203439Y195975D01*
X203000Y196009D01*
Y199006D01*
X203282Y198984D01*
X203558Y198918D01*
X203820Y198810D01*
X203871Y198778D01*
X204598Y199506D01*
X204275Y199703D01*
X203868Y199872D01*
X203439Y199975D01*
X203000Y200009D01*
Y216392D01*
X203439Y216427D01*
X203868Y216530D01*
X204275Y216698D01*
X204598Y216896D01*
X203871Y217623D01*
X203820Y217592D01*
X203558Y217484D01*
X203282Y217417D01*
X203000Y217395D01*
Y220392D01*
X203439Y220427D01*
X203868Y220530D01*
X204275Y220698D01*
X204598Y220896D01*
X204293Y221201D01*
X204598Y221506D01*
X204275Y221703D01*
X203868Y221872D01*
X203439Y221975D01*
X203000Y222009D01*
Y225006D01*
X203282Y224984D01*
X203558Y224918D01*
X203820Y224810D01*
X203871Y224778D01*
X204598Y225506D01*
X204275Y225703D01*
X203868Y225872D01*
X203439Y225975D01*
X203000Y226009D01*
Y246201D01*
G37*
G36*
X200807D02*X203000D01*
Y226009D01*
X202561Y225975D01*
X202132Y225872D01*
X201725Y225703D01*
X201402Y225506D01*
X202129Y224778D01*
X202180Y224810D01*
X202442Y224918D01*
X202718Y224984D01*
X203000Y225006D01*
Y222009D01*
X202561Y221975D01*
X202132Y221872D01*
X201725Y221703D01*
X201402Y221506D01*
X201707Y221201D01*
X201402Y220896D01*
X201725Y220698D01*
X202132Y220530D01*
X202561Y220427D01*
X203000Y220392D01*
Y217395D01*
X202718Y217417D01*
X202442Y217484D01*
X202180Y217592D01*
X202129Y217623D01*
X201402Y216896D01*
X201725Y216698D01*
X202132Y216530D01*
X202561Y216427D01*
X203000Y216392D01*
Y200009D01*
X202561Y199975D01*
X202132Y199872D01*
X201725Y199703D01*
X201402Y199506D01*
X202129Y198778D01*
X202180Y198810D01*
X202442Y198918D01*
X202718Y198984D01*
X203000Y199006D01*
Y196009D01*
X202561Y195975D01*
X202132Y195872D01*
X201725Y195703D01*
X201402Y195506D01*
X201707Y195201D01*
X201402Y194896D01*
X201725Y194698D01*
X202132Y194530D01*
X202561Y194427D01*
X203000Y194392D01*
Y191395D01*
X202718Y191417D01*
X202442Y191484D01*
X202180Y191592D01*
X202129Y191623D01*
X201402Y190896D01*
X201725Y190698D01*
X202132Y190530D01*
X202561Y190427D01*
X203000Y190392D01*
Y174009D01*
X202561Y173975D01*
X202132Y173872D01*
X201725Y173703D01*
X201402Y173506D01*
X202129Y172778D01*
X202180Y172810D01*
X202442Y172918D01*
X202718Y172984D01*
X203000Y173006D01*
Y170009D01*
X202561Y169975D01*
X202132Y169872D01*
X201725Y169703D01*
X201402Y169506D01*
X201707Y169201D01*
X201402Y168896D01*
X201725Y168698D01*
X202132Y168530D01*
X202561Y168427D01*
X203000Y168392D01*
Y165395D01*
X202718Y165417D01*
X202442Y165484D01*
X202180Y165592D01*
X202129Y165623D01*
X201402Y164896D01*
X201725Y164698D01*
X202132Y164530D01*
X202561Y164427D01*
X203000Y164392D01*
Y148009D01*
X202561Y147975D01*
X202132Y147872D01*
X201725Y147703D01*
X201402Y147506D01*
X202129Y146778D01*
X202180Y146810D01*
X202442Y146918D01*
X202718Y146984D01*
X203000Y147006D01*
Y144009D01*
X202561Y143975D01*
X202132Y143872D01*
X201725Y143703D01*
X201402Y143506D01*
X201707Y143201D01*
X201402Y142896D01*
X201725Y142698D01*
X202132Y142530D01*
X202561Y142427D01*
X203000Y142392D01*
Y139395D01*
X202718Y139417D01*
X202442Y139484D01*
X202180Y139592D01*
X202129Y139623D01*
X201402Y138896D01*
X201725Y138698D01*
X202132Y138530D01*
X202561Y138427D01*
X203000Y138392D01*
Y122009D01*
X202561Y121975D01*
X202132Y121872D01*
X201725Y121703D01*
X201402Y121506D01*
X202129Y120778D01*
X202180Y120810D01*
X202442Y120918D01*
X202718Y120984D01*
X203000Y121006D01*
Y118009D01*
X202561Y117975D01*
X202132Y117872D01*
X201725Y117703D01*
X201402Y117506D01*
X201707Y117201D01*
X201402Y116896D01*
X201725Y116698D01*
X202132Y116530D01*
X202561Y116427D01*
X203000Y116392D01*
Y113395D01*
X202718Y113417D01*
X202442Y113484D01*
X202180Y113592D01*
X202129Y113623D01*
X201402Y112896D01*
X201725Y112698D01*
X202132Y112530D01*
X202561Y112427D01*
X203000Y112392D01*
Y96009D01*
X202561Y95975D01*
X202132Y95872D01*
X201725Y95703D01*
X201402Y95506D01*
X202129Y94778D01*
X202180Y94810D01*
X202442Y94918D01*
X202718Y94984D01*
X203000Y95006D01*
Y92009D01*
X202561Y91975D01*
X202132Y91872D01*
X201725Y91703D01*
X201402Y91506D01*
X201707Y91201D01*
X201402Y90896D01*
X201725Y90698D01*
X202132Y90530D01*
X202561Y90427D01*
X203000Y90392D01*
Y87395D01*
X202718Y87417D01*
X202442Y87484D01*
X202180Y87592D01*
X202129Y87623D01*
X201402Y86896D01*
X201725Y86698D01*
X202132Y86530D01*
X202561Y86427D01*
X203000Y86392D01*
Y70009D01*
X202561Y69975D01*
X202132Y69872D01*
X201725Y69703D01*
X201402Y69506D01*
X202129Y68778D01*
X202180Y68810D01*
X202442Y68918D01*
X202718Y68984D01*
X203000Y69006D01*
Y66009D01*
X202561Y65975D01*
X202132Y65872D01*
X201725Y65703D01*
X201402Y65506D01*
X201707Y65201D01*
X201402Y64896D01*
X201725Y64698D01*
X202132Y64530D01*
X202561Y64427D01*
X203000Y64392D01*
Y61395D01*
X202718Y61417D01*
X202442Y61484D01*
X202180Y61592D01*
X202129Y61623D01*
X201402Y60896D01*
X201725Y60698D01*
X202132Y60530D01*
X202561Y60427D01*
X203000Y60392D01*
Y43932D01*
X202711Y43954D01*
X202272Y43920D01*
X201844Y43817D01*
X201436Y43648D01*
X201114Y43450D01*
X201841Y42723D01*
X201892Y42754D01*
X202153Y42863D01*
X202429Y42929D01*
X202711Y42951D01*
X202994Y42929D01*
X203000Y42928D01*
Y39432D01*
X202711Y39454D01*
X202272Y39420D01*
X202231Y39410D01*
X202153Y39428D01*
X201892Y39537D01*
X201841Y39568D01*
X201397Y39124D01*
X201114Y38950D01*
X201169Y38896D01*
X201114Y38841D01*
X201397Y38667D01*
X201841Y38223D01*
X201892Y38254D01*
X202153Y38363D01*
X202231Y38381D01*
X202272Y38372D01*
X202711Y38337D01*
X203000Y38360D01*
Y34864D01*
X202994Y34862D01*
X202711Y34840D01*
X202429Y34862D01*
X202153Y34928D01*
X201892Y35037D01*
X201841Y35068D01*
X201114Y34341D01*
X201436Y34143D01*
X201844Y33974D01*
X202272Y33872D01*
X202711Y33837D01*
X203000Y33860D01*
Y2201D01*
X200807D01*
Y35448D01*
X201134Y35775D01*
X201103Y35826D01*
X200994Y36088D01*
X200928Y36363D01*
X200906Y36646D01*
X200928Y36928D01*
X200994Y37204D01*
X201103Y37465D01*
X201134Y37516D01*
X200807Y37843D01*
Y39948D01*
X201134Y40275D01*
X201103Y40326D01*
X200994Y40588D01*
X200928Y40863D01*
X200906Y41146D01*
X200928Y41428D01*
X200994Y41704D01*
X201103Y41965D01*
X201134Y42016D01*
X200807Y42343D01*
Y61715D01*
X201422Y62330D01*
X201391Y62381D01*
X201283Y62643D01*
X201217Y62918D01*
X201194Y63201D01*
X201217Y63483D01*
X201283Y63759D01*
X201391Y64020D01*
X201422Y64071D01*
X200807Y64687D01*
Y65715D01*
X201422Y66330D01*
X201391Y66381D01*
X201283Y66643D01*
X201217Y66918D01*
X201194Y67201D01*
X201217Y67483D01*
X201283Y67759D01*
X201391Y68020D01*
X201422Y68071D01*
X200807Y68687D01*
Y87715D01*
X201422Y88330D01*
X201391Y88381D01*
X201283Y88643D01*
X201217Y88918D01*
X201194Y89201D01*
X201217Y89483D01*
X201283Y89759D01*
X201391Y90020D01*
X201422Y90071D01*
X200807Y90687D01*
Y91715D01*
X201422Y92330D01*
X201391Y92381D01*
X201283Y92643D01*
X201217Y92918D01*
X201194Y93201D01*
X201217Y93483D01*
X201283Y93759D01*
X201391Y94020D01*
X201422Y94071D01*
X200807Y94687D01*
Y113715D01*
X201422Y114330D01*
X201391Y114381D01*
X201283Y114643D01*
X201217Y114918D01*
X201194Y115201D01*
X201217Y115483D01*
X201283Y115759D01*
X201391Y116020D01*
X201422Y116071D01*
X200807Y116687D01*
Y117715D01*
X201422Y118330D01*
X201391Y118381D01*
X201283Y118643D01*
X201217Y118918D01*
X201194Y119201D01*
X201217Y119483D01*
X201283Y119759D01*
X201391Y120020D01*
X201422Y120071D01*
X200807Y120687D01*
Y139715D01*
X201422Y140330D01*
X201391Y140381D01*
X201283Y140643D01*
X201217Y140918D01*
X201194Y141201D01*
X201217Y141483D01*
X201283Y141759D01*
X201391Y142020D01*
X201422Y142071D01*
X200807Y142687D01*
Y143715D01*
X201422Y144330D01*
X201391Y144381D01*
X201283Y144643D01*
X201217Y144918D01*
X201194Y145201D01*
X201217Y145483D01*
X201283Y145759D01*
X201391Y146020D01*
X201422Y146071D01*
X200807Y146687D01*
Y165715D01*
X201422Y166330D01*
X201391Y166381D01*
X201283Y166643D01*
X201217Y166918D01*
X201194Y167201D01*
X201217Y167483D01*
X201283Y167759D01*
X201391Y168020D01*
X201422Y168071D01*
X200807Y168687D01*
Y169715D01*
X201422Y170330D01*
X201391Y170381D01*
X201283Y170643D01*
X201217Y170918D01*
X201194Y171201D01*
X201217Y171483D01*
X201283Y171759D01*
X201391Y172020D01*
X201422Y172071D01*
X200807Y172687D01*
Y191715D01*
X201422Y192330D01*
X201391Y192381D01*
X201283Y192643D01*
X201217Y192918D01*
X201194Y193201D01*
X201217Y193483D01*
X201283Y193759D01*
X201391Y194020D01*
X201422Y194071D01*
X200807Y194687D01*
Y195715D01*
X201422Y196330D01*
X201391Y196381D01*
X201283Y196643D01*
X201217Y196918D01*
X201194Y197201D01*
X201217Y197483D01*
X201283Y197759D01*
X201391Y198020D01*
X201422Y198071D01*
X200807Y198687D01*
Y217715D01*
X201422Y218330D01*
X201391Y218381D01*
X201283Y218643D01*
X201217Y218918D01*
X201194Y219201D01*
X201217Y219483D01*
X201283Y219759D01*
X201391Y220020D01*
X201422Y220071D01*
X200807Y220687D01*
Y221715D01*
X201422Y222330D01*
X201391Y222381D01*
X201283Y222643D01*
X201217Y222918D01*
X201194Y223201D01*
X201217Y223483D01*
X201283Y223759D01*
X201391Y224020D01*
X201422Y224071D01*
X200807Y224687D01*
Y246201D01*
G37*
G36*
X194250D02*X200807D01*
Y224687D01*
X200695Y224798D01*
X200497Y224476D01*
X200329Y224069D01*
X200226Y223640D01*
X200191Y223201D01*
X200226Y222761D01*
X200329Y222333D01*
X200497Y221926D01*
X200695Y221603D01*
X200807Y221715D01*
Y220687D01*
X200695Y220798D01*
X200497Y220476D01*
X200329Y220069D01*
X200226Y219640D01*
X200191Y219201D01*
X200226Y218761D01*
X200329Y218333D01*
X200497Y217926D01*
X200695Y217603D01*
X200807Y217715D01*
Y198687D01*
X200695Y198798D01*
X200497Y198476D01*
X200329Y198069D01*
X200226Y197640D01*
X200191Y197201D01*
X200226Y196761D01*
X200329Y196333D01*
X200497Y195926D01*
X200695Y195603D01*
X200807Y195715D01*
Y194687D01*
X200695Y194798D01*
X200497Y194476D01*
X200329Y194069D01*
X200226Y193640D01*
X200191Y193201D01*
X200226Y192761D01*
X200329Y192333D01*
X200497Y191926D01*
X200695Y191603D01*
X200807Y191715D01*
Y172687D01*
X200695Y172798D01*
X200497Y172476D01*
X200329Y172069D01*
X200226Y171640D01*
X200191Y171201D01*
X200226Y170761D01*
X200329Y170333D01*
X200497Y169926D01*
X200695Y169603D01*
X200807Y169715D01*
Y168687D01*
X200695Y168798D01*
X200497Y168476D01*
X200329Y168069D01*
X200226Y167640D01*
X200191Y167201D01*
X200226Y166761D01*
X200329Y166333D01*
X200497Y165926D01*
X200695Y165603D01*
X200807Y165715D01*
Y146687D01*
X200695Y146798D01*
X200497Y146476D01*
X200329Y146069D01*
X200226Y145640D01*
X200191Y145201D01*
X200226Y144761D01*
X200329Y144333D01*
X200497Y143926D01*
X200695Y143603D01*
X200807Y143715D01*
Y142687D01*
X200695Y142798D01*
X200497Y142476D01*
X200329Y142069D01*
X200226Y141640D01*
X200191Y141201D01*
X200226Y140761D01*
X200329Y140333D01*
X200497Y139926D01*
X200695Y139603D01*
X200807Y139715D01*
Y120687D01*
X200695Y120798D01*
X200497Y120476D01*
X200329Y120069D01*
X200226Y119640D01*
X200191Y119201D01*
X200226Y118761D01*
X200329Y118333D01*
X200497Y117926D01*
X200695Y117603D01*
X200807Y117715D01*
Y116687D01*
X200695Y116798D01*
X200497Y116476D01*
X200329Y116069D01*
X200226Y115640D01*
X200191Y115201D01*
X200226Y114761D01*
X200329Y114333D01*
X200497Y113926D01*
X200695Y113603D01*
X200807Y113715D01*
Y94687D01*
X200695Y94798D01*
X200497Y94476D01*
X200329Y94069D01*
X200226Y93640D01*
X200191Y93201D01*
X200226Y92761D01*
X200329Y92333D01*
X200497Y91926D01*
X200695Y91603D01*
X200807Y91715D01*
Y90687D01*
X200695Y90798D01*
X200497Y90476D01*
X200329Y90069D01*
X200226Y89640D01*
X200191Y89201D01*
X200226Y88761D01*
X200329Y88333D01*
X200497Y87926D01*
X200695Y87603D01*
X200807Y87715D01*
Y68687D01*
X200695Y68798D01*
X200497Y68476D01*
X200329Y68069D01*
X200226Y67640D01*
X200191Y67201D01*
X200226Y66761D01*
X200329Y66333D01*
X200497Y65926D01*
X200695Y65603D01*
X200807Y65715D01*
Y64687D01*
X200695Y64798D01*
X200497Y64476D01*
X200329Y64069D01*
X200226Y63640D01*
X200191Y63201D01*
X200226Y62761D01*
X200329Y62333D01*
X200497Y61926D01*
X200695Y61603D01*
X200807Y61715D01*
Y42343D01*
X200407Y42743D01*
X200209Y42421D01*
X200040Y42014D01*
X199937Y41585D01*
X199903Y41146D01*
X199937Y40706D01*
X200040Y40278D01*
X200209Y39871D01*
X200407Y39548D01*
X200807Y39948D01*
Y37843D01*
X200407Y38243D01*
X200209Y37921D01*
X200040Y37514D01*
X199937Y37085D01*
X199903Y36646D01*
X199937Y36206D01*
X200040Y35778D01*
X200209Y35371D01*
X200407Y35048D01*
X200807Y35448D01*
Y2201D01*
X194250D01*
Y32401D01*
X194384Y32484D01*
X194564Y32637D01*
X194717Y32816D01*
X194841Y33018D01*
X194931Y33236D01*
X194986Y33465D01*
X195000Y33701D01*
X194986Y39936D01*
X194931Y40166D01*
X194841Y40384D01*
X194717Y40585D01*
X194564Y40765D01*
X194384Y40918D01*
X194250Y41000D01*
Y44011D01*
X195000Y43261D01*
Y50140D01*
X194250Y49390D01*
Y246201D01*
G37*
G36*
Y2201D02*X187189D01*
Y32233D01*
X187265Y32215D01*
X187500Y32201D01*
X193735Y32215D01*
X193965Y32270D01*
X194183Y32360D01*
X194250Y32401D01*
Y2201D01*
G37*
G36*
X188542Y246201D02*X194250D01*
Y49390D01*
X193500Y48640D01*
Y44761D01*
X194250Y44011D01*
Y41000D01*
X194183Y41041D01*
X193965Y41132D01*
X193735Y41187D01*
X193500Y41201D01*
X188542Y41190D01*
Y42201D01*
X193939D01*
X192439Y43701D01*
X188561D01*
X188542Y43682D01*
Y49719D01*
X188561Y49701D01*
X192439D01*
X193939Y51201D01*
X188542D01*
Y56219D01*
X188675Y56086D01*
X189022Y56652D01*
X189293Y57306D01*
X189458Y57995D01*
X189500Y58701D01*
X189458Y59407D01*
X189293Y60096D01*
X189022Y60750D01*
X188675Y61316D01*
X188542Y61182D01*
Y246201D01*
G37*
G36*
Y43682D02*X187189Y42329D01*
Y44450D01*
X187500Y44761D01*
Y48640D01*
X187189Y48951D01*
Y51073D01*
X188542Y49719D01*
Y43682D01*
G37*
G36*
Y41190D02*X187265Y41187D01*
X187189Y41169D01*
Y42201D01*
X188542D01*
Y41190D01*
G37*
G36*
X187189Y246201D02*X188542D01*
Y61182D01*
X187585Y60225D01*
X187681Y60067D01*
X187862Y59631D01*
X187972Y59172D01*
X188000Y58701D01*
X187972Y58230D01*
X187862Y57771D01*
X187681Y57335D01*
X187585Y57177D01*
X188542Y56219D01*
Y51201D01*
X187189D01*
Y54764D01*
X187615Y55025D01*
X187189Y55451D01*
Y61950D01*
X187615Y62376D01*
X187189Y62637D01*
Y73719D01*
X187305Y73603D01*
X187503Y73926D01*
X187671Y74333D01*
X187774Y74761D01*
X187800Y75201D01*
X187774Y75640D01*
X187671Y76069D01*
X187503Y76476D01*
X187305Y76798D01*
X187189Y76682D01*
Y246201D01*
G37*
G36*
Y55451D02*X186524Y56116D01*
X186366Y56020D01*
X185930Y55839D01*
X185471Y55729D01*
X185000Y55692D01*
Y61710D01*
X185471Y61673D01*
X185930Y61563D01*
X186366Y61382D01*
X186524Y61285D01*
X187189Y61950D01*
Y55451D01*
G37*
G36*
Y2201D02*X185000D01*
Y54187D01*
X185706Y54242D01*
X186395Y54408D01*
X187049Y54679D01*
X187189Y54764D01*
Y51201D01*
X187061D01*
X187189Y51073D01*
Y48951D01*
X186000Y50140D01*
Y43261D01*
X187189Y44450D01*
Y42329D01*
X187061Y42201D01*
X187189D01*
Y41169D01*
X187035Y41132D01*
X186817Y41041D01*
X186616Y40918D01*
X186436Y40765D01*
X186283Y40585D01*
X186159Y40384D01*
X186069Y40166D01*
X186014Y39936D01*
X186000Y39701D01*
X186014Y33465D01*
X186069Y33236D01*
X186159Y33018D01*
X186283Y32816D01*
X186436Y32637D01*
X186616Y32484D01*
X186817Y32360D01*
X187035Y32270D01*
X187189Y32233D01*
Y2201D01*
G37*
G36*
X185000Y246201D02*X187189D01*
Y76682D01*
X186578Y76071D01*
X186609Y76020D01*
X186717Y75759D01*
X186783Y75483D01*
X186800Y75201D01*
X186783Y74918D01*
X186717Y74643D01*
X186609Y74381D01*
X186578Y74330D01*
X187189Y73719D01*
Y62637D01*
X187049Y62723D01*
X186395Y62994D01*
X185706Y63159D01*
X185000Y63215D01*
Y72392D01*
X185439Y72427D01*
X185868Y72530D01*
X186275Y72698D01*
X186598Y72896D01*
X185871Y73623D01*
X185820Y73592D01*
X185558Y73484D01*
X185282Y73417D01*
X185000Y73395D01*
Y77006D01*
X185282Y76984D01*
X185558Y76918D01*
X185820Y76810D01*
X185871Y76778D01*
X186598Y77506D01*
X186275Y77703D01*
X185868Y77872D01*
X185439Y77975D01*
X185000Y78009D01*
Y246201D01*
G37*
G36*
Y55692D02*X184529Y55729D01*
X184070Y55839D01*
X183634Y56020D01*
X183476Y56116D01*
X182807Y55447D01*
Y61955D01*
X183476Y61285D01*
X183634Y61382D01*
X184070Y61563D01*
X184529Y61673D01*
X185000Y61710D01*
Y55692D01*
G37*
G36*
Y36701D02*X184958Y37407D01*
X184793Y38096D01*
X184522Y38750D01*
X184152Y39354D01*
X183692Y39893D01*
X183153Y40353D01*
X182807Y40565D01*
Y42837D01*
X183115Y43025D01*
X182807Y43333D01*
Y50068D01*
X183115Y50376D01*
X182807Y50565D01*
Y54767D01*
X182951Y54679D01*
X183605Y54408D01*
X184294Y54242D01*
X185000Y54187D01*
Y46701D01*
X184958Y47407D01*
X184793Y48096D01*
X184522Y48750D01*
X184175Y49316D01*
X183085Y48225D01*
X183181Y48067D01*
X183362Y47631D01*
X183472Y47172D01*
X183500Y46701D01*
X183472Y46230D01*
X183362Y45771D01*
X183181Y45335D01*
X183085Y45177D01*
X184175Y44086D01*
X184522Y44652D01*
X184793Y45306D01*
X184958Y45995D01*
X185000Y46701D01*
Y36701D01*
G37*
G36*
Y2201D02*X182807D01*
Y32837D01*
X183153Y33049D01*
X183692Y33509D01*
X184152Y34048D01*
X184522Y34652D01*
X184793Y35306D01*
X184958Y35995D01*
X185000Y36701D01*
Y2201D01*
G37*
G36*
X182807Y246201D02*X185000D01*
Y78009D01*
X184561Y77975D01*
X184132Y77872D01*
X183725Y77703D01*
X183402Y77506D01*
X184129Y76778D01*
X184180Y76810D01*
X184442Y76918D01*
X184718Y76984D01*
X185000Y77006D01*
Y73395D01*
X184718Y73417D01*
X184442Y73484D01*
X184180Y73592D01*
X184129Y73623D01*
X183402Y72896D01*
X183725Y72698D01*
X184132Y72530D01*
X184561Y72427D01*
X185000Y72392D01*
Y63215D01*
X184294Y63159D01*
X183605Y62994D01*
X182951Y62723D01*
X182807Y62635D01*
Y73715D01*
X183422Y74330D01*
X183391Y74381D01*
X183283Y74643D01*
X183217Y74918D01*
X183194Y75201D01*
X183217Y75483D01*
X183283Y75759D01*
X183391Y76020D01*
X183422Y76071D01*
X182807Y76687D01*
Y135397D01*
X183514Y136104D01*
X183558Y136142D01*
X183711Y136321D01*
X183711Y136321D01*
X183834Y136521D01*
X183923Y136738D01*
X183978Y136967D01*
X183997Y137201D01*
X183992Y137259D01*
Y172142D01*
X183997Y172201D01*
X183978Y172435D01*
X183923Y172663D01*
X183834Y172880D01*
X183711Y173081D01*
X183558Y173259D01*
X183514Y173297D01*
X182807Y174004D01*
Y246201D01*
G37*
G36*
X178000Y42955D02*X178451Y42679D01*
X179105Y42408D01*
X179794Y42242D01*
X180500Y42187D01*
X181206Y42242D01*
X181895Y42408D01*
X182549Y42679D01*
X182807Y42837D01*
Y40565D01*
X182549Y40723D01*
X181895Y40994D01*
X181206Y41159D01*
X180500Y41215D01*
X179794Y41159D01*
X179105Y40994D01*
X178451Y40723D01*
X178000Y40446D01*
Y42955D01*
G37*
G36*
Y50261D02*X178976Y49285D01*
X179134Y49382D01*
X179570Y49563D01*
X180029Y49673D01*
X180500Y49710D01*
X180971Y49673D01*
X181430Y49563D01*
X181866Y49382D01*
X182024Y49285D01*
X182807Y50068D01*
Y43333D01*
X182024Y44116D01*
X181866Y44020D01*
X181430Y43839D01*
X180971Y43729D01*
X180500Y43692D01*
X180029Y43729D01*
X179570Y43839D01*
X179134Y44020D01*
X178976Y44116D01*
X178000Y43140D01*
Y50261D01*
G37*
G36*
X181750Y134341D02*X182807Y135397D01*
Y76687D01*
X182695Y76798D01*
X182497Y76476D01*
X182329Y76069D01*
X182226Y75640D01*
X182191Y75201D01*
X182226Y74761D01*
X182329Y74333D01*
X182497Y73926D01*
X182695Y73603D01*
X182807Y73715D01*
Y62635D01*
X182385Y62376D01*
X182807Y61955D01*
Y55447D01*
X182385Y55025D01*
X182807Y54767D01*
Y50565D01*
X182549Y50723D01*
X181895Y50994D01*
X181750Y51029D01*
Y56511D01*
X182415Y57177D01*
X182319Y57335D01*
X182138Y57771D01*
X182028Y58230D01*
X181991Y58701D01*
X182028Y59172D01*
X182138Y59631D01*
X182319Y60067D01*
X182415Y60225D01*
X181750Y60890D01*
Y117011D01*
X182500Y116261D01*
Y123140D01*
X181750Y122390D01*
Y127208D01*
X182022Y127652D01*
X182293Y128306D01*
X182458Y128995D01*
X182500Y129701D01*
X182458Y130407D01*
X182293Y131096D01*
X182022Y131750D01*
X181750Y132194D01*
Y134341D01*
G37*
G36*
X178000Y132710D02*X178471Y132673D01*
X178930Y132563D01*
X179366Y132382D01*
X179524Y132285D01*
X180554Y133315D01*
X180680Y133367D01*
X180880Y133490D01*
X181058Y133642D01*
X181096Y133687D01*
X181750Y134341D01*
Y132194D01*
X181675Y132316D01*
X180585Y131225D01*
X180681Y131067D01*
X180862Y130631D01*
X180972Y130172D01*
X181000Y129701D01*
X180972Y129230D01*
X180862Y128771D01*
X180681Y128335D01*
X180585Y128177D01*
X181675Y127086D01*
X181750Y127208D01*
Y122390D01*
X181000Y121640D01*
Y117761D01*
X181750Y117011D01*
Y60890D01*
X181325Y61316D01*
X180978Y60750D01*
X180707Y60096D01*
X180542Y59407D01*
X180486Y58701D01*
X180542Y57995D01*
X180707Y57306D01*
X180978Y56652D01*
X181325Y56086D01*
X181750Y56511D01*
Y51029D01*
X181206Y51159D01*
X180500Y51215D01*
X179794Y51159D01*
X179105Y50994D01*
X178451Y50723D01*
X178000Y50446D01*
Y54214D01*
X178235Y54215D01*
X178465Y54270D01*
X178683Y54360D01*
X178884Y54484D01*
X179064Y54637D01*
X179217Y54816D01*
X179341Y55018D01*
X179431Y55236D01*
X179486Y55465D01*
X179500Y55701D01*
X179486Y61936D01*
X179431Y62166D01*
X179341Y62384D01*
X179217Y62585D01*
X179064Y62765D01*
X178884Y62918D01*
X178683Y63041D01*
X178465Y63132D01*
X178235Y63187D01*
X178000Y63201D01*
Y115201D01*
X181439D01*
X179939Y116701D01*
X178000D01*
Y122701D01*
X179939D01*
X181439Y124201D01*
X178000D01*
Y125187D01*
X178706Y125242D01*
X179395Y125408D01*
X180049Y125679D01*
X180615Y126025D01*
X179524Y127116D01*
X179366Y127020D01*
X178930Y126839D01*
X178471Y126729D01*
X178000Y126692D01*
Y132710D01*
G37*
G36*
X182807Y2201D02*X178000D01*
Y32955D01*
X178451Y32679D01*
X179105Y32408D01*
X179794Y32242D01*
X180500Y32187D01*
X181206Y32242D01*
X181895Y32408D01*
X182549Y32679D01*
X182807Y32837D01*
Y2201D01*
G37*
G36*
X174250Y133209D02*X175553D01*
X176476Y132285D01*
X176634Y132382D01*
X177070Y132563D01*
X177529Y132673D01*
X178000Y132710D01*
Y126692D01*
X177529Y126729D01*
X177070Y126839D01*
X176634Y127020D01*
X176476Y127116D01*
X175385Y126025D01*
X175951Y125679D01*
X176605Y125408D01*
X177294Y125242D01*
X178000Y125187D01*
Y124201D01*
X174561D01*
X176061Y122701D01*
X178000D01*
Y116701D01*
X176061D01*
X174561Y115201D01*
X178000D01*
Y63201D01*
X174250Y63192D01*
Y117011D01*
X175000Y117761D01*
Y121640D01*
X174250Y122390D01*
Y127208D01*
X174325Y127086D01*
X175415Y128177D01*
X175319Y128335D01*
X175138Y128771D01*
X175028Y129230D01*
X174991Y129701D01*
X175028Y130172D01*
X175138Y130631D01*
X175319Y131067D01*
X175415Y131225D01*
X174325Y132316D01*
X174250Y132194D01*
Y133209D01*
G37*
G36*
X176951Y54212D02*X178000Y54214D01*
Y50446D01*
X177885Y50376D01*
X178000Y50261D01*
Y43140D01*
X177885Y43025D01*
X178000Y42955D01*
Y40446D01*
X177847Y40353D01*
X177308Y39893D01*
X176951Y39474D01*
Y44212D01*
X177915Y45177D01*
X177819Y45335D01*
X177638Y45771D01*
X177528Y46230D01*
X177491Y46701D01*
X177528Y47172D01*
X177638Y47631D01*
X177819Y48067D01*
X177915Y48225D01*
X176951Y49189D01*
Y54212D01*
G37*
G36*
X178000Y2201D02*X176951D01*
Y33928D01*
X177308Y33509D01*
X177847Y33049D01*
X178000Y32955D01*
Y2201D01*
G37*
G36*
X176951D02*X174250D01*
Y34208D01*
X174522Y34652D01*
X174793Y35306D01*
X174958Y35995D01*
X175000Y36701D01*
X174958Y37407D01*
X174793Y38096D01*
X174522Y38750D01*
X174250Y39194D01*
Y44208D01*
X174522Y44652D01*
X174793Y45306D01*
X174958Y45995D01*
X175000Y46701D01*
X174958Y47407D01*
X174793Y48096D01*
X174522Y48750D01*
X174250Y49194D01*
Y54206D01*
X176951Y54212D01*
Y49189D01*
X176825Y49316D01*
X176478Y48750D01*
X176207Y48096D01*
X176042Y47407D01*
X175986Y46701D01*
X176042Y45995D01*
X176207Y45306D01*
X176478Y44652D01*
X176825Y44086D01*
X176951Y44212D01*
Y39474D01*
X176848Y39354D01*
X176478Y38750D01*
X176207Y38096D01*
X176042Y37407D01*
X175986Y36701D01*
X176042Y35995D01*
X176207Y35306D01*
X176478Y34652D01*
X176848Y34048D01*
X176951Y33928D01*
Y2201D01*
G37*
G36*
X174250Y39194D02*X174152Y39354D01*
X173692Y39893D01*
X173153Y40353D01*
X172549Y40723D01*
X171895Y40994D01*
X171206Y41159D01*
X170500Y41215D01*
X169794Y41159D01*
X169105Y40994D01*
X168451Y40723D01*
X168000Y40446D01*
Y42955D01*
X168451Y42679D01*
X169105Y42408D01*
X169794Y42242D01*
X170500Y42187D01*
X171206Y42242D01*
X171895Y42408D01*
X172549Y42679D01*
X173115Y43025D01*
X172024Y44116D01*
X171866Y44020D01*
X171430Y43839D01*
X170971Y43729D01*
X170500Y43692D01*
X170029Y43729D01*
X169570Y43839D01*
X169134Y44020D01*
X168976Y44116D01*
X168000Y43140D01*
Y50261D01*
X168976Y49285D01*
X169134Y49382D01*
X169570Y49563D01*
X170029Y49673D01*
X170500Y49710D01*
X170971Y49673D01*
X171430Y49563D01*
X171866Y49382D01*
X172024Y49285D01*
X173115Y50376D01*
X172549Y50723D01*
X171895Y50994D01*
X171206Y51159D01*
X170500Y51215D01*
X169794Y51159D01*
X169105Y50994D01*
X168451Y50723D01*
X168000Y50446D01*
Y115207D01*
X171235Y115215D01*
X171465Y115270D01*
X171683Y115360D01*
X171884Y115484D01*
X172064Y115637D01*
X172217Y115816D01*
X172341Y116018D01*
X172431Y116236D01*
X172486Y116465D01*
X172500Y116701D01*
X172486Y122936D01*
X172431Y123166D01*
X172341Y123384D01*
X172217Y123585D01*
X172064Y123765D01*
X171884Y123918D01*
X171683Y124041D01*
X171465Y124132D01*
X171235Y124187D01*
X171000Y124201D01*
X168000Y124194D01*
Y125187D01*
X168706Y125242D01*
X169395Y125408D01*
X170049Y125679D01*
X170653Y126049D01*
X171192Y126509D01*
X171652Y127048D01*
X172022Y127652D01*
X172293Y128306D01*
X172458Y128995D01*
X172500Y129701D01*
X172458Y130407D01*
X172293Y131096D01*
X172022Y131750D01*
X171652Y132354D01*
X171192Y132893D01*
X170822Y133209D01*
X174250D01*
Y132194D01*
X173978Y131750D01*
X173707Y131096D01*
X173542Y130407D01*
X173486Y129701D01*
X173542Y128995D01*
X173707Y128306D01*
X173978Y127652D01*
X174250Y127208D01*
Y122390D01*
X173500Y123140D01*
Y116261D01*
X174250Y117011D01*
Y63192D01*
X171765Y63187D01*
X171535Y63132D01*
X171317Y63041D01*
X171116Y62918D01*
X170936Y62765D01*
X170783Y62585D01*
X170659Y62384D01*
X170569Y62166D01*
X170514Y61936D01*
X170500Y61701D01*
X170514Y55465D01*
X170569Y55236D01*
X170659Y55018D01*
X170783Y54816D01*
X170936Y54637D01*
X171116Y54484D01*
X171317Y54360D01*
X171535Y54270D01*
X171765Y54215D01*
X172000Y54201D01*
X174250Y54206D01*
Y49194D01*
X174175Y49316D01*
X173085Y48225D01*
X173181Y48067D01*
X173362Y47631D01*
X173472Y47172D01*
X173500Y46701D01*
X173472Y46230D01*
X173362Y45771D01*
X173181Y45335D01*
X173085Y45177D01*
X174175Y44086D01*
X174250Y44208D01*
Y39194D01*
G37*
G36*
Y2201D02*X168000D01*
Y32955D01*
X168451Y32679D01*
X169105Y32408D01*
X169794Y32242D01*
X170500Y32187D01*
X171206Y32242D01*
X171895Y32408D01*
X172549Y32679D01*
X173153Y33049D01*
X173692Y33509D01*
X174152Y34048D01*
X174250Y34208D01*
Y2201D01*
G37*
G36*
X166951Y115205D02*X168000Y115207D01*
Y50446D01*
X167885Y50376D01*
X168000Y50261D01*
Y43140D01*
X167885Y43025D01*
X168000Y42955D01*
Y40446D01*
X167847Y40353D01*
X167308Y39893D01*
X166951Y39474D01*
Y44212D01*
X167915Y45177D01*
X167819Y45335D01*
X167638Y45771D01*
X167528Y46230D01*
X167491Y46701D01*
X167528Y47172D01*
X167638Y47631D01*
X167819Y48067D01*
X167915Y48225D01*
X166951Y49189D01*
Y115205D01*
G37*
G36*
Y125325D02*X167294Y125242D01*
X168000Y125187D01*
Y124194D01*
X166951Y124192D01*
Y125325D01*
G37*
G36*
X168000Y2201D02*X166951D01*
Y33928D01*
X167308Y33509D01*
X167847Y33049D01*
X168000Y32955D01*
Y2201D01*
G37*
G36*
X166951D02*X157730D01*
Y124321D01*
X163518Y130109D01*
X163486Y129701D01*
X163542Y128995D01*
X163707Y128306D01*
X163978Y127652D01*
X164348Y127048D01*
X164808Y126509D01*
X165347Y126049D01*
X165951Y125679D01*
X166605Y125408D01*
X166951Y125325D01*
Y124192D01*
X164765Y124187D01*
X164535Y124132D01*
X164317Y124041D01*
X164116Y123918D01*
X163936Y123765D01*
X163783Y123585D01*
X163659Y123384D01*
X163569Y123166D01*
X163514Y122936D01*
X163500Y122701D01*
X163514Y116465D01*
X163569Y116236D01*
X163659Y116018D01*
X163783Y115816D01*
X163936Y115637D01*
X164116Y115484D01*
X164317Y115360D01*
X164535Y115270D01*
X164765Y115215D01*
X165000Y115201D01*
X166951Y115205D01*
Y49189D01*
X166825Y49316D01*
X166478Y48750D01*
X166207Y48096D01*
X166042Y47407D01*
X165986Y46701D01*
X166042Y45995D01*
X166207Y45306D01*
X166478Y44652D01*
X166825Y44086D01*
X166951Y44212D01*
Y39474D01*
X166848Y39354D01*
X166478Y38750D01*
X166207Y38096D01*
X166042Y37407D01*
X165986Y36701D01*
X166042Y35995D01*
X166207Y35306D01*
X166478Y34652D01*
X166848Y34048D01*
X166951Y33928D01*
Y2201D01*
G37*
G36*
X181542Y246201D02*X182807D01*
Y174004D01*
X181542Y175269D01*
Y177219D01*
X181675Y177086D01*
X182022Y177652D01*
X182293Y178306D01*
X182458Y178995D01*
X182500Y179701D01*
X182458Y180407D01*
X182293Y181096D01*
X182022Y181750D01*
X181675Y182316D01*
X181542Y182182D01*
Y187219D01*
X181675Y187086D01*
X182022Y187652D01*
X182293Y188306D01*
X182458Y188995D01*
X182500Y189701D01*
X182458Y190407D01*
X182293Y191096D01*
X182022Y191750D01*
X181675Y192316D01*
X181542Y192182D01*
Y246201D01*
G37*
G36*
X178000D02*X181542D01*
Y192182D01*
X180585Y191225D01*
X180681Y191067D01*
X180862Y190631D01*
X180972Y190172D01*
X181000Y189701D01*
X180972Y189230D01*
X180862Y188771D01*
X180681Y188335D01*
X180585Y188177D01*
X181542Y187219D01*
Y182182D01*
X180585Y181225D01*
X180681Y181067D01*
X180862Y180631D01*
X180972Y180172D01*
X181000Y179701D01*
X180972Y179230D01*
X180862Y178771D01*
X180681Y178335D01*
X180585Y178177D01*
X181542Y177219D01*
Y175269D01*
X181096Y175715D01*
X181058Y175759D01*
X180880Y175912D01*
X180680Y176034D01*
X180554Y176087D01*
X179524Y177116D01*
X179366Y177020D01*
X178930Y176839D01*
X178471Y176729D01*
X178000Y176692D01*
Y182710D01*
X178471Y182673D01*
X178930Y182563D01*
X179366Y182382D01*
X179524Y182285D01*
X180615Y183376D01*
X180049Y183723D01*
X179395Y183994D01*
X178706Y184159D01*
X178000Y184215D01*
Y185187D01*
X178706Y185242D01*
X179395Y185408D01*
X180049Y185679D01*
X180615Y186025D01*
X179524Y187116D01*
X179366Y187020D01*
X178930Y186839D01*
X178471Y186729D01*
X178000Y186692D01*
Y192710D01*
X178471Y192673D01*
X178930Y192563D01*
X179366Y192382D01*
X179524Y192285D01*
X180615Y193376D01*
X180049Y193723D01*
X179395Y193994D01*
X178706Y194159D01*
X178000Y194215D01*
Y246201D01*
G37*
G36*
X167993Y233315D02*X168294Y233242D01*
X169000Y233187D01*
X169706Y233242D01*
X170395Y233408D01*
X171049Y233679D01*
X171653Y234049D01*
X172192Y234509D01*
X172652Y235048D01*
X173022Y235652D01*
X173293Y236306D01*
X173458Y236995D01*
X173500Y237701D01*
X173458Y238407D01*
X173293Y239096D01*
X173022Y239750D01*
X172652Y240354D01*
X172192Y240893D01*
X171653Y241353D01*
X171049Y241723D01*
X170395Y241994D01*
X169706Y242159D01*
X169000Y242215D01*
X168294Y242159D01*
X167993Y242087D01*
Y246201D01*
X178000D01*
Y194215D01*
X177294Y194159D01*
X176605Y193994D01*
X175951Y193723D01*
X175385Y193376D01*
X176476Y192285D01*
X176634Y192382D01*
X177070Y192563D01*
X177529Y192673D01*
X178000Y192710D01*
Y186692D01*
X177529Y186729D01*
X177070Y186839D01*
X176634Y187020D01*
X176476Y187116D01*
X175385Y186025D01*
X175951Y185679D01*
X176605Y185408D01*
X177294Y185242D01*
X178000Y185187D01*
Y184215D01*
X177294Y184159D01*
X176605Y183994D01*
X175951Y183723D01*
X175385Y183376D01*
X176476Y182285D01*
X176634Y182382D01*
X177070Y182563D01*
X177529Y182673D01*
X178000Y182710D01*
Y176692D01*
X177529Y176729D01*
X177070Y176839D01*
X176634Y177020D01*
X176476Y177116D01*
X176335Y176976D01*
X175275Y178036D01*
X175415Y178177D01*
X175319Y178335D01*
X175138Y178771D01*
X175028Y179230D01*
X174991Y179701D01*
X175028Y180172D01*
X175138Y180631D01*
X175319Y181067D01*
X175415Y181225D01*
X174492Y182148D01*
Y187254D01*
X175415Y188177D01*
X175319Y188335D01*
X175138Y188771D01*
X175028Y189230D01*
X174991Y189701D01*
X175028Y190172D01*
X175138Y190631D01*
X175319Y191067D01*
X175415Y191225D01*
X174492Y192148D01*
Y198142D01*
X174497Y198201D01*
X174478Y198435D01*
X174423Y198663D01*
X174334Y198880D01*
X174211Y199081D01*
X174058Y199259D01*
X174014Y199297D01*
X173731Y199580D01*
X173774Y199761D01*
X173800Y200201D01*
X173774Y200640D01*
X173671Y201069D01*
X173503Y201476D01*
X173272Y201852D01*
X172986Y202187D01*
X172651Y202473D01*
X172275Y202703D01*
X171868Y202872D01*
X171439Y202975D01*
X171000Y203009D01*
X170561Y202975D01*
X170132Y202872D01*
X169725Y202703D01*
X169349Y202473D01*
X169014Y202187D01*
X168728Y201852D01*
X168497Y201476D01*
X168329Y201069D01*
X168226Y200640D01*
X168191Y200201D01*
X168226Y199761D01*
X168329Y199333D01*
X168464Y199007D01*
X168061Y198975D01*
X167993Y198959D01*
Y223315D01*
X168294Y223242D01*
X169000Y223187D01*
X169706Y223242D01*
X170395Y223408D01*
X171049Y223679D01*
X171653Y224049D01*
X172192Y224509D01*
X172652Y225048D01*
X173022Y225652D01*
X173293Y226306D01*
X173458Y226995D01*
X173500Y227701D01*
X173458Y228407D01*
X173293Y229096D01*
X173022Y229750D01*
X172652Y230354D01*
X172192Y230893D01*
X171653Y231353D01*
X171049Y231723D01*
X170395Y231994D01*
X169706Y232159D01*
X169000Y232215D01*
X168294Y232159D01*
X167993Y232087D01*
Y233315D01*
G37*
G36*
Y175187D02*X168000Y175187D01*
X168706Y175242D01*
X169395Y175408D01*
X170049Y175679D01*
X170653Y176049D01*
X171192Y176509D01*
X171652Y177048D01*
X171807Y177300D01*
X171942Y177142D01*
X171986Y177104D01*
X175404Y173687D01*
X175442Y173642D01*
X175600Y173508D01*
X175347Y173353D01*
X174808Y172893D01*
X174348Y172354D01*
X173978Y171750D01*
X173707Y171096D01*
X173542Y170407D01*
X173486Y169701D01*
X173542Y168995D01*
X173707Y168306D01*
X173978Y167652D01*
X174348Y167048D01*
X174808Y166509D01*
X175347Y166049D01*
X175750Y165802D01*
Y163600D01*
X175347Y163353D01*
X174808Y162893D01*
X174348Y162354D01*
X173978Y161750D01*
X173707Y161096D01*
X173542Y160407D01*
X173486Y159701D01*
X173542Y158995D01*
X173707Y158306D01*
X173978Y157652D01*
X174348Y157048D01*
X174808Y156509D01*
X175347Y156049D01*
X175750Y155802D01*
Y153600D01*
X175347Y153353D01*
X174808Y152893D01*
X174348Y152354D01*
X173978Y151750D01*
X173707Y151096D01*
X173542Y150407D01*
X173486Y149701D01*
X173542Y148995D01*
X173707Y148306D01*
X173978Y147652D01*
X174348Y147048D01*
X174431Y146951D01*
X171569D01*
X171652Y147048D01*
X172022Y147652D01*
X172293Y148306D01*
X172458Y148995D01*
X172500Y149701D01*
X172458Y150407D01*
X172293Y151096D01*
X172022Y151750D01*
X171652Y152354D01*
X171192Y152893D01*
X170653Y153353D01*
X170049Y153723D01*
X169395Y153994D01*
X168706Y154159D01*
X168000Y154215D01*
X167993Y154214D01*
Y155187D01*
X168000Y155187D01*
X168706Y155242D01*
X169395Y155408D01*
X170049Y155679D01*
X170653Y156049D01*
X171192Y156509D01*
X171652Y157048D01*
X172022Y157652D01*
X172293Y158306D01*
X172458Y158995D01*
X172500Y159701D01*
X172458Y160407D01*
X172293Y161096D01*
X172022Y161750D01*
X171652Y162354D01*
X171192Y162893D01*
X170653Y163353D01*
X170049Y163723D01*
X169395Y163994D01*
X168706Y164159D01*
X168000Y164215D01*
X167993Y164214D01*
Y165187D01*
X168000Y165187D01*
X168706Y165242D01*
X169395Y165408D01*
X170049Y165679D01*
X170653Y166049D01*
X171192Y166509D01*
X171652Y167048D01*
X172022Y167652D01*
X172293Y168306D01*
X172458Y168995D01*
X172500Y169701D01*
X172458Y170407D01*
X172293Y171096D01*
X172022Y171750D01*
X171652Y172354D01*
X171192Y172893D01*
X170653Y173353D01*
X170049Y173723D01*
X169395Y173994D01*
X168706Y174159D01*
X168000Y174215D01*
X167993Y174214D01*
Y175187D01*
G37*
G36*
Y242087D02*X167605Y241994D01*
X166951Y241723D01*
X166347Y241353D01*
X166088Y241132D01*
X161912D01*
X161653Y241353D01*
X161049Y241723D01*
X160395Y241994D01*
X159706Y242159D01*
X159000Y242215D01*
X158294Y242159D01*
X157730Y242024D01*
Y246201D01*
X167993D01*
Y242087D01*
G37*
G36*
X165879Y197190D02*X161986Y193297D01*
X161942Y193259D01*
X161789Y193081D01*
X161666Y192880D01*
X161577Y192663D01*
X161522Y192435D01*
Y192435D01*
X161503Y192201D01*
X161508Y192142D01*
Y184759D01*
X161503Y184701D01*
X161522Y184467D01*
X161563Y184293D01*
X161577Y184238D01*
X161666Y184021D01*
X161742Y183899D01*
X161789Y183821D01*
X161789Y183821D01*
X161942Y183642D01*
X161986Y183604D01*
X163938Y181653D01*
X163707Y181096D01*
X163542Y180407D01*
X163486Y179701D01*
X163542Y178995D01*
X163707Y178306D01*
X163978Y177652D01*
X164348Y177048D01*
X164808Y176509D01*
X165347Y176049D01*
X165951Y175679D01*
X166605Y175408D01*
X167294Y175242D01*
X167993Y175187D01*
Y174214D01*
X167294Y174159D01*
X166605Y173994D01*
X165951Y173723D01*
X165347Y173353D01*
X164808Y172893D01*
X164348Y172354D01*
X163978Y171750D01*
X163707Y171096D01*
X163542Y170407D01*
X163486Y169701D01*
X163542Y168995D01*
X163707Y168306D01*
X163978Y167652D01*
X164348Y167048D01*
X164808Y166509D01*
X165347Y166049D01*
X165951Y165679D01*
X166605Y165408D01*
X167294Y165242D01*
X167993Y165187D01*
Y164214D01*
X167294Y164159D01*
X166605Y163994D01*
X165951Y163723D01*
X165347Y163353D01*
X164808Y162893D01*
X164348Y162354D01*
X163978Y161750D01*
X163707Y161096D01*
X163542Y160407D01*
X163486Y159701D01*
X163542Y158995D01*
X163707Y158306D01*
X163978Y157652D01*
X164348Y157048D01*
X164808Y156509D01*
X165347Y156049D01*
X165951Y155679D01*
X166605Y155408D01*
X167294Y155242D01*
X167993Y155187D01*
Y154214D01*
X167294Y154159D01*
X166605Y153994D01*
X165951Y153723D01*
X165347Y153353D01*
X164808Y152893D01*
X164348Y152354D01*
X163978Y151750D01*
X163707Y151096D01*
X163542Y150407D01*
X163486Y149701D01*
X163542Y148995D01*
X163707Y148306D01*
X163978Y147652D01*
X164348Y147048D01*
X164431Y146951D01*
X157730D01*
Y150415D01*
X157798Y150428D01*
X157871Y150456D01*
X157940Y150495D01*
X158002Y150543D01*
X158055Y150601D01*
X158098Y150667D01*
X158130Y150739D01*
X158206Y150972D01*
X158260Y151212D01*
X158292Y151455D01*
X158303Y151701D01*
X158292Y151946D01*
X158260Y152190D01*
X158206Y152429D01*
X158132Y152663D01*
X158100Y152735D01*
X158056Y152801D01*
X158003Y152859D01*
X157941Y152908D01*
X157872Y152947D01*
X157798Y152975D01*
X157730Y152989D01*
Y223378D01*
X158294Y223242D01*
X159000Y223187D01*
X159706Y223242D01*
X160395Y223408D01*
X161049Y223679D01*
X161653Y224049D01*
X162192Y224509D01*
X162652Y225048D01*
X163022Y225652D01*
X163293Y226306D01*
X163458Y226995D01*
X163500Y227701D01*
X163458Y228407D01*
X163293Y229096D01*
X163022Y229750D01*
X162652Y230354D01*
X162192Y230893D01*
X161653Y231353D01*
X161049Y231723D01*
X160395Y231994D01*
X159706Y232159D01*
X159000Y232215D01*
X158294Y232159D01*
X157730Y232024D01*
Y233378D01*
X158294Y233242D01*
X159000Y233187D01*
X159706Y233242D01*
X160395Y233408D01*
X161049Y233679D01*
X161653Y234049D01*
X161912Y234270D01*
X166088D01*
X166347Y234049D01*
X166951Y233679D01*
X167605Y233408D01*
X167993Y233315D01*
Y232087D01*
X167605Y231994D01*
X166951Y231723D01*
X166347Y231353D01*
X165808Y230893D01*
X165348Y230354D01*
X164978Y229750D01*
X164707Y229096D01*
X164542Y228407D01*
X164486Y227701D01*
X164542Y226995D01*
X164707Y226306D01*
X164978Y225652D01*
X165348Y225048D01*
X165808Y224509D01*
X166347Y224049D01*
X166951Y223679D01*
X167605Y223408D01*
X167993Y223315D01*
Y198959D01*
X167632Y198872D01*
X167225Y198703D01*
X166849Y198473D01*
X166514Y198187D01*
X166228Y197852D01*
X165997Y197476D01*
X165879Y197190D01*
G37*
G36*
X157730Y2201D02*X156730D01*
Y50337D01*
X156841Y50518D01*
X156931Y50736D01*
X156986Y50965D01*
X157000Y51201D01*
X156986Y57436D01*
X156931Y57666D01*
X156841Y57884D01*
X156730Y58065D01*
Y62654D01*
X156793Y62806D01*
X156958Y63495D01*
X157000Y64201D01*
X156958Y64907D01*
X156793Y65596D01*
X156730Y65748D01*
Y72654D01*
X156793Y72806D01*
X156958Y73495D01*
X157000Y74201D01*
X156958Y74907D01*
X156793Y75596D01*
X156730Y75748D01*
Y102015D01*
X156798Y102028D01*
X156871Y102056D01*
X156940Y102095D01*
X157002Y102143D01*
X157055Y102201D01*
X157098Y102267D01*
X157130Y102339D01*
X157206Y102572D01*
X157260Y102812D01*
X157292Y103055D01*
X157303Y103301D01*
X157292Y103546D01*
X157260Y103790D01*
X157206Y104029D01*
X157132Y104263D01*
X157100Y104335D01*
X157056Y104401D01*
X157003Y104459D01*
X156941Y104508D01*
X156872Y104547D01*
X156798Y104575D01*
X156730Y104589D01*
Y123321D01*
X157730Y124321D01*
Y2201D01*
G37*
G36*
X156730Y75748D02*X156522Y76250D01*
X156152Y76854D01*
X155692Y77393D01*
X155501Y77556D01*
Y100686D01*
X155535Y100701D01*
X155600Y100745D01*
X155659Y100798D01*
X155708Y100860D01*
X155746Y100929D01*
X155774Y101003D01*
X155790Y101080D01*
X155793Y101159D01*
X155784Y101238D01*
X155763Y101314D01*
X155730Y101385D01*
X155686Y101451D01*
X155633Y101509D01*
X155571Y101558D01*
X155502Y101597D01*
X155501Y101598D01*
Y105006D01*
X155501Y105006D01*
X155570Y105045D01*
X155631Y105094D01*
X155685Y105151D01*
X155728Y105217D01*
X155761Y105289D01*
X155782Y105364D01*
X155791Y105443D01*
X155788Y105521D01*
X155772Y105598D01*
X155745Y105672D01*
X155706Y105741D01*
X155657Y105802D01*
X155599Y105856D01*
X155534Y105899D01*
X155501Y105913D01*
Y122091D01*
X156730Y123321D01*
Y104589D01*
X156721Y104590D01*
X156642Y104594D01*
X156563Y104585D01*
X156487Y104563D01*
X156415Y104531D01*
X156350Y104487D01*
X156291Y104433D01*
X156242Y104372D01*
X156204Y104303D01*
X156176Y104229D01*
X156160Y104151D01*
X156157Y104072D01*
X156166Y103994D01*
X156189Y103918D01*
X156238Y103769D01*
X156272Y103615D01*
X156293Y103458D01*
X156300Y103301D01*
X156293Y103143D01*
X156272Y102987D01*
X156238Y102833D01*
X156190Y102683D01*
X156168Y102607D01*
X156159Y102529D01*
X156162Y102450D01*
X156178Y102373D01*
X156205Y102300D01*
X156244Y102231D01*
X156293Y102169D01*
X156351Y102116D01*
X156416Y102073D01*
X156488Y102040D01*
X156564Y102019D01*
X156642Y102010D01*
X156720Y102013D01*
X156730Y102015D01*
Y75748D01*
G37*
G36*
Y65748D02*X156522Y66250D01*
X156152Y66854D01*
X155692Y67393D01*
X155501Y67556D01*
Y70846D01*
X155692Y71009D01*
X156152Y71548D01*
X156522Y72152D01*
X156730Y72654D01*
Y65748D01*
G37*
G36*
Y58065D02*X156717Y58085D01*
X156564Y58265D01*
X156384Y58418D01*
X156183Y58541D01*
X155965Y58632D01*
X155735Y58687D01*
X155501Y58701D01*
Y60846D01*
X155692Y61009D01*
X156152Y61548D01*
X156522Y62152D01*
X156730Y62654D01*
Y58065D01*
G37*
G36*
Y2201D02*X155501D01*
Y49714D01*
X155735Y49715D01*
X155965Y49770D01*
X156183Y49860D01*
X156384Y49984D01*
X156564Y50137D01*
X156717Y50316D01*
X156730Y50337D01*
Y2201D01*
G37*
G36*
X157730Y242024D02*X157605Y241994D01*
X156951Y241723D01*
X156347Y241353D01*
X156088Y241132D01*
X155501D01*
Y246201D01*
X157730D01*
Y242024D01*
G37*
G36*
Y232024D02*X157605Y231994D01*
X156951Y231723D01*
X156347Y231353D01*
X155808Y230893D01*
X155501Y230533D01*
Y234270D01*
X156088D01*
X156347Y234049D01*
X156951Y233679D01*
X157605Y233408D01*
X157730Y233378D01*
Y232024D01*
G37*
G36*
Y146951D02*X155501D01*
Y148898D01*
X155745Y148909D01*
X155989Y148941D01*
X156229Y148994D01*
X156463Y149069D01*
X156535Y149101D01*
X156600Y149145D01*
X156659Y149198D01*
X156708Y149260D01*
X156746Y149329D01*
X156774Y149403D01*
X156790Y149480D01*
X156793Y149559D01*
X156784Y149638D01*
X156763Y149714D01*
X156730Y149785D01*
X156686Y149851D01*
X156633Y149909D01*
X156571Y149958D01*
X156502Y149997D01*
X156428Y150025D01*
X156351Y150040D01*
X156272Y150044D01*
X156193Y150035D01*
X156118Y150012D01*
X155968Y149963D01*
X155814Y149928D01*
X155658Y149908D01*
X155501Y149901D01*
Y153501D01*
X155658Y153494D01*
X155814Y153473D01*
X155968Y153439D01*
X156118Y153391D01*
X156194Y153369D01*
X156272Y153360D01*
X156350Y153363D01*
X156427Y153379D01*
X156501Y153406D01*
X156570Y153445D01*
X156631Y153494D01*
X156685Y153551D01*
X156728Y153617D01*
X156761Y153689D01*
X156782Y153764D01*
X156791Y153843D01*
X156788Y153921D01*
X156772Y153998D01*
X156745Y154072D01*
X156706Y154141D01*
X156657Y154202D01*
X156599Y154256D01*
X156534Y154299D01*
X156462Y154330D01*
X156229Y154407D01*
X155989Y154461D01*
X155745Y154493D01*
X155501Y154503D01*
Y224869D01*
X155808Y224509D01*
X156347Y224049D01*
X156951Y223679D01*
X157605Y223408D01*
X157730Y223378D01*
Y152989D01*
X157721Y152990D01*
X157642Y152994D01*
X157563Y152985D01*
X157487Y152963D01*
X157415Y152931D01*
X157350Y152887D01*
X157291Y152833D01*
X157242Y152772D01*
X157204Y152703D01*
X157176Y152629D01*
X157160Y152551D01*
X157157Y152472D01*
X157166Y152394D01*
X157189Y152318D01*
X157238Y152169D01*
X157272Y152015D01*
X157293Y151858D01*
X157300Y151701D01*
X157293Y151543D01*
X157272Y151387D01*
X157238Y151233D01*
X157190Y151083D01*
X157168Y151007D01*
X157159Y150929D01*
X157162Y150850D01*
X157178Y150773D01*
X157205Y150700D01*
X157244Y150631D01*
X157293Y150569D01*
X157351Y150516D01*
X157416Y150473D01*
X157488Y150440D01*
X157564Y150419D01*
X157642Y150410D01*
X157720Y150413D01*
X157730Y150415D01*
Y146951D01*
G37*
G36*
X155501Y77556D02*X155153Y77853D01*
X154549Y78223D01*
X153895Y78494D01*
X153206Y78659D01*
X152500Y78715D01*
X151794Y78659D01*
X151105Y78494D01*
X150451Y78223D01*
X149847Y77853D01*
X149308Y77393D01*
X148848Y76854D01*
X148478Y76250D01*
X148354Y75951D01*
X143177D01*
X143151Y75973D01*
X142775Y76203D01*
X142500Y76317D01*
Y95204D01*
X142500D01*
X142558Y95209D01*
X148442D01*
X148500Y95204D01*
X148734Y95222D01*
X148734D01*
X148963Y95277D01*
X149180Y95367D01*
X149380Y95490D01*
X149558Y95642D01*
X149596Y95687D01*
X152014Y98104D01*
X152058Y98142D01*
X152211Y98321D01*
X152211Y98321D01*
X152334Y98521D01*
X152423Y98738D01*
X152478Y98967D01*
X152497Y99201D01*
X152492Y99259D01*
Y102032D01*
X152513Y102038D01*
X152585Y102071D01*
X152650Y102115D01*
X152709Y102168D01*
X152758Y102230D01*
X152796Y102299D01*
X152824Y102373D01*
X152840Y102450D01*
X152843Y102529D01*
X152834Y102608D01*
X152811Y102683D01*
X152762Y102833D01*
X152728Y102987D01*
X152707Y103143D01*
X152700Y103301D01*
X152707Y103458D01*
X152728Y103615D01*
X152762Y103769D01*
X152810Y103919D01*
X152832Y103994D01*
X152841Y104073D01*
X152838Y104151D01*
X152822Y104228D01*
X152795Y104302D01*
X152756Y104371D01*
X152707Y104432D01*
X152649Y104486D01*
X152584Y104529D01*
X152512Y104562D01*
X152443Y104581D01*
X152423Y104663D01*
X152334Y104880D01*
X152211Y105081D01*
X152058Y105259D01*
X152014Y105297D01*
X151492Y105819D01*
Y118083D01*
X155501Y122091D01*
Y105913D01*
X155462Y105930D01*
X155229Y106007D01*
X154989Y106061D01*
X154745Y106093D01*
X154500Y106103D01*
X154255Y106093D01*
X154011Y106061D01*
X153771Y106007D01*
X153537Y105933D01*
X153465Y105901D01*
X153400Y105857D01*
X153341Y105804D01*
X153292Y105742D01*
X153254Y105673D01*
X153226Y105599D01*
X153210Y105521D01*
X153207Y105443D01*
X153216Y105364D01*
X153237Y105288D01*
X153270Y105216D01*
X153314Y105150D01*
X153367Y105092D01*
X153429Y105043D01*
X153498Y105004D01*
X153572Y104977D01*
X153649Y104961D01*
X153728Y104958D01*
X153807Y104967D01*
X153882Y104990D01*
X154032Y105039D01*
X154186Y105073D01*
X154342Y105094D01*
X154500Y105101D01*
X154658Y105094D01*
X154814Y105073D01*
X154968Y105039D01*
X155118Y104991D01*
X155194Y104969D01*
X155272Y104960D01*
X155350Y104963D01*
X155427Y104979D01*
X155501Y105006D01*
Y101598D01*
X155428Y101625D01*
X155351Y101640D01*
X155272Y101644D01*
X155193Y101635D01*
X155118Y101612D01*
X154968Y101563D01*
X154814Y101528D01*
X154658Y101508D01*
X154500Y101501D01*
X154342Y101508D01*
X154186Y101528D01*
X154032Y101563D01*
X153882Y101610D01*
X153806Y101633D01*
X153728Y101642D01*
X153650Y101639D01*
X153573Y101623D01*
X153499Y101596D01*
X153430Y101557D01*
X153369Y101508D01*
X153315Y101450D01*
X153272Y101385D01*
X153239Y101313D01*
X153218Y101237D01*
X153209Y101159D01*
X153212Y101080D01*
X153228Y101003D01*
X153255Y100929D01*
X153294Y100861D01*
X153343Y100799D01*
X153401Y100746D01*
X153466Y100702D01*
X153538Y100671D01*
X153771Y100594D01*
X154011Y100541D01*
X154255Y100509D01*
X154500Y100498D01*
X154745Y100509D01*
X154989Y100541D01*
X155229Y100594D01*
X155463Y100669D01*
X155501Y100686D01*
Y77556D01*
G37*
G36*
Y2201D02*X137996D01*
Y48196D01*
X142500Y52701D01*
Y71084D01*
X142775Y71198D01*
X143151Y71429D01*
X143177Y71451D01*
X148931D01*
X149308Y71009D01*
X149847Y70549D01*
X150451Y70179D01*
X151105Y69908D01*
X151794Y69742D01*
X152500Y69687D01*
X153206Y69742D01*
X153895Y69908D01*
X154549Y70179D01*
X155153Y70549D01*
X155501Y70846D01*
Y67556D01*
X155153Y67853D01*
X154549Y68223D01*
X153895Y68494D01*
X153206Y68659D01*
X152500Y68715D01*
X151794Y68659D01*
X151105Y68494D01*
X150451Y68223D01*
X149847Y67853D01*
X149308Y67393D01*
X148848Y66854D01*
X148478Y66250D01*
X148207Y65596D01*
X148042Y64907D01*
X147986Y64201D01*
X148042Y63495D01*
X148207Y62806D01*
X148478Y62152D01*
X148848Y61548D01*
X149308Y61009D01*
X149847Y60549D01*
X150451Y60179D01*
X151105Y59908D01*
X151794Y59742D01*
X152500Y59687D01*
X153206Y59742D01*
X153895Y59908D01*
X154549Y60179D01*
X155153Y60549D01*
X155501Y60846D01*
Y58701D01*
X155500Y58701D01*
X149265Y58687D01*
X149035Y58632D01*
X148817Y58541D01*
X148616Y58418D01*
X148436Y58265D01*
X148283Y58085D01*
X148159Y57884D01*
X148069Y57666D01*
X148014Y57436D01*
X148000Y57201D01*
X148014Y50965D01*
X148069Y50736D01*
X148159Y50518D01*
X148283Y50316D01*
X148436Y50137D01*
X148616Y49984D01*
X148817Y49860D01*
X149035Y49770D01*
X149265Y49715D01*
X149500Y49701D01*
X155501Y49714D01*
Y2201D01*
G37*
G36*
Y241132D02*X151912D01*
X151653Y241353D01*
X151049Y241723D01*
X150395Y241994D01*
X149706Y242159D01*
X149000Y242215D01*
X148294Y242159D01*
X147605Y241994D01*
X146951Y241723D01*
X146347Y241353D01*
X146088Y241132D01*
X141912D01*
X141653Y241353D01*
X141049Y241723D01*
X140395Y241994D01*
X139706Y242159D01*
X139000Y242215D01*
X138294Y242159D01*
X137996Y242088D01*
Y246201D01*
X155501D01*
Y241132D01*
G37*
G36*
Y146951D02*X153270D01*
Y150413D01*
X153279Y150411D01*
X153358Y150408D01*
X153437Y150417D01*
X153513Y150438D01*
X153585Y150471D01*
X153650Y150515D01*
X153709Y150568D01*
X153758Y150630D01*
X153796Y150699D01*
X153824Y150773D01*
X153840Y150850D01*
X153843Y150929D01*
X153834Y151008D01*
X153811Y151083D01*
X153762Y151233D01*
X153728Y151387D01*
X153707Y151543D01*
X153700Y151701D01*
X153707Y151858D01*
X153728Y152015D01*
X153762Y152169D01*
X153810Y152319D01*
X153832Y152394D01*
X153841Y152473D01*
X153838Y152551D01*
X153822Y152628D01*
X153795Y152702D01*
X153756Y152771D01*
X153707Y152832D01*
X153649Y152886D01*
X153584Y152929D01*
X153512Y152962D01*
X153436Y152983D01*
X153358Y152992D01*
X153280Y152989D01*
X153270Y152987D01*
Y203903D01*
X153341Y204018D01*
X153431Y204236D01*
X153486Y204465D01*
X153500Y204701D01*
X153486Y210936D01*
X153431Y211166D01*
X153341Y211384D01*
X153270Y211499D01*
Y214491D01*
X153500Y214261D01*
Y221140D01*
X153270Y220910D01*
Y226251D01*
X153293Y226306D01*
X153458Y226995D01*
X153500Y227701D01*
X153458Y228407D01*
X153293Y229096D01*
X153270Y229151D01*
Y234270D01*
X155501D01*
Y230533D01*
X155348Y230354D01*
X154978Y229750D01*
X154707Y229096D01*
X154542Y228407D01*
X154486Y227701D01*
X154542Y226995D01*
X154707Y226306D01*
X154978Y225652D01*
X155348Y225048D01*
X155501Y224869D01*
Y154503D01*
X155500Y154503D01*
X155255Y154493D01*
X155011Y154461D01*
X154771Y154407D01*
X154537Y154333D01*
X154465Y154301D01*
X154400Y154257D01*
X154341Y154204D01*
X154292Y154142D01*
X154254Y154073D01*
X154226Y153999D01*
X154210Y153921D01*
X154207Y153843D01*
X154216Y153764D01*
X154237Y153688D01*
X154270Y153616D01*
X154314Y153550D01*
X154367Y153492D01*
X154429Y153443D01*
X154498Y153404D01*
X154572Y153377D01*
X154649Y153361D01*
X154728Y153358D01*
X154807Y153367D01*
X154882Y153390D01*
X155032Y153439D01*
X155186Y153473D01*
X155342Y153494D01*
X155500Y153501D01*
X155501Y153501D01*
Y149901D01*
X155500Y149901D01*
X155342Y149908D01*
X155186Y149928D01*
X155032Y149963D01*
X154882Y150010D01*
X154806Y150033D01*
X154728Y150042D01*
X154650Y150039D01*
X154573Y150023D01*
X154499Y149996D01*
X154430Y149957D01*
X154369Y149908D01*
X154315Y149850D01*
X154272Y149785D01*
X154239Y149713D01*
X154218Y149637D01*
X154209Y149559D01*
X154212Y149480D01*
X154228Y149403D01*
X154255Y149329D01*
X154294Y149261D01*
X154343Y149199D01*
X154401Y149146D01*
X154466Y149102D01*
X154538Y149071D01*
X154771Y148994D01*
X155011Y148941D01*
X155255Y148909D01*
X155500Y148898D01*
X155501Y148898D01*
Y146951D01*
G37*
G36*
X149000Y233187D02*X149706Y233242D01*
X150395Y233408D01*
X151049Y233679D01*
X151653Y234049D01*
X151912Y234270D01*
X153270D01*
Y229151D01*
X153022Y229750D01*
X152652Y230354D01*
X152192Y230893D01*
X151653Y231353D01*
X151049Y231723D01*
X150395Y231994D01*
X149706Y232159D01*
X149000Y232215D01*
Y233187D01*
G37*
G36*
X153270Y211499D02*X153217Y211585D01*
X153064Y211765D01*
X152884Y211918D01*
X152683Y212041D01*
X152465Y212132D01*
X152235Y212187D01*
X152000Y212201D01*
X149000Y212194D01*
Y213201D01*
X152439D01*
X150939Y214701D01*
X149000D01*
Y220701D01*
X150939D01*
X152439Y222201D01*
X149000D01*
Y223187D01*
X149706Y223242D01*
X150395Y223408D01*
X151049Y223679D01*
X151653Y224049D01*
X152192Y224509D01*
X152652Y225048D01*
X153022Y225652D01*
X153270Y226251D01*
Y220910D01*
X152000Y219640D01*
Y215761D01*
X153270Y214491D01*
Y211499D01*
G37*
G36*
X145250Y234270D02*X146088D01*
X146347Y234049D01*
X146951Y233679D01*
X147605Y233408D01*
X148294Y233242D01*
X149000Y233187D01*
Y232215D01*
X148294Y232159D01*
X147605Y231994D01*
X146951Y231723D01*
X146347Y231353D01*
X145808Y230893D01*
X145348Y230354D01*
X145250Y230194D01*
Y234270D01*
G37*
G36*
X149000Y212194D02*X145765Y212187D01*
X145535Y212132D01*
X145317Y212041D01*
X145250Y212000D01*
Y215011D01*
X146000Y215761D01*
Y219640D01*
X145250Y220390D01*
Y225208D01*
X145348Y225048D01*
X145808Y224509D01*
X146347Y224049D01*
X146951Y223679D01*
X147605Y223408D01*
X148294Y223242D01*
X149000Y223187D01*
Y222201D01*
X145561D01*
X147061Y220701D01*
X149000D01*
Y214701D01*
X147061D01*
X145561Y213201D01*
X149000D01*
Y212194D01*
G37*
G36*
X145250Y212000D02*X145116Y211918D01*
X144936Y211765D01*
X144783Y211585D01*
X144659Y211384D01*
X144569Y211166D01*
X144514Y210936D01*
X144500Y210701D01*
X144514Y204465D01*
X144569Y204236D01*
X144659Y204018D01*
X144700Y203951D01*
X142542D01*
Y204919D01*
X142652Y205048D01*
X143022Y205652D01*
X143293Y206306D01*
X143458Y206995D01*
X143500Y207701D01*
X143458Y208407D01*
X143293Y209096D01*
X143022Y209750D01*
X142652Y210354D01*
X142542Y210482D01*
Y215219D01*
X142675Y215086D01*
X143022Y215652D01*
X143293Y216306D01*
X143458Y216995D01*
X143500Y217701D01*
X143458Y218407D01*
X143293Y219096D01*
X143022Y219750D01*
X142675Y220316D01*
X142542Y220182D01*
Y224919D01*
X142652Y225048D01*
X143022Y225652D01*
X143293Y226306D01*
X143458Y226995D01*
X143500Y227701D01*
X143458Y228407D01*
X143293Y229096D01*
X143022Y229750D01*
X142652Y230354D01*
X142542Y230482D01*
Y234270D01*
X145250D01*
Y230194D01*
X144978Y229750D01*
X144707Y229096D01*
X144542Y228407D01*
X144486Y227701D01*
X144542Y226995D01*
X144707Y226306D01*
X144978Y225652D01*
X145250Y225208D01*
Y220390D01*
X144500Y221140D01*
Y214261D01*
X145250Y215011D01*
Y212000D01*
G37*
G36*
X142542Y230482D02*X142192Y230893D01*
X141653Y231353D01*
X141049Y231723D01*
X140395Y231994D01*
X139706Y232159D01*
X139000Y232215D01*
X138294Y232159D01*
X137996Y232088D01*
Y233314D01*
X138294Y233242D01*
X139000Y233187D01*
X139706Y233242D01*
X140395Y233408D01*
X141049Y233679D01*
X141653Y234049D01*
X141912Y234270D01*
X142542D01*
Y230482D01*
G37*
G36*
Y210482D02*X142192Y210893D01*
X141653Y211353D01*
X141049Y211723D01*
X140395Y211994D01*
X139706Y212159D01*
X139000Y212215D01*
X138294Y212159D01*
X137996Y212088D01*
Y213314D01*
X138294Y213242D01*
X139000Y213187D01*
X139706Y213242D01*
X140395Y213408D01*
X141049Y213679D01*
X141615Y214025D01*
X140524Y215116D01*
X140366Y215020D01*
X139930Y214839D01*
X139471Y214729D01*
X139000Y214692D01*
X138529Y214729D01*
X138070Y214839D01*
X137996Y214870D01*
Y220532D01*
X138070Y220563D01*
X138529Y220673D01*
X139000Y220710D01*
X139471Y220673D01*
X139930Y220563D01*
X140366Y220382D01*
X140524Y220285D01*
X141615Y221376D01*
X141049Y221723D01*
X140395Y221994D01*
X139706Y222159D01*
X139000Y222215D01*
X138294Y222159D01*
X137996Y222088D01*
Y223314D01*
X138294Y223242D01*
X139000Y223187D01*
X139706Y223242D01*
X140395Y223408D01*
X141049Y223679D01*
X141653Y224049D01*
X142192Y224509D01*
X142542Y224919D01*
Y220182D01*
X141585Y219225D01*
X141681Y219067D01*
X141862Y218631D01*
X141972Y218172D01*
X142000Y217701D01*
X141972Y217230D01*
X141862Y216771D01*
X141681Y216335D01*
X141585Y216177D01*
X142542Y215219D01*
Y210482D01*
G37*
G36*
Y203951D02*X141493D01*
X141653Y204049D01*
X142192Y204509D01*
X142542Y204919D01*
Y203951D01*
G37*
G36*
X153270Y146951D02*X152189D01*
Y163406D01*
X152274Y163761D01*
X152300Y164201D01*
X152274Y164640D01*
X152189Y164995D01*
Y169406D01*
X152274Y169761D01*
X152300Y170201D01*
X152274Y170640D01*
X152189Y170995D01*
Y180219D01*
X152305Y180103D01*
X152503Y180426D01*
X152671Y180833D01*
X152774Y181261D01*
X152800Y181701D01*
X152774Y182140D01*
X152671Y182569D01*
X152503Y182976D01*
X152305Y183298D01*
X152189Y183182D01*
Y200406D01*
X152274Y200761D01*
X152300Y201201D01*
X152274Y201640D01*
X152189Y201995D01*
Y203215D01*
X152235Y203215D01*
X152465Y203270D01*
X152683Y203360D01*
X152884Y203484D01*
X153064Y203637D01*
X153217Y203816D01*
X153270Y203903D01*
Y152987D01*
X153202Y152973D01*
X153129Y152946D01*
X153060Y152907D01*
X152998Y152858D01*
X152945Y152800D01*
X152902Y152735D01*
X152870Y152663D01*
X152794Y152429D01*
X152740Y152190D01*
X152708Y151946D01*
X152697Y151701D01*
X152708Y151455D01*
X152740Y151212D01*
X152794Y150972D01*
X152868Y150738D01*
X152900Y150666D01*
X152944Y150600D01*
X152997Y150542D01*
X153059Y150493D01*
X153128Y150454D01*
X153202Y150427D01*
X153270Y150413D01*
Y146951D01*
G37*
G36*
X152189Y201995D02*X152171Y202069D01*
X152003Y202476D01*
X151772Y202852D01*
X151486Y203187D01*
X151455Y203213D01*
X152189Y203215D01*
Y201995D01*
G37*
G36*
Y170995D02*X152171Y171069D01*
X152003Y171476D01*
X151772Y171852D01*
X151486Y172187D01*
X151151Y172473D01*
X150775Y172703D01*
X150368Y172872D01*
X150000Y172960D01*
Y178892D01*
X150439Y178927D01*
X150868Y179030D01*
X151275Y179198D01*
X151598Y179396D01*
X150871Y180123D01*
X150820Y180092D01*
X150558Y179984D01*
X150282Y179917D01*
X150000Y179895D01*
Y183506D01*
X150282Y183484D01*
X150558Y183418D01*
X150820Y183310D01*
X150871Y183278D01*
X151598Y184006D01*
X151275Y184203D01*
X150868Y184372D01*
X150439Y184475D01*
X150000Y184509D01*
Y198441D01*
X150368Y198530D01*
X150775Y198698D01*
X151151Y198929D01*
X151486Y199215D01*
X151772Y199550D01*
X152003Y199926D01*
X152171Y200333D01*
X152189Y200406D01*
Y183182D01*
X151578Y182571D01*
X151609Y182520D01*
X151717Y182259D01*
X151783Y181983D01*
X151800Y181701D01*
X151783Y181418D01*
X151717Y181143D01*
X151609Y180881D01*
X151578Y180830D01*
X152189Y180219D01*
Y170995D01*
G37*
G36*
Y164995D02*X152171Y165069D01*
X152003Y165476D01*
X151772Y165852D01*
X151486Y166187D01*
X151151Y166473D01*
X150775Y166703D01*
X150368Y166872D01*
X150000Y166960D01*
Y167441D01*
X150368Y167530D01*
X150775Y167698D01*
X151151Y167929D01*
X151486Y168215D01*
X151772Y168550D01*
X152003Y168926D01*
X152171Y169333D01*
X152189Y169406D01*
Y164995D01*
G37*
G36*
Y146951D02*X151444D01*
X151509Y147224D01*
X151547Y147701D01*
X151509Y148177D01*
X151398Y148642D01*
X151215Y149084D01*
X150965Y149492D01*
X150724Y149773D01*
X150715Y150516D01*
X150774Y150761D01*
X150800Y151201D01*
X150774Y151640D01*
X150671Y152069D01*
X150503Y152476D01*
X150272Y152852D01*
X150000Y153170D01*
Y161441D01*
X150368Y161530D01*
X150775Y161698D01*
X151151Y161929D01*
X151486Y162215D01*
X151772Y162550D01*
X152003Y162926D01*
X152171Y163333D01*
X152189Y163406D01*
Y146951D01*
G37*
G36*
X150000Y172960D02*X149939Y172975D01*
X149500Y173009D01*
X149061Y172975D01*
X148632Y172872D01*
X148225Y172703D01*
X147849Y172473D01*
X147807Y172437D01*
Y180215D01*
X148422Y180830D01*
X148391Y180881D01*
X148283Y181143D01*
X148217Y181418D01*
X148194Y181701D01*
X148217Y181983D01*
X148283Y182259D01*
X148391Y182520D01*
X148422Y182571D01*
X147807Y183187D01*
Y198965D01*
X147849Y198929D01*
X148225Y198698D01*
X148632Y198530D01*
X149061Y198427D01*
X149500Y198392D01*
X149939Y198427D01*
X150000Y198441D01*
Y184509D01*
X149561Y184475D01*
X149132Y184372D01*
X148725Y184203D01*
X148402Y184006D01*
X149129Y183278D01*
X149180Y183310D01*
X149442Y183418D01*
X149718Y183484D01*
X150000Y183506D01*
Y179895D01*
X149718Y179917D01*
X149442Y179984D01*
X149180Y180092D01*
X149129Y180123D01*
X148402Y179396D01*
X148725Y179198D01*
X149132Y179030D01*
X149561Y178927D01*
X150000Y178892D01*
Y172960D01*
G37*
G36*
Y166960D02*X149939Y166975D01*
X149500Y167009D01*
X149412Y167002D01*
X149827Y167418D01*
X149939Y167427D01*
X150000Y167441D01*
Y166960D01*
G37*
G36*
Y153170D02*X149986Y153187D01*
X149651Y153473D01*
X149275Y153703D01*
X148868Y153872D01*
X148439Y153975D01*
X148000Y154009D01*
X147807Y153994D01*
Y155718D01*
X148151Y155929D01*
X148486Y156215D01*
X148772Y156550D01*
X149003Y156926D01*
X149171Y157333D01*
X149274Y157761D01*
X149300Y158201D01*
X149274Y158640D01*
X149171Y159069D01*
X149003Y159476D01*
X148772Y159852D01*
X148486Y160187D01*
X148151Y160473D01*
X147807Y160684D01*
Y161965D01*
X147849Y161929D01*
X148225Y161698D01*
X148632Y161530D01*
X149061Y161427D01*
X149500Y161392D01*
X149939Y161427D01*
X150000Y161441D01*
Y153170D01*
G37*
G36*
X147807Y172437D02*X147514Y172187D01*
X147228Y171852D01*
X146997Y171476D01*
X146829Y171069D01*
X146726Y170640D01*
X146691Y170201D01*
X146726Y169761D01*
X146829Y169333D01*
X146997Y168926D01*
X147042Y168853D01*
X140382Y162193D01*
X138870D01*
X138772Y162352D01*
X138753Y162374D01*
X138895Y162408D01*
X139549Y162679D01*
X140153Y163049D01*
X140692Y163509D01*
X141152Y164048D01*
X141522Y164652D01*
X141793Y165306D01*
X141958Y165995D01*
X142000Y166701D01*
X141958Y167407D01*
X141793Y168096D01*
X141522Y168750D01*
X141152Y169354D01*
X140692Y169893D01*
X140153Y170353D01*
X139549Y170723D01*
X138895Y170994D01*
X138206Y171159D01*
X137996Y171176D01*
Y180412D01*
X138305Y180103D01*
X138503Y180426D01*
X138671Y180833D01*
X138774Y181261D01*
X138800Y181701D01*
X138774Y182140D01*
X138671Y182569D01*
X138503Y182976D01*
X138305Y183298D01*
X137996Y182989D01*
Y199451D01*
X147312D01*
X147514Y199215D01*
X147807Y198965D01*
Y183187D01*
X147695Y183298D01*
X147497Y182976D01*
X147329Y182569D01*
X147226Y182140D01*
X147191Y181701D01*
X147226Y181261D01*
X147329Y180833D01*
X147497Y180426D01*
X147695Y180103D01*
X147807Y180215D01*
Y172437D01*
G37*
G36*
Y160684D02*X147775Y160703D01*
X147368Y160872D01*
X146939Y160975D01*
X146500Y161009D01*
X146412Y161002D01*
X147573Y162164D01*
X147807Y161965D01*
Y160684D01*
G37*
G36*
Y153994D02*X147711Y153987D01*
X147442Y154098D01*
X146977Y154210D01*
X146500Y154248D01*
X146023Y154210D01*
X145558Y154098D01*
X145117Y153915D01*
X144709Y153666D01*
X144346Y153355D01*
X144035Y152992D01*
X143785Y152584D01*
X143602Y152142D01*
X143491Y151677D01*
X143463Y151201D01*
Y150738D01*
X137996D01*
Y151209D01*
X138942D01*
X139000Y151204D01*
X139234Y151222D01*
X139234D01*
X139463Y151277D01*
X139680Y151367D01*
X139880Y151490D01*
X140058Y151642D01*
X140096Y151687D01*
X144573Y156164D01*
X144849Y155929D01*
X145225Y155698D01*
X145632Y155530D01*
X146061Y155427D01*
X146500Y155392D01*
X146939Y155427D01*
X147368Y155530D01*
X147775Y155698D01*
X147807Y155718D01*
Y153994D01*
G37*
G36*
X137996Y2201D02*X128500D01*
Y38701D01*
X137996Y48196D01*
Y2201D01*
G37*
G36*
X133807Y159924D02*X133829Y159833D01*
X133997Y159426D01*
X134228Y159050D01*
X134514Y158715D01*
X134849Y158429D01*
X135225Y158198D01*
X135238Y158193D01*
X135114Y158087D01*
X134828Y157752D01*
X134597Y157376D01*
X134429Y156969D01*
X134326Y156540D01*
X134291Y156101D01*
X134326Y155661D01*
X134429Y155233D01*
X134597Y154826D01*
X134828Y154450D01*
X135047Y154193D01*
X133807D01*
Y159924D01*
G37*
G36*
Y164115D02*X133848Y164048D01*
X134308Y163509D01*
X134847Y163049D01*
X134910Y163010D01*
X134849Y162973D01*
X134514Y162687D01*
X134228Y162352D01*
X133997Y161976D01*
X133829Y161569D01*
X133807Y161477D01*
Y164115D01*
G37*
G36*
X136000Y199441D02*X136061Y199427D01*
X136500Y199392D01*
X136939Y199427D01*
X137040Y199451D01*
X137996D01*
Y182989D01*
X137578Y182571D01*
X137609Y182520D01*
X137717Y182259D01*
X137783Y181983D01*
X137800Y181701D01*
X137783Y181418D01*
X137717Y181143D01*
X137609Y180881D01*
X137578Y180830D01*
X137996Y180412D01*
Y171176D01*
X137500Y171215D01*
X136794Y171159D01*
X136105Y170994D01*
X136000Y170950D01*
Y178892D01*
X136439Y178927D01*
X136868Y179030D01*
X137275Y179198D01*
X137598Y179396D01*
X136871Y180123D01*
X136820Y180092D01*
X136558Y179984D01*
X136282Y179917D01*
X136000Y179895D01*
Y183506D01*
X136282Y183484D01*
X136558Y183418D01*
X136820Y183310D01*
X136871Y183278D01*
X137598Y184006D01*
X137275Y184203D01*
X136868Y184372D01*
X136439Y184475D01*
X136000Y184509D01*
Y199441D01*
G37*
G36*
X133807Y199451D02*X135960D01*
X136000Y199441D01*
Y184509D01*
X135561Y184475D01*
X135132Y184372D01*
X134725Y184203D01*
X134402Y184006D01*
X135129Y183278D01*
X135180Y183310D01*
X135442Y183418D01*
X135718Y183484D01*
X136000Y183506D01*
Y179895D01*
X135718Y179917D01*
X135442Y179984D01*
X135180Y180092D01*
X135129Y180123D01*
X134402Y179396D01*
X134725Y179198D01*
X135132Y179030D01*
X135561Y178927D01*
X136000Y178892D01*
Y170950D01*
X135451Y170723D01*
X134847Y170353D01*
X134308Y169893D01*
X133848Y169354D01*
X133807Y169287D01*
Y180215D01*
X134422Y180830D01*
X134391Y180881D01*
X134283Y181143D01*
X134217Y181418D01*
X134194Y181701D01*
X134217Y181983D01*
X134283Y182259D01*
X134391Y182520D01*
X134422Y182571D01*
X133807Y183187D01*
Y199451D01*
G37*
G36*
X135451Y204928D02*X135533Y204831D01*
X135451Y204797D01*
Y204928D01*
G37*
G36*
Y224928D02*X135808Y224509D01*
X136347Y224049D01*
X136951Y223679D01*
X137605Y223408D01*
X137996Y223314D01*
Y222088D01*
X137605Y221994D01*
X136951Y221723D01*
X136385Y221376D01*
X137476Y220285D01*
X137634Y220382D01*
X137996Y220532D01*
Y214870D01*
X137634Y215020D01*
X137476Y215116D01*
X136385Y214025D01*
X136951Y213679D01*
X137605Y213408D01*
X137996Y213314D01*
Y212088D01*
X137605Y211994D01*
X136951Y211723D01*
X136347Y211353D01*
X135808Y210893D01*
X135451Y210474D01*
Y215212D01*
X136415Y216177D01*
X136319Y216335D01*
X136138Y216771D01*
X136028Y217230D01*
X135991Y217701D01*
X136028Y218172D01*
X136138Y218631D01*
X136319Y219067D01*
X136415Y219225D01*
X135451Y220189D01*
Y224928D01*
G37*
G36*
Y234270D02*X136088D01*
X136347Y234049D01*
X136951Y233679D01*
X137605Y233408D01*
X137996Y233314D01*
Y232088D01*
X137605Y231994D01*
X136951Y231723D01*
X136347Y231353D01*
X135808Y230893D01*
X135451Y230474D01*
Y234270D01*
G37*
G36*
X133807D02*X135451D01*
Y230474D01*
X135348Y230354D01*
X134978Y229750D01*
X134707Y229096D01*
X134542Y228407D01*
X134486Y227701D01*
X134542Y226995D01*
X134707Y226306D01*
X134978Y225652D01*
X135348Y225048D01*
X135451Y224928D01*
Y220189D01*
X135325Y220316D01*
X134978Y219750D01*
X134707Y219096D01*
X134542Y218407D01*
X134486Y217701D01*
X134542Y216995D01*
X134707Y216306D01*
X134978Y215652D01*
X135325Y215086D01*
X135451Y215212D01*
Y210474D01*
X135348Y210354D01*
X134978Y209750D01*
X134707Y209096D01*
X134542Y208407D01*
X134486Y207701D01*
X134542Y206995D01*
X134707Y206306D01*
X134978Y205652D01*
X135348Y205048D01*
X135451Y204928D01*
Y204797D01*
X135225Y204703D01*
X134849Y204473D01*
X134514Y204187D01*
X134312Y203951D01*
X133807D01*
Y234270D01*
G37*
G36*
Y246201D02*X137996D01*
Y242088D01*
X137605Y241994D01*
X136951Y241723D01*
X136347Y241353D01*
X136088Y241132D01*
X133807D01*
Y246201D01*
G37*
G36*
X137996Y150738D02*X133807D01*
Y151209D01*
X137996D01*
Y150738D01*
G37*
G36*
X119807Y199451D02*X120008D01*
Y197680D01*
X119807Y197444D01*
Y199451D01*
G37*
G36*
X125451Y204928D02*X125808Y204509D01*
X126347Y204049D01*
X126507Y203951D01*
X125451D01*
Y204928D01*
G37*
G36*
X132542Y234270D02*X133807D01*
Y203951D01*
X132542D01*
Y204919D01*
X132652Y205048D01*
X133022Y205652D01*
X133293Y206306D01*
X133458Y206995D01*
X133500Y207701D01*
X133458Y208407D01*
X133293Y209096D01*
X133022Y209750D01*
X132652Y210354D01*
X132542Y210482D01*
Y215219D01*
X132675Y215086D01*
X133022Y215652D01*
X133293Y216306D01*
X133458Y216995D01*
X133500Y217701D01*
X133458Y218407D01*
X133293Y219096D01*
X133022Y219750D01*
X132675Y220316D01*
X132542Y220182D01*
Y224919D01*
X132652Y225048D01*
X133022Y225652D01*
X133293Y226306D01*
X133458Y226995D01*
X133500Y227701D01*
X133458Y228407D01*
X133293Y229096D01*
X133022Y229750D01*
X132652Y230354D01*
X132542Y230482D01*
Y234270D01*
G37*
G36*
Y210482D02*X132192Y210893D01*
X131653Y211353D01*
X131049Y211723D01*
X130395Y211994D01*
X129706Y212159D01*
X129000Y212215D01*
Y213187D01*
X129706Y213242D01*
X130395Y213408D01*
X131049Y213679D01*
X131615Y214025D01*
X130524Y215116D01*
X130366Y215020D01*
X129930Y214839D01*
X129471Y214729D01*
X129000Y214692D01*
Y220710D01*
X129471Y220673D01*
X129930Y220563D01*
X130366Y220382D01*
X130524Y220285D01*
X131615Y221376D01*
X131049Y221723D01*
X130395Y221994D01*
X129706Y222159D01*
X129000Y222215D01*
Y223187D01*
X129706Y223242D01*
X130395Y223408D01*
X131049Y223679D01*
X131653Y224049D01*
X132192Y224509D01*
X132542Y224919D01*
Y220182D01*
X131585Y219225D01*
X131681Y219067D01*
X131862Y218631D01*
X131972Y218172D01*
X132000Y217701D01*
X131972Y217230D01*
X131862Y216771D01*
X131681Y216335D01*
X131585Y216177D01*
X132542Y215219D01*
Y210482D01*
G37*
G36*
Y203951D02*X131493D01*
X131653Y204049D01*
X132192Y204509D01*
X132542Y204919D01*
Y203951D01*
G37*
G36*
X129000Y233187D02*X129706Y233242D01*
X130395Y233408D01*
X131049Y233679D01*
X131653Y234049D01*
X131912Y234270D01*
X132542D01*
Y230482D01*
X132192Y230893D01*
X131653Y231353D01*
X131049Y231723D01*
X130395Y231994D01*
X129706Y232159D01*
X129000Y232215D01*
Y233187D01*
G37*
G36*
Y212215D02*X128294Y212159D01*
X127605Y211994D01*
X126951Y211723D01*
X126347Y211353D01*
X125808Y210893D01*
X125451Y210474D01*
Y215212D01*
X126415Y216177D01*
X126319Y216335D01*
X126138Y216771D01*
X126028Y217230D01*
X125991Y217701D01*
X126028Y218172D01*
X126138Y218631D01*
X126319Y219067D01*
X126415Y219225D01*
X125451Y220189D01*
Y224928D01*
X125808Y224509D01*
X126347Y224049D01*
X126951Y223679D01*
X127605Y223408D01*
X128294Y223242D01*
X129000Y223187D01*
Y222215D01*
X128294Y222159D01*
X127605Y221994D01*
X126951Y221723D01*
X126385Y221376D01*
X127476Y220285D01*
X127634Y220382D01*
X128070Y220563D01*
X128529Y220673D01*
X129000Y220710D01*
Y214692D01*
X128529Y214729D01*
X128070Y214839D01*
X127634Y215020D01*
X127476Y215116D01*
X126385Y214025D01*
X126951Y213679D01*
X127605Y213408D01*
X128294Y213242D01*
X129000Y213187D01*
Y212215D01*
G37*
G36*
X125451Y234270D02*X126088D01*
X126347Y234049D01*
X126951Y233679D01*
X127605Y233408D01*
X128294Y233242D01*
X129000Y233187D01*
Y232215D01*
X128294Y232159D01*
X127605Y231994D01*
X126951Y231723D01*
X126347Y231353D01*
X125808Y230893D01*
X125451Y230474D01*
Y234270D01*
G37*
G36*
X122542D02*X125451D01*
Y230474D01*
X125348Y230354D01*
X124978Y229750D01*
X124707Y229096D01*
X124542Y228407D01*
X124486Y227701D01*
X124542Y226995D01*
X124707Y226306D01*
X124978Y225652D01*
X125348Y225048D01*
X125451Y224928D01*
Y220189D01*
X125325Y220316D01*
X124978Y219750D01*
X124707Y219096D01*
X124542Y218407D01*
X124486Y217701D01*
X124542Y216995D01*
X124707Y216306D01*
X124978Y215652D01*
X125325Y215086D01*
X125451Y215212D01*
Y210474D01*
X125348Y210354D01*
X124978Y209750D01*
X124707Y209096D01*
X124542Y208407D01*
X124486Y207701D01*
X124542Y206995D01*
X124707Y206306D01*
X124978Y205652D01*
X125348Y205048D01*
X125451Y204928D01*
Y203951D01*
X122542D01*
Y204919D01*
X122652Y205048D01*
X123022Y205652D01*
X123293Y206306D01*
X123458Y206995D01*
X123500Y207701D01*
X123458Y208407D01*
X123293Y209096D01*
X123022Y209750D01*
X122652Y210354D01*
X122542Y210482D01*
Y215219D01*
X122675Y215086D01*
X123022Y215652D01*
X123293Y216306D01*
X123458Y216995D01*
X123500Y217701D01*
X123458Y218407D01*
X123293Y219096D01*
X123022Y219750D01*
X122675Y220316D01*
X122542Y220182D01*
Y224919D01*
X122652Y225048D01*
X123022Y225652D01*
X123293Y226306D01*
X123458Y226995D01*
X123500Y227701D01*
X123458Y228407D01*
X123293Y229096D01*
X123022Y229750D01*
X122652Y230354D01*
X122542Y230482D01*
Y234270D01*
G37*
G36*
Y210482D02*X122192Y210893D01*
X121653Y211353D01*
X121049Y211723D01*
X120395Y211994D01*
X119807Y212135D01*
Y213267D01*
X120395Y213408D01*
X121049Y213679D01*
X121615Y214025D01*
X120524Y215116D01*
X120366Y215020D01*
X119930Y214839D01*
X119807Y214809D01*
Y220592D01*
X119930Y220563D01*
X120366Y220382D01*
X120524Y220285D01*
X121615Y221376D01*
X121049Y221723D01*
X120395Y221994D01*
X119807Y222135D01*
Y223267D01*
X120395Y223408D01*
X121049Y223679D01*
X121653Y224049D01*
X122192Y224509D01*
X122542Y224919D01*
Y220182D01*
X121585Y219225D01*
X121681Y219067D01*
X121862Y218631D01*
X121972Y218172D01*
X122000Y217701D01*
X121972Y217230D01*
X121862Y216771D01*
X121681Y216335D01*
X121585Y216177D01*
X122542Y215219D01*
Y210482D01*
G37*
G36*
Y203951D02*X121493D01*
X121653Y204049D01*
X122192Y204509D01*
X122542Y204919D01*
Y203951D01*
G37*
G36*
X119807Y233267D02*X120395Y233408D01*
X121049Y233679D01*
X121653Y234049D01*
X121912Y234270D01*
X122542D01*
Y230482D01*
X122192Y230893D01*
X121653Y231353D01*
X121049Y231723D01*
X120395Y231994D01*
X119807Y232135D01*
Y233267D01*
G37*
G36*
Y246201D02*X133807D01*
Y241132D01*
X131912D01*
X131653Y241353D01*
X131049Y241723D01*
X130395Y241994D01*
X129706Y242159D01*
X129000Y242215D01*
X128294Y242159D01*
X127605Y241994D01*
X126951Y241723D01*
X126347Y241353D01*
X126088Y241132D01*
X121912D01*
X121653Y241353D01*
X121049Y241723D01*
X120395Y241994D01*
X119807Y242135D01*
Y246201D01*
G37*
G36*
X124189Y193952D02*X124272Y194050D01*
X124503Y194426D01*
X124671Y194833D01*
X124774Y195261D01*
X124800Y195701D01*
X124774Y196140D01*
X124671Y196569D01*
X124503Y196976D01*
X124272Y197352D01*
X124189Y197449D01*
Y199451D01*
X133807D01*
Y183187D01*
X133695Y183298D01*
X133497Y182976D01*
X133329Y182569D01*
X133226Y182140D01*
X133191Y181701D01*
X133226Y181261D01*
X133329Y180833D01*
X133497Y180426D01*
X133695Y180103D01*
X133807Y180215D01*
Y169287D01*
X133478Y168750D01*
X133207Y168096D01*
X133042Y167407D01*
X132986Y166701D01*
X133042Y165995D01*
X133207Y165306D01*
X133478Y164652D01*
X133807Y164115D01*
Y161477D01*
X133726Y161140D01*
X133691Y160701D01*
X133726Y160261D01*
X133807Y159924D01*
Y154193D01*
X130118D01*
X129231Y155080D01*
X129274Y155261D01*
X129300Y155701D01*
X129274Y156140D01*
X129171Y156569D01*
X129003Y156976D01*
X128772Y157352D01*
X128486Y157687D01*
X128151Y157973D01*
X127775Y158203D01*
X127368Y158372D01*
X126939Y158475D01*
X126500Y158509D01*
X126061Y158475D01*
X125632Y158372D01*
X125225Y158203D01*
X124849Y157973D01*
X124514Y157687D01*
X124228Y157352D01*
X124189Y157288D01*
Y163649D01*
X124308Y163509D01*
X124847Y163049D01*
X125451Y162679D01*
X126105Y162408D01*
X126794Y162242D01*
X127500Y162187D01*
X128206Y162242D01*
X128895Y162408D01*
X129549Y162679D01*
X130153Y163049D01*
X130692Y163509D01*
X131152Y164048D01*
X131522Y164652D01*
X131793Y165306D01*
X131958Y165995D01*
X132000Y166701D01*
X131958Y167407D01*
X131793Y168096D01*
X131522Y168750D01*
X131152Y169354D01*
X130692Y169893D01*
X130153Y170353D01*
X129549Y170723D01*
X128895Y170994D01*
X128206Y171159D01*
X127500Y171215D01*
X126794Y171159D01*
X126105Y170994D01*
X125451Y170723D01*
X124847Y170353D01*
X124308Y169893D01*
X124189Y169753D01*
Y180219D01*
X124305Y180103D01*
X124503Y180426D01*
X124671Y180833D01*
X124774Y181261D01*
X124800Y181701D01*
X124774Y182140D01*
X124671Y182569D01*
X124503Y182976D01*
X124305Y183298D01*
X124189Y183182D01*
Y193952D01*
G37*
G36*
X133807Y150738D02*X124189D01*
Y154113D01*
X124228Y154050D01*
X124514Y153715D01*
X124849Y153429D01*
X125225Y153198D01*
X125632Y153030D01*
X126061Y152927D01*
X126500Y152892D01*
X126939Y152927D01*
X127120Y152970D01*
X128404Y151687D01*
X128442Y151642D01*
X128620Y151490D01*
X128620Y151490D01*
X128698Y151442D01*
X128820Y151367D01*
X129037Y151277D01*
X129092Y151264D01*
X129266Y151222D01*
X129500Y151204D01*
X129558Y151209D01*
X133807D01*
Y150738D01*
G37*
G36*
X124189Y197449D02*X123986Y197687D01*
X123651Y197973D01*
X123275Y198203D01*
X122992Y198321D01*
Y199451D01*
X124189D01*
Y197449D01*
G37*
G36*
Y150738D02*X122000D01*
Y178892D01*
X122439Y178927D01*
X122868Y179030D01*
X123275Y179198D01*
X123598Y179396D01*
X122871Y180123D01*
X122820Y180092D01*
X122558Y179984D01*
X122282Y179917D01*
X122000Y179895D01*
Y183506D01*
X122282Y183484D01*
X122558Y183418D01*
X122820Y183310D01*
X122871Y183278D01*
X123598Y184006D01*
X123275Y184203D01*
X122868Y184372D01*
X122439Y184475D01*
X122000Y184509D01*
Y192892D01*
X122439Y192927D01*
X122868Y193030D01*
X123275Y193198D01*
X123651Y193429D01*
X123986Y193715D01*
X124189Y193952D01*
Y183182D01*
X123578Y182571D01*
X123609Y182520D01*
X123717Y182259D01*
X123783Y181983D01*
X123800Y181701D01*
X123783Y181418D01*
X123717Y181143D01*
X123609Y180881D01*
X123578Y180830D01*
X124189Y180219D01*
Y169753D01*
X123848Y169354D01*
X123478Y168750D01*
X123207Y168096D01*
X123042Y167407D01*
X122986Y166701D01*
X123042Y165995D01*
X123207Y165306D01*
X123478Y164652D01*
X123848Y164048D01*
X124189Y163649D01*
Y157288D01*
X123997Y156976D01*
X123829Y156569D01*
X123726Y156140D01*
X123691Y155701D01*
X123726Y155261D01*
X123829Y154833D01*
X123997Y154426D01*
X124189Y154113D01*
Y150738D01*
G37*
G36*
X122000D02*X119807D01*
Y180215D01*
X120422Y180830D01*
X120391Y180881D01*
X120283Y181143D01*
X120217Y181418D01*
X120194Y181701D01*
X120217Y181983D01*
X120283Y182259D01*
X120391Y182520D01*
X120422Y182571D01*
X119807Y183187D01*
Y193957D01*
X120014Y193715D01*
X120349Y193429D01*
X120725Y193198D01*
X121132Y193030D01*
X121561Y192927D01*
X122000Y192892D01*
Y184509D01*
X121561Y184475D01*
X121132Y184372D01*
X120725Y184203D01*
X120402Y184006D01*
X121129Y183278D01*
X121180Y183310D01*
X121442Y183418D01*
X121718Y183484D01*
X122000Y183506D01*
Y179895D01*
X121718Y179917D01*
X121442Y179984D01*
X121180Y180092D01*
X121129Y180123D01*
X120402Y179396D01*
X120725Y179198D01*
X121132Y179030D01*
X121561Y178927D01*
X122000Y178892D01*
Y150738D01*
G37*
G36*
X115451Y204928D02*X115808Y204509D01*
X116347Y204049D01*
X116507Y203951D01*
X115451D01*
Y204928D01*
G37*
G36*
Y224928D02*X115808Y224509D01*
X116347Y224049D01*
X116951Y223679D01*
X117605Y223408D01*
X118294Y223242D01*
X119000Y223187D01*
X119706Y223242D01*
X119807Y223267D01*
Y222135D01*
X119706Y222159D01*
X119000Y222215D01*
X118294Y222159D01*
X117605Y221994D01*
X116951Y221723D01*
X116385Y221376D01*
X117476Y220285D01*
X117634Y220382D01*
X118070Y220563D01*
X118529Y220673D01*
X119000Y220710D01*
X119471Y220673D01*
X119807Y220592D01*
Y214809D01*
X119471Y214729D01*
X119000Y214692D01*
X118529Y214729D01*
X118070Y214839D01*
X117634Y215020D01*
X117476Y215116D01*
X116385Y214025D01*
X116951Y213679D01*
X117605Y213408D01*
X118294Y213242D01*
X119000Y213187D01*
X119706Y213242D01*
X119807Y213267D01*
Y212135D01*
X119706Y212159D01*
X119000Y212215D01*
X118294Y212159D01*
X117605Y211994D01*
X116951Y211723D01*
X116347Y211353D01*
X115808Y210893D01*
X115451Y210474D01*
Y215212D01*
X116415Y216177D01*
X116319Y216335D01*
X116138Y216771D01*
X116028Y217230D01*
X115991Y217701D01*
X116028Y218172D01*
X116138Y218631D01*
X116319Y219067D01*
X116415Y219225D01*
X115451Y220189D01*
Y224928D01*
G37*
G36*
Y234928D02*X115808Y234509D01*
X116347Y234049D01*
X116951Y233679D01*
X117605Y233408D01*
X118294Y233242D01*
X119000Y233187D01*
X119706Y233242D01*
X119807Y233267D01*
Y232135D01*
X119706Y232159D01*
X119000Y232215D01*
X118294Y232159D01*
X117605Y231994D01*
X116951Y231723D01*
X116347Y231353D01*
X115808Y230893D01*
X115451Y230474D01*
Y234928D01*
G37*
G36*
Y246201D02*X119807D01*
Y242135D01*
X119706Y242159D01*
X119000Y242215D01*
X118294Y242159D01*
X117605Y241994D01*
X116951Y241723D01*
X116347Y241353D01*
X115808Y240893D01*
X115451Y240474D01*
Y246201D01*
G37*
G36*
X112542D02*X115451D01*
Y240474D01*
X115348Y240354D01*
X114978Y239750D01*
X114707Y239096D01*
X114542Y238407D01*
X114486Y237701D01*
X114542Y236995D01*
X114707Y236306D01*
X114978Y235652D01*
X115348Y235048D01*
X115451Y234928D01*
Y230474D01*
X115348Y230354D01*
X114978Y229750D01*
X114707Y229096D01*
X114542Y228407D01*
X114486Y227701D01*
X114542Y226995D01*
X114707Y226306D01*
X114978Y225652D01*
X115348Y225048D01*
X115451Y224928D01*
Y220189D01*
X115325Y220316D01*
X114978Y219750D01*
X114707Y219096D01*
X114542Y218407D01*
X114486Y217701D01*
X114542Y216995D01*
X114707Y216306D01*
X114978Y215652D01*
X115325Y215086D01*
X115451Y215212D01*
Y210474D01*
X115348Y210354D01*
X114978Y209750D01*
X114707Y209096D01*
X114542Y208407D01*
X114486Y207701D01*
X114542Y206995D01*
X114707Y206306D01*
X114978Y205652D01*
X115348Y205048D01*
X115451Y204928D01*
Y203951D01*
X112542D01*
Y224919D01*
X112652Y225048D01*
X113022Y225652D01*
X113293Y226306D01*
X113458Y226995D01*
X113500Y227701D01*
X113458Y228407D01*
X113293Y229096D01*
X113022Y229750D01*
X112652Y230354D01*
X112542Y230482D01*
Y235219D01*
X112675Y235086D01*
X113022Y235652D01*
X113293Y236306D01*
X113458Y236995D01*
X113500Y237701D01*
X113458Y238407D01*
X113293Y239096D01*
X113022Y239750D01*
X112675Y240316D01*
X112542Y240182D01*
Y246201D01*
G37*
G36*
Y203951D02*X110188D01*
X109986Y204187D01*
X109651Y204473D01*
X109275Y204703D01*
X109000Y204817D01*
Y223187D01*
X109706Y223242D01*
X110395Y223408D01*
X111049Y223679D01*
X111653Y224049D01*
X112192Y224509D01*
X112542Y224919D01*
Y203951D01*
G37*
G36*
X109000Y246201D02*X112542D01*
Y240182D01*
X111585Y239225D01*
X111681Y239067D01*
X111862Y238631D01*
X111972Y238172D01*
X112000Y237701D01*
X111972Y237230D01*
X111862Y236771D01*
X111681Y236335D01*
X111585Y236177D01*
X112542Y235219D01*
Y230482D01*
X112192Y230893D01*
X111653Y231353D01*
X111049Y231723D01*
X110395Y231994D01*
X109706Y232159D01*
X109000Y232215D01*
Y233187D01*
X109706Y233242D01*
X110395Y233408D01*
X111049Y233679D01*
X111615Y234025D01*
X110524Y235116D01*
X110366Y235020D01*
X109930Y234839D01*
X109471Y234729D01*
X109000Y234692D01*
Y240710D01*
X109471Y240673D01*
X109930Y240563D01*
X110366Y240382D01*
X110524Y240285D01*
X111615Y241376D01*
X111049Y241723D01*
X110395Y241994D01*
X109706Y242159D01*
X109000Y242215D01*
Y246201D01*
G37*
G36*
Y204817D02*X108868Y204872D01*
X108439Y204975D01*
X108000Y205009D01*
X107561Y204975D01*
X107132Y204872D01*
X106725Y204703D01*
X106349Y204473D01*
X106014Y204187D01*
X105812Y203951D01*
X105807D01*
Y224511D01*
X105808Y224509D01*
X106347Y224049D01*
X106951Y223679D01*
X107605Y223408D01*
X108294Y223242D01*
X109000Y223187D01*
Y204817D01*
G37*
G36*
X105807Y246201D02*X109000D01*
Y242215D01*
X108294Y242159D01*
X107605Y241994D01*
X106951Y241723D01*
X106385Y241376D01*
X107476Y240285D01*
X107634Y240382D01*
X108070Y240563D01*
X108529Y240673D01*
X109000Y240710D01*
Y234692D01*
X108529Y234729D01*
X108070Y234839D01*
X107634Y235020D01*
X107476Y235116D01*
X106385Y234025D01*
X106951Y233679D01*
X107605Y233408D01*
X108294Y233242D01*
X109000Y233187D01*
Y232215D01*
X108294Y232159D01*
X107605Y231994D01*
X106951Y231723D01*
X106347Y231353D01*
X105808Y230893D01*
X105807Y230891D01*
Y235568D01*
X106415Y236177D01*
X106319Y236335D01*
X106138Y236771D01*
X106028Y237230D01*
X105991Y237701D01*
X106028Y238172D01*
X106138Y238631D01*
X106319Y239067D01*
X106415Y239225D01*
X105807Y239833D01*
Y246201D01*
G37*
G36*
X119807Y150738D02*X118000D01*
X117523Y150710D01*
X117058Y150598D01*
X116617Y150415D01*
X116266Y150201D01*
X110189D01*
Y162213D01*
X110735Y162215D01*
X110965Y162270D01*
X111183Y162360D01*
X111384Y162484D01*
X111564Y162637D01*
X111717Y162816D01*
X111841Y163018D01*
X111931Y163236D01*
X111986Y163465D01*
X112000Y163701D01*
X111986Y169936D01*
X111931Y170166D01*
X111841Y170384D01*
X111717Y170585D01*
X111564Y170765D01*
X111384Y170918D01*
X111183Y171041D01*
X110965Y171132D01*
X110735Y171187D01*
X110500Y171201D01*
X110189Y171200D01*
Y180219D01*
X110305Y180103D01*
X110503Y180426D01*
X110671Y180833D01*
X110774Y181261D01*
X110800Y181701D01*
X110774Y182140D01*
X110671Y182569D01*
X110503Y182976D01*
X110305Y183298D01*
X110189Y183182D01*
Y199451D01*
X119807D01*
Y197444D01*
X119728Y197352D01*
X119497Y196976D01*
X119329Y196569D01*
X119226Y196140D01*
X119191Y195701D01*
X119226Y195261D01*
X119329Y194833D01*
X119497Y194426D01*
X119728Y194050D01*
X119807Y193957D01*
Y183187D01*
X119695Y183298D01*
X119497Y182976D01*
X119329Y182569D01*
X119226Y182140D01*
X119191Y181701D01*
X119226Y181261D01*
X119329Y180833D01*
X119497Y180426D01*
X119695Y180103D01*
X119807Y180215D01*
Y150738D01*
G37*
G36*
X110189Y171200D02*X108000Y171195D01*
Y178892D01*
X108439Y178927D01*
X108868Y179030D01*
X109275Y179198D01*
X109598Y179396D01*
X108871Y180123D01*
X108820Y180092D01*
X108558Y179984D01*
X108282Y179917D01*
X108000Y179895D01*
Y183506D01*
X108282Y183484D01*
X108558Y183418D01*
X108820Y183310D01*
X108871Y183278D01*
X109598Y184006D01*
X109275Y184203D01*
X108868Y184372D01*
X108439Y184475D01*
X108000Y184509D01*
Y199392D01*
X108439Y199427D01*
X108540Y199451D01*
X110189D01*
Y183182D01*
X109578Y182571D01*
X109609Y182520D01*
X109717Y182259D01*
X109783Y181983D01*
X109800Y181701D01*
X109783Y181418D01*
X109717Y181143D01*
X109609Y180881D01*
X109578Y180830D01*
X110189Y180219D01*
Y171200D01*
G37*
G36*
Y150201D02*X108000D01*
Y162209D01*
X110189Y162213D01*
Y150201D01*
G37*
G36*
X108000Y171195D02*X105807Y171190D01*
Y180215D01*
X106422Y180830D01*
X106391Y180881D01*
X106283Y181143D01*
X106217Y181418D01*
X106194Y181701D01*
X106217Y181983D01*
X106283Y182259D01*
X106391Y182520D01*
X106422Y182571D01*
X105807Y183187D01*
Y199451D01*
X107460D01*
X107561Y199427D01*
X108000Y199392D01*
Y184509D01*
X107561Y184475D01*
X107132Y184372D01*
X106725Y184203D01*
X106402Y184006D01*
X107129Y183278D01*
X107180Y183310D01*
X107442Y183418D01*
X107718Y183484D01*
X108000Y183506D01*
Y179895D01*
X107718Y179917D01*
X107442Y179984D01*
X107180Y180092D01*
X107129Y180123D01*
X106402Y179396D01*
X106725Y179198D01*
X107132Y179030D01*
X107561Y178927D01*
X108000Y178892D01*
Y171195D01*
G37*
G36*
Y150201D02*X105807D01*
Y162204D01*
X108000Y162209D01*
Y150201D01*
G37*
G36*
X102750Y246201D02*X105807D01*
Y239833D01*
X105325Y240316D01*
X104978Y239750D01*
X104707Y239096D01*
X104542Y238407D01*
X104486Y237701D01*
X104542Y236995D01*
X104707Y236306D01*
X104978Y235652D01*
X105325Y235086D01*
X105807Y235568D01*
Y230891D01*
X105348Y230354D01*
X104978Y229750D01*
X104707Y229096D01*
X104542Y228407D01*
X104486Y227701D01*
X104542Y226995D01*
X104707Y226306D01*
X104978Y225652D01*
X105348Y225048D01*
X105807Y224511D01*
Y203951D01*
X102750D01*
Y223401D01*
X102884Y223484D01*
X103064Y223637D01*
X103217Y223816D01*
X103341Y224018D01*
X103431Y224236D01*
X103486Y224465D01*
X103500Y224701D01*
X103486Y230936D01*
X103431Y231166D01*
X103341Y231384D01*
X103217Y231585D01*
X103064Y231765D01*
X102884Y231918D01*
X102750Y232000D01*
Y235011D01*
X103500Y234261D01*
Y241140D01*
X102750Y240390D01*
Y246201D01*
G37*
G36*
Y203951D02*X102177D01*
X102151Y203973D01*
X101775Y204203D01*
X101368Y204372D01*
X100939Y204475D01*
X100500Y204509D01*
X100061Y204475D01*
X99632Y204372D01*
X99225Y204203D01*
X99000Y204065D01*
Y223207D01*
X102235Y223215D01*
X102465Y223270D01*
X102683Y223360D01*
X102750Y223401D01*
Y203951D01*
G37*
G36*
X99000Y246201D02*X102750D01*
Y240390D01*
X102000Y239640D01*
Y235761D01*
X102750Y235011D01*
Y232000D01*
X102683Y232041D01*
X102465Y232132D01*
X102235Y232187D01*
X102000Y232201D01*
X99000Y232194D01*
Y233201D01*
X102439D01*
X100939Y234701D01*
X99000D01*
Y240701D01*
X100939D01*
X102439Y242201D01*
X99000D01*
Y246201D01*
G37*
G36*
X105807Y150201D02*X102110D01*
X101492Y150819D01*
Y174083D01*
X102014Y174604D01*
X102058Y174642D01*
X102211Y174821D01*
X102211Y174821D01*
X102334Y175021D01*
X102423Y175238D01*
X102478Y175467D01*
X102497Y175701D01*
X102492Y175759D01*
Y177831D01*
X102651Y177929D01*
X102986Y178215D01*
X103272Y178550D01*
X103503Y178926D01*
X103671Y179333D01*
X103774Y179761D01*
X103800Y180201D01*
X103774Y180640D01*
X103671Y181069D01*
X103503Y181476D01*
X103272Y181852D01*
X102986Y182187D01*
X102651Y182473D01*
X102275Y182703D01*
X101868Y182872D01*
X101439Y182975D01*
X101000Y183009D01*
X100561Y182975D01*
X100132Y182872D01*
X99725Y182703D01*
X99349Y182473D01*
X99014Y182187D01*
X99000Y182170D01*
Y199336D01*
X99225Y199198D01*
X99632Y199030D01*
X100061Y198927D01*
X100500Y198892D01*
X100939Y198927D01*
X101368Y199030D01*
X101775Y199198D01*
X102151Y199429D01*
X102177Y199451D01*
X105807D01*
Y183187D01*
X105695Y183298D01*
X105497Y182976D01*
X105329Y182569D01*
X105226Y182140D01*
X105191Y181701D01*
X105226Y181261D01*
X105329Y180833D01*
X105497Y180426D01*
X105695Y180103D01*
X105807Y180215D01*
Y171190D01*
X104265Y171187D01*
X104035Y171132D01*
X103817Y171041D01*
X103616Y170918D01*
X103436Y170765D01*
X103283Y170585D01*
X103159Y170384D01*
X103069Y170166D01*
X103014Y169936D01*
X103000Y169701D01*
X103014Y163465D01*
X103069Y163236D01*
X103159Y163018D01*
X103283Y162816D01*
X103436Y162637D01*
X103616Y162484D01*
X103817Y162360D01*
X104035Y162270D01*
X104265Y162215D01*
X104500Y162201D01*
X105807Y162204D01*
Y150201D01*
G37*
G36*
X95250Y246201D02*X99000D01*
Y242201D01*
X95561D01*
X97061Y240701D01*
X99000D01*
Y234701D01*
X97061D01*
X95561Y233201D01*
X99000D01*
Y232194D01*
X95765Y232187D01*
X95535Y232132D01*
X95317Y232041D01*
X95250Y232000D01*
Y235011D01*
X96000Y235761D01*
Y239640D01*
X95250Y240390D01*
Y246201D01*
G37*
G36*
Y175524D02*X95514Y175215D01*
X95849Y174929D01*
X96225Y174698D01*
X96508Y174581D01*
Y150201D01*
X95250D01*
Y175524D01*
G37*
G36*
X99000Y182170D02*X98728Y181852D01*
X98497Y181476D01*
X98329Y181069D01*
X98226Y180640D01*
X98191Y180201D01*
X98214Y179909D01*
X97939Y179975D01*
X97500Y180009D01*
X97061Y179975D01*
X96632Y179872D01*
X96225Y179703D01*
X95849Y179473D01*
X95514Y179187D01*
X95250Y178878D01*
Y223401D01*
X95317Y223360D01*
X95535Y223270D01*
X95765Y223215D01*
X96000Y223201D01*
X99000Y223207D01*
Y204065D01*
X98849Y203973D01*
X98514Y203687D01*
X98228Y203352D01*
X97997Y202976D01*
X97829Y202569D01*
X97726Y202140D01*
X97691Y201701D01*
X97726Y201261D01*
X97829Y200833D01*
X97997Y200426D01*
X98228Y200050D01*
X98514Y199715D01*
X98849Y199429D01*
X99000Y199336D01*
Y182170D01*
G37*
G36*
X95250Y178878D02*X95228Y178852D01*
X94997Y178476D01*
X94829Y178069D01*
X94726Y177640D01*
X94691Y177201D01*
X94726Y176761D01*
X94829Y176333D01*
X94997Y175926D01*
X95228Y175550D01*
X95250Y175524D01*
Y150201D01*
X90600D01*
Y181957D01*
X93585Y181965D01*
X93815Y182020D01*
X94033Y182110D01*
X94234Y182234D01*
X94414Y182387D01*
X94567Y182566D01*
X94691Y182768D01*
X94781Y182986D01*
X94836Y183215D01*
X94850Y183451D01*
X94836Y189186D01*
X94781Y189416D01*
X94691Y189634D01*
X94567Y189835D01*
X94414Y190015D01*
X94234Y190168D01*
X94033Y190291D01*
X93815Y190382D01*
X93585Y190437D01*
X93350Y190451D01*
X90600Y190444D01*
Y246201D01*
X95250D01*
Y240390D01*
X94500Y241140D01*
Y234261D01*
X95250Y235011D01*
Y232000D01*
X95116Y231918D01*
X94936Y231765D01*
X94783Y231585D01*
X94659Y231384D01*
X94569Y231166D01*
X94514Y230936D01*
X94500Y230701D01*
X94514Y224465D01*
X94569Y224236D01*
X94659Y224018D01*
X94783Y223816D01*
X94936Y223637D01*
X95116Y223484D01*
X95250Y223401D01*
Y178878D01*
G37*
G36*
X90600Y150201D02*X89497D01*
X89486Y154936D01*
X89431Y155166D01*
X89341Y155384D01*
X89217Y155585D01*
X89064Y155765D01*
X88884Y155918D01*
X88683Y156041D01*
X88465Y156132D01*
X88235Y156187D01*
X88000Y156201D01*
X84993Y156194D01*
Y157187D01*
X85000Y157187D01*
X85706Y157242D01*
X86395Y157408D01*
X87049Y157679D01*
X87653Y158049D01*
X88192Y158509D01*
X88652Y159048D01*
X89022Y159652D01*
X89293Y160306D01*
X89458Y160995D01*
X89500Y161701D01*
X89458Y162407D01*
X89293Y163096D01*
X89022Y163750D01*
X88652Y164354D01*
X88192Y164893D01*
X87653Y165353D01*
X87049Y165723D01*
X86395Y165994D01*
X85706Y166159D01*
X85000Y166215D01*
X84993Y166214D01*
Y246201D01*
X90600D01*
Y190444D01*
X87615Y190437D01*
X87385Y190382D01*
X87167Y190291D01*
X86966Y190168D01*
X86786Y190015D01*
X86633Y189835D01*
X86509Y189634D01*
X86419Y189416D01*
X86364Y189186D01*
X86350Y188951D01*
X86364Y183215D01*
X86419Y182986D01*
X86509Y182768D01*
X86633Y182566D01*
X86786Y182387D01*
X86966Y182234D01*
X87167Y182110D01*
X87385Y182020D01*
X87615Y181965D01*
X87850Y181951D01*
X90600Y181957D01*
Y150201D01*
G37*
G36*
X84993Y156194D02*X81765Y156187D01*
X81535Y156132D01*
X81317Y156041D01*
X81116Y155918D01*
X80936Y155765D01*
X80783Y155585D01*
X80659Y155384D01*
X80569Y155166D01*
X80514Y154936D01*
X80500Y154701D01*
X80510Y150201D01*
X66689D01*
Y151219D01*
X66805Y151103D01*
X67003Y151426D01*
X67171Y151833D01*
X67274Y152261D01*
X67300Y152701D01*
X67274Y153140D01*
X67171Y153569D01*
X67003Y153976D01*
X66805Y154298D01*
X66689Y154182D01*
Y159219D01*
X66805Y159103D01*
X67003Y159426D01*
X67171Y159833D01*
X67274Y160261D01*
X67300Y160701D01*
X67274Y161140D01*
X67171Y161569D01*
X67003Y161976D01*
X66805Y162298D01*
X66689Y162182D01*
Y184538D01*
X66802Y184265D01*
X67151Y183695D01*
X67586Y183186D01*
X68094Y182752D01*
X68665Y182402D01*
X69283Y182146D01*
X69933Y181990D01*
X70600Y181938D01*
X71267Y181990D01*
X71917Y182146D01*
X72535Y182402D01*
X73106Y182752D01*
X73614Y183186D01*
X74049Y183695D01*
X74398Y184265D01*
X74654Y184883D01*
X74811Y185534D01*
X74850Y186201D01*
X74811Y186868D01*
X74654Y187518D01*
X74398Y188136D01*
X74049Y188707D01*
X73614Y189215D01*
X73106Y189650D01*
X72535Y189999D01*
X71917Y190255D01*
X71267Y190411D01*
X70600Y190464D01*
X69933Y190411D01*
X69283Y190255D01*
X68665Y189999D01*
X68094Y189650D01*
X67586Y189215D01*
X67151Y188707D01*
X66802Y188136D01*
X66689Y187864D01*
Y216439D01*
X66817Y216360D01*
X67035Y216270D01*
X67265Y216215D01*
X67500Y216201D01*
X73735Y216215D01*
X73965Y216270D01*
X74183Y216360D01*
X74384Y216484D01*
X74564Y216637D01*
X74717Y216816D01*
X74841Y217018D01*
X74931Y217236D01*
X74986Y217465D01*
X75000Y217701D01*
X74986Y223936D01*
X74931Y224166D01*
X74841Y224384D01*
X74717Y224585D01*
X74564Y224765D01*
X74384Y224918D01*
X74183Y225041D01*
X73965Y225132D01*
X73735Y225187D01*
X73500Y225201D01*
X67265Y225187D01*
X67035Y225132D01*
X66817Y225041D01*
X66689Y224963D01*
Y246201D01*
X84993D01*
Y166214D01*
X84294Y166159D01*
X83605Y165994D01*
X82951Y165723D01*
X82347Y165353D01*
X81808Y164893D01*
X81348Y164354D01*
X80978Y163750D01*
X80707Y163096D01*
X80542Y162407D01*
X80486Y161701D01*
X80542Y160995D01*
X80707Y160306D01*
X80978Y159652D01*
X81348Y159048D01*
X81808Y158509D01*
X82347Y158049D01*
X82951Y157679D01*
X83605Y157408D01*
X84294Y157242D01*
X84993Y157187D01*
Y156194D01*
G37*
G36*
X66689Y150201D02*X65779D01*
X66098Y150396D01*
X65371Y151123D01*
X65320Y151092D01*
X65058Y150984D01*
X64782Y150917D01*
X64500Y150895D01*
Y154506D01*
X64782Y154484D01*
X65058Y154418D01*
X65320Y154310D01*
X65371Y154278D01*
X66098Y155006D01*
X65775Y155203D01*
X65368Y155372D01*
X64939Y155475D01*
X64500Y155509D01*
Y157892D01*
X64939Y157927D01*
X65368Y158030D01*
X65775Y158198D01*
X66098Y158396D01*
X65371Y159123D01*
X65320Y159092D01*
X65058Y158984D01*
X64782Y158917D01*
X64500Y158895D01*
Y162506D01*
X64782Y162484D01*
X65058Y162418D01*
X65320Y162310D01*
X65371Y162278D01*
X66098Y163006D01*
X65775Y163203D01*
X65368Y163372D01*
X64939Y163475D01*
X64500Y163509D01*
Y246201D01*
X66689D01*
Y224963D01*
X66616Y224918D01*
X66436Y224765D01*
X66283Y224585D01*
X66159Y224384D01*
X66069Y224166D01*
X66014Y223936D01*
X66000Y223701D01*
X66014Y217465D01*
X66069Y217236D01*
X66159Y217018D01*
X66283Y216816D01*
X66436Y216637D01*
X66616Y216484D01*
X66689Y216439D01*
Y187864D01*
X66546Y187518D01*
X66389Y186868D01*
X66337Y186201D01*
X66389Y185534D01*
X66546Y184883D01*
X66689Y184538D01*
Y162182D01*
X66078Y161571D01*
X66109Y161520D01*
X66217Y161259D01*
X66283Y160983D01*
X66300Y160701D01*
X66283Y160418D01*
X66217Y160143D01*
X66109Y159881D01*
X66078Y159830D01*
X66689Y159219D01*
Y154182D01*
X66078Y153571D01*
X66109Y153520D01*
X66217Y153259D01*
X66283Y152983D01*
X66300Y152701D01*
X66283Y152418D01*
X66217Y152143D01*
X66109Y151881D01*
X66078Y151830D01*
X66689Y151219D01*
Y150201D01*
G37*
G36*
X64500Y150895D02*X64218Y150917D01*
X63942Y150984D01*
X63680Y151092D01*
X63629Y151123D01*
X62902Y150396D01*
X63221Y150201D01*
X62307D01*
Y151215D01*
X62922Y151830D01*
X62891Y151881D01*
X62783Y152143D01*
X62717Y152418D01*
X62694Y152701D01*
X62717Y152983D01*
X62783Y153259D01*
X62891Y153520D01*
X62922Y153571D01*
X62307Y154187D01*
Y159215D01*
X62922Y159830D01*
X62891Y159881D01*
X62783Y160143D01*
X62717Y160418D01*
X62694Y160701D01*
X62717Y160983D01*
X62783Y161259D01*
X62891Y161520D01*
X62922Y161571D01*
X62307Y162187D01*
Y246201D01*
X64500D01*
Y163509D01*
X64061Y163475D01*
X63632Y163372D01*
X63225Y163203D01*
X62902Y163006D01*
X63629Y162278D01*
X63680Y162310D01*
X63942Y162418D01*
X64218Y162484D01*
X64500Y162506D01*
Y158895D01*
X64218Y158917D01*
X63942Y158984D01*
X63680Y159092D01*
X63629Y159123D01*
X62902Y158396D01*
X63225Y158198D01*
X63632Y158030D01*
X64061Y157927D01*
X64500Y157892D01*
Y155509D01*
X64061Y155475D01*
X63632Y155372D01*
X63225Y155203D01*
X62902Y155006D01*
X63629Y154278D01*
X63680Y154310D01*
X63942Y154418D01*
X64218Y154484D01*
X64500Y154506D01*
Y150895D01*
G37*
G36*
X62307Y150201D02*X54042D01*
Y218219D01*
X54175Y218086D01*
X54522Y218652D01*
X54793Y219306D01*
X54958Y219995D01*
X55000Y220701D01*
X54958Y221407D01*
X54793Y222096D01*
X54522Y222750D01*
X54175Y223316D01*
X54042Y223182D01*
Y246201D01*
X62307D01*
Y162187D01*
X62195Y162298D01*
X61997Y161976D01*
X61829Y161569D01*
X61726Y161140D01*
X61691Y160701D01*
X61726Y160261D01*
X61829Y159833D01*
X61997Y159426D01*
X62195Y159103D01*
X62307Y159215D01*
Y154187D01*
X62195Y154298D01*
X61997Y153976D01*
X61829Y153569D01*
X61726Y153140D01*
X61691Y152701D01*
X61726Y152261D01*
X61829Y151833D01*
X61997Y151426D01*
X62195Y151103D01*
X62307Y151215D01*
Y150201D01*
G37*
G36*
X54042D02*X50500D01*
Y216187D01*
X51206Y216242D01*
X51895Y216408D01*
X52549Y216679D01*
X53115Y217025D01*
X52024Y218116D01*
X51866Y218020D01*
X51430Y217839D01*
X50971Y217729D01*
X50500Y217692D01*
Y223710D01*
X50971Y223673D01*
X51430Y223563D01*
X51866Y223382D01*
X52024Y223285D01*
X53115Y224376D01*
X52549Y224723D01*
X51895Y224994D01*
X51206Y225159D01*
X50500Y225215D01*
Y246201D01*
X54042D01*
Y223182D01*
X53085Y222225D01*
X53181Y222067D01*
X53362Y221631D01*
X53472Y221172D01*
X53500Y220701D01*
X53472Y220230D01*
X53362Y219771D01*
X53181Y219335D01*
X53085Y219177D01*
X54042Y218219D01*
Y150201D01*
G37*
G36*
X50500D02*X46951D01*
Y218212D01*
X47915Y219177D01*
X47819Y219335D01*
X47638Y219771D01*
X47528Y220230D01*
X47491Y220701D01*
X47528Y221172D01*
X47638Y221631D01*
X47819Y222067D01*
X47915Y222225D01*
X46951Y223189D01*
Y246201D01*
X50500D01*
Y225215D01*
X49794Y225159D01*
X49105Y224994D01*
X48451Y224723D01*
X47885Y224376D01*
X48976Y223285D01*
X49134Y223382D01*
X49570Y223563D01*
X50029Y223673D01*
X50500Y223710D01*
Y217692D01*
X50029Y217729D01*
X49570Y217839D01*
X49134Y218020D01*
X48976Y218116D01*
X47885Y217025D01*
X48451Y216679D01*
X49105Y216408D01*
X49794Y216242D01*
X50500Y216187D01*
Y150201D01*
G37*
G36*
X46951D02*X40042D01*
Y152302D01*
X40183Y152360D01*
X40384Y152484D01*
X40564Y152637D01*
X40717Y152816D01*
X40841Y153018D01*
X40931Y153236D01*
X40986Y153465D01*
X41000Y153701D01*
X40986Y159936D01*
X40931Y160166D01*
X40841Y160384D01*
X40717Y160585D01*
X40564Y160765D01*
X40384Y160918D01*
X40183Y161041D01*
X40042Y161100D01*
Y164219D01*
X40175Y164086D01*
X40522Y164652D01*
X40793Y165306D01*
X40958Y165995D01*
X41000Y166701D01*
X40958Y167407D01*
X40793Y168096D01*
X40522Y168750D01*
X40175Y169316D01*
X40042Y169182D01*
Y246201D01*
X46951D01*
Y223189D01*
X46825Y223316D01*
X46478Y222750D01*
X46207Y222096D01*
X46042Y221407D01*
X45986Y220701D01*
X46042Y219995D01*
X46207Y219306D01*
X46478Y218652D01*
X46825Y218086D01*
X46951Y218212D01*
Y150201D01*
G37*
G36*
X40042Y161100D02*X39965Y161132D01*
X39735Y161187D01*
X39500Y161201D01*
X36500Y161194D01*
Y162187D01*
X37206Y162242D01*
X37895Y162408D01*
X38549Y162679D01*
X39115Y163025D01*
X38024Y164116D01*
X37866Y164020D01*
X37430Y163839D01*
X36971Y163729D01*
X36500Y163692D01*
Y169710D01*
X36971Y169673D01*
X37430Y169563D01*
X37866Y169382D01*
X38024Y169285D01*
X39115Y170376D01*
X38549Y170723D01*
X37895Y170994D01*
X37206Y171159D01*
X36500Y171215D01*
Y246201D01*
X40042D01*
Y169182D01*
X39085Y168225D01*
X39181Y168067D01*
X39362Y167631D01*
X39472Y167172D01*
X39500Y166701D01*
X39472Y166230D01*
X39362Y165771D01*
X39181Y165335D01*
X39085Y165177D01*
X40042Y164219D01*
Y161100D01*
G37*
G36*
Y150201D02*X36500D01*
Y152207D01*
X39735Y152215D01*
X39965Y152270D01*
X40042Y152302D01*
Y150201D01*
G37*
G36*
X32951Y246201D02*X36500D01*
Y171215D01*
X35794Y171159D01*
X35105Y170994D01*
X34451Y170723D01*
X33885Y170376D01*
X34976Y169285D01*
X35134Y169382D01*
X35570Y169563D01*
X36029Y169673D01*
X36500Y169710D01*
Y163692D01*
X36029Y163729D01*
X35570Y163839D01*
X35134Y164020D01*
X34976Y164116D01*
X33885Y163025D01*
X34451Y162679D01*
X35105Y162408D01*
X35794Y162242D01*
X36500Y162187D01*
Y161194D01*
X33265Y161187D01*
X33035Y161132D01*
X32951Y161097D01*
Y164212D01*
X33915Y165177D01*
X33819Y165335D01*
X33638Y165771D01*
X33528Y166230D01*
X33491Y166701D01*
X33528Y167172D01*
X33638Y167631D01*
X33819Y168067D01*
X33915Y168225D01*
X32951Y169189D01*
Y246201D01*
G37*
G36*
X36500Y150201D02*X32951D01*
Y152305D01*
X33035Y152270D01*
X33265Y152215D01*
X33500Y152201D01*
X36500Y152207D01*
Y150201D01*
G37*
G36*
X32951D02*X7000D01*
Y180592D01*
X8928Y179410D01*
X11106Y178508D01*
X13398Y177958D01*
X15748Y177773D01*
X18098Y177958D01*
X20390Y178508D01*
X22568Y179410D01*
X24578Y180642D01*
X26371Y182173D01*
X27902Y183965D01*
X29133Y185975D01*
X30035Y188153D01*
X30586Y190445D01*
X30724Y192795D01*
X30586Y195145D01*
X30035Y197438D01*
X29133Y199615D01*
X27902Y201625D01*
X26371Y203418D01*
X24578Y204949D01*
X22568Y206180D01*
X20390Y207083D01*
X18098Y207633D01*
X15748Y207818D01*
X13398Y207633D01*
X11106Y207083D01*
X8928Y206180D01*
X7000Y204999D01*
Y246201D01*
X32951D01*
Y169189D01*
X32825Y169316D01*
X32478Y168750D01*
X32207Y168096D01*
X32042Y167407D01*
X31986Y166701D01*
X32042Y165995D01*
X32207Y165306D01*
X32478Y164652D01*
X32825Y164086D01*
X32951Y164212D01*
Y161097D01*
X32817Y161041D01*
X32616Y160918D01*
X32436Y160765D01*
X32283Y160585D01*
X32159Y160384D01*
X32069Y160166D01*
X32014Y159936D01*
X32000Y159701D01*
X32014Y153465D01*
X32069Y153236D01*
X32159Y153018D01*
X32283Y152816D01*
X32436Y152637D01*
X32616Y152484D01*
X32817Y152360D01*
X32951Y152305D01*
Y150201D01*
G37*
G54D45*X168000Y189701D02*X170000D01*
X176500Y174701D02*X173000Y178201D01*
Y198201D02*X171000Y200201D01*
G54D46*X169000Y237701D02*X119000D01*
G54D45*X168000Y179701D02*X163000Y184701D01*
Y192201D01*
X167000Y196201D01*
X168500D01*
X173000Y178201D02*Y198201D01*
G54D47*X215500Y376801D02*Y390701D01*
X215400Y376701D02*X215500Y376801D01*
X156500D02*Y390701D01*
X156400Y376701D02*X156500Y376801D01*
X97500D02*Y390701D01*
X97400Y376701D02*X97500Y376801D01*
X97012Y334201D02*X266500D01*
X274400Y387301D02*Y376701D01*
X308500Y347941D02*X307740Y348701D01*
X279000Y348201D02*X279120Y348321D01*
X278972Y334161D02*X279012Y334201D01*
X266500D02*X278972Y334161D01*
X279000Y334201D02*X308500D01*
X271000Y390701D02*X274400Y387301D01*
X165500Y279201D02*Y244701D01*
X200500Y279201D02*X229500D01*
Y244701D01*
X264500Y279201D02*X293500D01*
Y242701D01*
X38400Y382601D02*X46500Y390701D01*
X38400Y376701D02*Y382601D01*
X19000Y376701D02*Y366701D01*
X40000Y345701D01*
Y321701D01*
X38000D02*X44500D01*
X8000D02*Y244701D01*
X16500Y279701D02*X8000D01*
X46500Y390701D02*X271000D01*
X86972Y334161D02*X97012Y334201D01*
X45000Y321701D02*X57500D01*
X70000Y334201D01*
X87000D01*
X72500Y279201D02*X101500D01*
Y244701D01*
X136500Y279201D02*X165500D01*
G54D45*X140500Y103201D02*X137000Y106701D01*
Y119201D01*
X140500Y98701D02*X142500Y96701D01*
X148500D01*
X140500Y107701D02*Y119201D01*
X148500Y96701D02*X151000Y99201D01*
G54D47*X141500Y73701D02*X152000D01*
X152500Y74201D01*
G54D45*X151000Y99201D02*Y104201D01*
X150000Y105201D01*
Y118701D01*
G54D47*X138000Y64201D02*X144000D01*
G54D48*X118500Y31201D02*X129500D01*
G54D45*Y152701D02*X126500Y155701D01*
X124000Y135701D02*X114500D01*
X122500Y133701D02*X113500D01*
X114500Y135701D02*X100000Y150201D01*
X113500Y133701D02*X98000Y149201D01*
Y176701D01*
X97500Y177201D01*
X100000Y150201D02*Y174701D01*
X101000Y175701D01*
Y180201D01*
X122000Y195701D02*X121500Y196201D01*
Y201701D01*
G54D47*X149500D02*X100500D01*
G54D45*X139000Y152701D02*X129500D01*
G54D49*X118000Y147701D02*X148500D01*
G54D50*X152000Y144701D02*X178000D01*
G54D47*Y139701D01*
X170000Y144701D02*X178000D01*
X148500Y147701D02*X148457Y151158D01*
X148500Y151201D01*
G54D45*X136500Y160701D02*X141000D01*
X139500Y156201D02*X137100Y156101D01*
X144500Y158201D02*X139000Y152701D01*
G54D47*X178000Y139701D02*Y169701D01*
X166000Y144701D02*X146500D01*
G54D45*X166000Y134701D02*X180000D01*
X182500Y137201D01*
Y172201D01*
X149500Y169201D02*Y170201D01*
X182500Y172201D02*X180000Y174701D01*
X176500D01*
X146500Y158201D02*X144500D01*
X149500Y164201D02*X147500D01*
X139500Y156201D01*
X141000Y160701D02*X149500Y169201D01*
X150000Y118701D02*X166000Y134701D01*
G54D49*X146500Y151201D02*Y103701D01*
G54D45*X137000Y119201D02*X122500Y133701D01*
X140500Y119201D02*X124000Y135701D01*
G54D51*X168000Y149701D03*
Y159701D03*
Y169701D03*
Y179701D03*
G54D44*G36*
X165000Y122701D02*Y116701D01*
X171000D01*
Y122701D01*
X165000D01*
G37*
G54D51*X168000Y129701D03*
Y139701D03*
Y189701D03*
X178000D03*
G54D44*G36*
X175000Y122701D02*Y116701D01*
X181000D01*
Y122701D01*
X175000D01*
G37*
G54D51*X178000Y129701D03*
Y139701D03*
Y149701D03*
Y159701D03*
Y169701D03*
Y179701D03*
G54D44*G36*
X272500Y132201D02*Y126201D01*
X278500D01*
Y132201D01*
X272500D01*
G37*
G54D51*X275500Y139201D03*
Y149201D03*
Y159201D03*
Y169201D03*
Y179201D03*
Y189201D03*
Y199201D03*
X285500D03*
G54D44*G36*
X282500Y132201D02*Y126201D01*
X288500D01*
Y132201D01*
X282500D01*
G37*
G54D51*X285500Y139201D03*
Y149201D03*
Y159201D03*
Y169201D03*
Y179201D03*
Y189201D03*
G54D44*G36*
X187500Y39701D02*Y33701D01*
X193500D01*
Y39701D01*
X187500D01*
G37*
G36*
Y49701D02*Y43701D01*
X193500D01*
Y49701D01*
X187500D01*
G37*
G54D51*X180500Y36701D03*
X170500D03*
G54D44*G36*
X172000Y61701D02*Y55701D01*
X178000D01*
Y61701D01*
X172000D01*
G37*
G54D51*X185000Y58701D03*
X180500Y46701D03*
X170500D03*
G54D52*X285000Y18701D03*
X265300D03*
G54D44*G36*
X272500Y57701D02*Y51701D01*
X278500D01*
Y57701D01*
X272500D01*
G37*
G54D51*X275500Y64701D03*
Y74701D03*
G54D44*G36*
X282500Y57701D02*Y51701D01*
X288500D01*
Y57701D01*
X282500D01*
G37*
G54D51*X285500Y64701D03*
Y74701D03*
G54D44*G36*
X104500Y169701D02*Y163701D01*
X110500D01*
Y169701D01*
X104500D01*
G37*
G54D51*X117500Y166701D03*
X127500D03*
X137500D03*
G54D44*G36*
X82000Y154701D02*Y148701D01*
X88000D01*
Y154701D01*
X82000D01*
G37*
G54D51*X85000Y161701D03*
G54D44*G36*
X87850Y188951D02*Y183451D01*
X93350D01*
Y188951D01*
X87850D01*
G37*
G36*
X33500Y159701D02*Y153701D01*
X39500D01*
Y159701D01*
X33500D01*
G37*
G36*
X37000Y110701D02*Y104701D01*
X43000D01*
Y110701D01*
X37000D01*
G37*
G54D51*X50000Y107701D03*
G54D44*G36*
X37000Y100701D02*Y94701D01*
X43000D01*
Y100701D01*
X37000D01*
G37*
G54D53*X70600Y186201D03*
G54D44*G36*
X37000Y40701D02*Y34701D01*
X43000D01*
Y40701D01*
X37000D01*
G37*
G54D51*X50000Y37701D03*
G54D44*G36*
X37000Y50701D02*Y44701D01*
X43000D01*
Y50701D01*
X37000D01*
G37*
G54D51*X50000Y47701D03*
Y97701D03*
Y87701D03*
Y77701D03*
Y67701D03*
Y57701D03*
G54D44*G36*
X37000Y90701D02*Y84701D01*
X43000D01*
Y90701D01*
X37000D01*
G37*
G36*
Y80701D02*Y74701D01*
X43000D01*
Y80701D01*
X37000D01*
G37*
G36*
Y70701D02*Y64701D01*
X43000D01*
Y70701D01*
X37000D01*
G37*
G36*
Y60701D02*Y54701D01*
X43000D01*
Y60701D01*
X37000D01*
G37*
G36*
Y30701D02*Y24701D01*
X43000D01*
Y30701D01*
X37000D01*
G37*
G54D51*X50000Y27701D03*
G54D44*G36*
X37000Y20701D02*Y14701D01*
X43000D01*
Y20701D01*
X37000D01*
G37*
G54D51*X50000Y17701D03*
G54D44*G36*
X37000Y10701D02*Y4701D01*
X43000D01*
Y10701D01*
X37000D01*
G37*
G36*
X146000Y210701D02*Y204701D01*
X152000D01*
Y210701D01*
X146000D01*
G37*
G54D51*X139000Y207701D03*
G54D44*G36*
X146000Y220701D02*Y214701D01*
X152000D01*
Y220701D01*
X146000D01*
G37*
G54D51*X139000Y217701D03*
X129000Y207701D03*
X119000D03*
X129000Y217701D03*
X119000D03*
G54D44*G36*
X149500Y57201D02*Y51201D01*
X155500D01*
Y57201D01*
X149500D01*
G37*
G54D51*X152500Y64201D03*
Y74201D03*
X149000Y227701D03*
X159000D03*
X169000D03*
G54D44*G36*
X96000Y230701D02*Y224701D01*
X102000D01*
Y230701D01*
X96000D01*
G37*
G54D51*X109000Y227701D03*
G54D44*G36*
X96000Y240701D02*Y234701D01*
X102000D01*
Y240701D01*
X96000D01*
G37*
G54D51*X109000Y237701D03*
X119000Y227701D03*
X129000D03*
X139000D03*
X119000Y237701D03*
G54D54*X116500Y269201D03*
G54D51*X129000Y237701D03*
X36500Y166701D03*
G54D44*G36*
X67500Y223701D02*Y217701D01*
X73500D01*
Y223701D01*
X67500D01*
G37*
G54D52*X78000Y376701D03*
X97400D03*
X116800D03*
X137000D03*
X156400D03*
X175800D03*
G54D55*X150972Y334161D03*
X180500Y347941D03*
G54D53*X74500Y307701D03*
G54D55*X86972Y334161D03*
X116500Y347941D03*
G54D53*X74500Y321701D03*
G54D52*X196000Y376701D03*
X215400D03*
X234800D03*
X255000D03*
X274400D03*
X293800D03*
G54D54*X278972Y269201D03*
X308500D03*
G54D55*X278972Y334161D03*
X214972D03*
X308500Y347941D03*
X244500D03*
G54D54*X214972Y269201D03*
X244500D03*
G54D44*G36*
X260000Y263701D02*Y254701D01*
X269000D01*
Y263701D01*
X260000D01*
G37*
G54D56*X264500Y269201D03*
Y279201D03*
G54D51*X139000Y237701D03*
G54D44*G36*
X132000Y263701D02*Y254701D01*
X141000D01*
Y263701D01*
X132000D01*
G37*
G54D56*X136500Y269201D03*
Y279201D03*
G54D54*X150972Y269201D03*
G54D51*X149000Y237701D03*
X159000D03*
X169000D03*
G54D54*X180500Y269201D03*
G54D44*G36*
X196000Y263701D02*Y254701D01*
X205000D01*
Y263701D01*
X196000D01*
G37*
G54D56*X200500Y269201D03*
Y279201D03*
G54D51*X50500Y220701D03*
G54D52*X57800Y376701D03*
G54D53*X60000Y338201D03*
G54D44*G36*
X41750Y310451D02*Y304951D01*
X47250D01*
Y310451D01*
X41750D01*
G37*
G36*
X5250Y324451D02*Y318951D01*
X10750D01*
Y324451D01*
X5250D01*
G37*
G36*
Y310451D02*Y304951D01*
X10750D01*
Y310451D01*
X5250D01*
G37*
G54D53*X38000Y307701D03*
G54D44*G36*
X41750Y324451D02*Y318951D01*
X47250D01*
Y324451D01*
X41750D01*
G37*
G36*
X68000Y263701D02*Y254701D01*
X77000D01*
Y263701D01*
X68000D01*
G37*
G54D56*X72500Y269201D03*
Y279201D03*
G54D54*X86972Y269201D03*
G54D52*X19000Y376701D03*
X38400D03*
G54D44*G36*
X33500Y282701D02*Y276701D01*
X39500D01*
Y282701D01*
X33500D01*
G37*
G54D51*X16500Y279701D03*
G54D44*G36*
X17250Y340951D02*Y335451D01*
X22750D01*
Y340951D01*
X17250D01*
G37*
G54D53*X38000Y321701D03*
G54D57*X136500Y160701D03*
X136000Y181701D03*
X122000D03*
X137100Y156101D03*
X126500Y155701D03*
X118000Y147701D03*
X123500Y139201D03*
X138500D03*
X146500Y158201D03*
X148000Y151201D03*
X149500Y164201D03*
Y170201D03*
X155500Y151701D03*
X150000Y181701D03*
X168500Y196201D03*
X171000Y200201D03*
X108000Y202201D03*
X136500D03*
X149500Y201201D03*
X203000Y141201D03*
Y145201D03*
Y167201D03*
Y171201D03*
Y193201D03*
Y197201D03*
X140500Y107701D03*
Y103201D03*
X138500Y126201D03*
X140500Y98701D03*
G54D51*X146500Y101701D03*
G54D57*X154500Y103301D03*
X157000Y106701D03*
X185000Y75201D03*
X155500Y94701D03*
X138000Y64201D03*
X141500Y73701D03*
X203000Y67201D03*
Y89201D03*
Y93201D03*
Y115201D03*
Y119201D03*
Y63201D03*
X122000Y195701D03*
X108000Y181701D03*
X101000Y180201D03*
X97500Y177201D03*
X64500Y160701D03*
X100500Y201701D03*
X64500Y152701D03*
G54D58*X15748Y224291D03*
G54D57*X101000Y124701D03*
X88000Y126701D03*
X97000Y127201D03*
X84500Y126701D03*
X86200Y123801D03*
G54D59*X112000Y106701D03*
X114000Y108701D03*
X116000Y110701D03*
G54D57*X116500Y60701D03*
Y57201D03*
Y53701D03*
G54D51*X104000Y50701D03*
G54D59*X96500Y91201D03*
G54D57*X104600Y58701D03*
Y55201D03*
X108000Y42201D03*
Y35201D03*
G54D59*X94500Y89201D03*
X92500Y87201D03*
G54D60*X87000Y348201D03*
G54D57*X176000Y28658D03*
Y25158D03*
X128000Y25201D03*
X176000Y21658D03*
X216500Y8701D03*
X220500D03*
X166500Y51201D03*
X163000D03*
X159500D03*
X154000Y30701D03*
X133000Y42701D03*
X157500Y34201D03*
X202711Y41146D03*
Y36646D03*
G54D58*X279528Y224291D03*
G54D57*X203000Y219201D03*
Y223201D03*
G54D60*X279000Y348201D03*
X308500Y334201D03*
X215000Y348201D03*
X151000D03*
G54D61*G54D62*G54D61*G54D63*G54D61*G54D62*G54D61*G54D64*G54D61*G54D63*G54D61*G54D64*G54D65*G54D51*G54D65*G54D66*G54D65*G54D66*G54D65*G54D67*G54D65*G54D66*G54D68*G54D69*G54D66*G54D69*G54D66*G54D68*G54D67*G54D69*G54D67*G54D51*G54D65*G54D51*G54D67*G54D65*G54D67*G54D51*G54D66*G54D68*G54D66*G54D51*G54D67*G54D68*G54D66*M02*
