G04 start of page 8 for group -4079 idx -4079 *
G04 Title: (unknown), topsilk *
G04 Creator: pcb 4.1.3 *
G04 CreationDate: Fri Aug 16 20:44:32 2019 UTC *
G04 For: leha *
G04 Format: Gerber/RS-274X *
G04 PCB-Dimensions (mil): 3149.61 3937.01 *
G04 PCB-Coordinate-Origin: lower left *
%MOIN*%
%FSLAX25Y25*%
%LNTOPSILK*%
%ADD104C,0.0079*%
%ADD103C,0.0200*%
%ADD102C,0.0060*%
%ADD101C,0.0080*%
%ADD100C,0.0100*%
%ADD99C,0.0098*%
G54D99*X207500Y7701D02*X211500Y11701D01*
X209000Y10701D01*
X211500Y11701D02*X210500Y9201D01*
X139000Y81201D02*X146000Y73201D01*
X142500Y74701D01*
X146000Y73201D02*X145000Y76701D01*
X83000Y173701D02*X98000Y175201D01*
X94500Y176701D01*
X98000Y175201D02*X95000Y173201D01*
G54D100*X195500Y41701D02*Y31701D01*
X165500Y41701D02*X195500D01*
X165500D02*Y31701D01*
X195500D01*
X185500Y41701D02*X195500D01*
X185500D02*Y31701D01*
G54D101*X188064Y21446D02*X188850D01*
X188064Y26956D02*X188850D01*
X164032Y19744D02*X167968D01*
X164032Y30372D02*X167968D01*
X230107Y10456D02*X230893D01*
X230107Y4946D02*X230893D01*
X188064Y19956D02*X188850D01*
X188064Y14446D02*X188850D01*
X159745Y12551D02*Y11765D01*
X165255Y12551D02*Y11765D01*
X179255Y12551D02*Y11765D01*
X173745Y12551D02*Y11765D01*
X172755Y12551D02*Y11765D01*
X167245Y12551D02*Y11765D01*
G54D100*X207900Y25101D02*X221800D01*
X207900D02*Y12301D01*
X221800D01*
Y25101D02*Y12301D01*
G54D101*X155255Y24094D02*Y23308D01*
X149745Y24094D02*Y23308D01*
G54D102*X135531Y17280D02*X147343D01*
Y27122D02*Y17280D01*
X135531Y27122D02*X147343D01*
X135531D02*Y17280D01*
G54D101*X139607Y33456D02*X140393D01*
X139607Y27946D02*X140393D01*
G54D100*X163000Y114701D02*X173000D01*
Y194701D02*Y114701D01*
X163000Y194701D02*X173000D01*
X163000D02*Y114701D01*
X173000Y124701D02*Y114701D01*
X163000Y124701D02*X173000D01*
Y114701D02*X183000D01*
Y194701D02*Y114701D01*
X173000Y194701D02*X183000D01*
X173000D02*Y114701D01*
X183000Y124701D02*Y114701D01*
X173000Y124701D02*X183000D01*
G54D101*X151607Y144946D02*X152393D01*
X151607Y150456D02*X152393D01*
G54D100*X143500Y187701D02*Y173801D01*
X156300D01*
Y187701D02*Y173801D01*
X143500Y187701D02*X156300D01*
X35000Y22701D02*Y12701D01*
X55000D01*
Y22701D02*Y12701D01*
X35000Y22701D02*X55000D01*
X35000Y12701D02*X45000D01*
Y22701D02*Y12701D01*
X35000D02*Y2701D01*
X45000D01*
Y12701D01*
X35000D01*
Y2701D02*X45000D01*
Y12701D01*
G54D101*X112532Y51887D02*X116468D01*
X112532Y62515D02*X116468D01*
G54D100*X113900Y49801D02*Y35901D01*
X102100Y49801D02*X113900D01*
X102100D02*Y35901D01*
X113900D01*
G54D101*X26607Y24946D02*X27393D01*
X26607Y30456D02*X27393D01*
X26607Y14946D02*X27393D01*
X26607Y20456D02*X27393D01*
X26607Y34946D02*X27393D01*
X26607Y40456D02*X27393D01*
G54D100*X35000Y32701D02*Y22701D01*
X55000D01*
Y32701D02*Y22701D01*
X35000Y32701D02*X55000D01*
X35000Y22701D02*X45000D01*
Y32701D02*Y22701D01*
X119500Y17201D02*X133400D01*
Y30001D02*Y17201D01*
X119500Y30001D02*X133400D01*
X119500D02*Y17201D01*
Y29701D02*X133400D01*
Y42501D02*Y29701D01*
X119500Y42501D02*X133400D01*
X119500D02*Y29701D01*
G54D101*X243607Y10456D02*X244393D01*
X243607Y4946D02*X244393D01*
G54D102*X195235Y25366D02*X207046D01*
X195235D02*Y15524D01*
X207046D01*
Y25366D02*Y15524D01*
G54D100*X222600Y24801D02*X236500D01*
X222600D02*Y12001D01*
X236500D01*
Y24801D02*Y12001D01*
G54D101*X243650Y17956D02*X244436D01*
X243650Y12446D02*X244436D01*
G54D100*X237300Y34101D02*Y20201D01*
X250100D01*
Y34101D02*Y20201D01*
X237300Y34101D02*X250100D01*
X265300Y2701D02*Y4701D01*
X285000Y2701D02*Y4701D01*
X293100Y35701D02*X295100D01*
X293100Y37701D02*Y35701D01*
X295100Y37701D02*X293100D01*
X254100Y35701D02*X256100D01*
X254100Y37701D02*Y35701D01*
X256100Y37701D02*X254100D01*
X295100Y38401D02*Y2701D01*
X256100Y38401D02*X295100D01*
X256100Y2701D02*Y38401D01*
X295100Y2701D02*X256100D01*
X270500Y49701D02*X280500D01*
Y79701D02*Y49701D01*
X270500Y79701D02*X280500D01*
X270500D02*Y49701D01*
X280500Y59701D02*Y49701D01*
X270500Y59701D02*X280500D01*
Y49701D02*X290500D01*
Y79701D02*Y49701D01*
X280500Y79701D02*X290500D01*
X280500D02*Y49701D01*
X290500Y59701D02*Y49701D01*
X280500Y59701D02*X290500D01*
X170000Y63701D02*Y53701D01*
X190000D01*
Y63701D02*Y53701D01*
X170000Y63701D02*X190000D01*
X170000Y53701D02*X180000D01*
Y63701D02*Y53701D01*
X195500Y51701D02*Y41701D01*
X165500Y51701D02*X195500D01*
X165500D02*Y41701D01*
X195500D01*
X185500Y51701D02*X195500D01*
X185500D02*Y41701D01*
X147500Y49201D02*X157500D01*
Y79201D02*Y49201D01*
X147500Y79201D02*X157500D01*
X147500D02*Y49201D01*
X157500Y59201D02*Y49201D01*
X147500Y59201D02*X157500D01*
X132700Y58301D02*X146600D01*
Y70101D02*Y58301D01*
X132700Y70101D02*X146600D01*
X132700D02*Y58301D01*
X133500Y48201D02*Y34301D01*
X146300D01*
Y48201D01*
X133500D01*
G54D101*X148245Y41594D02*Y40808D01*
X153755Y41594D02*Y40808D01*
X155745Y41594D02*Y40808D01*
X161255Y41594D02*Y40808D01*
X157686Y63169D02*Y59233D01*
X168314Y63169D02*Y59233D01*
G54D100*X167500Y75201D02*X186500D01*
Y106201D02*Y75201D01*
X167500Y106201D02*X186500D01*
X167500Y88201D02*Y75201D01*
Y106201D02*Y93201D01*
Y88201D02*G75*G03X167500Y93201I0J2500D01*G01*
G54D101*X149107Y104946D02*X149893D01*
X149107Y110456D02*X149893D01*
X156255Y87594D02*Y86808D01*
X150745Y87594D02*Y86808D01*
G54D100*X270500Y124201D02*X280500D01*
Y204201D02*Y124201D01*
X270500Y204201D02*X280500D01*
X270500D02*Y124201D01*
X280500Y134201D02*Y124201D01*
X270500Y134201D02*X280500D01*
Y124201D02*X290500D01*
Y204201D02*Y124201D01*
X280500Y204201D02*X290500D01*
X280500D02*Y124201D01*
X290500Y134201D02*Y124201D01*
X280500Y134201D02*X290500D01*
X203035Y42779D02*Y34905D01*
Y60496D02*Y52622D01*
Y60496D02*X253232D01*
X203035Y34905D02*X253231D01*
X253232Y34906D01*
Y60496D02*Y34906D01*
X203035Y68779D02*Y60905D01*
Y86496D02*Y78622D01*
Y86496D02*X253232D01*
X203035Y60905D02*X253231D01*
X253232Y60906D01*
Y86496D02*Y60906D01*
X203035Y94779D02*Y86905D01*
Y112496D02*Y104622D01*
Y112496D02*X253232D01*
X203035Y86905D02*X253231D01*
X253232Y86906D01*
Y112496D02*Y86906D01*
X203035Y120779D02*Y112905D01*
Y138496D02*Y130622D01*
Y138496D02*X253232D01*
X203035Y112905D02*X253231D01*
X253232Y112906D01*
Y138496D02*Y112906D01*
X203035Y146779D02*Y138905D01*
Y164496D02*Y156622D01*
Y164496D02*X253232D01*
X203035Y138905D02*X253231D01*
X253232Y138906D01*
Y164496D02*Y138906D01*
X203035Y172779D02*Y164905D01*
Y190496D02*Y182622D01*
Y190496D02*X253232D01*
X203035Y164905D02*X253231D01*
X253232Y164906D01*
Y190496D02*Y164906D01*
X203035Y198779D02*Y190905D01*
Y216496D02*Y208622D01*
Y216496D02*X253232D01*
X203035Y190905D02*X253231D01*
X253232Y190906D01*
Y216496D02*Y190906D01*
X203035Y224779D02*Y216905D01*
Y242496D02*Y234622D01*
Y242496D02*X253232D01*
X203035Y216905D02*X253231D01*
X253232Y216906D01*
Y242496D02*Y216906D01*
X31500Y151701D02*X41500D01*
Y171701D02*Y151701D01*
X31500Y171701D02*X41500D01*
X31500D02*Y151701D01*
X41500Y161701D02*Y151701D01*
X31500Y161701D02*X41500D01*
X82500Y220701D02*X86500D01*
X84500Y222701D02*Y218701D01*
X34500Y220701D02*X38500D01*
X80500D02*G75*G03X80500Y220701I-20000J0D01*G01*
X85600Y186201D02*X90600D01*
X70600D02*X75600D01*
Y184601D02*X85600D01*
X75600Y187801D02*Y184601D01*
Y187801D02*X85600D01*
Y184601D01*
X90600Y182501D02*Y178501D01*
X88600Y180501D02*X92600D01*
X68600D02*X72600D01*
G54D101*X71607Y155456D02*X72393D01*
X71607Y149946D02*X72393D01*
X71607Y163456D02*X72393D01*
X71607Y157946D02*X72393D01*
G54D100*X102500Y171701D02*Y161701D01*
X142500D01*
Y171701D02*Y161701D01*
X102500Y171701D02*X142500D01*
X102500Y161701D02*X112500D01*
Y171701D02*Y161701D01*
X80000Y146701D02*X90000D01*
Y166701D02*Y146701D01*
X80000Y166701D02*X90000D01*
X80000D02*Y146701D01*
X90000Y156701D02*Y146701D01*
X80000Y156701D02*X90000D01*
G54D101*X117255Y155137D02*Y154351D01*
X111745Y155137D02*Y154351D01*
G54D100*X101500Y187701D02*Y173801D01*
X114300D01*
Y187701D02*Y173801D01*
X101500Y187701D02*X114300D01*
X115500D02*Y173801D01*
X128300D01*
Y187701D02*Y173801D01*
X115500Y187701D02*X128300D01*
X154000Y212701D02*Y202701D01*
X114000Y212701D02*X154000D01*
X114000D02*Y202701D01*
X154000D01*
X144000Y212701D02*X154000D01*
X144000D02*Y202701D01*
X154000Y222701D02*Y212701D01*
X114000Y222701D02*X154000D01*
X114000D02*Y212701D01*
X154000D01*
X144000Y222701D02*X154000D01*
X144000D02*Y212701D01*
X94000Y232701D02*Y222701D01*
X174000D01*
Y232701D02*Y222701D01*
X94000Y232701D02*X174000D01*
X94000Y222701D02*X104000D01*
Y232701D02*Y222701D01*
X94000Y242701D02*Y232701D01*
X174000D01*
Y242701D02*Y232701D01*
X94000Y242701D02*X174000D01*
X94000Y232701D02*X104000D01*
Y242701D02*Y232701D01*
X129500Y187701D02*Y173801D01*
X142300D01*
Y187701D02*Y173801D01*
X129500Y187701D02*X142300D01*
X143500Y201701D02*Y187801D01*
X156300D01*
Y201701D02*Y187801D01*
X143500Y201701D02*X156300D01*
X129500D02*Y187801D01*
X142300D01*
Y201701D02*Y187801D01*
X129500Y201701D02*X142300D01*
X115500D02*Y187801D01*
X128300D01*
Y201701D02*Y187801D01*
X115500Y201701D02*X128300D01*
X101500D02*Y187801D01*
X114300D01*
Y201701D02*Y187801D01*
X101500Y201701D02*X114300D01*
G54D101*X26607Y54946D02*X27393D01*
X26607Y60456D02*X27393D01*
X26607Y44946D02*X27393D01*
X26607Y50456D02*X27393D01*
X26607Y74946D02*X27393D01*
X26607Y80456D02*X27393D01*
X26607Y64946D02*X27393D01*
X26607Y70456D02*X27393D01*
G54D100*X35000Y42701D02*Y32701D01*
X55000D01*
Y42701D02*Y32701D01*
X35000Y42701D02*X55000D01*
X35000Y32701D02*X45000D01*
Y42701D02*Y32701D01*
X35000Y52701D02*Y42701D01*
X55000D01*
Y52701D02*Y42701D01*
X35000Y52701D02*X55000D01*
X35000Y42701D02*X45000D01*
Y52701D02*Y42701D01*
X35000Y72701D02*Y62701D01*
X55000D01*
Y72701D02*Y62701D01*
X35000Y72701D02*X55000D01*
X35000Y62701D02*X45000D01*
Y72701D02*Y62701D01*
X35000D02*Y52701D01*
X55000D01*
Y62701D02*Y52701D01*
X35000Y62701D02*X55000D01*
X35000Y52701D02*X45000D01*
Y62701D02*Y52701D01*
X35000Y112701D02*Y102701D01*
X55000D01*
Y112701D02*Y102701D01*
X35000Y112701D02*X55000D01*
X35000Y102701D02*X45000D01*
Y112701D02*Y102701D01*
X35000D02*Y92701D01*
X55000D01*
Y102701D02*Y92701D01*
X35000Y102701D02*X55000D01*
X35000Y92701D02*X45000D01*
Y102701D02*Y92701D01*
X35000D02*Y82701D01*
X55000D01*
Y92701D02*Y82701D01*
X35000Y92701D02*X55000D01*
X35000Y82701D02*X45000D01*
Y92701D02*Y82701D01*
X35000D02*Y72701D01*
X55000D01*
Y82701D02*Y72701D01*
X35000Y82701D02*X55000D01*
X35000Y72701D02*X45000D01*
Y82701D02*Y72701D01*
G54D101*X26607Y84946D02*X27393D01*
X26607Y90456D02*X27393D01*
X26607Y94946D02*X27393D01*
X26607Y100456D02*X27393D01*
X26607Y104946D02*X27393D01*
X26607Y110456D02*X27393D01*
X95255Y123137D02*Y122351D01*
X89745Y123137D02*Y122351D01*
X120521Y145080D02*X144379D01*
Y118322D01*
X117621D02*X144379D01*
X117621Y142180D02*Y118322D01*
Y142180D02*X120521Y145080D01*
X119521Y142180D02*G75*G03X119521Y142180I1000J0D01*G01*
X89107Y138456D02*X89893D01*
X89107Y132946D02*X89893D01*
X76107D02*X76893D01*
X76107Y138456D02*X76893D01*
X76107Y139946D02*X76893D01*
X76107Y145456D02*X76893D01*
X89107D02*X89893D01*
X89107Y139946D02*X89893D01*
G54D100*X57800Y392701D02*Y390701D01*
X38400Y392701D02*Y390701D01*
X19000Y392701D02*Y390701D01*
X8900Y359701D02*X10900D01*
Y357701D01*
X8900D02*X10900D01*
X67900Y359701D02*X69900D01*
Y357701D01*
X67900D02*X69900D01*
X8900Y392701D02*Y356701D01*
X67900D01*
Y392701D02*Y356701D01*
X8900Y392701D02*X67900D01*
X20000Y338201D02*X30000D01*
X50000D02*X60000D01*
X30000Y341501D02*X50000D01*
Y334901D01*
X30000D01*
Y341501D01*
X116800Y392701D02*Y390701D01*
X97400Y392701D02*Y390701D01*
X78000Y392701D02*Y390701D01*
X67900Y359701D02*X69900D01*
Y357701D01*
X67900D02*X69900D01*
X126900Y359701D02*X128900D01*
Y357701D01*
X126900D02*X128900D01*
X67900Y392701D02*Y356701D01*
X126900D01*
Y392701D02*Y356701D01*
X67900Y392701D02*X126900D01*
X175800D02*Y390701D01*
X156400Y392701D02*Y390701D01*
X137000Y392701D02*Y390701D01*
X126900Y359701D02*X128900D01*
Y357701D01*
X126900D02*X128900D01*
X185900Y359701D02*X187900D01*
Y357701D01*
X185900D02*X187900D01*
X126900Y392701D02*Y356701D01*
X185900D01*
Y392701D02*Y356701D01*
X126900Y392701D02*X185900D01*
G54D102*X81067Y261327D02*X122406D01*
Y355815D02*Y261327D01*
X81067Y355815D02*X122406D01*
X81067D02*Y261327D01*
X145067D02*X186406D01*
Y355815D02*Y261327D01*
X145067Y355815D02*X186406D01*
X145067D02*Y261327D01*
G54D103*X124500Y289201D02*Y249201D01*
Y289201D02*X142500D01*
Y249201D01*
X124500D02*X142500D01*
X124500Y289201D02*Y249201D01*
Y289201D02*X130500D01*
Y249201D01*
X124500D02*X130500D01*
G54D100*X124500Y262201D02*X130500D01*
X124500Y276201D02*X130500D01*
X48500Y279701D02*X52500D01*
X50500Y281701D02*Y277701D01*
X500Y279701D02*X4500D01*
X46500D02*G75*G03X46500Y279701I-20000J0D01*G01*
X44500Y307701D02*X52000D01*
X67000D02*X74500D01*
X52000Y310201D02*X67000D01*
Y305201D01*
X52000D02*X67000D01*
X52000Y310201D02*Y305201D01*
X44500Y315401D02*Y311401D01*
X42500Y313401D02*X46500D01*
X72500D02*X76500D01*
G54D103*X60500Y289201D02*Y249201D01*
Y289201D02*X78500D01*
Y249201D01*
X60500D02*X78500D01*
X60500Y289201D02*Y249201D01*
Y289201D02*X66500D01*
Y249201D01*
X60500D02*X66500D01*
G54D100*X60500Y262201D02*X66500D01*
X60500Y276201D02*X66500D01*
X8000Y321701D02*X15500D01*
X30500D02*X38000D01*
X15500Y324201D02*X30500D01*
Y319201D01*
X15500D02*X30500D01*
X15500Y324201D02*Y319201D01*
X8000Y329401D02*Y325401D01*
X6000Y327401D02*X10000D01*
X36000D02*X40000D01*
X8000Y307701D02*X15500D01*
X30500D02*X38000D01*
X15500Y310201D02*X30500D01*
Y305201D01*
X15500D02*X30500D01*
X15500Y310201D02*Y305201D01*
X8000Y315401D02*Y311401D01*
X6000Y313401D02*X10000D01*
X36000D02*X40000D01*
X44500Y321701D02*X52000D01*
X67000D02*X74500D01*
X52000Y324201D02*X67000D01*
Y319201D01*
X52000D02*X67000D01*
X52000Y324201D02*Y319201D01*
X44500Y329401D02*Y325401D01*
X42500Y327401D02*X46500D01*
X72500D02*X76500D01*
X234800Y392701D02*Y390701D01*
X215400Y392701D02*Y390701D01*
X196000Y392701D02*Y390701D01*
X185900Y359701D02*X187900D01*
Y357701D01*
X185900D02*X187900D01*
X244900Y359701D02*X246900D01*
Y357701D01*
X244900D02*X246900D01*
X185900Y392701D02*Y356701D01*
X244900D01*
Y392701D02*Y356701D01*
X185900Y392701D02*X244900D01*
X293800D02*Y390701D01*
X274400Y392701D02*Y390701D01*
X255000Y392701D02*Y390701D01*
X244900Y359701D02*X246900D01*
Y357701D01*
X244900D02*X246900D01*
X303900Y359701D02*X305900D01*
Y357701D01*
X303900D02*X305900D01*
X244900Y392701D02*Y356701D01*
X303900D01*
Y392701D02*Y356701D01*
X244900Y392701D02*X303900D01*
G54D102*X273067Y261327D02*X314406D01*
Y355815D02*Y261327D01*
X273067Y355815D02*X314406D01*
X273067D02*Y261327D01*
X209067D02*X250406D01*
Y355815D02*Y261327D01*
X209067Y355815D02*X250406D01*
X209067D02*Y261327D01*
G54D103*X188500Y289201D02*Y249201D01*
Y289201D02*X206500D01*
Y249201D01*
X188500D02*X206500D01*
X188500Y289201D02*Y249201D01*
Y289201D02*X194500D01*
Y249201D01*
X188500D02*X194500D01*
G54D100*X188500Y262201D02*X194500D01*
X188500Y276201D02*X194500D01*
G54D103*X252500Y289201D02*Y249201D01*
Y289201D02*X270500D01*
Y249201D01*
X252500D02*X270500D01*
X252500Y289201D02*Y249201D01*
Y289201D02*X258500D01*
Y249201D01*
X252500D02*X258500D01*
G54D100*X252500Y262201D02*X258500D01*
X252500Y276201D02*X258500D01*
G54D104*X14000Y59701D02*X16000D01*
X16500Y59201D01*
Y58201D01*
X16000Y57701D02*X16500Y58201D01*
X14500Y57701D02*X16000D01*
X14500Y59701D02*Y55701D01*
X15300Y57701D02*X16500Y55701D01*
X19200Y59701D02*X19700Y59201D01*
X18200Y59701D02*X19200D01*
X17700Y59201D02*X18200Y59701D01*
X17700Y59201D02*Y56201D01*
X18200Y55701D01*
X19200Y57901D02*X19700Y57401D01*
X17700Y57901D02*X19200D01*
X18200Y55701D02*X19200D01*
X19700Y56201D01*
Y57401D02*Y56201D01*
X14000Y49701D02*X16000D01*
X16500Y49201D01*
Y48201D01*
X16000Y47701D02*X16500Y48201D01*
X14500Y47701D02*X16000D01*
X14500Y49701D02*Y45701D01*
X15300Y47701D02*X16500Y45701D01*
X18200D02*X20200Y49701D01*
X17700D02*X20200D01*
X14000Y69701D02*X16000D01*
X16500Y69201D01*
Y68201D01*
X16000Y67701D02*X16500Y68201D01*
X14500Y67701D02*X16000D01*
X14500Y69701D02*Y65701D01*
X15300Y67701D02*X16500Y65701D01*
X17700Y69701D02*X19700D01*
X17700D02*Y67701D01*
X18200Y68201D01*
X19200D01*
X19700Y67701D01*
Y66201D01*
X19200Y65701D02*X19700Y66201D01*
X18200Y65701D02*X19200D01*
X17700Y66201D02*X18200Y65701D01*
X14000Y39701D02*X16000D01*
X16500Y39201D01*
Y38201D01*
X16000Y37701D02*X16500Y38201D01*
X14500Y37701D02*X16000D01*
X14500Y39701D02*Y35701D01*
X15300Y37701D02*X16500Y35701D01*
X17700Y36201D02*X18200Y35701D01*
X17700Y37001D02*Y36201D01*
Y37001D02*X18400Y37701D01*
X19000D01*
X19700Y37001D01*
Y36201D01*
X19200Y35701D02*X19700Y36201D01*
X18200Y35701D02*X19200D01*
X17700Y38401D02*X18400Y37701D01*
X17700Y39201D02*Y38401D01*
Y39201D02*X18200Y39701D01*
X19200D01*
X19700Y39201D01*
Y38401D01*
X19000Y37701D02*X19700Y38401D01*
X14000Y99701D02*X16000D01*
X16500Y99201D01*
Y98201D01*
X16000Y97701D02*X16500Y98201D01*
X14500Y97701D02*X16000D01*
X14500Y99701D02*Y95701D01*
X15300Y97701D02*X16500Y95701D01*
X17700Y99201D02*X18200Y99701D01*
X19700D01*
X20200Y99201D01*
Y98201D01*
X17700Y95701D02*X20200Y98201D01*
X17700Y95701D02*X20200D01*
X56500Y98701D02*Y95701D01*
Y98701D02*X57200Y99701D01*
X58300D01*
X59000Y98701D01*
Y95701D01*
X56500Y97701D02*X59000D01*
X60700Y99701D02*Y95701D01*
X62000Y99701D02*X62700Y99001D01*
Y96401D01*
X62000Y95701D02*X62700Y96401D01*
X60200Y95701D02*X62000D01*
X60200Y99701D02*X62000D01*
X64600Y95701D02*X65900D01*
X63900Y96401D02*X64600Y95701D01*
X63900Y99001D02*Y96401D01*
Y99001D02*X64600Y99701D01*
X65900D01*
X67100Y98901D02*X67900Y99701D01*
Y95701D01*
X67100D02*X68600D01*
X69800D02*X71800D01*
X73000Y99701D02*X74000D01*
X73500D02*Y95701D01*
X73000D02*X74000D01*
X75200Y99701D02*Y95701D01*
Y99701D02*X77700Y95701D01*
Y99701D02*Y95701D01*
X78900Y98901D02*X79700Y99701D01*
Y95701D01*
X78900D02*X80400D01*
X56500Y88701D02*Y85701D01*
Y88701D02*X57200Y89701D01*
X58300D01*
X59000Y88701D01*
Y85701D01*
X56500Y87701D02*X59000D01*
X60700Y89701D02*Y85701D01*
X62000Y89701D02*X62700Y89001D01*
Y86401D01*
X62000Y85701D02*X62700Y86401D01*
X60200Y85701D02*X62000D01*
X60200Y89701D02*X62000D01*
X64600Y85701D02*X65900D01*
X63900Y86401D02*X64600Y85701D01*
X63900Y89001D02*Y86401D01*
Y89001D02*X64600Y89701D01*
X65900D01*
X67100Y88901D02*X67900Y89701D01*
Y85701D01*
X67100D02*X68600D01*
X69800D02*X71800D01*
X73000Y89701D02*X74000D01*
X73500D02*Y85701D01*
X73000D02*X74000D01*
X75200Y89701D02*Y85701D01*
Y89701D02*X77700Y85701D01*
Y89701D02*Y85701D01*
X78900Y89201D02*X79400Y89701D01*
X80900D01*
X81400Y89201D01*
Y88201D01*
X78900Y85701D02*X81400Y88201D01*
X78900Y85701D02*X81400D01*
X56500Y78701D02*Y75701D01*
Y78701D02*X57200Y79701D01*
X58300D01*
X59000Y78701D01*
Y75701D01*
X56500Y77701D02*X59000D01*
X60700Y79701D02*Y75701D01*
X62000Y79701D02*X62700Y79001D01*
Y76401D01*
X62000Y75701D02*X62700Y76401D01*
X60200Y75701D02*X62000D01*
X60200Y79701D02*X62000D01*
X64600Y75701D02*X65900D01*
X63900Y76401D02*X64600Y75701D01*
X63900Y79001D02*Y76401D01*
Y79001D02*X64600Y79701D01*
X65900D01*
X67100Y78901D02*X67900Y79701D01*
Y75701D01*
X67100D02*X68600D01*
X69800D02*X71800D01*
X73000Y79701D02*X74000D01*
X73500D02*Y75701D01*
X73000D02*X74000D01*
X75200Y79701D02*Y75701D01*
Y79701D02*X77700Y75701D01*
Y79701D02*Y75701D01*
X78900Y79201D02*X79400Y79701D01*
X80400D01*
X80900Y79201D01*
X80400Y75701D02*X80900Y76201D01*
X79400Y75701D02*X80400D01*
X78900Y76201D02*X79400Y75701D01*
Y77901D02*X80400D01*
X80900Y79201D02*Y78401D01*
Y77401D02*Y76201D01*
Y77401D02*X80400Y77901D01*
X80900Y78401D02*X80400Y77901D01*
X56500Y39201D02*Y36201D01*
Y39201D02*X57200Y40201D01*
X58300D01*
X59000Y39201D01*
Y36201D01*
X56500Y38201D02*X59000D01*
X60700Y40201D02*Y36201D01*
X62000Y40201D02*X62700Y39501D01*
Y36901D01*
X62000Y36201D02*X62700Y36901D01*
X60200Y36201D02*X62000D01*
X60200Y40201D02*X62000D01*
X64600Y36201D02*X65900D01*
X63900Y36901D02*X64600Y36201D01*
X63900Y39501D02*Y36901D01*
Y39501D02*X64600Y40201D01*
X65900D01*
X67100Y39401D02*X67900Y40201D01*
Y36201D01*
X67100D02*X68600D01*
X69800D02*X71800D01*
X73000Y40201D02*X74000D01*
X73500D02*Y36201D01*
X73000D02*X74000D01*
X75200Y40201D02*Y36201D01*
Y40201D02*X77700Y36201D01*
Y40201D02*Y36201D01*
X79400D02*X81400Y40201D01*
X78900D02*X81400D01*
X56500Y49201D02*Y46201D01*
Y49201D02*X57200Y50201D01*
X58300D01*
X59000Y49201D01*
Y46201D01*
X56500Y48201D02*X59000D01*
X60700Y50201D02*Y46201D01*
X62000Y50201D02*X62700Y49501D01*
Y46901D01*
X62000Y46201D02*X62700Y46901D01*
X60200Y46201D02*X62000D01*
X60200Y50201D02*X62000D01*
X64600Y46201D02*X65900D01*
X63900Y46901D02*X64600Y46201D01*
X63900Y49501D02*Y46901D01*
Y49501D02*X64600Y50201D01*
X65900D01*
X67100Y49401D02*X67900Y50201D01*
Y46201D01*
X67100D02*X68600D01*
X69800D02*X71800D01*
X73000Y50201D02*X74000D01*
X73500D02*Y46201D01*
X73000D02*X74000D01*
X75200Y50201D02*Y46201D01*
Y50201D02*X77700Y46201D01*
Y50201D02*Y46201D01*
X80400Y50201D02*X80900Y49701D01*
X79400Y50201D02*X80400D01*
X78900Y49701D02*X79400Y50201D01*
X78900Y49701D02*Y46701D01*
X79400Y46201D01*
X80400Y48401D02*X80900Y47901D01*
X78900Y48401D02*X80400D01*
X79400Y46201D02*X80400D01*
X80900Y46701D01*
Y47901D02*Y46701D01*
X56500Y69201D02*Y66201D01*
Y69201D02*X57200Y70201D01*
X58300D01*
X59000Y69201D01*
Y66201D01*
X56500Y68201D02*X59000D01*
X60700Y70201D02*Y66201D01*
X62000Y70201D02*X62700Y69501D01*
Y66901D01*
X62000Y66201D02*X62700Y66901D01*
X60200Y66201D02*X62000D01*
X60200Y70201D02*X62000D01*
X64600Y66201D02*X65900D01*
X63900Y66901D02*X64600Y66201D01*
X63900Y69501D02*Y66901D01*
Y69501D02*X64600Y70201D01*
X65900D01*
X67100Y69401D02*X67900Y70201D01*
Y66201D01*
X67100D02*X68600D01*
X69800D02*X71800D01*
X73000Y70201D02*X74000D01*
X73500D02*Y66201D01*
X73000D02*X74000D01*
X75200Y70201D02*Y66201D01*
Y70201D02*X77700Y66201D01*
Y70201D02*Y66201D01*
X78900Y67701D02*X80900Y70201D01*
X78900Y67701D02*X81400D01*
X80900Y70201D02*Y66201D01*
X56500Y59201D02*Y56201D01*
Y59201D02*X57200Y60201D01*
X58300D01*
X59000Y59201D01*
Y56201D01*
X56500Y58201D02*X59000D01*
X60700Y60201D02*Y56201D01*
X62000Y60201D02*X62700Y59501D01*
Y56901D01*
X62000Y56201D02*X62700Y56901D01*
X60200Y56201D02*X62000D01*
X60200Y60201D02*X62000D01*
X64600Y56201D02*X65900D01*
X63900Y56901D02*X64600Y56201D01*
X63900Y59501D02*Y56901D01*
Y59501D02*X64600Y60201D01*
X65900D01*
X67100Y59401D02*X67900Y60201D01*
Y56201D01*
X67100D02*X68600D01*
X69800D02*X71800D01*
X73000Y60201D02*X74000D01*
X73500D02*Y56201D01*
X73000D02*X74000D01*
X75200Y60201D02*Y56201D01*
Y60201D02*X77700Y56201D01*
Y60201D02*Y56201D01*
X78900Y60201D02*X80900D01*
X78900D02*Y58201D01*
X79400Y58701D01*
X80400D01*
X80900Y58201D01*
Y56701D01*
X80400Y56201D02*X80900Y56701D01*
X79400Y56201D02*X80400D01*
X78900Y56701D02*X79400Y56201D01*
X14000Y79701D02*X16000D01*
X16500Y79201D01*
Y78201D01*
X16000Y77701D02*X16500Y78201D01*
X14500Y77701D02*X16000D01*
X14500Y79701D02*Y75701D01*
X15300Y77701D02*X16500Y75701D01*
X17700Y77201D02*X19700Y79701D01*
X17700Y77201D02*X20200D01*
X19700Y79701D02*Y75701D01*
X14500Y89701D02*X16500D01*
X17000Y89201D01*
Y88201D01*
X16500Y87701D02*X17000Y88201D01*
X15000Y87701D02*X16500D01*
X15000Y89701D02*Y85701D01*
X15800Y87701D02*X17000Y85701D01*
X18200Y89201D02*X18700Y89701D01*
X19700D01*
X20200Y89201D01*
X19700Y85701D02*X20200Y86201D01*
X18700Y85701D02*X19700D01*
X18200Y86201D02*X18700Y85701D01*
Y87901D02*X19700D01*
X20200Y89201D02*Y88401D01*
Y87401D02*Y86201D01*
Y87401D02*X19700Y87901D01*
X20200Y88401D02*X19700Y87901D01*
X15000Y109701D02*X17000D01*
X17500Y109201D01*
Y108201D01*
X17000Y107701D02*X17500Y108201D01*
X15500Y107701D02*X17000D01*
X15500Y109701D02*Y105701D01*
X16300Y107701D02*X17500Y105701D01*
X18700Y108901D02*X19500Y109701D01*
Y105701D01*
X18700D02*X20200D01*
X120000Y50201D02*X121000Y46201D01*
X122000Y50201D01*
X123200D02*X125200D01*
X124200D02*Y46201D01*
X126400Y49701D02*X126900Y50201D01*
X128400D01*
X128900Y49701D01*
Y48701D01*
X126400Y46201D02*X128900Y48701D01*
X126400Y46201D02*X128900D01*
X130100Y47701D02*X132100Y50201D01*
X130100Y47701D02*X132600D01*
X132100Y50201D02*Y46201D01*
X137500Y50201D02*X141500D01*
X137500Y51501D02*X138200Y52201D01*
X140800D01*
X141500Y51501D02*X140800Y52201D01*
X141500Y51501D02*Y49701D01*
X137500Y51501D02*Y49701D01*
X141500Y53901D02*X139500Y55401D01*
X138000D02*X139500D01*
X137500Y54901D02*X138000Y55401D01*
X137500Y54901D02*Y53901D01*
X138000Y53401D02*X137500Y53901D01*
X138000Y53401D02*X139000D01*
X139500Y53901D01*
Y55401D02*Y53901D01*
X146500Y51201D02*Y49901D01*
X145800Y49201D02*X146500Y49901D01*
X143200Y49201D02*X145800D01*
X143200D02*X142500Y49901D01*
Y51201D02*Y49901D01*
X143300Y52401D02*X142500Y53201D01*
X146500D01*
Y53901D02*Y52401D01*
X143000Y55101D02*X142500Y55601D01*
Y56601D02*Y55601D01*
Y56601D02*X143000Y57101D01*
X146500Y56601D02*X146000Y57101D01*
X146500Y56601D02*Y55601D01*
X146000Y55101D02*X146500Y55601D01*
X144300Y56601D02*Y55601D01*
X143000Y57101D02*X143800D01*
X144800D02*X146000D01*
X144800D02*X144300Y56601D01*
X143800Y57101D02*X144300Y56601D01*
X258711Y52646D02*X254711Y51646D01*
X258711Y50646D01*
Y49446D02*Y47446D01*
X254711Y48446D02*X258711D01*
X257911Y46246D02*X258711Y45446D01*
X254711D02*X258711D01*
X254711Y46246D02*Y44746D01*
X161200Y70201D02*X162500D01*
X160500Y70901D02*X161200Y70201D01*
X160500Y73501D02*Y70901D01*
Y73501D02*X161200Y74201D01*
X162500D01*
X163700D02*X165700D01*
X163700D02*Y72201D01*
X164200Y72701D01*
X165200D01*
X165700Y72201D01*
Y70701D01*
X165200Y70201D02*X165700Y70701D01*
X164200Y70201D02*X165200D01*
X163700Y70701D02*X164200Y70201D01*
X149500Y85201D02*Y83901D01*
X148800Y83201D02*X149500Y83901D01*
X146200Y83201D02*X148800D01*
X146200D02*X145500Y83901D01*
Y85201D02*Y83901D01*
X146300Y86401D02*X145500Y87201D01*
X149500D01*
Y87901D02*Y86401D01*
X148000Y89101D02*X145500Y91101D01*
X148000Y91601D02*Y89101D01*
X145500Y91101D02*X149500D01*
X259000Y79701D02*X255000Y78701D01*
X259000Y77701D01*
Y76501D02*Y74501D01*
X255000Y75501D02*X259000D01*
X258500Y73301D02*X259000Y72801D01*
Y71301D01*
X258500Y70801D01*
X257500D02*X258500D01*
X255000Y73301D02*X257500Y70801D01*
X255000Y73301D02*Y70801D01*
X259000Y102201D02*X255000Y101201D01*
X259000Y100201D01*
Y99001D02*Y97001D01*
X255000Y98001D02*X259000D01*
X258500Y95801D02*X259000Y95301D01*
Y94301D01*
X258500Y93801D01*
X255000Y94301D02*X255500Y93801D01*
X255000Y95301D02*Y94301D01*
X255500Y95801D02*X255000Y95301D01*
X257200D02*Y94301D01*
X257700Y93801D02*X258500D01*
X255500D02*X256700D01*
X257200Y94301D01*
X257700Y93801D02*X257200Y94301D01*
X44000Y156201D02*Y154201D01*
Y156201D02*X44500Y156701D01*
X45500D01*
X46000Y156201D02*X45500Y156701D01*
X46000Y156201D02*Y154701D01*
X44000D02*X48000D01*
X46000Y155501D02*X48000Y156701D01*
X45800Y159401D02*Y157901D01*
X48000Y159901D02*Y157901D01*
X44000D02*X48000D01*
X44000Y159901D02*Y157901D01*
Y163101D02*X44500Y163601D01*
X44000Y163101D02*Y161601D01*
X44500Y161101D02*X44000Y161601D01*
X44500Y161101D02*X45500D01*
X46000Y161601D01*
Y163101D02*Y161601D01*
Y163101D02*X46500Y163601D01*
X47500D01*
X48000Y163101D02*X47500Y163601D01*
X48000Y163101D02*Y161601D01*
X47500Y161101D02*X48000Y161601D01*
X45800Y166301D02*Y164801D01*
X48000Y166801D02*Y164801D01*
X44000D02*X48000D01*
X44000Y166801D02*Y164801D01*
Y170001D02*Y168001D01*
Y169001D02*X48000D01*
X37500Y203401D02*X39500D01*
X40000Y203901D01*
Y205101D02*Y203901D01*
X39500Y205601D02*X40000Y205101D01*
X38000Y205601D02*X39500D01*
X38000Y207401D02*Y203401D01*
X37500Y207401D02*X39500D01*
X40000Y206901D01*
Y206101D01*
X39500Y205601D02*X40000Y206101D01*
X41200Y206601D02*X42000Y207401D01*
Y203401D01*
X41200D02*X42700D01*
X23500Y255501D02*Y254201D01*
X24200Y256201D02*X23500Y255501D01*
X24200Y256201D02*X26800D01*
X27500Y255501D01*
Y254201D01*
X25000Y253001D02*X27500Y251001D01*
X25000Y253001D02*Y250501D01*
X23500Y251001D02*X27500D01*
X46500Y253701D02*X47500Y249701D01*
X48500Y253701D01*
X49700D02*X51700D01*
X50700D02*Y249701D01*
X52900Y252901D02*X53700Y253701D01*
Y249701D01*
X52900D02*X54400D01*
X55600Y250201D02*X56100Y249701D01*
X55600Y253201D02*Y250201D01*
Y253201D02*X56100Y253701D01*
X57100D01*
X57600Y253201D01*
Y250201D01*
X57100Y249701D02*X57600Y250201D01*
X56100Y249701D02*X57100D01*
X55600Y250701D02*X57600Y252701D01*
X74400Y193601D02*Y189601D01*
X75700Y193601D02*X76400Y192901D01*
Y190301D01*
X75700Y189601D02*X76400Y190301D01*
X73900Y189601D02*X75700D01*
X73900Y193601D02*X75700D01*
X77600Y191101D02*X79600Y193601D01*
X77600Y191101D02*X80100D01*
X79600Y193601D02*Y189601D01*
X66800Y178701D02*X62800Y177701D01*
X66800Y176701D01*
Y175501D02*Y173501D01*
X62800Y174501D02*X66800D01*
X66300Y172301D02*X66800Y171801D01*
Y170301D01*
X66300Y169801D01*
X65300D02*X66300D01*
X62800Y172301D02*X65300Y169801D01*
X62800Y172301D02*Y169801D01*
X63300Y168601D02*X62800Y168101D01*
X63300Y168601D02*X66300D01*
X66800Y168101D01*
Y167101D01*
X66300Y166601D01*
X63300D02*X66300D01*
X62800Y167101D02*X63300Y166601D01*
X62800Y168101D02*Y167101D01*
X63800Y168601D02*X65800Y166601D01*
X71800Y178701D02*X67800Y177701D01*
X71800Y176701D01*
Y175501D02*Y173501D01*
X67800Y174501D02*X71800D01*
X71000Y172301D02*X71800Y171501D01*
X67800D02*X71800D01*
X67800Y172301D02*Y170801D01*
X68300Y169601D02*X67800Y169101D01*
X68300Y169601D02*X69100D01*
X69800Y168901D01*
Y168301D01*
X69100Y167601D01*
X68300D02*X69100D01*
X67800Y168101D02*X68300Y167601D01*
X67800Y169101D02*Y168101D01*
X70500Y169601D02*X69800Y168901D01*
X70500Y169601D02*X71300D01*
X71800Y169101D01*
Y168101D01*
X71300Y167601D01*
X70500D02*X71300D01*
X69800Y168301D02*X70500Y167601D01*
X76800Y178701D02*X72800Y177701D01*
X76800Y176701D01*
Y175501D02*Y173501D01*
X72800Y174501D02*X76800D01*
X76000Y172301D02*X76800Y171501D01*
X72800D02*X76800D01*
X72800Y172301D02*Y170801D01*
X76800Y169601D02*Y167601D01*
X74800Y169601D02*X76800D01*
X74800D02*X75300Y169101D01*
Y168101D01*
X74800Y167601D01*
X73300D02*X74800D01*
X72800Y168101D02*X73300Y167601D01*
X72800Y169101D02*Y168101D01*
X73300Y169601D02*X72800Y169101D01*
X81800Y178701D02*X77800Y177701D01*
X81800Y176701D01*
Y175501D02*Y173501D01*
X77800Y174501D02*X81800D01*
X81000Y172301D02*X81800Y171501D01*
X77800D02*X81800D01*
X77800Y172301D02*Y170801D01*
X81000Y169601D02*X81800Y168801D01*
X77800D02*X81800D01*
X77800Y169601D02*Y168101D01*
X63500Y210201D02*Y206201D01*
X63000Y210201D02*X65000D01*
X65500Y209701D01*
Y208701D01*
X65000Y208201D02*X65500Y208701D01*
X63500Y208201D02*X65000D01*
X66700Y206201D02*X68700D01*
X69200Y206701D01*
Y207901D02*Y206701D01*
X68700Y208401D02*X69200Y207901D01*
X67200Y208401D02*X68700D01*
X67200Y210201D02*Y206201D01*
X66700Y210201D02*X68700D01*
X69200Y209701D01*
Y208901D01*
X68700Y208401D02*X69200Y208901D01*
X70400Y209701D02*X70900Y210201D01*
X71900D01*
X72400Y209701D01*
X71900Y206201D02*X72400Y206701D01*
X70900Y206201D02*X71900D01*
X70400Y206701D02*X70900Y206201D01*
Y208401D02*X71900D01*
X72400Y209701D02*Y208901D01*
Y207901D02*Y206701D01*
Y207901D02*X71900Y208401D01*
X72400Y208901D02*X71900Y208401D01*
X73600Y205201D02*X74600Y206201D01*
X75800Y206701D02*X76300Y206201D01*
X75800Y207501D02*Y206701D01*
Y207501D02*X76500Y208201D01*
X77100D01*
X77800Y207501D01*
Y206701D01*
X77300Y206201D02*X77800Y206701D01*
X76300Y206201D02*X77300D01*
X75800Y208901D02*X76500Y208201D01*
X75800Y209701D02*Y208901D01*
Y209701D02*X76300Y210201D01*
X77300D01*
X77800Y209701D01*
Y208901D01*
X77100Y208201D02*X77800Y208901D01*
X79000Y206201D02*X79500D01*
X80700D02*X81200D01*
X82400Y209401D02*X83200Y210201D01*
Y206201D01*
X82400D02*X83900D01*
X85100Y209401D02*X85900Y210201D01*
Y206201D01*
X85100D02*X86600D01*
X87800Y205201D02*X88800Y206201D01*
X90500Y210201D02*Y206201D01*
X90000Y210201D02*X92000D01*
X92500Y209701D01*
Y208701D01*
X92000Y208201D02*X92500Y208701D01*
X90500Y208201D02*X92000D01*
X93700Y209201D02*Y206201D01*
Y209201D02*X94400Y210201D01*
X95500D01*
X96200Y209201D01*
Y206201D01*
X93700Y208201D02*X96200D01*
X97400Y209401D02*X98200Y210201D01*
Y206201D01*
X97400D02*X98900D01*
X100100Y210201D02*X102100D01*
X100100D02*Y208201D01*
X100600Y208701D01*
X101600D01*
X102100Y208201D01*
Y206701D01*
X101600Y206201D02*X102100Y206701D01*
X100600Y206201D02*X101600D01*
X100100Y206701D02*X100600Y206201D01*
X103300D02*X105300D01*
X107000Y210201D02*Y206201D01*
X106500Y210201D02*X108500D01*
X109000Y209701D01*
Y208701D01*
X108500Y208201D02*X109000Y208701D01*
X107000Y208201D02*X108500D01*
X110700Y210201D02*Y206201D01*
X110200Y210201D02*X112200D01*
X112700Y209701D01*
Y208701D01*
X112200Y208201D02*X112700Y208701D01*
X110700Y208201D02*X112200D01*
X101500Y219701D02*X102000Y219201D01*
X100000Y219701D02*X101500D01*
X99500Y219201D02*X100000Y219701D01*
X99500Y219201D02*Y216201D01*
X100000Y215701D01*
X101500D01*
X102000Y216201D01*
Y217201D02*Y216201D01*
X101500Y217701D02*X102000Y217201D01*
X100500Y217701D02*X101500D01*
X103200Y219701D02*Y215701D01*
Y219701D02*X105700Y215701D01*
Y219701D02*Y215701D01*
X107400Y219701D02*Y215701D01*
X108700Y219701D02*X109400Y219001D01*
Y216401D01*
X108700Y215701D02*X109400Y216401D01*
X106900Y215701D02*X108700D01*
X106900Y219701D02*X108700D01*
X110600Y218901D02*X111400Y219701D01*
Y215701D01*
X110600D02*X112100D01*
X99800Y202701D02*X95800Y201701D01*
X99800Y200701D01*
Y199501D02*Y197501D01*
X95800Y198501D02*X99800D01*
X95800Y195801D02*X97800Y194301D01*
X99300D01*
X99800Y194801D02*X99300Y194301D01*
X99800Y195801D02*Y194801D01*
X99300Y196301D02*X99800Y195801D01*
X98300Y196301D02*X99300D01*
X98300D02*X97800Y195801D01*
Y194301D01*
X94800Y202701D02*X90800Y201701D01*
X94800Y200701D01*
Y199501D02*Y197501D01*
X90800Y198501D02*X94800D01*
X94000Y196301D02*X94800Y195501D01*
X90800D02*X94800D01*
X90800Y196301D02*Y194801D01*
X94300Y193601D02*X94800Y193101D01*
Y192101D01*
X94300Y191601D01*
X90800Y192101D02*X91300Y191601D01*
X90800Y193101D02*Y192101D01*
X91300Y193601D02*X90800Y193101D01*
X93000D02*Y192101D01*
X93500Y191601D02*X94300D01*
X91300D02*X92500D01*
X93000Y192101D01*
X93500Y191601D02*X93000Y192101D01*
X89800Y202701D02*X85800Y201701D01*
X89800Y200701D01*
Y199501D02*Y197501D01*
X85800Y198501D02*X89800D01*
X89000Y196301D02*X89800Y195501D01*
X85800D02*X89800D01*
X85800Y196301D02*Y194801D01*
Y193101D02*X89800Y191101D01*
Y193601D02*Y191101D01*
X84800Y202701D02*X80800Y201701D01*
X84800Y200701D01*
Y199501D02*Y197501D01*
X80800Y198501D02*X84800D01*
X84000Y196301D02*X84800Y195501D01*
X80800D02*X84800D01*
X80800Y196301D02*Y194801D01*
Y193101D02*X82800Y191601D01*
X84300D01*
X84800Y192101D02*X84300Y191601D01*
X84800Y193101D02*Y192101D01*
X84300Y193601D02*X84800Y193101D01*
X83300Y193601D02*X84300D01*
X83300D02*X82800Y193101D01*
Y191601D01*
X89000Y260201D02*Y256701D01*
X89500Y256201D01*
X90500D01*
X91000Y256701D01*
Y260201D02*Y256701D01*
X92200Y257701D02*X94200Y260201D01*
X92200Y257701D02*X94700D01*
X94200Y260201D02*Y256201D01*
X185500Y125701D02*X185000Y126201D01*
Y127701D02*Y126201D01*
Y127701D02*X185500Y128201D01*
X186500D01*
X189000Y125701D02*X186500Y128201D01*
X189000D02*Y125701D01*
X187000Y129401D02*X189000Y131401D01*
Y129401D02*X187000Y131401D01*
X185000Y134601D02*X185500Y135101D01*
X185000Y134601D02*Y133101D01*
X185500Y132601D02*X185000Y133101D01*
X185500Y132601D02*X188500D01*
X189000Y133101D01*
Y134601D02*Y133101D01*
Y134601D02*X188500Y135101D01*
X187500D02*X188500D01*
X187000Y134601D02*X187500Y135101D01*
X187000Y134601D02*Y133601D01*
X185000Y136301D02*X189000D01*
X185000D02*X189000Y138801D01*
X185000D02*X189000D01*
X185000Y140501D02*X189000D01*
X185000Y141801D02*X185700Y142501D01*
X188300D01*
X189000Y141801D02*X188300Y142501D01*
X189000Y141801D02*Y140001D01*
X185000Y141801D02*Y140001D01*
X189000Y145701D02*Y143701D01*
X187500Y146901D02*X185000Y148901D01*
X187500Y149401D02*Y146901D01*
X185000Y148901D02*X189000D01*
X187000Y150601D02*X189000Y152601D01*
Y150601D02*X187000Y152601D01*
X185000Y153801D02*X189000Y154801D01*
X185000Y155801D01*
X189000Y159001D02*Y157701D01*
X188300Y157001D02*X189000Y157701D01*
X185700Y157001D02*X188300D01*
X185700D02*X185000Y157701D01*
Y159001D02*Y157701D01*
X189000Y162201D02*Y160901D01*
X188300Y160201D02*X189000Y160901D01*
X185700Y160201D02*X188300D01*
X185700D02*X185000Y160901D01*
Y162201D02*Y160901D01*
X189000Y165401D02*Y163401D01*
X185500Y166601D02*X185000Y167101D01*
Y168601D02*Y167101D01*
Y168601D02*X185500Y169101D01*
X186500D01*
X189000Y166601D02*X186500Y169101D01*
X189000D02*Y166601D01*
X187000Y170301D02*X189000Y172301D01*
Y170301D02*X187000Y172301D01*
X185000Y175501D02*X185500Y176001D01*
X185000Y175501D02*Y174001D01*
X185500Y173501D02*X185000Y174001D01*
X185500Y173501D02*X188500D01*
X189000Y174001D01*
Y175501D02*Y174001D01*
Y175501D02*X188500Y176001D01*
X187500D02*X188500D01*
X187000Y175501D02*X187500Y176001D01*
X187000Y175501D02*Y174501D01*
X185000Y177201D02*X189000D01*
X185000D02*X189000Y179701D01*
X185000D02*X189000D01*
X185000Y181401D02*X189000D01*
X185000Y182701D02*X185700Y183401D01*
X188300D01*
X189000Y182701D02*X188300Y183401D01*
X189000Y182701D02*Y180901D01*
X185000Y182701D02*Y180901D01*
X145000Y168701D02*Y165201D01*
X145500Y164701D01*
X146500D01*
X147000Y165201D01*
Y168701D02*Y165201D01*
X148200Y167701D02*Y164701D01*
Y167701D02*X148900Y168701D01*
X150000D01*
X150700Y167701D01*
Y164701D01*
X148200Y166701D02*X150700D01*
X151900Y168701D02*X153900D01*
X154400Y168201D01*
Y167201D01*
X153900Y166701D02*X154400Y167201D01*
X152400Y166701D02*X153900D01*
X152400Y168701D02*Y164701D01*
X153200Y166701D02*X154400Y164701D01*
X155600Y168701D02*X157600D01*
X156600D02*Y164701D01*
X150200Y151701D02*X151500D01*
X149500Y152401D02*X150200Y151701D01*
X149500Y155001D02*Y152401D01*
Y155001D02*X150200Y155701D01*
X151500D01*
X153200Y151701D02*X154700Y153701D01*
Y155201D02*Y153701D01*
X154200Y155701D02*X154700Y155201D01*
X153200Y155701D02*X154200D01*
X152700Y155201D02*X153200Y155701D01*
X152700Y155201D02*Y154201D01*
X153200Y153701D01*
X154700D01*
X91500Y157201D02*X94000D01*
X91500Y153201D02*X94000Y157201D01*
X91500Y153201D02*X94000D01*
X95200Y156701D02*Y153701D01*
Y156701D02*X95700Y157201D01*
X96700D01*
X97200Y156701D01*
Y154201D01*
X96200Y153201D02*X97200Y154201D01*
X95700Y153201D02*X96200D01*
X95200Y153701D02*X95700Y153201D01*
X96200Y154701D02*X97200Y153201D01*
X98400Y156401D02*X99200Y157201D01*
Y153201D01*
X98400D02*X99900D01*
X110000Y152658D02*Y151358D01*
X109300Y150658D02*X110000Y151358D01*
X106700Y150658D02*X109300D01*
X106700D02*X106000Y151358D01*
Y152658D02*Y151358D01*
X106800Y153858D02*X106000Y154658D01*
X110000D01*
Y155358D02*Y153858D01*
X106500Y156558D02*X106000Y157058D01*
Y158558D02*Y157058D01*
Y158558D02*X106500Y159058D01*
X107500D01*
X110000Y156558D02*X107500Y159058D01*
X110000D02*Y156558D01*
X109085Y117531D02*Y112851D01*
X110606Y117531D02*X111425Y116712D01*
Y113670D01*
X110606Y112851D02*X111425Y113670D01*
X108500Y112851D02*X110606D01*
X108500Y117531D02*X110606D01*
X113414D02*Y112851D01*
X114935Y117531D02*X115754Y116712D01*
Y113670D01*
X114935Y112851D02*X115754Y113670D01*
X112829Y112851D02*X114935D01*
X112829Y117531D02*X114935D01*
X117158Y116595D02*X118094Y117531D01*
Y112851D01*
X117158D02*X118913D01*
X96500Y137701D02*X98500D01*
X99000Y137201D01*
Y136201D01*
X98500Y135701D02*X99000Y136201D01*
X97000Y135701D02*X98500D01*
X97000Y137701D02*Y133701D01*
X97800Y135701D02*X99000Y133701D01*
X100200Y136901D02*X101000Y137701D01*
Y133701D01*
X100200D02*X101700D01*
X102900Y136901D02*X103700Y137701D01*
Y133701D01*
X102900D02*X104400D01*
X96500Y144701D02*X98500D01*
X99000Y144201D01*
Y143201D01*
X98500Y142701D02*X99000Y143201D01*
X97000Y142701D02*X98500D01*
X97000Y144701D02*Y140701D01*
X97800Y142701D02*X99000Y140701D01*
X100200Y143901D02*X101000Y144701D01*
Y140701D01*
X100200D02*X101700D01*
X102900Y141201D02*X103400Y140701D01*
X102900Y144201D02*Y141201D01*
Y144201D02*X103400Y144701D01*
X104400D01*
X104900Y144201D01*
Y141201D01*
X104400Y140701D02*X104900Y141201D01*
X103400Y140701D02*X104400D01*
X102900Y141701D02*X104900Y143701D01*
X265000Y153701D02*X269000D01*
X265000Y155201D02*Y153201D01*
Y155201D02*X265500Y155701D01*
X266500D01*
X267000Y155201D02*X266500Y155701D01*
X267000Y155201D02*Y153701D01*
X266000Y156901D02*X269000D01*
X266000D02*X265000Y157601D01*
Y158701D02*Y157601D01*
Y158701D02*X266000Y159401D01*
X269000D01*
X267000D02*Y156901D01*
X268500Y160601D02*X269000Y161101D01*
X267700Y160601D02*X268500D01*
X267700D02*X267000Y161301D01*
Y161901D02*Y161301D01*
Y161901D02*X267700Y162601D01*
X268500D01*
X269000Y162101D02*X268500Y162601D01*
X269000Y162101D02*Y161101D01*
X266300Y160601D02*X267000Y161301D01*
X265500Y160601D02*X266300D01*
X265500D02*X265000Y161101D01*
Y162101D02*Y161101D01*
Y162101D02*X265500Y162601D01*
X266300D01*
X267000Y161901D02*X266300Y162601D01*
X269000Y164301D02*Y163801D01*
Y166001D02*Y165501D01*
X265800Y167201D02*X265000Y168001D01*
X269000D01*
Y168701D02*Y167201D01*
X265000Y171901D02*Y169901D01*
X267000D01*
X266500Y170401D01*
Y171401D02*Y170401D01*
Y171401D02*X267000Y171901D01*
X268500D01*
X269000Y171401D02*X268500Y171901D01*
X269000Y171401D02*Y170401D01*
X268500Y169901D02*X269000Y170401D01*
Y175101D02*Y173101D01*
X265500Y176301D02*X268500D01*
X265500D02*X265000Y176801D01*
Y177801D02*Y176801D01*
Y177801D02*X265500Y178301D01*
X268500D01*
X269000Y177801D02*X268500Y178301D01*
X269000Y177801D02*Y176801D01*
X268500Y176301D02*X269000Y176801D01*
X265000Y180001D02*X269000D01*
X265000Y181301D02*X265700Y182001D01*
X268300D01*
X269000Y181301D02*X268300Y182001D01*
X269000Y181301D02*Y179501D01*
X265000Y181301D02*Y179501D01*
X259000Y128201D02*X255000Y127201D01*
X259000Y126201D01*
Y125001D02*Y123001D01*
X255000Y124001D02*X259000D01*
X256500Y121801D02*X259000Y119801D01*
X256500Y121801D02*Y119301D01*
X255000Y119801D02*X259000D01*
Y155201D02*X255000Y154201D01*
X259000Y153201D01*
Y152001D02*Y150001D01*
X255000Y151001D02*X259000D01*
Y148801D02*Y146801D01*
X257000Y148801D02*X259000D01*
X257000D02*X257500Y148301D01*
Y147301D01*
X257000Y146801D01*
X255500D02*X257000D01*
X255000Y147301D02*X255500Y146801D01*
X255000Y148301D02*Y147301D01*
X255500Y148801D02*X255000Y148301D01*
X259000Y181201D02*X255000Y180201D01*
X259000Y179201D01*
Y178001D02*Y176001D01*
X255000Y177001D02*X259000D01*
Y173301D02*X258500Y172801D01*
X259000Y174301D02*Y173301D01*
X258500Y174801D02*X259000Y174301D01*
X255500Y174801D02*X258500D01*
X255500D02*X255000Y174301D01*
X257200Y173301D02*X256700Y172801D01*
X257200Y174801D02*Y173301D01*
X255000Y174301D02*Y173301D01*
X255500Y172801D01*
X256700D01*
X259000Y208701D02*X255000Y207701D01*
X259000Y206701D01*
Y205501D02*Y203501D01*
X255000Y204501D02*X259000D01*
X255000Y201801D02*X259000Y199801D01*
Y202301D02*Y199801D01*
Y233201D02*X255000Y232201D01*
X259000Y231201D01*
Y230001D02*Y228001D01*
X255000Y229001D02*X259000D01*
X255500Y226801D02*X255000Y226301D01*
X255500Y226801D02*X256300D01*
X257000Y226101D01*
Y225501D01*
X256300Y224801D01*
X255500D02*X256300D01*
X255000Y225301D02*X255500Y224801D01*
X255000Y226301D02*Y225301D01*
X257700Y226801D02*X257000Y226101D01*
X257700Y226801D02*X258500D01*
X259000Y226301D01*
Y225301D01*
X258500Y224801D01*
X257700D02*X258500D01*
X257000Y225501D02*X257700Y224801D01*
X196500Y310201D02*Y307201D01*
Y310201D02*X197250Y310951D01*
X198750D01*
X199500Y310201D02*X198750Y310951D01*
X199500Y310201D02*Y307951D01*
X196500D02*X202500D01*
X199500Y309151D02*X202500Y310951D01*
Y315751D02*Y313501D01*
X201750Y312751D02*X202500Y313501D01*
X200250Y312751D02*X201750D01*
X200250D02*X199500Y313501D01*
Y315001D02*Y313501D01*
Y315001D02*X200250Y315751D01*
X201000D02*Y312751D01*
X200250Y315751D02*X201000D01*
X196500Y317551D02*X201750D01*
X202500Y318301D01*
X199500Y322051D02*X200250Y322801D01*
X199500Y322051D02*Y320551D01*
X200250Y319801D02*X199500Y320551D01*
X200250Y319801D02*X201750D01*
X202500Y320551D01*
X199500Y322801D02*X201750D01*
X202500Y323551D01*
Y322051D02*Y320551D01*
Y322051D02*X201750Y322801D01*
X199500Y325351D02*X201750D01*
X202500Y326101D01*
X199500Y328351D02*X204000D01*
X204750Y327601D02*X204000Y328351D01*
X204750Y327601D02*Y326101D01*
X204000Y325351D02*X204750Y326101D01*
X202500Y327601D02*Y326101D01*
Y327601D02*X201750Y328351D01*
X202500Y333151D02*Y330151D01*
X196500Y335701D02*X202500D01*
X196500Y337951D02*Y334951D01*
Y337951D02*X197250Y338701D01*
X198750D01*
X199500Y337951D02*X198750Y338701D01*
X199500Y337951D02*Y335701D01*
X198000Y340501D02*X202500D01*
X198000D02*X196500Y341551D01*
Y343201D02*Y341551D01*
Y343201D02*X198000Y344251D01*
X202500D01*
X199500D02*Y340501D01*
X197700Y346051D02*X196500Y347251D01*
X202500D01*
Y348301D02*Y346051D01*
X200250Y350101D02*X196500Y353101D01*
X200250Y353851D02*Y350101D01*
X196500Y353101D02*X202500D01*
X258000Y314701D02*Y311701D01*
Y314701D02*X258750Y315451D01*
X260250D01*
X261000Y314701D02*X260250Y315451D01*
X261000Y314701D02*Y312451D01*
X258000D02*X264000D01*
X261000Y313651D02*X264000Y315451D01*
Y320251D02*Y318001D01*
X263250Y317251D02*X264000Y318001D01*
X261750Y317251D02*X263250D01*
X261750D02*X261000Y318001D01*
Y319501D02*Y318001D01*
Y319501D02*X261750Y320251D01*
X262500D02*Y317251D01*
X261750Y320251D02*X262500D01*
X258000Y322051D02*X263250D01*
X264000Y322801D01*
X261000Y326551D02*X261750Y327301D01*
X261000Y326551D02*Y325051D01*
X261750Y324301D02*X261000Y325051D01*
X261750Y324301D02*X263250D01*
X264000Y325051D01*
X261000Y327301D02*X263250D01*
X264000Y328051D01*
Y326551D02*Y325051D01*
Y326551D02*X263250Y327301D01*
X261000Y329851D02*X263250D01*
X264000Y330601D01*
X261000Y332851D02*X265500D01*
X266250Y332101D02*X265500Y332851D01*
X266250Y332101D02*Y330601D01*
X265500Y329851D02*X266250Y330601D01*
X264000Y332101D02*Y330601D01*
Y332101D02*X263250Y332851D01*
X264000Y337651D02*Y334651D01*
X258000Y340201D02*X264000D01*
X258000Y342451D02*Y339451D01*
Y342451D02*X258750Y343201D01*
X260250D01*
X261000Y342451D02*X260250Y343201D01*
X261000Y342451D02*Y340201D01*
X264000Y348001D02*Y345001D01*
Y348001D02*X263250Y348751D01*
X261450D02*X263250D01*
X260700Y348001D02*X261450Y348751D01*
X260700Y348001D02*Y345751D01*
X258000D02*X264000D01*
X258000Y348001D02*Y345001D01*
Y348001D02*X258750Y348751D01*
X259950D01*
X260700Y348001D02*X259950Y348751D01*
X258750Y350551D02*X258000Y351301D01*
Y353551D02*Y351301D01*
Y353551D02*X258750Y354301D01*
X260250D01*
X264000Y350551D02*X260250Y354301D01*
X264000D02*Y350551D01*
X281000Y260201D02*Y256701D01*
X281500Y256201D01*
X282500D01*
X283000Y256701D01*
Y260201D02*Y256701D01*
X284200Y259401D02*X285000Y260201D01*
Y256201D01*
X284200D02*X285700D01*
X215500Y260201D02*Y256701D01*
X216000Y256201D01*
X217000D01*
X217500Y256701D01*
Y260201D02*Y256701D01*
X218700Y259701D02*X219200Y260201D01*
X220700D01*
X221200Y259701D01*
Y258701D01*
X218700Y256201D02*X221200Y258701D01*
X218700Y256201D02*X221200D01*
X239000Y254201D02*X240000Y250201D01*
X241000Y254201D01*
X242200D02*X244200D01*
X243200D02*Y250201D01*
X245400Y253401D02*X246200Y254201D01*
Y250201D01*
X245400D02*X246900D01*
X249600Y254201D02*X250100Y253701D01*
X248600Y254201D02*X249600D01*
X248100Y253701D02*X248600Y254201D01*
X248100Y253701D02*Y250701D01*
X248600Y250201D01*
X249600Y252401D02*X250100Y251901D01*
X248100Y252401D02*X249600D01*
X248600Y250201D02*X249600D01*
X250100Y250701D01*
Y251901D02*Y250701D01*
X49000Y350051D02*X48250Y349301D01*
X46000D02*X48250D01*
X46000D02*X45250Y350051D01*
Y351551D02*Y350051D01*
X49000Y355301D02*X45250Y351551D01*
Y355301D02*X49000D01*
X43450Y350051D02*X42700Y349301D01*
X40450D02*X42700D01*
X40450D02*X39700Y350051D01*
Y351551D02*Y350051D01*
X43450Y355301D02*X39700Y351551D01*
Y355301D02*X43450D01*
X37900Y354551D02*X37150Y355301D01*
X37900Y354551D02*Y350051D01*
X37150Y349301D01*
X35650D02*X37150D01*
X35650D02*X34900Y350051D01*
Y354551D02*Y350051D01*
X35650Y355301D02*X34900Y354551D01*
X35650Y355301D02*X37150D01*
X37900Y353801D02*X34900Y350801D01*
X33100Y349301D02*X31600Y355301D01*
X30100Y349301D01*
X25300Y355301D02*X28300D01*
X22000Y349301D02*X23500D01*
X22750Y355301D02*Y349301D01*
X22000Y355301D02*X23500D01*
X20200D02*Y349301D01*
X16450Y355301D01*
Y349301D01*
X10700Y336201D02*X12000D01*
X10000Y336901D02*X10700Y336201D01*
X10000Y339501D02*Y336901D01*
Y339501D02*X10700Y340201D01*
X12000D01*
X14700D02*X15200Y339701D01*
X13700Y340201D02*X14700D01*
X13200Y339701D02*X13700Y340201D01*
X13200Y339701D02*Y336701D01*
X13700Y336201D01*
X14700Y338401D02*X15200Y337901D01*
X13200Y338401D02*X14700D01*
X13700Y336201D02*X14700D01*
X15200Y336701D01*
Y337901D02*Y336701D01*
X72480Y316161D02*Y313201D01*
Y316161D02*X73220Y316901D01*
X74700D01*
X75440Y316161D02*X74700Y316901D01*
X75440Y316161D02*Y313941D01*
X72480D02*X78400D01*
X75440Y315125D02*X78400Y316901D01*
Y321637D02*Y319417D01*
X77660Y318677D02*X78400Y319417D01*
X76180Y318677D02*X77660D01*
X76180D02*X75440Y319417D01*
Y320897D02*Y319417D01*
Y320897D02*X76180Y321637D01*
X76920D02*Y318677D01*
X76180Y321637D02*X76920D01*
X72480Y323413D02*X77660D01*
X78400Y324153D01*
X75440Y327853D02*X76180Y328593D01*
X75440Y327853D02*Y326373D01*
X76180Y325633D02*X75440Y326373D01*
X76180Y325633D02*X77660D01*
X78400Y326373D01*
X75440Y328593D02*X77660D01*
X78400Y329333D01*
Y327853D02*Y326373D01*
Y327853D02*X77660Y328593D01*
X75440Y331109D02*X77660D01*
X78400Y331849D01*
X75440Y334069D02*X79880D01*
X80620Y333329D02*X79880Y334069D01*
X80620Y333329D02*Y331849D01*
X79880Y331109D02*X80620Y331849D01*
X78400Y333329D02*Y331849D01*
Y333329D02*X77660Y334069D01*
X78400Y338805D02*Y335845D01*
X72480Y341321D02*X78400D01*
X72480Y343541D02*Y340581D01*
Y343541D02*X73220Y344281D01*
X74700D01*
X75440Y343541D02*X74700Y344281D01*
X75440Y343541D02*Y341321D01*
X78400Y349017D02*Y346057D01*
Y349017D02*X77660Y349757D01*
X75884D02*X77660D01*
X75144Y349017D02*X75884Y349757D01*
X75144Y349017D02*Y346797D01*
X72480D02*X78400D01*
X72480Y349017D02*Y346057D01*
Y349017D02*X73220Y349757D01*
X74404D01*
X75144Y349017D02*X74404Y349757D01*
X72480Y354493D02*Y351533D01*
X75440D01*
X74700Y352273D01*
Y353753D02*Y352273D01*
Y353753D02*X75440Y354493D01*
X77660D01*
X78400Y353753D02*X77660Y354493D01*
X78400Y353753D02*Y352273D01*
X77660Y351533D02*X78400Y352273D01*
X131500Y314701D02*Y311701D01*
Y314701D02*X132250Y315451D01*
X133750D01*
X134500Y314701D02*X133750Y315451D01*
X134500Y314701D02*Y312451D01*
X131500D02*X137500D01*
X134500Y313651D02*X137500Y315451D01*
Y320251D02*Y318001D01*
X136750Y317251D02*X137500Y318001D01*
X135250Y317251D02*X136750D01*
X135250D02*X134500Y318001D01*
Y319501D02*Y318001D01*
Y319501D02*X135250Y320251D01*
X136000D02*Y317251D01*
X135250Y320251D02*X136000D01*
X131500Y322051D02*X136750D01*
X137500Y322801D01*
X134500Y326551D02*X135250Y327301D01*
X134500Y326551D02*Y325051D01*
X135250Y324301D02*X134500Y325051D01*
X135250Y324301D02*X136750D01*
X137500Y325051D01*
X134500Y327301D02*X136750D01*
X137500Y328051D01*
Y326551D02*Y325051D01*
Y326551D02*X136750Y327301D01*
X134500Y329851D02*X136750D01*
X137500Y330601D01*
X134500Y332851D02*X139000D01*
X139750Y332101D02*X139000Y332851D01*
X139750Y332101D02*Y330601D01*
X139000Y329851D02*X139750Y330601D01*
X137500Y332101D02*Y330601D01*
Y332101D02*X136750Y332851D01*
X137500Y337651D02*Y334651D01*
X131500Y340201D02*X137500D01*
X131500Y342451D02*Y339451D01*
Y342451D02*X132250Y343201D01*
X133750D01*
X134500Y342451D02*X133750Y343201D01*
X134500Y342451D02*Y340201D01*
X137500Y348001D02*Y345001D01*
Y348001D02*X136750Y348751D01*
X134950D02*X136750D01*
X134200Y348001D02*X134950Y348751D01*
X134200Y348001D02*Y345751D01*
X131500D02*X137500D01*
X131500Y348001D02*Y345001D01*
Y348001D02*X132250Y348751D01*
X133450D01*
X134200Y348001D02*X133450Y348751D01*
X135250Y350551D02*X131500Y353551D01*
X135250Y354301D02*Y350551D01*
X131500Y353551D02*X137500D01*
X62000Y303701D02*Y299701D01*
X63300Y303701D02*X64000Y303001D01*
Y300401D01*
X63300Y299701D02*X64000Y300401D01*
X61500Y299701D02*X63300D01*
X61500Y303701D02*X63300D01*
X66700D02*X67200Y303201D01*
X65700Y303701D02*X66700D01*
X65200Y303201D02*X65700Y303701D01*
X65200Y303201D02*Y300201D01*
X65700Y299701D01*
X66700Y301901D02*X67200Y301401D01*
X65200Y301901D02*X66700D01*
X65700Y299701D02*X66700D01*
X67200Y300201D01*
Y301401D02*Y300201D01*
X63000Y317701D02*Y313701D01*
X64300Y317701D02*X65000Y317001D01*
Y314401D01*
X64300Y313701D02*X65000Y314401D01*
X62500Y313701D02*X64300D01*
X62500Y317701D02*X64300D01*
X66200Y314201D02*X66700Y313701D01*
X66200Y315001D02*Y314201D01*
Y315001D02*X66900Y315701D01*
X67500D01*
X68200Y315001D01*
Y314201D01*
X67700Y313701D02*X68200Y314201D01*
X66700Y313701D02*X67700D01*
X66200Y316401D02*X66900Y315701D01*
X66200Y317201D02*Y316401D01*
Y317201D02*X66700Y317701D01*
X67700D01*
X68200Y317201D01*
Y316401D01*
X67500Y315701D02*X68200Y316401D01*
X26500Y317701D02*Y313701D01*
X27800Y317701D02*X28500Y317001D01*
Y314401D01*
X27800Y313701D02*X28500Y314401D01*
X26000Y313701D02*X27800D01*
X26000Y317701D02*X27800D01*
X30200Y313701D02*X32200Y317701D01*
X29700D02*X32200D01*
X16500Y315201D02*Y311201D01*
X17800Y315201D02*X18500Y314501D01*
Y311901D01*
X17800Y311201D02*X18500Y311901D01*
X16000Y311201D02*X17800D01*
X16000Y315201D02*X17800D01*
X19700D02*X21700D01*
X19700D02*Y313201D01*
X20200Y313701D01*
X21200D01*
X21700Y313201D01*
Y311701D01*
X21200Y311201D02*X21700Y311701D01*
X20200Y311201D02*X21200D01*
X19700Y311701D02*X20200Y311201D01*
X56500Y108701D02*Y105701D01*
Y108701D02*X57200Y109701D01*
X58300D01*
X59000Y108701D01*
Y105701D01*
X56500Y107701D02*X59000D01*
X60700Y109701D02*Y105701D01*
X62000Y109701D02*X62700Y109001D01*
Y106401D01*
X62000Y105701D02*X62700Y106401D01*
X60200Y105701D02*X62000D01*
X60200Y109701D02*X62000D01*
X64600Y105701D02*X65900D01*
X63900Y106401D02*X64600Y105701D01*
X63900Y109001D02*Y106401D01*
Y109001D02*X64600Y109701D01*
X65900D01*
X67100Y108901D02*X67900Y109701D01*
Y105701D01*
X67100D02*X68600D01*
X69800D02*X71800D01*
X73000Y109701D02*X74000D01*
X73500D02*Y105701D01*
X73000D02*X74000D01*
X75200Y109701D02*Y105701D01*
Y109701D02*X77700Y105701D01*
Y109701D02*Y105701D01*
X78900Y106201D02*X79400Y105701D01*
X78900Y109201D02*Y106201D01*
Y109201D02*X79400Y109701D01*
X80400D01*
X80900Y109201D01*
Y106201D01*
X80400Y105701D02*X80900Y106201D01*
X79400Y105701D02*X80400D01*
X78900Y106701D02*X80900Y108701D01*
X81657Y118201D02*X82957D01*
X80957Y118901D02*X81657Y118201D01*
X80957Y121501D02*Y118901D01*
Y121501D02*X81657Y122201D01*
X82957D01*
X84157Y121401D02*X84957Y122201D01*
Y118201D01*
X84157D02*X85657D01*
X86857Y121401D02*X87657Y122201D01*
Y118201D01*
X86857D02*X88357D01*
X59700Y150201D02*X61000D01*
X59000Y150901D02*X59700Y150201D01*
X59000Y153501D02*Y150901D01*
Y153501D02*X59700Y154201D01*
X61000D01*
X62200Y153701D02*X62700Y154201D01*
X64200D01*
X64700Y153701D01*
Y152701D01*
X62200Y150201D02*X64700Y152701D01*
X62200Y150201D02*X64700D01*
X64000Y137701D02*Y133701D01*
X65300Y137701D02*X66000Y137001D01*
Y134401D01*
X65300Y133701D02*X66000Y134401D01*
X63500Y133701D02*X65300D01*
X63500Y137701D02*X65300D01*
X67200Y137201D02*X67700Y137701D01*
X69200D01*
X69700Y137201D01*
Y136201D01*
X67200Y133701D02*X69700Y136201D01*
X67200Y133701D02*X69700D01*
X64000Y144701D02*Y140701D01*
X65300Y144701D02*X66000Y144001D01*
Y141401D01*
X65300Y140701D02*X66000Y141401D01*
X63500Y140701D02*X65300D01*
X63500Y144701D02*X65300D01*
X67200Y143901D02*X68000Y144701D01*
Y140701D01*
X67200D02*X68700D01*
X60700Y158701D02*X62000D01*
X60000Y159401D02*X60700Y158701D01*
X60000Y162001D02*Y159401D01*
Y162001D02*X60700Y162701D01*
X62000D01*
X63200Y161901D02*X64000Y162701D01*
Y158701D01*
X63200D02*X64700D01*
X163000Y196201D02*X167000D01*
X163000Y197701D02*Y195701D01*
Y197701D02*X163500Y198201D01*
X164500D01*
X165000Y197701D02*X164500Y198201D01*
X165000Y197701D02*Y196201D01*
X164000Y199401D02*X167000D01*
X164000D02*X163000Y200101D01*
Y201201D02*Y200101D01*
Y201201D02*X164000Y201901D01*
X167000D01*
X165000D02*Y199401D01*
X166500Y203101D02*X167000Y203601D01*
X165700Y203101D02*X166500D01*
X165700D02*X165000Y203801D01*
Y204401D02*Y203801D01*
Y204401D02*X165700Y205101D01*
X166500D01*
X167000Y204601D02*X166500Y205101D01*
X167000Y204601D02*Y203601D01*
X164300Y203101D02*X165000Y203801D01*
X163500Y203101D02*X164300D01*
X163500D02*X163000Y203601D01*
Y204601D02*Y203601D01*
Y204601D02*X163500Y205101D01*
X164300D01*
X165000Y204401D02*X164300Y205101D01*
X167000Y206801D02*Y206301D01*
Y208501D02*Y208001D01*
X163800Y209701D02*X163000Y210501D01*
X167000D01*
Y211201D02*Y209701D01*
X163000Y214401D02*Y212401D01*
X165000D01*
X164500Y212901D01*
Y213901D02*Y212901D01*
Y213901D02*X165000Y214401D01*
X166500D01*
X167000Y213901D02*X166500Y214401D01*
X167000Y213901D02*Y212901D01*
X166500Y212401D02*X167000Y212901D01*
X114000Y221201D02*Y217201D01*
X113500Y221201D02*X115500D01*
X116000Y220701D01*
Y219701D01*
X115500Y219201D02*X116000Y219701D01*
X114000Y219201D02*X115500D01*
X117700Y221201D02*Y217201D01*
X117200Y221201D02*X119200D01*
X119700Y220701D01*
Y219701D01*
X119200Y219201D02*X119700Y219701D01*
X117700Y219201D02*X119200D01*
X120900Y216201D02*X121900Y217201D01*
X123100Y220701D02*Y217701D01*
Y220701D02*X123600Y221201D01*
X124600D01*
X125100Y220701D01*
Y217701D01*
X124600Y217201D02*X125100Y217701D01*
X123600Y217201D02*X124600D01*
X123100Y217701D02*X123600Y217201D01*
X126800Y221201D02*Y217201D01*
X128100Y221201D02*X128800Y220501D01*
Y217901D01*
X128100Y217201D02*X128800Y217901D01*
X126300Y217201D02*X128100D01*
X126300Y221201D02*X128100D01*
X130000Y217201D02*X132000D01*
X133900D02*X135200D01*
X133200Y217901D02*X133900Y217201D01*
X133200Y220501D02*Y217901D01*
Y220501D02*X133900Y221201D01*
X135200D01*
X136400Y220701D02*Y217701D01*
Y220701D02*X136900Y221201D01*
X137900D01*
X138400Y220701D01*
Y217701D01*
X137900Y217201D02*X138400Y217701D01*
X136900Y217201D02*X137900D01*
X136400Y217701D02*X136900Y217201D01*
X139600Y221201D02*Y217201D01*
Y221201D02*X142100Y217201D01*
Y221201D02*Y217201D01*
X143300Y221201D02*X145300D01*
X144300D02*Y217201D01*
X146500Y221201D02*X148500D01*
X149000Y220701D01*
Y219701D01*
X148500Y219201D02*X149000Y219701D01*
X147000Y219201D02*X148500D01*
X147000Y221201D02*Y217201D01*
X147800Y219201D02*X149000Y217201D01*
X150200Y220701D02*Y217701D01*
Y220701D02*X150700Y221201D01*
X151700D01*
X152200Y220701D01*
Y217701D01*
X151700Y217201D02*X152200Y217701D01*
X150700Y217201D02*X151700D01*
X150200Y217701D02*X150700Y217201D01*
X153400Y221201D02*Y217201D01*
X155400D01*
X129500Y248201D02*X130000Y248701D01*
X131500D01*
X132000Y248201D01*
Y247201D01*
X129500Y244701D02*X132000Y247201D01*
X129500Y244701D02*X132000D01*
X133200Y246701D02*X135200Y244701D01*
X133200D02*X135200Y246701D01*
X138400Y248701D02*X138900Y248201D01*
X136900Y248701D02*X138400D01*
X136400Y248201D02*X136900Y248701D01*
X136400Y248201D02*Y245201D01*
X136900Y244701D01*
X138400D01*
X138900Y245201D01*
Y246201D02*Y245201D01*
X138400Y246701D02*X138900Y246201D01*
X137400Y246701D02*X138400D01*
X140100Y248701D02*Y244701D01*
Y248701D02*X142600Y244701D01*
Y248701D02*Y244701D01*
X144300Y248701D02*Y244701D01*
X145600Y248701D02*X146300Y248001D01*
Y245401D01*
X145600Y244701D02*X146300Y245401D01*
X143800Y244701D02*X145600D01*
X143800Y248701D02*X145600D01*
X147500Y244701D02*X149500D01*
X152200Y248701D02*X152700Y248201D01*
X151200Y248701D02*X152200D01*
X150700Y248201D02*X151200Y248701D01*
X150700Y248201D02*Y245201D01*
X151200Y244701D01*
X152200Y246901D02*X152700Y246401D01*
X150700Y246901D02*X152200D01*
X151200Y244701D02*X152200D01*
X152700Y245201D01*
Y246401D02*Y245201D01*
X153900Y246701D02*X155900Y244701D01*
X153900D02*X155900Y246701D01*
X157100Y248701D02*X158100Y244701D01*
X159100Y248701D01*
X161000Y244701D02*X162300D01*
X160300Y245401D02*X161000Y244701D01*
X160300Y248001D02*Y245401D01*
Y248001D02*X161000Y248701D01*
X162300D01*
X164200Y244701D02*X165500D01*
X163500Y245401D02*X164200Y244701D01*
X163500Y248001D02*Y245401D01*
Y248001D02*X164200Y248701D01*
X165500D01*
X110500Y253701D02*X111500Y249701D01*
X112500Y253701D01*
X113700D02*X115700D01*
X114700D02*Y249701D01*
X116900Y252901D02*X117700Y253701D01*
Y249701D01*
X116900D02*X118400D01*
X119600Y253201D02*X120100Y253701D01*
X121600D01*
X122100Y253201D01*
Y252201D01*
X119600Y249701D02*X122100Y252201D01*
X119600Y249701D02*X122100D01*
X152000Y260201D02*Y256701D01*
X152500Y256201D01*
X153500D01*
X154000Y256701D01*
Y260201D02*Y256701D01*
X155200Y259701D02*X155700Y260201D01*
X156700D01*
X157200Y259701D01*
X156700Y256201D02*X157200Y256701D01*
X155700Y256201D02*X156700D01*
X155200Y256701D02*X155700Y256201D01*
Y258401D02*X156700D01*
X157200Y259701D02*Y258901D01*
Y257901D02*Y256701D01*
Y257901D02*X156700Y258401D01*
X157200Y258901D02*X156700Y258401D01*
X174500Y253701D02*X175500Y249701D01*
X176500Y253701D01*
X177700D02*X179700D01*
X178700D02*Y249701D01*
X180900Y252901D02*X181700Y253701D01*
Y249701D01*
X180900D02*X182400D01*
X183600Y251201D02*X185600Y253701D01*
X183600Y251201D02*X186100D01*
X185600Y253701D02*Y249701D01*
X197000Y33201D02*Y30201D01*
Y33201D02*X197700Y34201D01*
X198800D01*
X199500Y33201D01*
Y30201D01*
X197000Y32201D02*X199500D01*
X201400Y30201D02*X202700D01*
X200700Y30901D02*X201400Y30201D01*
X200700Y33501D02*Y30901D01*
Y33501D02*X201400Y34201D01*
X202700D01*
X204600Y30201D02*X205900D01*
X203900Y30901D02*X204600Y30201D01*
X203900Y33501D02*Y30901D01*
Y33501D02*X204600Y34201D01*
X205900D01*
X207100D02*Y30701D01*
X207600Y30201D01*
X208600D01*
X209100Y30701D01*
Y34201D02*Y30701D01*
X210300Y34201D02*Y30201D01*
Y34201D02*X211800Y32201D01*
X213300Y34201D01*
Y30201D01*
X223000D02*X224000Y26201D01*
X225000Y30201D01*
X226200D02*X228200D01*
X227200D02*Y26201D01*
X229400Y29701D02*X229900Y30201D01*
X231400D01*
X231900Y29701D01*
Y28701D01*
X229400Y26201D02*X231900Y28701D01*
X229400Y26201D02*X231900D01*
X233100Y29401D02*X233900Y30201D01*
Y26201D01*
X233100D02*X234600D01*
X175200Y23201D02*X176500D01*
X174500Y23901D02*X175200Y23201D01*
X174500Y26501D02*Y23901D01*
Y26501D02*X175200Y27201D01*
X176500D01*
X177700Y23701D02*X178200Y23201D01*
X177700Y24501D02*Y23701D01*
Y24501D02*X178400Y25201D01*
X179000D01*
X179700Y24501D01*
Y23701D01*
X179200Y23201D02*X179700Y23701D01*
X178200Y23201D02*X179200D01*
X177700Y25901D02*X178400Y25201D01*
X177700Y26701D02*Y25901D01*
Y26701D02*X178200Y27201D01*
X179200D01*
X179700Y26701D01*
Y25901D01*
X179000Y25201D02*X179700Y25901D01*
X215000Y6701D02*X217000D01*
X217500Y6201D01*
Y5201D01*
X217000Y4701D02*X217500Y5201D01*
X215500Y4701D02*X217000D01*
X215500Y6701D02*Y2701D01*
X216300Y4701D02*X217500Y2701D01*
X218700Y5901D02*X219500Y6701D01*
Y2701D01*
X218700D02*X220200D01*
X221400Y6201D02*X221900Y6701D01*
X223400D01*
X223900Y6201D01*
Y5201D01*
X221400Y2701D02*X223900Y5201D01*
X221400Y2701D02*X223900D01*
X197500Y13601D02*X199500D01*
X200000Y13101D01*
Y12101D01*
X199500Y11601D02*X200000Y12101D01*
X198000Y11601D02*X199500D01*
X198000Y13601D02*Y9601D01*
X198800Y11601D02*X200000Y9601D01*
X201200Y12801D02*X202000Y13601D01*
Y9601D01*
X201200D02*X202700D01*
X204400D02*X206400Y13601D01*
X203900D02*X206400D01*
X191000Y57701D02*X193000D01*
X193500Y58201D01*
Y59401D02*Y58201D01*
X193000Y59901D02*X193500Y59401D01*
X191500Y59901D02*X193000D01*
X191500Y61701D02*Y57701D01*
X191000Y61701D02*X193000D01*
X193500Y61201D01*
Y60401D01*
X193000Y59901D02*X193500Y60401D01*
X194700Y61201D02*X195200Y61701D01*
X196700D01*
X197200Y61201D01*
Y60201D01*
X194700Y57701D02*X197200Y60201D01*
X194700Y57701D02*X197200D01*
X199000Y6701D02*X200000Y2701D01*
X201000Y6701D01*
X202200D02*X204200D01*
X203200D02*Y2701D01*
X205400Y6201D02*X205900Y6701D01*
X207400D01*
X207900Y6201D01*
Y5201D01*
X205400Y2701D02*X207900Y5201D01*
X205400Y2701D02*X207900D01*
X209100Y6201D02*X209600Y6701D01*
X210600D01*
X211100Y6201D01*
X210600Y2701D02*X211100Y3201D01*
X209600Y2701D02*X210600D01*
X209100Y3201D02*X209600Y2701D01*
Y4901D02*X210600D01*
X211100Y6201D02*Y5401D01*
Y4401D02*Y3201D01*
Y4401D02*X210600Y4901D01*
X211100Y5401D02*X210600Y4901D01*
X198500Y52701D02*X199000Y52201D01*
X197000Y52701D02*X198500D01*
X196500Y52201D02*X197000Y52701D01*
X196500Y52201D02*Y49201D01*
X197000Y48701D01*
X198500D01*
X199000Y49201D01*
Y50201D02*Y49201D01*
X198500Y50701D02*X199000Y50201D01*
X197500Y50701D02*X198500D01*
X200200Y52701D02*Y48701D01*
Y52701D02*X202700Y48701D01*
Y52701D02*Y48701D01*
X204400Y52701D02*Y48701D01*
X205700Y52701D02*X206400Y52001D01*
Y49401D01*
X205700Y48701D02*X206400Y49401D01*
X203900Y48701D02*X205700D01*
X203900Y52701D02*X205700D01*
X207600Y52201D02*X208100Y52701D01*
X209100D01*
X209600Y52201D01*
X209100Y48701D02*X209600Y49201D01*
X208100Y48701D02*X209100D01*
X207600Y49201D02*X208100Y48701D01*
Y50901D02*X209100D01*
X209600Y52201D02*Y51401D01*
Y50401D02*Y49201D01*
Y50401D02*X209100Y50901D01*
X209600Y51401D02*X209100Y50901D01*
X251000Y5701D02*Y3701D01*
Y5701D02*X251500Y6201D01*
X252500D01*
X253000Y5701D02*X252500Y6201D01*
X253000Y5701D02*Y4201D01*
X251000D02*X255000D01*
X253000Y5001D02*X255000Y6201D01*
Y7901D02*X253000Y9401D01*
X251500D02*X253000D01*
X251000Y8901D02*X251500Y9401D01*
X251000Y8901D02*Y7901D01*
X251500Y7401D02*X251000Y7901D01*
X251500Y7401D02*X252500D01*
X253000Y7901D01*
Y9401D02*Y7901D01*
X186500Y12701D02*Y8701D01*
X187800Y12701D02*X188500Y12001D01*
Y9401D01*
X187800Y8701D02*X188500Y9401D01*
X186000Y8701D02*X187800D01*
X186000Y12701D02*X187800D01*
X189700Y12201D02*X190200Y12701D01*
X191200D01*
X191700Y12201D01*
X191200Y8701D02*X191700Y9201D01*
X190200Y8701D02*X191200D01*
X189700Y9201D02*X190200Y8701D01*
Y10901D02*X191200D01*
X191700Y12201D02*Y11401D01*
Y10401D02*Y9201D01*
Y10401D02*X191200Y10901D01*
X191700Y11401D02*X191200Y10901D01*
X251000Y13201D02*Y11201D01*
Y13201D02*X251500Y13701D01*
X252500D01*
X253000Y13201D02*X252500Y13701D01*
X253000Y13201D02*Y11701D01*
X251000D02*X255000D01*
X253000Y12501D02*X255000Y13701D01*
X251800Y14901D02*X251000Y15701D01*
X255000D01*
Y16401D02*Y14901D01*
Y18101D02*X253000Y19601D01*
X251500D02*X253000D01*
X251000Y19101D02*X251500Y19601D01*
X251000Y19101D02*Y18101D01*
X251500Y17601D02*X251000Y18101D01*
X251500Y17601D02*X252500D01*
X253000Y18101D01*
Y19601D02*Y18101D01*
X251500Y21201D02*X255500Y22201D01*
X251500Y23201D01*
Y26401D02*Y24401D01*
Y25401D02*X255500D01*
X252000Y27601D02*X251500Y28101D01*
Y29601D02*Y28101D01*
Y29601D02*X252000Y30101D01*
X253000D01*
X255500Y27601D02*X253000Y30101D01*
X255500D02*Y27601D01*
X252000Y31301D02*X251500Y31801D01*
Y33301D02*Y31801D01*
Y33301D02*X252000Y33801D01*
X253000D01*
X255500Y31301D02*X253000Y33801D01*
X255500D02*Y31301D01*
X263800Y45701D02*X266800D01*
X263800D02*Y42701D01*
X264550Y43451D01*
X266050D01*
X266800Y42701D01*
Y40451D01*
X266050Y39701D02*X266800Y40451D01*
X264550Y39701D02*X266050D01*
X263800Y40451D02*X264550Y39701D01*
X268600Y45701D02*X270100Y39701D01*
X271600Y45701D01*
X273400Y39701D02*X276400D01*
X278200Y45701D02*X279700D01*
X278950D02*Y39701D01*
X278200D02*X279700D01*
X281500Y45701D02*Y39701D01*
Y45701D02*X285250Y39701D01*
Y45701D02*Y39701D01*
X161500Y88701D02*X165000D01*
X165500Y89201D01*
Y90201D02*Y89201D01*
Y90201D02*X165000Y90701D01*
X161500D02*X165000D01*
X161500Y93401D02*X162000Y93901D01*
X161500Y93401D02*Y92401D01*
X162000Y91901D02*X161500Y92401D01*
X162000Y91901D02*X165000D01*
X165500Y92401D01*
X163300Y93401D02*X163800Y93901D01*
X163300Y93401D02*Y91901D01*
X165500Y93401D02*Y92401D01*
Y93401D02*X165000Y93901D01*
X163800D02*X165000D01*
X145700Y112201D02*X147000D01*
X145000Y112901D02*X145700Y112201D01*
X145000Y115501D02*Y112901D01*
Y115501D02*X145700Y116201D01*
X147000D01*
X148200Y115401D02*X149000Y116201D01*
Y112201D01*
X148200D02*X149700D01*
X150900Y112701D02*X151400Y112201D01*
X150900Y115701D02*Y112701D01*
Y115701D02*X151400Y116201D01*
X152400D01*
X152900Y115701D01*
Y112701D01*
X152400Y112201D02*X152900Y112701D01*
X151400Y112201D02*X152400D01*
X150900Y113201D02*X152900Y115201D01*
X291500Y83201D02*X289000Y85201D01*
X291500Y85701D02*Y83201D01*
X289000Y85201D02*X293000D01*
X291000Y86901D02*X293000Y88901D01*
Y86901D02*X291000Y88901D01*
X289000Y92101D02*Y90101D01*
X291000D01*
X290500Y90601D01*
Y91601D02*Y90601D01*
Y91601D02*X291000Y92101D01*
X292500D01*
X293000Y91601D02*X292500Y92101D01*
X293000Y91601D02*Y90601D01*
X292500Y90101D02*X293000Y90601D01*
X289000Y93301D02*X293000Y94301D01*
X289000Y95301D01*
X293000Y98501D02*Y96501D01*
X291500Y99701D02*X289000Y101701D01*
X291500Y102201D02*Y99701D01*
X289000Y101701D02*X293000D01*
X291000Y103401D02*X293000Y105401D01*
Y103401D02*X291000Y105401D01*
X290000Y106601D02*X293000D01*
X290000D02*X289000Y107301D01*
Y108401D02*Y107301D01*
Y108401D02*X290000Y109101D01*
X293000D01*
X291000D02*Y106601D01*
X293000Y112301D02*Y111001D01*
X292300Y110301D02*X293000Y111001D01*
X289700Y110301D02*X292300D01*
X289700D02*X289000Y111001D01*
Y112301D02*Y111001D01*
X293000Y115501D02*Y114201D01*
X292300Y113501D02*X293000Y114201D01*
X289700Y113501D02*X292300D01*
X289700D02*X289000Y114201D01*
Y115501D02*Y114201D01*
Y116701D02*X292500D01*
X293000Y117201D01*
Y118201D02*Y117201D01*
Y118201D02*X292500Y118701D01*
X289000D02*X292500D01*
X289000Y119901D02*X293000D01*
X289000D02*X291000Y121401D01*
X289000Y122901D01*
X293000D01*
X273500Y83701D02*X274000Y84201D01*
X273500Y83701D02*Y82201D01*
X274000Y81701D02*X273500Y82201D01*
X274000Y81701D02*X277000D01*
X277500Y82201D01*
Y83701D02*Y82201D01*
Y83701D02*X277000Y84201D01*
X276000D02*X277000D01*
X275500Y83701D02*X276000Y84201D01*
X275500Y83701D02*Y82701D01*
X273500Y85401D02*X277500D01*
X273500D02*X277500Y87901D01*
X273500D02*X277500D01*
X273500Y89601D02*X277500D01*
X273500Y90901D02*X274200Y91601D01*
X276800D01*
X277500Y90901D02*X276800Y91601D01*
X277500Y90901D02*Y89101D01*
X273500Y90901D02*Y89101D01*
X276000Y92801D02*X273500Y94801D01*
X276000Y95301D02*Y92801D01*
X273500Y94801D02*X277500D01*
X282000Y83701D02*Y81701D01*
X284000D01*
X283500Y82201D01*
Y83201D02*Y82201D01*
Y83201D02*X284000Y83701D01*
X285500D01*
X286000Y83201D02*X285500Y83701D01*
X286000Y83201D02*Y82201D01*
X285500Y81701D02*X286000Y82201D01*
X282000Y84901D02*X286000Y85901D01*
X282000Y86901D01*
X108000Y86701D02*X109000Y82701D01*
X110000Y86701D01*
X111900Y82701D02*X113200D01*
X111200Y83401D02*X111900Y82701D01*
X111200Y86001D02*Y83401D01*
Y86001D02*X111900Y86701D01*
X113200D01*
X115100Y82701D02*X116400D01*
X114400Y83401D02*X115100Y82701D01*
X114400Y86001D02*Y83401D01*
Y86001D02*X115100Y86701D01*
X116400D01*
X117600Y82701D02*X119600D01*
X121500D02*X122800D01*
X120800Y83401D02*X121500Y82701D01*
X120800Y86001D02*Y83401D01*
Y86001D02*X121500Y86701D01*
X122800D01*
X124000D02*Y82701D01*
X126500Y86701D02*Y82701D01*
X124000Y84701D02*X126500D01*
X127700Y86201D02*Y83201D01*
Y86201D02*X128200Y86701D01*
X129200D01*
X129700Y86201D01*
Y83201D01*
X129200Y82701D02*X129700Y83201D01*
X128200Y82701D02*X129200D01*
X127700Y83201D02*X128200Y82701D01*
X130900Y86701D02*X131900D01*
X131400D02*Y82701D01*
X130900D02*X131900D01*
X133800D02*X135100D01*
X133100Y83401D02*X133800Y82701D01*
X133100Y86001D02*Y83401D01*
Y86001D02*X133800Y86701D01*
X135100D01*
X136300Y84901D02*X137800D01*
X136300Y82701D02*X138300D01*
X136300Y86701D02*Y82701D01*
Y86701D02*X138300D01*
X185000Y6701D02*X187000D01*
X187500Y6201D01*
Y5201D01*
X187000Y4701D02*X187500Y5201D01*
X185500Y4701D02*X187000D01*
X185500Y6701D02*Y2701D01*
X186300Y4701D02*X187500Y2701D01*
X188700Y5901D02*X189500Y6701D01*
Y2701D01*
X188700D02*X190200D01*
X191400Y3201D02*X191900Y2701D01*
X191400Y4001D02*Y3201D01*
Y4001D02*X192100Y4701D01*
X192700D01*
X193400Y4001D01*
Y3201D01*
X192900Y2701D02*X193400Y3201D01*
X191900Y2701D02*X192900D01*
X191400Y5401D02*X192100Y4701D01*
X191400Y6201D02*Y5401D01*
Y6201D02*X191900Y6701D01*
X192900D01*
X193400Y6201D01*
Y5401D01*
X192700Y4701D02*X193400Y5401D01*
X47000Y8701D02*Y5701D01*
Y8701D02*X47700Y9701D01*
X48800D01*
X49500Y8701D01*
Y5701D01*
X47000Y7701D02*X49500D01*
X51400Y5701D02*X52700D01*
X50700Y6401D02*X51400Y5701D01*
X50700Y9001D02*Y6401D01*
Y9001D02*X51400Y9701D01*
X52700D01*
X54600Y5701D02*X55900D01*
X53900Y6401D02*X54600Y5701D01*
X53900Y9001D02*Y6401D01*
Y9001D02*X54600Y9701D01*
X55900D01*
X57100D02*Y6201D01*
X57600Y5701D01*
X58600D01*
X59100Y6201D01*
Y9701D02*Y6201D01*
X60300Y9701D02*Y5701D01*
Y9701D02*X61800Y7701D01*
X63300Y9701D01*
Y5701D01*
X64500D02*X66500D01*
X67700Y9701D02*X68700Y5701D01*
X69700Y9701D01*
X70900Y9201D02*Y6201D01*
Y9201D02*X71400Y9701D01*
X72400D01*
X72900Y9201D01*
Y6201D01*
X72400Y5701D02*X72900Y6201D01*
X71400Y5701D02*X72400D01*
X70900Y6201D02*X71400Y5701D01*
X74100Y9701D02*Y5701D01*
X76100D01*
X77300Y9701D02*X79300D01*
X78300D02*Y5701D01*
X80500Y8701D02*Y5701D01*
Y8701D02*X81200Y9701D01*
X82300D01*
X83000Y8701D01*
Y5701D01*
X80500Y7701D02*X83000D01*
X86200Y9701D02*X86700Y9201D01*
X84700Y9701D02*X86200D01*
X84200Y9201D02*X84700Y9701D01*
X84200Y9201D02*Y6201D01*
X84700Y5701D01*
X86200D01*
X86700Y6201D01*
Y7201D02*Y6201D01*
X86200Y7701D02*X86700Y7201D01*
X85200Y7701D02*X86200D01*
X87900Y7901D02*X89400D01*
X87900Y5701D02*X89900D01*
X87900Y9701D02*Y5701D01*
Y9701D02*X89900D01*
X155500Y5201D02*X157500D01*
X158000Y4701D01*
Y3701D01*
X157500Y3201D02*X158000Y3701D01*
X156000Y3201D02*X157500D01*
X156000Y5201D02*Y1201D01*
X156800Y3201D02*X158000Y1201D01*
X159200Y4401D02*X160000Y5201D01*
Y1201D01*
X159200D02*X160700D01*
X161900Y5201D02*X163900D01*
X161900D02*Y3201D01*
X162400Y3701D01*
X163400D01*
X163900Y3201D01*
Y1701D01*
X163400Y1201D02*X163900Y1701D01*
X162400Y1201D02*X163400D01*
X161900Y1701D02*X162400Y1201D01*
X177700D02*X179000D01*
X177000Y1901D02*X177700Y1201D01*
X177000Y4501D02*Y1901D01*
Y4501D02*X177700Y5201D01*
X179000D01*
X180200Y4701D02*X180700Y5201D01*
X181700D01*
X182200Y4701D01*
X181700Y1201D02*X182200Y1701D01*
X180700Y1201D02*X181700D01*
X180200Y1701D02*X180700Y1201D01*
Y3401D02*X181700D01*
X182200Y4701D02*Y3901D01*
Y2901D02*Y1701D01*
Y2901D02*X181700Y3401D01*
X182200Y3901D02*X181700Y3401D01*
X166000Y5201D02*X168000D01*
X168500Y4701D01*
Y3701D01*
X168000Y3201D02*X168500Y3701D01*
X166500Y3201D02*X168000D01*
X166500Y5201D02*Y1201D01*
X167300Y3201D02*X168500Y1201D01*
X169700Y4401D02*X170500Y5201D01*
Y1201D01*
X169700D02*X171200D01*
X173900Y5201D02*X174400Y4701D01*
X172900Y5201D02*X173900D01*
X172400Y4701D02*X172900Y5201D01*
X172400Y4701D02*Y1701D01*
X172900Y1201D01*
X173900Y3401D02*X174400Y2901D01*
X172400Y3401D02*X173900D01*
X172900Y1201D02*X173900D01*
X174400Y1701D01*
Y2901D02*Y1701D01*
X11500Y29701D02*X13500D01*
X14000Y29201D01*
Y28201D01*
X13500Y27701D02*X14000Y28201D01*
X12000Y27701D02*X13500D01*
X12000Y29701D02*Y25701D01*
X12800Y27701D02*X14000Y25701D01*
X15200Y28901D02*X16000Y29701D01*
Y25701D01*
X15200D02*X16700D01*
X17900Y29201D02*X18400Y29701D01*
X19400D01*
X19900Y29201D01*
X19400Y25701D02*X19900Y26201D01*
X18400Y25701D02*X19400D01*
X17900Y26201D02*X18400Y25701D01*
Y27901D02*X19400D01*
X19900Y29201D02*Y28401D01*
Y27401D02*Y26201D01*
Y27401D02*X19400Y27901D01*
X19900Y28401D02*X19400Y27901D01*
X11500Y19701D02*X13500D01*
X14000Y19201D01*
Y18201D01*
X13500Y17701D02*X14000Y18201D01*
X12000Y17701D02*X13500D01*
X12000Y19701D02*Y15701D01*
X12800Y17701D02*X14000Y15701D01*
X15200Y18901D02*X16000Y19701D01*
Y15701D01*
X15200D02*X16700D01*
X17900Y17201D02*X19900Y19701D01*
X17900Y17201D02*X20400D01*
X19900Y19701D02*Y15701D01*
X56500Y28701D02*Y25701D01*
Y28701D02*X57200Y29701D01*
X58300D01*
X59000Y28701D01*
Y25701D01*
X56500Y27701D02*X59000D01*
X60700Y29701D02*Y25701D01*
X62000Y29701D02*X62700Y29001D01*
Y26401D01*
X62000Y25701D02*X62700Y26401D01*
X60200Y25701D02*X62000D01*
X60200Y29701D02*X62000D01*
X64600Y25701D02*X65900D01*
X63900Y26401D02*X64600Y25701D01*
X63900Y29001D02*Y26401D01*
Y29001D02*X64600Y29701D01*
X65900D01*
X67100Y28901D02*X67900Y29701D01*
Y25701D01*
X67100D02*X68600D01*
X69800D02*X71800D01*
X73000Y29701D02*X74000D01*
X73500D02*Y25701D01*
X73000D02*X74000D01*
X75200Y29701D02*Y25701D01*
Y29701D02*X77700Y25701D01*
Y29701D02*Y25701D01*
X78900Y26201D02*X79400Y25701D01*
X78900Y27001D02*Y26201D01*
Y27001D02*X79600Y27701D01*
X80200D01*
X80900Y27001D01*
Y26201D01*
X80400Y25701D02*X80900Y26201D01*
X79400Y25701D02*X80400D01*
X78900Y28401D02*X79600Y27701D01*
X78900Y29201D02*Y28401D01*
Y29201D02*X79400Y29701D01*
X80400D01*
X80900Y29201D01*
Y28401D01*
X80200Y27701D02*X80900Y28401D01*
X56500Y19701D02*Y16701D01*
Y19701D02*X57200Y20701D01*
X58300D01*
X59000Y19701D01*
Y16701D01*
X56500Y18701D02*X59000D01*
X60700Y20701D02*Y16701D01*
X62000Y20701D02*X62700Y20001D01*
Y17401D01*
X62000Y16701D02*X62700Y17401D01*
X60200Y16701D02*X62000D01*
X60200Y20701D02*X62000D01*
X64600Y16701D02*X65900D01*
X63900Y17401D02*X64600Y16701D01*
X63900Y20001D02*Y17401D01*
Y20001D02*X64600Y20701D01*
X65900D01*
X67100Y19901D02*X67900Y20701D01*
Y16701D01*
X67100D02*X68600D01*
X69800D02*X71800D01*
X73000Y20701D02*X74000D01*
X73500D02*Y16701D01*
X73000D02*X74000D01*
X75200Y20701D02*Y16701D01*
Y20701D02*X77700Y16701D01*
Y20701D02*Y16701D01*
X79400D02*X80900Y18701D01*
Y20201D02*Y18701D01*
X80400Y20701D02*X80900Y20201D01*
X79400Y20701D02*X80400D01*
X78900Y20201D02*X79400Y20701D01*
X78900Y20201D02*Y19201D01*
X79400Y18701D01*
X80900D01*
X150500Y8701D02*Y6701D01*
Y8701D02*X151000Y9201D01*
X152000D01*
X152500Y8701D02*X152000Y9201D01*
X152500Y8701D02*Y7201D01*
X150500D02*X154500D01*
X152500Y8001D02*X154500Y9201D01*
X151000Y10401D02*X150500Y10901D01*
Y12401D02*Y10901D01*
Y12401D02*X151000Y12901D01*
X152000D01*
X154500Y10401D02*X152000Y12901D01*
X154500D02*Y10401D01*
X151000Y14101D02*X150500Y14601D01*
Y16101D02*Y14601D01*
Y16101D02*X151000Y16601D01*
X152000D01*
X154500Y14101D02*X152000Y16601D01*
X154500D02*Y14101D01*
X137000Y10201D02*X139000D01*
X139500Y9701D01*
Y8701D01*
X139000Y8201D02*X139500Y8701D01*
X137500Y8201D02*X139000D01*
X137500Y10201D02*Y6201D01*
X138300Y8201D02*X139500Y6201D01*
X140700Y9701D02*X141200Y10201D01*
X142700D01*
X143200Y9701D01*
Y8701D01*
X140700Y6201D02*X143200Y8701D01*
X140700Y6201D02*X143200D01*
X144400Y9401D02*X145200Y10201D01*
Y6201D01*
X144400D02*X145900D01*
X112700Y64201D02*X114000D01*
X112000Y64901D02*X112700Y64201D01*
X112000Y67501D02*Y64901D01*
Y67501D02*X112700Y68201D01*
X114000D01*
X115700Y64201D02*X117700Y68201D01*
X115200D02*X117700D01*
X96390Y38646D02*X99950D01*
X96390Y39803D02*X97013Y40426D01*
X99327D01*
X99950Y39803D02*X99327Y40426D01*
X99950Y39803D02*Y38201D01*
X96390Y39803D02*Y38201D01*
X97280Y41494D02*X99950D01*
X97280D02*X96390Y42117D01*
Y43096D02*Y42117D01*
Y43096D02*X97280Y43719D01*
X99950D01*
X98170D02*Y41494D01*
X96835Y44787D02*X96390Y45232D01*
Y46567D02*Y45232D01*
Y46567D02*X96835Y47012D01*
X97725D01*
X99950Y44787D02*X97725Y47012D01*
X99950D02*Y44787D01*
X127390Y60646D02*X130950D01*
X127390Y61803D02*X128013Y62426D01*
X130327D01*
X130950Y61803D02*X130327Y62426D01*
X130950Y61803D02*Y60201D01*
X127390Y61803D02*Y60201D01*
X128280Y63494D02*X130950D01*
X128280D02*X127390Y64117D01*
Y65096D02*Y64117D01*
Y65096D02*X128280Y65719D01*
X130950D01*
X129170D02*Y63494D01*
X128102Y66787D02*X127390Y67499D01*
X130950D01*
Y68122D02*Y66787D01*
X119500Y10701D02*X120500Y6701D01*
X121500Y10701D01*
X122700D02*X124700D01*
X123700D02*Y6701D01*
X125900Y10201D02*X126400Y10701D01*
X127900D01*
X128400Y10201D01*
Y9201D01*
X125900Y6701D02*X128400Y9201D01*
X125900Y6701D02*X128400D01*
X129600Y10701D02*X131600D01*
X129600D02*Y8701D01*
X130100Y9201D01*
X131100D01*
X131600Y8701D01*
Y7201D01*
X131100Y6701D02*X131600Y7201D01*
X130100Y6701D02*X131100D01*
X129600Y7201D02*X130100Y6701D01*
X119500Y15711D02*X120490Y11751D01*
X121480Y15711D01*
X122668D02*X124648D01*
X123658D02*Y11751D01*
X125836Y15216D02*X126331Y15711D01*
X127816D01*
X128311Y15216D01*
Y14226D01*
X125836Y11751D02*X128311Y14226D01*
X125836Y11751D02*X128311D01*
X130984Y15711D02*X131479Y15216D01*
X129994Y15711D02*X130984D01*
X129499Y15216D02*X129994Y15711D01*
X129499Y15216D02*Y12246D01*
X129994Y11751D01*
X130984Y13929D02*X131479Y13434D01*
X129499Y13929D02*X130984D01*
X129994Y11751D02*X130984D01*
X131479Y12246D01*
Y13434D02*Y12246D01*
X135000Y15711D02*X136980D01*
X137475Y15216D01*
Y14226D01*
X136980Y13731D02*X137475Y14226D01*
X135495Y13731D02*X136980D01*
X135495Y15711D02*Y11751D01*
X136287Y13731D02*X137475Y11751D01*
X138663Y15216D02*X139158Y15711D01*
X140643D01*
X141138Y15216D01*
Y14226D01*
X138663Y11751D02*X141138Y14226D01*
X138663Y11751D02*X141138D01*
X142326Y12246D02*X142821Y11751D01*
X142326Y15216D02*Y12246D01*
Y15216D02*X142821Y15711D01*
X143811D01*
X144306Y15216D01*
Y12246D01*
X143811Y11751D02*X144306Y12246D01*
X142821Y11751D02*X143811D01*
X142326Y12741D02*X144306Y14721D01*
M02*
