G04 start of page 7 for group -4062 idx -4062 *
G04 Title: (unknown), soldermask *
G04 Creator: pcb 4.1.3 *
G04 CreationDate: Fri Aug 16 20:44:32 2019 UTC *
G04 For: leha *
G04 Format: Gerber/RS-274X *
G04 PCB-Dimensions (mil): 3149.61 3937.01 *
G04 PCB-Coordinate-Origin: lower left *
%MOIN*%
%FSLAX25Y25*%
%LNBOTTOMMASK*%
%ADD98C,0.1438*%
%ADD97C,0.0960*%
%ADD96C,0.0808*%
%ADD95C,0.0729*%
%ADD94C,0.0610*%
%ADD93C,0.1400*%
%ADD92C,0.0001*%
%ADD91C,0.0660*%
G54D91*X168000Y149701D03*
Y159701D03*
Y169701D03*
Y179701D03*
G54D92*G36*
X164700Y123001D02*Y116401D01*
X171300D01*
Y123001D01*
X164700D01*
G37*
G54D91*X168000Y129701D03*
Y139701D03*
Y189701D03*
X178000D03*
G54D92*G36*
X174700Y123001D02*Y116401D01*
X181300D01*
Y123001D01*
X174700D01*
G37*
G54D91*X178000Y129701D03*
Y139701D03*
Y149701D03*
Y159701D03*
Y169701D03*
Y179701D03*
G54D92*G36*
X272200Y132501D02*Y125901D01*
X278800D01*
Y132501D01*
X272200D01*
G37*
G54D91*X275500Y139201D03*
Y149201D03*
Y159201D03*
Y169201D03*
Y179201D03*
Y189201D03*
Y199201D03*
X285500D03*
G54D92*G36*
X282200Y132501D02*Y125901D01*
X288800D01*
Y132501D01*
X282200D01*
G37*
G54D91*X285500Y139201D03*
Y149201D03*
Y159201D03*
Y169201D03*
Y179201D03*
Y189201D03*
G54D92*G36*
X187200Y40001D02*Y33401D01*
X193800D01*
Y40001D01*
X187200D01*
G37*
G36*
Y50001D02*Y43401D01*
X193800D01*
Y50001D01*
X187200D01*
G37*
G54D91*X180500Y36701D03*
X170500D03*
G54D92*G36*
X171700Y62001D02*Y55401D01*
X178300D01*
Y62001D01*
X171700D01*
G37*
G54D91*X185000Y58701D03*
X180500Y46701D03*
X170500D03*
G54D93*X285000Y18701D03*
X265300D03*
G54D92*G36*
X272200Y58001D02*Y51401D01*
X278800D01*
Y58001D01*
X272200D01*
G37*
G54D91*X275500Y64701D03*
Y74701D03*
G54D92*G36*
X282200Y58001D02*Y51401D01*
X288800D01*
Y58001D01*
X282200D01*
G37*
G54D91*X285500Y64701D03*
Y74701D03*
G54D92*G36*
X104200Y170001D02*Y163401D01*
X110800D01*
Y170001D01*
X104200D01*
G37*
G54D91*X117500Y166701D03*
X127500D03*
X137500D03*
G54D92*G36*
X81700Y155001D02*Y148401D01*
X88300D01*
Y155001D01*
X81700D01*
G37*
G54D91*X85000Y161701D03*
G54D92*G36*
X87550Y189251D02*Y183151D01*
X93650D01*
Y189251D01*
X87550D01*
G37*
G36*
X33200Y160001D02*Y153401D01*
X39800D01*
Y160001D01*
X33200D01*
G37*
G36*
X36700Y111001D02*Y104401D01*
X43300D01*
Y111001D01*
X36700D01*
G37*
G54D91*X50000Y107701D03*
G54D92*G36*
X36700Y101001D02*Y94401D01*
X43300D01*
Y101001D01*
X36700D01*
G37*
G54D94*X70600Y186201D03*
G54D92*G36*
X36700Y41001D02*Y34401D01*
X43300D01*
Y41001D01*
X36700D01*
G37*
G54D91*X50000Y37701D03*
G54D92*G36*
X36700Y51001D02*Y44401D01*
X43300D01*
Y51001D01*
X36700D01*
G37*
G54D91*X50000Y47701D03*
Y97701D03*
Y87701D03*
Y77701D03*
Y67701D03*
Y57701D03*
G54D92*G36*
X36700Y91001D02*Y84401D01*
X43300D01*
Y91001D01*
X36700D01*
G37*
G36*
Y81001D02*Y74401D01*
X43300D01*
Y81001D01*
X36700D01*
G37*
G36*
Y71001D02*Y64401D01*
X43300D01*
Y71001D01*
X36700D01*
G37*
G36*
Y61001D02*Y54401D01*
X43300D01*
Y61001D01*
X36700D01*
G37*
G36*
Y31001D02*Y24401D01*
X43300D01*
Y31001D01*
X36700D01*
G37*
G54D91*X50000Y27701D03*
G54D92*G36*
X36700Y21001D02*Y14401D01*
X43300D01*
Y21001D01*
X36700D01*
G37*
G54D91*X50000Y17701D03*
G54D92*G36*
X36700Y11001D02*Y4401D01*
X43300D01*
Y11001D01*
X36700D01*
G37*
G36*
X145700Y211001D02*Y204401D01*
X152300D01*
Y211001D01*
X145700D01*
G37*
G54D91*X139000Y207701D03*
G54D92*G36*
X145700Y221001D02*Y214401D01*
X152300D01*
Y221001D01*
X145700D01*
G37*
G54D91*X139000Y217701D03*
X129000Y207701D03*
X119000D03*
X129000Y217701D03*
X119000D03*
G54D92*G36*
X149200Y57501D02*Y50901D01*
X155800D01*
Y57501D01*
X149200D01*
G37*
G54D91*X152500Y64201D03*
Y74201D03*
X149000Y227701D03*
X159000D03*
X169000D03*
G54D92*G36*
X95700Y231001D02*Y224401D01*
X102300D01*
Y231001D01*
X95700D01*
G37*
G54D91*X109000Y227701D03*
G54D92*G36*
X95700Y241001D02*Y234401D01*
X102300D01*
Y241001D01*
X95700D01*
G37*
G54D91*X109000Y237701D03*
X119000Y227701D03*
X129000D03*
X139000D03*
X119000Y237701D03*
G54D95*X116500Y269201D03*
G54D91*X129000Y237701D03*
X36500Y166701D03*
G54D92*G36*
X67200Y224001D02*Y217401D01*
X73800D01*
Y224001D01*
X67200D01*
G37*
G54D93*X78000Y376701D03*
X97400D03*
X116800D03*
X137000D03*
X156400D03*
X175800D03*
G54D96*X150972Y334161D03*
X180500Y347941D03*
G54D94*X74500Y307701D03*
G54D96*X86972Y334161D03*
X116500Y347941D03*
G54D94*X74500Y321701D03*
G54D93*X196000Y376701D03*
X215400D03*
X234800D03*
X255000D03*
X274400D03*
X293800D03*
G54D95*X278972Y269201D03*
X308500D03*
G54D96*X278972Y334161D03*
X214972D03*
X308500Y347941D03*
X244500D03*
G54D95*X214972Y269201D03*
X244500D03*
G54D92*G36*
X259700Y264001D02*Y254401D01*
X269300D01*
Y264001D01*
X259700D01*
G37*
G54D97*X264500Y269201D03*
Y279201D03*
G54D91*X139000Y237701D03*
G54D92*G36*
X131700Y264001D02*Y254401D01*
X141300D01*
Y264001D01*
X131700D01*
G37*
G54D97*X136500Y269201D03*
Y279201D03*
G54D95*X150972Y269201D03*
G54D91*X149000Y237701D03*
X159000D03*
X169000D03*
G54D95*X180500Y269201D03*
G54D92*G36*
X195700Y264001D02*Y254401D01*
X205300D01*
Y264001D01*
X195700D01*
G37*
G54D97*X200500Y269201D03*
Y279201D03*
G54D91*X50500Y220701D03*
G54D93*X57800Y376701D03*
G54D94*X60000Y338201D03*
G54D92*G36*
X41450Y310751D02*Y304651D01*
X47550D01*
Y310751D01*
X41450D01*
G37*
G36*
X4950Y324751D02*Y318651D01*
X11050D01*
Y324751D01*
X4950D01*
G37*
G36*
Y310751D02*Y304651D01*
X11050D01*
Y310751D01*
X4950D01*
G37*
G54D94*X38000Y307701D03*
G54D92*G36*
X41450Y324751D02*Y318651D01*
X47550D01*
Y324751D01*
X41450D01*
G37*
G36*
X67700Y264001D02*Y254401D01*
X77300D01*
Y264001D01*
X67700D01*
G37*
G54D97*X72500Y269201D03*
Y279201D03*
G54D95*X86972Y269201D03*
G54D93*X19000Y376701D03*
X38400D03*
G54D92*G36*
X33200Y283001D02*Y276401D01*
X39800D01*
Y283001D01*
X33200D01*
G37*
G54D91*X16500Y279701D03*
G54D92*G36*
X16950Y341251D02*Y335151D01*
X23050D01*
Y341251D01*
X16950D01*
G37*
G54D94*X38000Y321701D03*
G54D98*X15748Y192795D03*
M02*
