G04 start of page 10 for group -3984 idx -3984 *
G04 Title: (unknown), fab *
G04 Creator: pcb 4.1.3 *
G04 CreationDate: Fri Aug 16 20:44:32 2019 UTC *
G04 For: leha *
G04 Format: Gerber/RS-274X *
G04 PCB-Dimensions (mil): 3149.61 3937.01 *
G04 PCB-Coordinate-Origin: lower left *
%MOIN*%
%FSLAX25Y25*%
%LNFAB*%
%ADD112C,0.0100*%
%ADD111C,0.0075*%
%ADD110C,0.0060*%
%ADD109C,0.0001*%
%ADD108R,0.0080X0.0080*%
G54D108*X14148Y194395D02*X17348D01*
X14148D02*Y191195D01*
X17348D01*
Y194395D02*Y191195D01*
X12548Y195995D02*X18948D01*
X12548D02*Y189595D01*
X18948D01*
Y195995D02*Y189595D01*
X279528Y224291D02*Y219491D01*
G54D109*G36*
X278981Y224438D02*X283834Y227238D01*
X284234Y226545D01*
X279381Y223745D01*
X278981Y224438D01*
G37*
G36*
X279674Y223745D02*X274821Y226545D01*
X275221Y227238D01*
X280074Y224438D01*
X279674Y223745D01*
G37*
G54D108*X277928Y224291D02*G75*G03X281128Y224291I1600J0D01*G01*
G75*G03X277928Y224291I-1600J0D01*G01*
X276328D02*G75*G03X282728Y224291I3200J0D01*G01*
G75*G03X276328Y224291I-3200J0D01*G01*
X15748D02*Y219491D01*
G54D109*G36*
X15202Y224438D02*X20055Y227238D01*
X20454Y226545D01*
X15601Y223745D01*
X15202Y224438D01*
G37*
G36*
X15895Y223745D02*X11042Y226545D01*
X11441Y227238D01*
X16294Y224438D01*
X15895Y223745D01*
G37*
G54D108*X14148Y224291D02*G75*G03X17348Y224291I1600J0D01*G01*
G75*G03X14148Y224291I-1600J0D01*G01*
X12548D02*G75*G03X18948Y224291I3200J0D01*G01*
G75*G03X12548Y224291I-3200J0D01*G01*
X15000Y404951D02*Y400151D01*
G54D109*G36*
X14454Y405097D02*X19307Y407897D01*
X19706Y407204D01*
X14853Y404404D01*
X14454Y405097D01*
G37*
G36*
X15147Y404404D02*X10294Y407204D01*
X10693Y407897D01*
X15546Y405097D01*
X15147Y404404D01*
G37*
G54D108*X13400Y404951D02*G75*G03X16600Y404951I1600J0D01*G01*
G75*G03X13400Y404951I-1600J0D01*G01*
X11800D02*G75*G03X18200Y404951I3200J0D01*G01*
G75*G03X11800Y404951I-3200J0D01*G01*
G54D110*X135000Y407201D02*X136500Y404201D01*
X138000Y407201D01*
X136500Y404201D02*Y401201D01*
X139800Y404501D02*X142050D01*
X139800Y401201D02*X142800D01*
X139800Y407201D02*Y401201D01*
Y407201D02*X142800D01*
X147600D02*X148350Y406451D01*
X145350Y407201D02*X147600D01*
X144600Y406451D02*X145350Y407201D01*
X144600Y406451D02*Y404951D01*
X145350Y404201D01*
X147600D01*
X148350Y403451D01*
Y401951D01*
X147600Y401201D02*X148350Y401951D01*
X145350Y401201D02*X147600D01*
X144600Y401951D02*X145350Y401201D01*
X98000Y406451D02*X98750Y407201D01*
X101000D01*
X101750Y406451D01*
Y404951D01*
X98000Y401201D02*X101750Y404951D01*
X98000Y401201D02*X101750D01*
X13400Y421551D02*X16600D01*
X13400D02*Y418351D01*
X16600D01*
Y421551D02*Y418351D01*
X11800Y423151D02*X18200D01*
X11800D02*Y416751D01*
X18200D01*
Y423151D02*Y416751D01*
X140000Y422201D02*Y416201D01*
Y422201D02*X143750Y416201D01*
Y422201D02*Y416201D01*
X145550Y421451D02*Y416951D01*
Y421451D02*X146300Y422201D01*
X147800D01*
X148550Y421451D01*
Y416951D01*
X147800Y416201D02*X148550Y416951D01*
X146300Y416201D02*X147800D01*
X145550Y416951D02*X146300Y416201D01*
X98000Y421001D02*X99200Y422201D01*
Y416201D01*
X98000D02*X100250D01*
X45000Y416951D02*X45750Y416201D01*
X45000Y421451D02*Y416951D01*
Y421451D02*X45750Y422201D01*
X47250D01*
X48000Y421451D01*
Y416951D01*
X47250Y416201D02*X48000Y416951D01*
X45750Y416201D02*X47250D01*
X45000Y417701D02*X48000Y420701D01*
X49800Y416201D02*X50550D01*
X52350Y421001D02*X53550Y422201D01*
Y416201D01*
X52350D02*X54600D01*
X56400Y421451D02*X57150Y422201D01*
X58650D01*
X59400Y421451D01*
X58650Y416201D02*X59400Y416951D01*
X57150Y416201D02*X58650D01*
X56400Y416951D02*X57150Y416201D01*
Y419501D02*X58650D01*
X59400Y421451D02*Y420251D01*
Y418751D02*Y416951D01*
Y418751D02*X58650Y419501D01*
X59400Y420251D02*X58650Y419501D01*
X61200Y416951D02*X61950Y416201D01*
X61200Y418151D02*Y416951D01*
Y418151D02*X62250Y419201D01*
X63150D01*
X64200Y418151D01*
Y416951D01*
X63450Y416201D02*X64200Y416951D01*
X61950Y416201D02*X63450D01*
X61200Y420251D02*X62250Y419201D01*
X61200Y421451D02*Y420251D01*
Y421451D02*X61950Y422201D01*
X63450D01*
X64200Y421451D01*
Y420251D01*
X63150Y419201D02*X64200Y420251D01*
X45000Y401951D02*X45750Y401201D01*
X45000Y406451D02*Y401951D01*
Y406451D02*X45750Y407201D01*
X47250D01*
X48000Y406451D01*
Y401951D01*
X47250Y401201D02*X48000Y401951D01*
X45750Y401201D02*X47250D01*
X45000Y402701D02*X48000Y405701D01*
X49800Y401201D02*X50550D01*
X52350Y406001D02*X53550Y407201D01*
Y401201D01*
X52350D02*X54600D01*
X56400Y406451D02*X57150Y407201D01*
X58650D01*
X59400Y406451D01*
X58650Y401201D02*X59400Y401951D01*
X57150Y401201D02*X58650D01*
X56400Y401951D02*X57150Y401201D01*
Y404501D02*X58650D01*
X59400Y406451D02*Y405251D01*
Y403751D02*Y401951D01*
Y403751D02*X58650Y404501D01*
X59400Y405251D02*X58650Y404501D01*
X61200Y401951D02*X61950Y401201D01*
X61200Y403151D02*Y401951D01*
Y403151D02*X62250Y404201D01*
X63150D01*
X64200Y403151D01*
Y401951D01*
X63450Y401201D02*X64200Y401951D01*
X61950Y401201D02*X63450D01*
X61200Y405251D02*X62250Y404201D01*
X61200Y406451D02*Y405251D01*
Y406451D02*X61950Y407201D01*
X63450D01*
X64200Y406451D01*
Y405251D01*
X63150Y404201D02*X64200Y405251D01*
X284200Y18701D02*G75*G03X285800Y18701I800J0D01*G01*
G75*G03X284200Y18701I-800J0D01*G01*
X282600D02*G75*G03X287400Y18701I2400J0D01*G01*
G75*G03X282600Y18701I-2400J0D01*G01*
X264500D02*G75*G03X266100Y18701I800J0D01*G01*
G75*G03X264500Y18701I-800J0D01*G01*
X262900D02*G75*G03X267700Y18701I2400J0D01*G01*
G75*G03X262900Y18701I-2400J0D01*G01*
X71700Y259201D02*G75*G03X73300Y259201I800J0D01*G01*
G75*G03X71700Y259201I-800J0D01*G01*
X70100D02*G75*G03X74900Y259201I2400J0D01*G01*
G75*G03X70100Y259201I-2400J0D01*G01*
X71700Y269201D02*G75*G03X73300Y269201I800J0D01*G01*
G75*G03X71700Y269201I-800J0D01*G01*
X70100D02*G75*G03X74900Y269201I2400J0D01*G01*
G75*G03X70100Y269201I-2400J0D01*G01*
X71700Y279201D02*G75*G03X73300Y279201I800J0D01*G01*
G75*G03X71700Y279201I-800J0D01*G01*
X70100D02*G75*G03X74900Y279201I2400J0D01*G01*
G75*G03X70100Y279201I-2400J0D01*G01*
X135700Y259201D02*G75*G03X137300Y259201I800J0D01*G01*
G75*G03X135700Y259201I-800J0D01*G01*
X134100D02*G75*G03X138900Y259201I2400J0D01*G01*
G75*G03X134100Y259201I-2400J0D01*G01*
X135700Y269201D02*G75*G03X137300Y269201I800J0D01*G01*
G75*G03X135700Y269201I-800J0D01*G01*
X134100D02*G75*G03X138900Y269201I2400J0D01*G01*
G75*G03X134100Y269201I-2400J0D01*G01*
X135700Y279201D02*G75*G03X137300Y279201I800J0D01*G01*
G75*G03X135700Y279201I-800J0D01*G01*
X134100D02*G75*G03X138900Y279201I2400J0D01*G01*
G75*G03X134100Y279201I-2400J0D01*G01*
X199700Y259201D02*G75*G03X201300Y259201I800J0D01*G01*
G75*G03X199700Y259201I-800J0D01*G01*
X198100D02*G75*G03X202900Y259201I2400J0D01*G01*
G75*G03X198100Y259201I-2400J0D01*G01*
X199700Y269201D02*G75*G03X201300Y269201I800J0D01*G01*
G75*G03X199700Y269201I-800J0D01*G01*
X198100D02*G75*G03X202900Y269201I2400J0D01*G01*
G75*G03X198100Y269201I-2400J0D01*G01*
X199700Y279201D02*G75*G03X201300Y279201I800J0D01*G01*
G75*G03X199700Y279201I-800J0D01*G01*
X198100D02*G75*G03X202900Y279201I2400J0D01*G01*
G75*G03X198100Y279201I-2400J0D01*G01*
X263700Y259201D02*G75*G03X265300Y259201I800J0D01*G01*
G75*G03X263700Y259201I-800J0D01*G01*
X262100D02*G75*G03X266900Y259201I2400J0D01*G01*
G75*G03X262100Y259201I-2400J0D01*G01*
X263700Y269201D02*G75*G03X265300Y269201I800J0D01*G01*
G75*G03X263700Y269201I-800J0D01*G01*
X262100D02*G75*G03X266900Y269201I2400J0D01*G01*
G75*G03X262100Y269201I-2400J0D01*G01*
X263700Y279201D02*G75*G03X265300Y279201I800J0D01*G01*
G75*G03X263700Y279201I-800J0D01*G01*
X262100D02*G75*G03X266900Y279201I2400J0D01*G01*
G75*G03X262100Y279201I-2400J0D01*G01*
X14200Y434951D02*G75*G03X15800Y434951I800J0D01*G01*
G75*G03X14200Y434951I-800J0D01*G01*
X12600D02*G75*G03X17400Y434951I2400J0D01*G01*
G75*G03X12600Y434951I-2400J0D01*G01*
X135000Y437201D02*X136500Y434201D01*
X138000Y437201D01*
X136500Y434201D02*Y431201D01*
X139800Y434501D02*X142050D01*
X139800Y431201D02*X142800D01*
X139800Y437201D02*Y431201D01*
Y437201D02*X142800D01*
X147600D02*X148350Y436451D01*
X145350Y437201D02*X147600D01*
X144600Y436451D02*X145350Y437201D01*
X144600Y436451D02*Y434951D01*
X145350Y434201D01*
X147600D01*
X148350Y433451D01*
Y431951D01*
X147600Y431201D02*X148350Y431951D01*
X145350Y431201D02*X147600D01*
X144600Y431951D02*X145350Y431201D01*
X98000Y436001D02*X99200Y437201D01*
Y431201D01*
X98000D02*X100250D01*
X102050Y433451D02*X105050Y437201D01*
X102050Y433451D02*X105800D01*
X105050Y437201D02*Y431201D01*
X45000Y431951D02*X45750Y431201D01*
X45000Y436451D02*Y431951D01*
Y436451D02*X45750Y437201D01*
X47250D01*
X48000Y436451D01*
Y431951D01*
X47250Y431201D02*X48000Y431951D01*
X45750Y431201D02*X47250D01*
X45000Y432701D02*X48000Y435701D01*
X49800Y431201D02*X50550D01*
X52350Y431951D02*X53100Y431201D01*
X52350Y436451D02*Y431951D01*
Y436451D02*X53100Y437201D01*
X54600D01*
X55350Y436451D01*
Y431951D01*
X54600Y431201D02*X55350Y431951D01*
X53100Y431201D02*X54600D01*
X52350Y432701D02*X55350Y435701D01*
X59400Y437201D02*X60150Y436451D01*
X57900Y437201D02*X59400D01*
X57150Y436451D02*X57900Y437201D01*
X57150Y436451D02*Y431951D01*
X57900Y431201D01*
X59400Y434501D02*X60150Y433751D01*
X57150Y434501D02*X59400D01*
X57900Y431201D02*X59400D01*
X60150Y431951D01*
Y433751D02*Y431951D01*
X61950D02*X62700Y431201D01*
X61950Y436451D02*Y431951D01*
Y436451D02*X62700Y437201D01*
X64200D01*
X64950Y436451D01*
Y431951D01*
X64200Y431201D02*X64950Y431951D01*
X62700Y431201D02*X64200D01*
X61950Y432701D02*X64950Y435701D01*
X276572Y336561D02*X281372Y331761D01*
X276572D02*X281372Y336561D01*
X277372Y335761D02*X280572D01*
X277372D02*Y332561D01*
X280572D01*
Y335761D02*Y332561D01*
X306100Y350341D02*X310900Y345541D01*
X306100D02*X310900Y350341D01*
X306900Y349541D02*X310100D01*
X306900D02*Y346341D01*
X310100D01*
Y349541D02*Y346341D01*
X212572Y336561D02*X217372Y331761D01*
X212572D02*X217372Y336561D01*
X213372Y335761D02*X216572D01*
X213372D02*Y332561D01*
X216572D01*
Y335761D02*Y332561D01*
X242100Y350341D02*X246900Y345541D01*
X242100D02*X246900Y350341D01*
X242900Y349541D02*X246100D01*
X242900D02*Y346341D01*
X246100D01*
Y349541D02*Y346341D01*
X84572Y336561D02*X89372Y331761D01*
X84572D02*X89372Y336561D01*
X85372Y335761D02*X88572D01*
X85372D02*Y332561D01*
X88572D01*
Y335761D02*Y332561D01*
X114100Y350341D02*X118900Y345541D01*
X114100D02*X118900Y350341D01*
X114900Y349541D02*X118100D01*
X114900D02*Y346341D01*
X118100D01*
Y349541D02*Y346341D01*
X148572Y336561D02*X153372Y331761D01*
X148572D02*X153372Y336561D01*
X149372Y335761D02*X152572D01*
X149372D02*Y332561D01*
X152572D01*
Y335761D02*Y332561D01*
X178100Y350341D02*X182900Y345541D01*
X178100D02*X182900Y350341D01*
X178900Y349541D02*X182100D01*
X178900D02*Y346341D01*
X182100D01*
Y349541D02*Y346341D01*
X12600Y452351D02*X17400Y447551D01*
X12600D02*X17400Y452351D01*
X13400Y451551D02*X16600D01*
X13400D02*Y448351D01*
X16600D01*
Y451551D02*Y448351D01*
X135000Y452201D02*X136500Y449201D01*
X138000Y452201D01*
X136500Y449201D02*Y446201D01*
X139800Y449501D02*X142050D01*
X139800Y446201D02*X142800D01*
X139800Y452201D02*Y446201D01*
Y452201D02*X142800D01*
X147600D02*X148350Y451451D01*
X145350Y452201D02*X147600D01*
X144600Y451451D02*X145350Y452201D01*
X144600Y451451D02*Y449951D01*
X145350Y449201D01*
X147600D01*
X148350Y448451D01*
Y446951D01*
X147600Y446201D02*X148350Y446951D01*
X145350Y446201D02*X147600D01*
X144600Y446951D02*X145350Y446201D01*
X98000Y446951D02*X98750Y446201D01*
X98000Y448151D02*Y446951D01*
Y448151D02*X99050Y449201D01*
X99950D01*
X101000Y448151D01*
Y446951D01*
X100250Y446201D02*X101000Y446951D01*
X98750Y446201D02*X100250D01*
X98000Y450251D02*X99050Y449201D01*
X98000Y451451D02*Y450251D01*
Y451451D02*X98750Y452201D01*
X100250D01*
X101000Y451451D01*
Y450251D01*
X99950Y449201D02*X101000Y450251D01*
X45000Y446951D02*X45750Y446201D01*
X45000Y451451D02*Y446951D01*
Y451451D02*X45750Y452201D01*
X47250D01*
X48000Y451451D01*
Y446951D01*
X47250Y446201D02*X48000Y446951D01*
X45750Y446201D02*X47250D01*
X45000Y447701D02*X48000Y450701D01*
X49800Y446201D02*X50550D01*
X52350Y446951D02*X53100Y446201D01*
X52350Y451451D02*Y446951D01*
Y451451D02*X53100Y452201D01*
X54600D01*
X55350Y451451D01*
Y446951D01*
X54600Y446201D02*X55350Y446951D01*
X53100Y446201D02*X54600D01*
X52350Y447701D02*X55350Y450701D01*
X57150Y452201D02*X60150D01*
X57150D02*Y449201D01*
X57900Y449951D01*
X59400D01*
X60150Y449201D01*
Y446951D01*
X59400Y446201D02*X60150Y446951D01*
X57900Y446201D02*X59400D01*
X57150Y446951D02*X57900Y446201D01*
X61950Y451001D02*X63150Y452201D01*
Y446201D01*
X61950D02*X64200D01*
X279000Y351401D02*Y345001D01*
X275800Y348201D02*X282200D01*
X277400Y349801D02*X280600D01*
X277400D02*Y346601D01*
X280600D01*
Y349801D02*Y346601D01*
X308500Y337401D02*Y331001D01*
X305300Y334201D02*X311700D01*
X306900Y335801D02*X310100D01*
X306900D02*Y332601D01*
X310100D01*
Y335801D02*Y332601D01*
X215000Y351401D02*Y345001D01*
X211800Y348201D02*X218200D01*
X213400Y349801D02*X216600D01*
X213400D02*Y346601D01*
X216600D01*
Y349801D02*Y346601D01*
X87000Y351401D02*Y345001D01*
X83800Y348201D02*X90200D01*
X85400Y349801D02*X88600D01*
X85400D02*Y346601D01*
X88600D01*
Y349801D02*Y346601D01*
X151000Y351401D02*Y345001D01*
X147800Y348201D02*X154200D01*
X149400Y349801D02*X152600D01*
X149400D02*Y346601D01*
X152600D01*
Y349801D02*Y346601D01*
X15000Y468151D02*Y461751D01*
X11800Y464951D02*X18200D01*
X13400Y466551D02*X16600D01*
X13400D02*Y463351D01*
X16600D01*
Y466551D02*Y463351D01*
X135000Y467201D02*X136500Y464201D01*
X138000Y467201D01*
X136500Y464201D02*Y461201D01*
X139800Y464501D02*X142050D01*
X139800Y461201D02*X142800D01*
X139800Y467201D02*Y461201D01*
Y467201D02*X142800D01*
X147600D02*X148350Y466451D01*
X145350Y467201D02*X147600D01*
X144600Y466451D02*X145350Y467201D01*
X144600Y466451D02*Y464951D01*
X145350Y464201D01*
X147600D01*
X148350Y463451D01*
Y461951D01*
X147600Y461201D02*X148350Y461951D01*
X145350Y461201D02*X147600D01*
X144600Y461951D02*X145350Y461201D01*
X98000Y467201D02*X101000D01*
X98000D02*Y464201D01*
X98750Y464951D01*
X100250D01*
X101000Y464201D01*
Y461951D01*
X100250Y461201D02*X101000Y461951D01*
X98750Y461201D02*X100250D01*
X98000Y461951D02*X98750Y461201D01*
X45000Y461951D02*X45750Y461201D01*
X45000Y466451D02*Y461951D01*
Y466451D02*X45750Y467201D01*
X47250D01*
X48000Y466451D01*
Y461951D01*
X47250Y461201D02*X48000Y461951D01*
X45750Y461201D02*X47250D01*
X45000Y462701D02*X48000Y465701D01*
X49800Y461201D02*X50550D01*
X52350Y461951D02*X53100Y461201D01*
X52350Y466451D02*Y461951D01*
Y466451D02*X53100Y467201D01*
X54600D01*
X55350Y466451D01*
Y461951D01*
X54600Y461201D02*X55350Y461951D01*
X53100Y461201D02*X54600D01*
X52350Y462701D02*X55350Y465701D01*
X57150Y467201D02*X60150D01*
X57150D02*Y464201D01*
X57900Y464951D01*
X59400D01*
X60150Y464201D01*
Y461951D01*
X59400Y461201D02*X60150Y461951D01*
X57900Y461201D02*X59400D01*
X57150Y461951D02*X57900Y461201D01*
X61950Y461951D02*X62700Y461201D01*
X61950Y466451D02*Y461951D01*
Y466451D02*X62700Y467201D01*
X64200D01*
X64950Y466451D01*
Y461951D01*
X64200Y461201D02*X64950Y461951D01*
X62700Y461201D02*X64200D01*
X61950Y462701D02*X64950Y465701D01*
X19000Y376701D02*Y373501D01*
Y376701D02*X21773Y378301D01*
X19000Y376701D02*X16227Y378301D01*
X17400Y376701D02*G75*G03X20600Y376701I1600J0D01*G01*
G75*G03X17400Y376701I-1600J0D01*G01*
X38400D02*Y373501D01*
Y376701D02*X41173Y378301D01*
X38400Y376701D02*X35627Y378301D01*
X36800Y376701D02*G75*G03X40000Y376701I1600J0D01*G01*
G75*G03X36800Y376701I-1600J0D01*G01*
X57800D02*Y373501D01*
Y376701D02*X60573Y378301D01*
X57800Y376701D02*X55027Y378301D01*
X56200Y376701D02*G75*G03X59400Y376701I1600J0D01*G01*
G75*G03X56200Y376701I-1600J0D01*G01*
X78000D02*Y373501D01*
Y376701D02*X80773Y378301D01*
X78000Y376701D02*X75227Y378301D01*
X76400Y376701D02*G75*G03X79600Y376701I1600J0D01*G01*
G75*G03X76400Y376701I-1600J0D01*G01*
X97400D02*Y373501D01*
Y376701D02*X100173Y378301D01*
X97400Y376701D02*X94627Y378301D01*
X95800Y376701D02*G75*G03X99000Y376701I1600J0D01*G01*
G75*G03X95800Y376701I-1600J0D01*G01*
X116800D02*Y373501D01*
Y376701D02*X119573Y378301D01*
X116800Y376701D02*X114027Y378301D01*
X115200Y376701D02*G75*G03X118400Y376701I1600J0D01*G01*
G75*G03X115200Y376701I-1600J0D01*G01*
X137000D02*Y373501D01*
Y376701D02*X139773Y378301D01*
X137000Y376701D02*X134227Y378301D01*
X135400Y376701D02*G75*G03X138600Y376701I1600J0D01*G01*
G75*G03X135400Y376701I-1600J0D01*G01*
X156400D02*Y373501D01*
Y376701D02*X159173Y378301D01*
X156400Y376701D02*X153627Y378301D01*
X154800Y376701D02*G75*G03X158000Y376701I1600J0D01*G01*
G75*G03X154800Y376701I-1600J0D01*G01*
X175800D02*Y373501D01*
Y376701D02*X178573Y378301D01*
X175800Y376701D02*X173027Y378301D01*
X174200Y376701D02*G75*G03X177400Y376701I1600J0D01*G01*
G75*G03X174200Y376701I-1600J0D01*G01*
X196000D02*Y373501D01*
Y376701D02*X198773Y378301D01*
X196000Y376701D02*X193227Y378301D01*
X194400Y376701D02*G75*G03X197600Y376701I1600J0D01*G01*
G75*G03X194400Y376701I-1600J0D01*G01*
X215400D02*Y373501D01*
Y376701D02*X218173Y378301D01*
X215400Y376701D02*X212627Y378301D01*
X213800Y376701D02*G75*G03X217000Y376701I1600J0D01*G01*
G75*G03X213800Y376701I-1600J0D01*G01*
X234800D02*Y373501D01*
Y376701D02*X237573Y378301D01*
X234800Y376701D02*X232027Y378301D01*
X233200Y376701D02*G75*G03X236400Y376701I1600J0D01*G01*
G75*G03X233200Y376701I-1600J0D01*G01*
X255000D02*Y373501D01*
Y376701D02*X257773Y378301D01*
X255000Y376701D02*X252227Y378301D01*
X253400Y376701D02*G75*G03X256600Y376701I1600J0D01*G01*
G75*G03X253400Y376701I-1600J0D01*G01*
X274400D02*Y373501D01*
Y376701D02*X277173Y378301D01*
X274400Y376701D02*X271627Y378301D01*
X272800Y376701D02*G75*G03X276000Y376701I1600J0D01*G01*
G75*G03X272800Y376701I-1600J0D01*G01*
X293800D02*Y373501D01*
Y376701D02*X296573Y378301D01*
X293800Y376701D02*X291027Y378301D01*
X292200Y376701D02*G75*G03X295400Y376701I1600J0D01*G01*
G75*G03X292200Y376701I-1600J0D01*G01*
X15000Y479951D02*Y476751D01*
Y479951D02*X17773Y481551D01*
X15000Y479951D02*X12227Y481551D01*
X13400Y479951D02*G75*G03X16600Y479951I1600J0D01*G01*
G75*G03X13400Y479951I-1600J0D01*G01*
X135000Y482201D02*X136500Y479201D01*
X138000Y482201D01*
X136500Y479201D02*Y476201D01*
X139800Y479501D02*X142050D01*
X139800Y476201D02*X142800D01*
X139800Y482201D02*Y476201D01*
Y482201D02*X142800D01*
X147600D02*X148350Y481451D01*
X145350Y482201D02*X147600D01*
X144600Y481451D02*X145350Y482201D01*
X144600Y481451D02*Y479951D01*
X145350Y479201D01*
X147600D01*
X148350Y478451D01*
Y476951D01*
X147600Y476201D02*X148350Y476951D01*
X145350Y476201D02*X147600D01*
X144600Y476951D02*X145350Y476201D01*
X98000Y481001D02*X99200Y482201D01*
Y476201D01*
X98000D02*X100250D01*
X102050Y482201D02*X105050D01*
X102050D02*Y479201D01*
X102800Y479951D01*
X104300D01*
X105050Y479201D01*
Y476951D01*
X104300Y476201D02*X105050Y476951D01*
X102800Y476201D02*X104300D01*
X102050Y476951D02*X102800Y476201D01*
X45000Y476951D02*X45750Y476201D01*
X45000Y481451D02*Y476951D01*
Y481451D02*X45750Y482201D01*
X47250D01*
X48000Y481451D01*
Y476951D01*
X47250Y476201D02*X48000Y476951D01*
X45750Y476201D02*X47250D01*
X45000Y477701D02*X48000Y480701D01*
X49800Y476201D02*X50550D01*
X52350Y476951D02*X53100Y476201D01*
X52350Y481451D02*Y476951D01*
Y481451D02*X53100Y482201D01*
X54600D01*
X55350Y481451D01*
Y476951D01*
X54600Y476201D02*X55350Y476951D01*
X53100Y476201D02*X54600D01*
X52350Y477701D02*X55350Y480701D01*
X57150Y478451D02*X60150Y482201D01*
X57150Y478451D02*X60900D01*
X60150Y482201D02*Y476201D01*
X62700Y476951D02*X63450Y476201D01*
X62700Y478151D02*Y476951D01*
Y478151D02*X63750Y479201D01*
X64650D01*
X65700Y478151D01*
Y476951D01*
X64950Y476201D02*X65700Y476951D01*
X63450Y476201D02*X64950D01*
X62700Y480251D02*X63750Y479201D01*
X62700Y481451D02*Y480251D01*
Y481451D02*X63450Y482201D01*
X64950D01*
X65700Y481451D01*
Y480251D01*
X64650Y479201D02*X65700Y480251D01*
X277372Y270801D02*X280572D01*
X277372D02*Y267601D01*
X280572D01*
Y270801D02*Y267601D01*
X306900Y270801D02*X310100D01*
X306900D02*Y267601D01*
X310100D01*
Y270801D02*Y267601D01*
X213372Y270801D02*X216572D01*
X213372D02*Y267601D01*
X216572D01*
Y270801D02*Y267601D01*
X242900Y270801D02*X246100D01*
X242900D02*Y267601D01*
X246100D01*
Y270801D02*Y267601D01*
X85372Y270801D02*X88572D01*
X85372D02*Y267601D01*
X88572D01*
Y270801D02*Y267601D01*
X114900Y270801D02*X118100D01*
X114900D02*Y267601D01*
X118100D01*
Y270801D02*Y267601D01*
X149372Y270801D02*X152572D01*
X149372D02*Y267601D01*
X152572D01*
Y270801D02*Y267601D01*
X178900Y270801D02*X182100D01*
X178900D02*Y267601D01*
X182100D01*
Y270801D02*Y267601D01*
X13400Y496551D02*X16600D01*
X13400D02*Y493351D01*
X16600D01*
Y496551D02*Y493351D01*
X135000Y497201D02*X136500Y494201D01*
X138000Y497201D01*
X136500Y494201D02*Y491201D01*
X139800Y494501D02*X142050D01*
X139800Y491201D02*X142800D01*
X139800Y497201D02*Y491201D01*
Y497201D02*X142800D01*
X147600D02*X148350Y496451D01*
X145350Y497201D02*X147600D01*
X144600Y496451D02*X145350Y497201D01*
X144600Y496451D02*Y494951D01*
X145350Y494201D01*
X147600D01*
X148350Y493451D01*
Y491951D01*
X147600Y491201D02*X148350Y491951D01*
X145350Y491201D02*X147600D01*
X144600Y491951D02*X145350Y491201D01*
X98000Y491951D02*X98750Y491201D01*
X98000Y493151D02*Y491951D01*
Y493151D02*X99050Y494201D01*
X99950D01*
X101000Y493151D01*
Y491951D01*
X100250Y491201D02*X101000Y491951D01*
X98750Y491201D02*X100250D01*
X98000Y495251D02*X99050Y494201D01*
X98000Y496451D02*Y495251D01*
Y496451D02*X98750Y497201D01*
X100250D01*
X101000Y496451D01*
Y495251D01*
X99950Y494201D02*X101000Y495251D01*
X45000Y491951D02*X45750Y491201D01*
X45000Y496451D02*Y491951D01*
Y496451D02*X45750Y497201D01*
X47250D01*
X48000Y496451D01*
Y491951D01*
X47250Y491201D02*X48000Y491951D01*
X45750Y491201D02*X47250D01*
X45000Y492701D02*X48000Y495701D01*
X49800Y491201D02*X50550D01*
X52350Y491951D02*X53100Y491201D01*
X52350Y496451D02*Y491951D01*
Y496451D02*X53100Y497201D01*
X54600D01*
X55350Y496451D01*
Y491951D01*
X54600Y491201D02*X55350Y491951D01*
X53100Y491201D02*X54600D01*
X52350Y492701D02*X55350Y495701D01*
X57150Y493451D02*X60150Y497201D01*
X57150Y493451D02*X60900D01*
X60150Y497201D02*Y491201D01*
X62700Y496451D02*X63450Y497201D01*
X64950D01*
X65700Y496451D01*
X64950Y491201D02*X65700Y491951D01*
X63450Y491201D02*X64950D01*
X62700Y491951D02*X63450Y491201D01*
Y494501D02*X64950D01*
X65700Y496451D02*Y495251D01*
Y493751D02*Y491951D01*
Y493751D02*X64950Y494501D01*
X65700Y495251D02*X64950Y494501D01*
X167200Y119701D02*G75*G03X168800Y119701I800J0D01*G01*
G75*G03X167200Y119701I-800J0D01*G01*
Y129701D02*G75*G03X168800Y129701I800J0D01*G01*
G75*G03X167200Y129701I-800J0D01*G01*
Y139701D02*G75*G03X168800Y139701I800J0D01*G01*
G75*G03X167200Y139701I-800J0D01*G01*
Y149701D02*G75*G03X168800Y149701I800J0D01*G01*
G75*G03X167200Y149701I-800J0D01*G01*
Y159701D02*G75*G03X168800Y159701I800J0D01*G01*
G75*G03X167200Y159701I-800J0D01*G01*
Y169701D02*G75*G03X168800Y169701I800J0D01*G01*
G75*G03X167200Y169701I-800J0D01*G01*
Y179701D02*G75*G03X168800Y179701I800J0D01*G01*
G75*G03X167200Y179701I-800J0D01*G01*
Y189701D02*G75*G03X168800Y189701I800J0D01*G01*
G75*G03X167200Y189701I-800J0D01*G01*
X177200Y119701D02*G75*G03X178800Y119701I800J0D01*G01*
G75*G03X177200Y119701I-800J0D01*G01*
Y129701D02*G75*G03X178800Y129701I800J0D01*G01*
G75*G03X177200Y129701I-800J0D01*G01*
Y139701D02*G75*G03X178800Y139701I800J0D01*G01*
G75*G03X177200Y139701I-800J0D01*G01*
Y149701D02*G75*G03X178800Y149701I800J0D01*G01*
G75*G03X177200Y149701I-800J0D01*G01*
Y159701D02*G75*G03X178800Y159701I800J0D01*G01*
G75*G03X177200Y159701I-800J0D01*G01*
Y169701D02*G75*G03X178800Y169701I800J0D01*G01*
G75*G03X177200Y169701I-800J0D01*G01*
Y179701D02*G75*G03X178800Y179701I800J0D01*G01*
G75*G03X177200Y179701I-800J0D01*G01*
Y189701D02*G75*G03X178800Y189701I800J0D01*G01*
G75*G03X177200Y189701I-800J0D01*G01*
X106700Y166701D02*G75*G03X108300Y166701I800J0D01*G01*
G75*G03X106700Y166701I-800J0D01*G01*
X116700D02*G75*G03X118300Y166701I800J0D01*G01*
G75*G03X116700Y166701I-800J0D01*G01*
X126700D02*G75*G03X128300Y166701I800J0D01*G01*
G75*G03X126700Y166701I-800J0D01*G01*
X136700D02*G75*G03X138300Y166701I800J0D01*G01*
G75*G03X136700Y166701I-800J0D01*G01*
X84200Y151701D02*G75*G03X85800Y151701I800J0D01*G01*
G75*G03X84200Y151701I-800J0D01*G01*
Y161701D02*G75*G03X85800Y161701I800J0D01*G01*
G75*G03X84200Y161701I-800J0D01*G01*
X35700Y156701D02*G75*G03X37300Y156701I800J0D01*G01*
G75*G03X35700Y156701I-800J0D01*G01*
Y166701D02*G75*G03X37300Y166701I800J0D01*G01*
G75*G03X35700Y166701I-800J0D01*G01*
X189700Y36701D02*G75*G03X191300Y36701I800J0D01*G01*
G75*G03X189700Y36701I-800J0D01*G01*
X179700D02*G75*G03X181300Y36701I800J0D01*G01*
G75*G03X179700Y36701I-800J0D01*G01*
X169700D02*G75*G03X171300Y36701I800J0D01*G01*
G75*G03X169700Y36701I-800J0D01*G01*
X39200Y37701D02*G75*G03X40800Y37701I800J0D01*G01*
G75*G03X39200Y37701I-800J0D01*G01*
X49200D02*G75*G03X50800Y37701I800J0D01*G01*
G75*G03X49200Y37701I-800J0D01*G01*
X39200Y47701D02*G75*G03X40800Y47701I800J0D01*G01*
G75*G03X39200Y47701I-800J0D01*G01*
X49200D02*G75*G03X50800Y47701I800J0D01*G01*
G75*G03X49200Y47701I-800J0D01*G01*
X39200Y107701D02*G75*G03X40800Y107701I800J0D01*G01*
G75*G03X39200Y107701I-800J0D01*G01*
X49200D02*G75*G03X50800Y107701I800J0D01*G01*
G75*G03X49200Y107701I-800J0D01*G01*
X39200Y97701D02*G75*G03X40800Y97701I800J0D01*G01*
G75*G03X39200Y97701I-800J0D01*G01*
X49200D02*G75*G03X50800Y97701I800J0D01*G01*
G75*G03X49200Y97701I-800J0D01*G01*
X39200Y87701D02*G75*G03X40800Y87701I800J0D01*G01*
G75*G03X39200Y87701I-800J0D01*G01*
X49200D02*G75*G03X50800Y87701I800J0D01*G01*
G75*G03X49200Y87701I-800J0D01*G01*
X39200Y77701D02*G75*G03X40800Y77701I800J0D01*G01*
G75*G03X39200Y77701I-800J0D01*G01*
X49200D02*G75*G03X50800Y77701I800J0D01*G01*
G75*G03X49200Y77701I-800J0D01*G01*
X39200Y67701D02*G75*G03X40800Y67701I800J0D01*G01*
G75*G03X39200Y67701I-800J0D01*G01*
X49200D02*G75*G03X50800Y67701I800J0D01*G01*
G75*G03X49200Y67701I-800J0D01*G01*
X39200Y57701D02*G75*G03X40800Y57701I800J0D01*G01*
G75*G03X39200Y57701I-800J0D01*G01*
X49200D02*G75*G03X50800Y57701I800J0D01*G01*
G75*G03X49200Y57701I-800J0D01*G01*
X39200Y27701D02*G75*G03X40800Y27701I800J0D01*G01*
G75*G03X39200Y27701I-800J0D01*G01*
X49200D02*G75*G03X50800Y27701I800J0D01*G01*
G75*G03X49200Y27701I-800J0D01*G01*
X39200Y17701D02*G75*G03X40800Y17701I800J0D01*G01*
G75*G03X39200Y17701I-800J0D01*G01*
X49200D02*G75*G03X50800Y17701I800J0D01*G01*
G75*G03X49200Y17701I-800J0D01*G01*
X174200Y58701D02*G75*G03X175800Y58701I800J0D01*G01*
G75*G03X174200Y58701I-800J0D01*G01*
X184200D02*G75*G03X185800Y58701I800J0D01*G01*
G75*G03X184200Y58701I-800J0D01*G01*
X148200Y207701D02*G75*G03X149800Y207701I800J0D01*G01*
G75*G03X148200Y207701I-800J0D01*G01*
X138200D02*G75*G03X139800Y207701I800J0D01*G01*
G75*G03X138200Y207701I-800J0D01*G01*
X128200D02*G75*G03X129800Y207701I800J0D01*G01*
G75*G03X128200Y207701I-800J0D01*G01*
X118200D02*G75*G03X119800Y207701I800J0D01*G01*
G75*G03X118200Y207701I-800J0D01*G01*
X148200Y217701D02*G75*G03X149800Y217701I800J0D01*G01*
G75*G03X148200Y217701I-800J0D01*G01*
X138200D02*G75*G03X139800Y217701I800J0D01*G01*
G75*G03X138200Y217701I-800J0D01*G01*
X128200D02*G75*G03X129800Y217701I800J0D01*G01*
G75*G03X128200Y217701I-800J0D01*G01*
X118200D02*G75*G03X119800Y217701I800J0D01*G01*
G75*G03X118200Y217701I-800J0D01*G01*
X274700Y129201D02*G75*G03X276300Y129201I800J0D01*G01*
G75*G03X274700Y129201I-800J0D01*G01*
Y139201D02*G75*G03X276300Y139201I800J0D01*G01*
G75*G03X274700Y139201I-800J0D01*G01*
Y149201D02*G75*G03X276300Y149201I800J0D01*G01*
G75*G03X274700Y149201I-800J0D01*G01*
Y159201D02*G75*G03X276300Y159201I800J0D01*G01*
G75*G03X274700Y159201I-800J0D01*G01*
Y169201D02*G75*G03X276300Y169201I800J0D01*G01*
G75*G03X274700Y169201I-800J0D01*G01*
Y179201D02*G75*G03X276300Y179201I800J0D01*G01*
G75*G03X274700Y179201I-800J0D01*G01*
Y189201D02*G75*G03X276300Y189201I800J0D01*G01*
G75*G03X274700Y189201I-800J0D01*G01*
Y199201D02*G75*G03X276300Y199201I800J0D01*G01*
G75*G03X274700Y199201I-800J0D01*G01*
X284700Y129201D02*G75*G03X286300Y129201I800J0D01*G01*
G75*G03X284700Y129201I-800J0D01*G01*
Y139201D02*G75*G03X286300Y139201I800J0D01*G01*
G75*G03X284700Y139201I-800J0D01*G01*
Y149201D02*G75*G03X286300Y149201I800J0D01*G01*
G75*G03X284700Y149201I-800J0D01*G01*
Y159201D02*G75*G03X286300Y159201I800J0D01*G01*
G75*G03X284700Y159201I-800J0D01*G01*
Y169201D02*G75*G03X286300Y169201I800J0D01*G01*
G75*G03X284700Y169201I-800J0D01*G01*
Y179201D02*G75*G03X286300Y179201I800J0D01*G01*
G75*G03X284700Y179201I-800J0D01*G01*
Y189201D02*G75*G03X286300Y189201I800J0D01*G01*
G75*G03X284700Y189201I-800J0D01*G01*
Y199201D02*G75*G03X286300Y199201I800J0D01*G01*
G75*G03X284700Y199201I-800J0D01*G01*
X39200Y7701D02*G75*G03X40800Y7701I800J0D01*G01*
G75*G03X39200Y7701I-800J0D01*G01*
X189700Y46701D02*G75*G03X191300Y46701I800J0D01*G01*
G75*G03X189700Y46701I-800J0D01*G01*
X179700D02*G75*G03X181300Y46701I800J0D01*G01*
G75*G03X179700Y46701I-800J0D01*G01*
X169700D02*G75*G03X171300Y46701I800J0D01*G01*
G75*G03X169700Y46701I-800J0D01*G01*
X274700Y54701D02*G75*G03X276300Y54701I800J0D01*G01*
G75*G03X274700Y54701I-800J0D01*G01*
Y64701D02*G75*G03X276300Y64701I800J0D01*G01*
G75*G03X274700Y64701I-800J0D01*G01*
Y74701D02*G75*G03X276300Y74701I800J0D01*G01*
G75*G03X274700Y74701I-800J0D01*G01*
X284700Y54701D02*G75*G03X286300Y54701I800J0D01*G01*
G75*G03X284700Y54701I-800J0D01*G01*
Y64701D02*G75*G03X286300Y64701I800J0D01*G01*
G75*G03X284700Y64701I-800J0D01*G01*
Y74701D02*G75*G03X286300Y74701I800J0D01*G01*
G75*G03X284700Y74701I-800J0D01*G01*
X151700Y54201D02*G75*G03X153300Y54201I800J0D01*G01*
G75*G03X151700Y54201I-800J0D01*G01*
Y64201D02*G75*G03X153300Y64201I800J0D01*G01*
G75*G03X151700Y64201I-800J0D01*G01*
Y74201D02*G75*G03X153300Y74201I800J0D01*G01*
G75*G03X151700Y74201I-800J0D01*G01*
X98200Y227701D02*G75*G03X99800Y227701I800J0D01*G01*
G75*G03X98200Y227701I-800J0D01*G01*
X108200D02*G75*G03X109800Y227701I800J0D01*G01*
G75*G03X108200Y227701I-800J0D01*G01*
X118200D02*G75*G03X119800Y227701I800J0D01*G01*
G75*G03X118200Y227701I-800J0D01*G01*
X128200D02*G75*G03X129800Y227701I800J0D01*G01*
G75*G03X128200Y227701I-800J0D01*G01*
X138200D02*G75*G03X139800Y227701I800J0D01*G01*
G75*G03X138200Y227701I-800J0D01*G01*
X148200D02*G75*G03X149800Y227701I800J0D01*G01*
G75*G03X148200Y227701I-800J0D01*G01*
X158200D02*G75*G03X159800Y227701I800J0D01*G01*
G75*G03X158200Y227701I-800J0D01*G01*
X168200D02*G75*G03X169800Y227701I800J0D01*G01*
G75*G03X168200Y227701I-800J0D01*G01*
X98200Y237701D02*G75*G03X99800Y237701I800J0D01*G01*
G75*G03X98200Y237701I-800J0D01*G01*
X108200D02*G75*G03X109800Y237701I800J0D01*G01*
G75*G03X108200Y237701I-800J0D01*G01*
X118200D02*G75*G03X119800Y237701I800J0D01*G01*
G75*G03X118200Y237701I-800J0D01*G01*
X128200D02*G75*G03X129800Y237701I800J0D01*G01*
G75*G03X128200Y237701I-800J0D01*G01*
X138200D02*G75*G03X139800Y237701I800J0D01*G01*
G75*G03X138200Y237701I-800J0D01*G01*
X148200D02*G75*G03X149800Y237701I800J0D01*G01*
G75*G03X148200Y237701I-800J0D01*G01*
X158200D02*G75*G03X159800Y237701I800J0D01*G01*
G75*G03X158200Y237701I-800J0D01*G01*
X168200D02*G75*G03X169800Y237701I800J0D01*G01*
G75*G03X168200Y237701I-800J0D01*G01*
X14200Y509951D02*G75*G03X15800Y509951I800J0D01*G01*
G75*G03X14200Y509951I-800J0D01*G01*
X135000Y512201D02*X136500Y509201D01*
X138000Y512201D01*
X136500Y509201D02*Y506201D01*
X139800Y509501D02*X142050D01*
X139800Y506201D02*X142800D01*
X139800Y512201D02*Y506201D01*
Y512201D02*X142800D01*
X147600D02*X148350Y511451D01*
X145350Y512201D02*X147600D01*
X144600Y511451D02*X145350Y512201D01*
X144600Y511451D02*Y509951D01*
X145350Y509201D01*
X147600D01*
X148350Y508451D01*
Y506951D01*
X147600Y506201D02*X148350Y506951D01*
X145350Y506201D02*X147600D01*
X144600Y506951D02*X145350Y506201D01*
X98000Y511001D02*X99200Y512201D01*
Y506201D01*
X98000D02*X100250D01*
X102050Y506951D02*X102800Y506201D01*
X102050Y511451D02*Y506951D01*
Y511451D02*X102800Y512201D01*
X104300D01*
X105050Y511451D01*
Y506951D01*
X104300Y506201D02*X105050Y506951D01*
X102800Y506201D02*X104300D01*
X102050Y507701D02*X105050Y510701D01*
X106850Y511451D02*X107600Y512201D01*
X109850D01*
X110600Y511451D01*
Y509951D01*
X106850Y506201D02*X110600Y509951D01*
X106850Y506201D02*X110600D01*
X45000Y506951D02*X45750Y506201D01*
X45000Y511451D02*Y506951D01*
Y511451D02*X45750Y512201D01*
X47250D01*
X48000Y511451D01*
Y506951D01*
X47250Y506201D02*X48000Y506951D01*
X45750Y506201D02*X47250D01*
X45000Y507701D02*X48000Y510701D01*
X49800Y506201D02*X50550D01*
X52350Y506951D02*X53100Y506201D01*
X52350Y511451D02*Y506951D01*
Y511451D02*X53100Y512201D01*
X54600D01*
X55350Y511451D01*
Y506951D01*
X54600Y506201D02*X55350Y506951D01*
X53100Y506201D02*X54600D01*
X52350Y507701D02*X55350Y510701D01*
X57150Y511451D02*X57900Y512201D01*
X59400D01*
X60150Y511451D01*
X59400Y506201D02*X60150Y506951D01*
X57900Y506201D02*X59400D01*
X57150Y506951D02*X57900Y506201D01*
Y509501D02*X59400D01*
X60150Y511451D02*Y510251D01*
Y508751D02*Y506951D01*
Y508751D02*X59400Y509501D01*
X60150Y510251D02*X59400Y509501D01*
X61950Y506951D02*X62700Y506201D01*
X61950Y508151D02*Y506951D01*
Y508151D02*X63000Y509201D01*
X63900D01*
X64950Y508151D01*
Y506951D01*
X64200Y506201D02*X64950Y506951D01*
X62700Y506201D02*X64200D01*
X61950Y510251D02*X63000Y509201D01*
X61950Y511451D02*Y510251D01*
Y511451D02*X62700Y512201D01*
X64200D01*
X64950Y511451D01*
Y510251D01*
X63900Y509201D02*X64950Y510251D01*
X145300Y102901D02*X147700Y100501D01*
X145300D02*X147700Y102901D01*
X102800Y51901D02*X105200Y49501D01*
X102800D02*X105200Y51901D01*
X13800Y526151D02*X16200Y523751D01*
X13800D02*X16200Y526151D01*
X135000Y527201D02*X136500Y524201D01*
X138000Y527201D01*
X136500Y524201D02*Y521201D01*
X139800Y524501D02*X142050D01*
X139800Y521201D02*X142800D01*
X139800Y527201D02*Y521201D01*
Y527201D02*X142800D01*
X147600D02*X148350Y526451D01*
X145350Y527201D02*X147600D01*
X144600Y526451D02*X145350Y527201D01*
X144600Y526451D02*Y524951D01*
X145350Y524201D01*
X147600D01*
X148350Y523451D01*
Y521951D01*
X147600Y521201D02*X148350Y521951D01*
X145350Y521201D02*X147600D01*
X144600Y521951D02*X145350Y521201D01*
X98000Y526451D02*X98750Y527201D01*
X101000D01*
X101750Y526451D01*
Y524951D01*
X98000Y521201D02*X101750Y524951D01*
X98000Y521201D02*X101750D01*
X45000Y521951D02*X45750Y521201D01*
X45000Y526451D02*Y521951D01*
Y526451D02*X45750Y527201D01*
X47250D01*
X48000Y526451D01*
Y521951D01*
X47250Y521201D02*X48000Y521951D01*
X45750Y521201D02*X47250D01*
X45000Y522701D02*X48000Y525701D01*
X49800Y521201D02*X50550D01*
X52350Y521951D02*X53100Y521201D01*
X52350Y526451D02*Y521951D01*
Y526451D02*X53100Y527201D01*
X54600D01*
X55350Y526451D01*
Y521951D01*
X54600Y521201D02*X55350Y521951D01*
X53100Y521201D02*X54600D01*
X52350Y522701D02*X55350Y525701D01*
X57150Y526451D02*X57900Y527201D01*
X59400D01*
X60150Y526451D01*
X59400Y521201D02*X60150Y521951D01*
X57900Y521201D02*X59400D01*
X57150Y521951D02*X57900Y521201D01*
Y524501D02*X59400D01*
X60150Y526451D02*Y525251D01*
Y523751D02*Y521951D01*
Y523751D02*X59400Y524501D01*
X60150Y525251D02*X59400Y524501D01*
X61950Y527201D02*X64950D01*
X61950D02*Y524201D01*
X62700Y524951D01*
X64200D01*
X64950Y524201D01*
Y521951D01*
X64200Y521201D02*X64950Y521951D01*
X62700Y521201D02*X64200D01*
X61950Y521951D02*X62700Y521201D01*
X70500Y222301D02*Y219101D01*
X68900Y220701D02*X72100D01*
X50500Y222301D02*Y219101D01*
X48900Y220701D02*X52100D01*
X90600Y187801D02*Y184601D01*
X89000Y186201D02*X92200D01*
X70600Y187801D02*Y184601D01*
X69000Y186201D02*X72200D01*
X36500Y281301D02*Y278101D01*
X34900Y279701D02*X38100D01*
X16500Y281301D02*Y278101D01*
X14900Y279701D02*X18100D01*
X20000Y339801D02*Y336601D01*
X18400Y338201D02*X21600D01*
X60000Y339801D02*Y336601D01*
X58400Y338201D02*X61600D01*
X44500Y309301D02*Y306101D01*
X42900Y307701D02*X46100D01*
X74500Y309301D02*Y306101D01*
X72900Y307701D02*X76100D01*
X8000Y323301D02*Y320101D01*
X6400Y321701D02*X9600D01*
X38000Y323301D02*Y320101D01*
X36400Y321701D02*X39600D01*
X8000Y309301D02*Y306101D01*
X6400Y307701D02*X9600D01*
X38000Y309301D02*Y306101D01*
X36400Y307701D02*X39600D01*
X44500Y323301D02*Y320101D01*
X42900Y321701D02*X46100D01*
X74500Y323301D02*Y320101D01*
X72900Y321701D02*X76100D01*
X15000Y541551D02*Y538351D01*
X13400Y539951D02*X16600D01*
X135000Y542201D02*X136500Y539201D01*
X138000Y542201D01*
X136500Y539201D02*Y536201D01*
X139800Y539501D02*X142050D01*
X139800Y536201D02*X142800D01*
X139800Y542201D02*Y536201D01*
Y542201D02*X142800D01*
X147600D02*X148350Y541451D01*
X145350Y542201D02*X147600D01*
X144600Y541451D02*X145350Y542201D01*
X144600Y541451D02*Y539951D01*
X145350Y539201D01*
X147600D01*
X148350Y538451D01*
Y536951D01*
X147600Y536201D02*X148350Y536951D01*
X145350Y536201D02*X147600D01*
X144600Y536951D02*X145350Y536201D01*
X98000Y541001D02*X99200Y542201D01*
Y536201D01*
X98000D02*X100250D01*
X104300Y542201D02*X105050Y541451D01*
X102800Y542201D02*X104300D01*
X102050Y541451D02*X102800Y542201D01*
X102050Y541451D02*Y536951D01*
X102800Y536201D01*
X104300Y539501D02*X105050Y538751D01*
X102050Y539501D02*X104300D01*
X102800Y536201D02*X104300D01*
X105050Y536951D01*
Y538751D02*Y536951D01*
X45000D02*X45750Y536201D01*
X45000Y541451D02*Y536951D01*
Y541451D02*X45750Y542201D01*
X47250D01*
X48000Y541451D01*
Y536951D01*
X47250Y536201D02*X48000Y536951D01*
X45750Y536201D02*X47250D01*
X45000Y537701D02*X48000Y540701D01*
X49800Y536201D02*X50550D01*
X52350Y536951D02*X53100Y536201D01*
X52350Y541451D02*Y536951D01*
Y541451D02*X53100Y542201D01*
X54600D01*
X55350Y541451D01*
Y536951D01*
X54600Y536201D02*X55350Y536951D01*
X53100Y536201D02*X54600D01*
X52350Y537701D02*X55350Y540701D01*
X57150Y541451D02*X57900Y542201D01*
X59400D01*
X60150Y541451D01*
X59400Y536201D02*X60150Y536951D01*
X57900Y536201D02*X59400D01*
X57150Y536951D02*X57900Y536201D01*
Y539501D02*X59400D01*
X60150Y541451D02*Y540251D01*
Y538751D02*Y536951D01*
Y538751D02*X59400Y539501D01*
X60150Y540251D02*X59400Y539501D01*
X61950Y536951D02*X62700Y536201D01*
X61950Y541451D02*Y536951D01*
Y541451D02*X62700Y542201D01*
X64200D01*
X64950Y541451D01*
Y536951D01*
X64200Y536201D02*X64950Y536951D01*
X62700Y536201D02*X64200D01*
X61950Y537701D02*X64950Y540701D01*
X101000Y124701D02*Y123101D01*
Y124701D02*X102387Y125501D01*
X101000Y124701D02*X99613Y125501D01*
X88000Y126701D02*Y125101D01*
Y126701D02*X89387Y127501D01*
X88000Y126701D02*X86613Y127501D01*
X97000Y127201D02*Y125601D01*
Y127201D02*X98387Y128001D01*
X97000Y127201D02*X95613Y128001D01*
X84500Y126701D02*Y125101D01*
Y126701D02*X85887Y127501D01*
X84500Y126701D02*X83113Y127501D01*
X86200Y123801D02*Y122201D01*
Y123801D02*X87587Y124601D01*
X86200Y123801D02*X84813Y124601D01*
X140500Y107701D02*Y106101D01*
Y107701D02*X141887Y108501D01*
X140500Y107701D02*X139113Y108501D01*
X140500Y103201D02*Y101601D01*
Y103201D02*X141887Y104001D01*
X140500Y103201D02*X139113Y104001D01*
X140500Y98701D02*Y97101D01*
Y98701D02*X141887Y99501D01*
X140500Y98701D02*X139113Y99501D01*
X136500Y160701D02*Y159101D01*
Y160701D02*X137887Y161501D01*
X136500Y160701D02*X135113Y161501D01*
X137100Y156101D02*Y154501D01*
Y156101D02*X138487Y156901D01*
X137100Y156101D02*X135713Y156901D01*
X146500Y158201D02*Y156601D01*
Y158201D02*X147887Y159001D01*
X146500Y158201D02*X145113Y159001D01*
X126500Y155701D02*Y154101D01*
Y155701D02*X127887Y156501D01*
X126500Y155701D02*X125113Y156501D01*
X148000Y151201D02*Y149601D01*
Y151201D02*X149387Y152001D01*
X148000Y151201D02*X146613Y152001D01*
X118000Y147701D02*Y146101D01*
Y147701D02*X119387Y148501D01*
X118000Y147701D02*X116613Y148501D01*
X150000Y181701D02*Y180101D01*
Y181701D02*X151387Y182501D01*
X150000Y181701D02*X148613Y182501D01*
X136000Y181701D02*Y180101D01*
Y181701D02*X137387Y182501D01*
X136000Y181701D02*X134613Y182501D01*
X122000Y181701D02*Y180101D01*
Y181701D02*X123387Y182501D01*
X122000Y181701D02*X120613Y182501D01*
X108000Y181701D02*Y180101D01*
Y181701D02*X109387Y182501D01*
X108000Y181701D02*X106613Y182501D01*
X123500Y139201D02*Y137601D01*
Y139201D02*X124887Y140001D01*
X123500Y139201D02*X122113Y140001D01*
X138500Y139201D02*Y137601D01*
Y139201D02*X139887Y140001D01*
X138500Y139201D02*X137113Y140001D01*
X138500Y126201D02*Y124601D01*
Y126201D02*X139887Y127001D01*
X138500Y126201D02*X137113Y127001D01*
X101000Y180201D02*Y178601D01*
Y180201D02*X102387Y181001D01*
X101000Y180201D02*X99613Y181001D01*
X97500Y177201D02*Y175601D01*
Y177201D02*X98887Y178001D01*
X97500Y177201D02*X96113Y178001D01*
X149500Y164201D02*Y162601D01*
Y164201D02*X150887Y165001D01*
X149500Y164201D02*X148113Y165001D01*
X149500Y170201D02*Y168601D01*
Y170201D02*X150887Y171001D01*
X149500Y170201D02*X148113Y171001D01*
X155500Y151701D02*Y150101D01*
Y151701D02*X156887Y152501D01*
X155500Y151701D02*X154113Y152501D01*
X154500Y103301D02*Y101701D01*
Y103301D02*X155887Y104101D01*
X154500Y103301D02*X153113Y104101D01*
X157000Y106701D02*Y105101D01*
Y106701D02*X158387Y107501D01*
X157000Y106701D02*X155613Y107501D01*
X185000Y75201D02*Y73601D01*
Y75201D02*X186387Y76001D01*
X185000Y75201D02*X183613Y76001D01*
X168500Y196201D02*Y194601D01*
Y196201D02*X169887Y197001D01*
X168500Y196201D02*X167113Y197001D01*
X108000Y202201D02*Y200601D01*
Y202201D02*X109387Y203001D01*
X108000Y202201D02*X106613Y203001D01*
X122000Y195701D02*Y194101D01*
Y195701D02*X123387Y196501D01*
X122000Y195701D02*X120613Y196501D01*
X136500Y202201D02*Y200601D01*
Y202201D02*X137887Y203001D01*
X136500Y202201D02*X135113Y203001D01*
X149500Y201201D02*Y199601D01*
Y201201D02*X150887Y202001D01*
X149500Y201201D02*X148113Y202001D01*
X64500Y160701D02*Y159101D01*
Y160701D02*X65887Y161501D01*
X64500Y160701D02*X63113Y161501D01*
X112000Y106701D02*Y105101D01*
Y106701D02*X113387Y107501D01*
X112000Y106701D02*X110613Y107501D01*
X114000Y108701D02*Y107101D01*
Y108701D02*X115387Y109501D01*
X114000Y108701D02*X112613Y109501D01*
X116000Y110701D02*Y109101D01*
Y110701D02*X117387Y111501D01*
X116000Y110701D02*X114613Y111501D01*
X96500Y91201D02*Y89601D01*
Y91201D02*X97887Y92001D01*
X96500Y91201D02*X95113Y92001D01*
X94500Y89201D02*Y87601D01*
Y89201D02*X95887Y90001D01*
X94500Y89201D02*X93113Y90001D01*
X92500Y87201D02*Y85601D01*
Y87201D02*X93887Y88001D01*
X92500Y87201D02*X91113Y88001D01*
X116500Y60701D02*Y59101D01*
Y60701D02*X117887Y61501D01*
X116500Y60701D02*X115113Y61501D01*
X116500Y57201D02*Y55601D01*
Y57201D02*X117887Y58001D01*
X116500Y57201D02*X115113Y58001D01*
X116500Y53701D02*Y52101D01*
Y53701D02*X117887Y54501D01*
X116500Y53701D02*X115113Y54501D01*
X104600Y58701D02*Y57101D01*
Y58701D02*X105987Y59501D01*
X104600Y58701D02*X103213Y59501D01*
X104600Y55201D02*Y53601D01*
Y55201D02*X105987Y56001D01*
X104600Y55201D02*X103213Y56001D01*
X108000Y42201D02*Y40601D01*
Y42201D02*X109387Y43001D01*
X108000Y42201D02*X106613Y43001D01*
X108000Y35201D02*Y33601D01*
Y35201D02*X109387Y36001D01*
X108000Y35201D02*X106613Y36001D01*
X176000Y28658D02*Y27058D01*
Y28658D02*X177387Y29458D01*
X176000Y28658D02*X174613Y29458D01*
X176000Y25158D02*Y23558D01*
Y25158D02*X177387Y25958D01*
X176000Y25158D02*X174613Y25958D01*
X176000Y21658D02*Y20058D01*
Y21658D02*X177387Y22458D01*
X176000Y21658D02*X174613Y22458D01*
X216500Y8701D02*Y7101D01*
Y8701D02*X217887Y9501D01*
X216500Y8701D02*X215113Y9501D01*
X220500Y8701D02*Y7101D01*
Y8701D02*X221887Y9501D01*
X220500Y8701D02*X219113Y9501D01*
X166500Y51201D02*Y49601D01*
Y51201D02*X167887Y52001D01*
X166500Y51201D02*X165113Y52001D01*
X163000Y51201D02*Y49601D01*
Y51201D02*X164387Y52001D01*
X163000Y51201D02*X161613Y52001D01*
X159500Y51201D02*Y49601D01*
Y51201D02*X160887Y52001D01*
X159500Y51201D02*X158113Y52001D01*
X154000Y30701D02*Y29101D01*
Y30701D02*X155387Y31501D01*
X154000Y30701D02*X152613Y31501D01*
X128000Y25201D02*Y23601D01*
Y25201D02*X129387Y26001D01*
X128000Y25201D02*X126613Y26001D01*
X133000Y42701D02*Y41101D01*
Y42701D02*X134387Y43501D01*
X133000Y42701D02*X131613Y43501D01*
X157500Y34201D02*Y32601D01*
Y34201D02*X158887Y35001D01*
X157500Y34201D02*X156113Y35001D01*
X155500Y94701D02*Y93101D01*
Y94701D02*X156887Y95501D01*
X155500Y94701D02*X154113Y95501D01*
X138000Y64201D02*Y62601D01*
Y64201D02*X139387Y65001D01*
X138000Y64201D02*X136613Y65001D01*
X100500Y201701D02*Y200101D01*
Y201701D02*X101887Y202501D01*
X100500Y201701D02*X99113Y202501D01*
X64500Y152701D02*Y151101D01*
Y152701D02*X65887Y153501D01*
X64500Y152701D02*X63113Y153501D01*
X141500Y73701D02*Y72101D01*
Y73701D02*X142887Y74501D01*
X141500Y73701D02*X140113Y74501D01*
X171000Y200201D02*Y198601D01*
Y200201D02*X172387Y201001D01*
X171000Y200201D02*X169613Y201001D01*
X202711Y41146D02*Y39546D01*
Y41146D02*X204098Y41946D01*
X202711Y41146D02*X201325Y41946D01*
X202711Y36646D02*Y35046D01*
Y36646D02*X204098Y37446D01*
X202711Y36646D02*X201325Y37446D01*
X203000Y67201D02*Y65601D01*
Y67201D02*X204387Y68001D01*
X203000Y67201D02*X201613Y68001D01*
X203000Y63201D02*Y61601D01*
Y63201D02*X204387Y64001D01*
X203000Y63201D02*X201613Y64001D01*
X203000Y89201D02*Y87601D01*
Y89201D02*X204387Y90001D01*
X203000Y89201D02*X201613Y90001D01*
X203000Y93201D02*Y91601D01*
Y93201D02*X204387Y94001D01*
X203000Y93201D02*X201613Y94001D01*
X203000Y115201D02*Y113601D01*
Y115201D02*X204387Y116001D01*
X203000Y115201D02*X201613Y116001D01*
X203000Y119201D02*Y117601D01*
Y119201D02*X204387Y120001D01*
X203000Y119201D02*X201613Y120001D01*
X203000Y141201D02*Y139601D01*
Y141201D02*X204387Y142001D01*
X203000Y141201D02*X201613Y142001D01*
X203000Y145201D02*Y143601D01*
Y145201D02*X204387Y146001D01*
X203000Y145201D02*X201613Y146001D01*
X203000Y167201D02*Y165601D01*
Y167201D02*X204387Y168001D01*
X203000Y167201D02*X201613Y168001D01*
X203000Y171201D02*Y169601D01*
Y171201D02*X204387Y172001D01*
X203000Y171201D02*X201613Y172001D01*
X203000Y193201D02*Y191601D01*
Y193201D02*X204387Y194001D01*
X203000Y193201D02*X201613Y194001D01*
X203000Y197201D02*Y195601D01*
Y197201D02*X204387Y198001D01*
X203000Y197201D02*X201613Y198001D01*
X203000Y219201D02*Y217601D01*
Y219201D02*X204387Y220001D01*
X203000Y219201D02*X201613Y220001D01*
X203000Y223201D02*Y221601D01*
Y223201D02*X204387Y224001D01*
X203000Y223201D02*X201613Y224001D01*
X15000Y554951D02*Y553351D01*
Y554951D02*X16387Y555751D01*
X15000Y554951D02*X13613Y555751D01*
X135000Y557201D02*X136500Y554201D01*
X138000Y557201D01*
X136500Y554201D02*Y551201D01*
X139800Y554501D02*X142050D01*
X139800Y551201D02*X142800D01*
X139800Y557201D02*Y551201D01*
Y557201D02*X142800D01*
X147600D02*X148350Y556451D01*
X145350Y557201D02*X147600D01*
X144600Y556451D02*X145350Y557201D01*
X144600Y556451D02*Y554951D01*
X145350Y554201D01*
X147600D01*
X148350Y553451D01*
Y551951D01*
X147600Y551201D02*X148350Y551951D01*
X145350Y551201D02*X147600D01*
X144600Y551951D02*X145350Y551201D01*
X98000Y551951D02*X98750Y551201D01*
X98000Y553151D02*Y551951D01*
Y553151D02*X99050Y554201D01*
X99950D01*
X101000Y553151D01*
Y551951D01*
X100250Y551201D02*X101000Y551951D01*
X98750Y551201D02*X100250D01*
X98000Y555251D02*X99050Y554201D01*
X98000Y556451D02*Y555251D01*
Y556451D02*X98750Y557201D01*
X100250D01*
X101000Y556451D01*
Y555251D01*
X99950Y554201D02*X101000Y555251D01*
X102800Y556451D02*X103550Y557201D01*
X105800D01*
X106550Y556451D01*
Y554951D01*
X102800Y551201D02*X106550Y554951D01*
X102800Y551201D02*X106550D01*
X45000Y551951D02*X45750Y551201D01*
X45000Y556451D02*Y551951D01*
Y556451D02*X45750Y557201D01*
X47250D01*
X48000Y556451D01*
Y551951D01*
X47250Y551201D02*X48000Y551951D01*
X45750Y551201D02*X47250D01*
X45000Y552701D02*X48000Y555701D01*
X49800Y551201D02*X50550D01*
X52350Y551951D02*X53100Y551201D01*
X52350Y556451D02*Y551951D01*
Y556451D02*X53100Y557201D01*
X54600D01*
X55350Y556451D01*
Y551951D01*
X54600Y551201D02*X55350Y551951D01*
X53100Y551201D02*X54600D01*
X52350Y552701D02*X55350Y555701D01*
X57150Y556451D02*X57900Y557201D01*
X60150D01*
X60900Y556451D01*
Y554951D01*
X57150Y551201D02*X60900Y554951D01*
X57150Y551201D02*X60900D01*
X62700Y551951D02*X63450Y551201D01*
X62700Y556451D02*Y551951D01*
Y556451D02*X63450Y557201D01*
X64950D01*
X65700Y556451D01*
Y551951D01*
X64950Y551201D02*X65700Y551951D01*
X63450Y551201D02*X64950D01*
X62700Y552701D02*X65700Y555701D01*
X3000Y572201D02*X3750Y571451D01*
X750Y572201D02*X3000D01*
X0Y571451D02*X750Y572201D01*
X0Y571451D02*Y569951D01*
X750Y569201D01*
X3000D01*
X3750Y568451D01*
Y566951D01*
X3000Y566201D02*X3750Y566951D01*
X750Y566201D02*X3000D01*
X0Y566951D02*X750Y566201D01*
X5550Y569201D02*Y566951D01*
X6300Y566201D01*
X8550Y569201D02*Y564701D01*
X7800Y563951D02*X8550Y564701D01*
X6300Y563951D02*X7800D01*
X5550Y564701D02*X6300Y563951D01*
Y566201D02*X7800D01*
X8550Y566951D01*
X11100Y568451D02*Y566201D01*
Y568451D02*X11850Y569201D01*
X12600D01*
X13350Y568451D01*
Y566201D01*
Y568451D02*X14100Y569201D01*
X14850D01*
X15600Y568451D01*
Y566201D01*
X10350Y569201D02*X11100Y568451D01*
X17400Y572201D02*Y566201D01*
Y566951D02*X18150Y566201D01*
X19650D01*
X20400Y566951D01*
Y568451D02*Y566951D01*
X19650Y569201D02*X20400Y568451D01*
X18150Y569201D02*X19650D01*
X17400Y568451D02*X18150Y569201D01*
X22200Y568451D02*Y566951D01*
Y568451D02*X22950Y569201D01*
X24450D01*
X25200Y568451D01*
Y566951D01*
X24450Y566201D02*X25200Y566951D01*
X22950Y566201D02*X24450D01*
X22200Y566951D02*X22950Y566201D01*
X27000Y572201D02*Y566951D01*
X27750Y566201D01*
X0Y562951D02*X29250D01*
X41750Y572201D02*Y566201D01*
X43700Y572201D02*X44750Y571151D01*
Y567251D01*
X43700Y566201D02*X44750Y567251D01*
X41000Y566201D02*X43700D01*
X41000Y572201D02*X43700D01*
G54D111*X46550Y570701D02*Y570551D01*
G54D110*Y568451D02*Y566201D01*
X50300Y569201D02*X51050Y568451D01*
X48800Y569201D02*X50300D01*
X48050Y568451D02*X48800Y569201D01*
X48050Y568451D02*Y566951D01*
X48800Y566201D01*
X51050Y569201D02*Y566951D01*
X51800Y566201D01*
X48800D02*X50300D01*
X51050Y566951D01*
X54350Y568451D02*Y566201D01*
Y568451D02*X55100Y569201D01*
X55850D01*
X56600Y568451D01*
Y566201D01*
Y568451D02*X57350Y569201D01*
X58100D01*
X58850Y568451D01*
Y566201D01*
X53600Y569201D02*X54350Y568451D01*
X60650Y566201D02*X61400D01*
X65900Y566951D02*X66650Y566201D01*
X65900Y571451D02*X66650Y572201D01*
X65900Y571451D02*Y566951D01*
X68450Y572201D02*X69950D01*
X69200D02*Y566201D01*
X68450D02*X69950D01*
X72500Y568451D02*Y566201D01*
Y568451D02*X73250Y569201D01*
X74000D01*
X74750Y568451D01*
Y566201D01*
X71750Y569201D02*X72500Y568451D01*
X77300Y569201D02*X79550D01*
X76550Y568451D02*X77300Y569201D01*
X76550Y568451D02*Y566951D01*
X77300Y566201D01*
X79550D01*
X81350Y572201D02*Y566201D01*
Y568451D02*X82100Y569201D01*
X83600D01*
X84350Y568451D01*
Y566201D01*
X86150Y572201D02*X86900Y571451D01*
Y566951D01*
X86150Y566201D02*X86900Y566951D01*
X41000Y562951D02*X88700D01*
X96050Y566201D02*X98000D01*
X95000Y567251D02*X96050Y566201D01*
X95000Y571151D02*Y567251D01*
Y571151D02*X96050Y572201D01*
X98000D01*
X99800Y568451D02*Y566951D01*
Y568451D02*X100550Y569201D01*
X102050D01*
X102800Y568451D01*
Y566951D01*
X102050Y566201D02*X102800Y566951D01*
X100550Y566201D02*X102050D01*
X99800Y566951D02*X100550Y566201D01*
X104600Y569201D02*Y566951D01*
X105350Y566201D01*
X106850D01*
X107600Y566951D01*
Y569201D02*Y566951D01*
X110150Y568451D02*Y566201D01*
Y568451D02*X110900Y569201D01*
X111650D01*
X112400Y568451D01*
Y566201D01*
X109400Y569201D02*X110150Y568451D01*
X114950Y572201D02*Y566951D01*
X115700Y566201D01*
X114200Y569951D02*X115700D01*
X95000Y562951D02*X117200D01*
X130750Y572201D02*Y566201D01*
X130000Y572201D02*X133000D01*
X133750Y571451D01*
Y569951D01*
X133000Y569201D02*X133750Y569951D01*
X130750Y569201D02*X133000D01*
X135550Y572201D02*Y566951D01*
X136300Y566201D01*
X140050Y569201D02*X140800Y568451D01*
X138550Y569201D02*X140050D01*
X137800Y568451D02*X138550Y569201D01*
X137800Y568451D02*Y566951D01*
X138550Y566201D01*
X140800Y569201D02*Y566951D01*
X141550Y566201D01*
X138550D02*X140050D01*
X140800Y566951D01*
X144100Y572201D02*Y566951D01*
X144850Y566201D01*
X143350Y569951D02*X144850D01*
X147100Y566201D02*X149350D01*
X146350Y566951D02*X147100Y566201D01*
X146350Y568451D02*Y566951D01*
Y568451D02*X147100Y569201D01*
X148600D01*
X149350Y568451D01*
X146350Y567701D02*X149350D01*
Y568451D02*Y567701D01*
X154150Y572201D02*Y566201D01*
X153400D02*X154150Y566951D01*
X151900Y566201D02*X153400D01*
X151150Y566951D02*X151900Y566201D01*
X151150Y568451D02*Y566951D01*
Y568451D02*X151900Y569201D01*
X153400D01*
X154150Y568451D01*
X157450Y569201D02*Y568451D01*
Y566951D02*Y566201D01*
X155950Y571451D02*Y570701D01*
Y571451D02*X156700Y572201D01*
X158200D01*
X158950Y571451D01*
Y570701D01*
X157450Y569201D02*X158950Y570701D01*
X130000Y562951D02*X160750D01*
X0Y587201D02*X3000D01*
X1500D02*Y581201D01*
X4800Y587201D02*Y581201D01*
Y583451D02*X5550Y584201D01*
X7050D01*
X7800Y583451D01*
Y581201D01*
X10350D02*X12600D01*
X9600Y581951D02*X10350Y581201D01*
X9600Y583451D02*Y581951D01*
Y583451D02*X10350Y584201D01*
X11850D01*
X12600Y583451D01*
X9600Y582701D02*X12600D01*
Y583451D02*Y582701D01*
X15150Y583451D02*Y581201D01*
Y583451D02*X15900Y584201D01*
X17400D01*
X14400D02*X15150Y583451D01*
X19950Y581201D02*X22200D01*
X19200Y581951D02*X19950Y581201D01*
X19200Y583451D02*Y581951D01*
Y583451D02*X19950Y584201D01*
X21450D01*
X22200Y583451D01*
X19200Y582701D02*X22200D01*
Y583451D02*Y582701D01*
X28950Y584201D02*X29700Y583451D01*
X27450Y584201D02*X28950D01*
X26700Y583451D02*X27450Y584201D01*
X26700Y583451D02*Y581951D01*
X27450Y581201D01*
X29700Y584201D02*Y581951D01*
X30450Y581201D01*
X27450D02*X28950D01*
X29700Y581951D01*
X33000Y583451D02*Y581201D01*
Y583451D02*X33750Y584201D01*
X35250D01*
X32250D02*X33000Y583451D01*
X37800Y581201D02*X40050D01*
X37050Y581951D02*X37800Y581201D01*
X37050Y583451D02*Y581951D01*
Y583451D02*X37800Y584201D01*
X39300D01*
X40050Y583451D01*
X37050Y582701D02*X40050D01*
Y583451D02*Y582701D01*
X44550Y586001D02*X45750Y587201D01*
Y581201D01*
X44550D02*X46800D01*
X48600Y581951D02*X49350Y581201D01*
X48600Y586451D02*Y581951D01*
Y586451D02*X49350Y587201D01*
X50850D01*
X51600Y586451D01*
Y581951D01*
X50850Y581201D02*X51600Y581951D01*
X49350Y581201D02*X50850D01*
X48600Y582701D02*X51600Y585701D01*
X59100Y587201D02*Y581201D01*
X58350D02*X59100Y581951D01*
X56850Y581201D02*X58350D01*
X56100Y581951D02*X56850Y581201D01*
X56100Y583451D02*Y581951D01*
Y583451D02*X56850Y584201D01*
X58350D01*
X59100Y583451D01*
G54D111*X60900Y585701D02*Y585551D01*
G54D110*Y583451D02*Y581201D01*
X63150Y586451D02*Y581201D01*
Y586451D02*X63900Y587201D01*
X64650D01*
X62400Y584201D02*X63900D01*
X66900Y586451D02*Y581201D01*
Y586451D02*X67650Y587201D01*
X68400D01*
X66150Y584201D02*X67650D01*
X70650Y581201D02*X72900D01*
X69900Y581951D02*X70650Y581201D01*
X69900Y583451D02*Y581951D01*
Y583451D02*X70650Y584201D01*
X72150D01*
X72900Y583451D01*
X69900Y582701D02*X72900D01*
Y583451D02*Y582701D01*
X75450Y583451D02*Y581201D01*
Y583451D02*X76200Y584201D01*
X77700D01*
X74700D02*X75450Y583451D01*
X80250Y581201D02*X82500D01*
X79500Y581951D02*X80250Y581201D01*
X79500Y583451D02*Y581951D01*
Y583451D02*X80250Y584201D01*
X81750D01*
X82500Y583451D01*
X79500Y582701D02*X82500D01*
Y583451D02*Y582701D01*
X85050Y583451D02*Y581201D01*
Y583451D02*X85800Y584201D01*
X86550D01*
X87300Y583451D01*
Y581201D01*
X84300Y584201D02*X85050Y583451D01*
X89850Y587201D02*Y581951D01*
X90600Y581201D01*
X89100Y584951D02*X90600D01*
X97800Y587201D02*Y581201D01*
X97050D02*X97800Y581951D01*
X95550Y581201D02*X97050D01*
X94800Y581951D02*X95550Y581201D01*
X94800Y583451D02*Y581951D01*
Y583451D02*X95550Y584201D01*
X97050D01*
X97800Y583451D01*
X100350D02*Y581201D01*
Y583451D02*X101100Y584201D01*
X102600D01*
X99600D02*X100350Y583451D01*
G54D111*X104400Y585701D02*Y585551D01*
G54D110*Y583451D02*Y581201D01*
X105900Y587201D02*Y581951D01*
X106650Y581201D01*
X108150Y587201D02*Y581951D01*
X108900Y581201D01*
X113850D02*X116100D01*
X116850Y581951D01*
X116100Y582701D02*X116850Y581951D01*
X113850Y582701D02*X116100D01*
X113100Y583451D02*X113850Y582701D01*
X113100Y583451D02*X113850Y584201D01*
X116100D01*
X116850Y583451D01*
X113100Y581951D02*X113850Y581201D01*
G54D111*X118650Y585701D02*Y585551D01*
G54D110*Y583451D02*Y581201D01*
X120150Y584201D02*X123150D01*
X120150Y581201D02*X123150Y584201D01*
X120150Y581201D02*X123150D01*
X125700D02*X127950D01*
X124950Y581951D02*X125700Y581201D01*
X124950Y583451D02*Y581951D01*
Y583451D02*X125700Y584201D01*
X127200D01*
X127950Y583451D01*
X124950Y582701D02*X127950D01*
Y583451D02*Y582701D01*
X130500Y581201D02*X132750D01*
X133500Y581951D01*
X132750Y582701D02*X133500Y581951D01*
X130500Y582701D02*X132750D01*
X129750Y583451D02*X130500Y582701D01*
X129750Y583451D02*X130500Y584201D01*
X132750D01*
X133500Y583451D01*
X129750Y581951D02*X130500Y581201D01*
X138000Y584201D02*Y581951D01*
X138750Y581201D01*
X140250D01*
X141000Y581951D01*
Y584201D02*Y581951D01*
X143550Y581201D02*X145800D01*
X146550Y581951D01*
X145800Y582701D02*X146550Y581951D01*
X143550Y582701D02*X145800D01*
X142800Y583451D02*X143550Y582701D01*
X142800Y583451D02*X143550Y584201D01*
X145800D01*
X146550Y583451D01*
X142800Y581951D02*X143550Y581201D01*
X149100D02*X151350D01*
X148350Y581951D02*X149100Y581201D01*
X148350Y583451D02*Y581951D01*
Y583451D02*X149100Y584201D01*
X150600D01*
X151350Y583451D01*
X148350Y582701D02*X151350D01*
Y583451D02*Y582701D01*
X156150Y587201D02*Y581201D01*
X155400D02*X156150Y581951D01*
X153900Y581201D02*X155400D01*
X153150Y581951D02*X153900Y581201D01*
X153150Y583451D02*Y581951D01*
Y583451D02*X153900Y584201D01*
X155400D01*
X156150Y583451D01*
G54D111*X160650Y585701D02*Y585551D01*
G54D110*Y583451D02*Y581201D01*
X162900Y583451D02*Y581201D01*
Y583451D02*X163650Y584201D01*
X164400D01*
X165150Y583451D01*
Y581201D01*
X162150Y584201D02*X162900Y583451D01*
X170400Y587201D02*Y581951D01*
X171150Y581201D01*
X169650Y584951D02*X171150D01*
X172650Y587201D02*Y581201D01*
Y583451D02*X173400Y584201D01*
X174900D01*
X175650Y583451D01*
Y581201D01*
G54D111*X177450Y585701D02*Y585551D01*
G54D110*Y583451D02*Y581201D01*
X179700D02*X181950D01*
X182700Y581951D01*
X181950Y582701D02*X182700Y581951D01*
X179700Y582701D02*X181950D01*
X178950Y583451D02*X179700Y582701D01*
X178950Y583451D02*X179700Y584201D01*
X181950D01*
X182700Y583451D01*
X178950Y581951D02*X179700Y581201D01*
X187200Y587201D02*Y581951D01*
X187950Y581201D01*
X191700Y584201D02*X192450Y583451D01*
X190200Y584201D02*X191700D01*
X189450Y583451D02*X190200Y584201D01*
X189450Y583451D02*Y581951D01*
X190200Y581201D01*
X192450Y584201D02*Y581951D01*
X193200Y581201D01*
X190200D02*X191700D01*
X192450Y581951D01*
X195000Y584201D02*Y581951D01*
X195750Y581201D01*
X198000Y584201D02*Y579701D01*
X197250Y578951D02*X198000Y579701D01*
X195750Y578951D02*X197250D01*
X195000Y579701D02*X195750Y578951D01*
Y581201D02*X197250D01*
X198000Y581951D01*
X199800Y583451D02*Y581951D01*
Y583451D02*X200550Y584201D01*
X202050D01*
X202800Y583451D01*
Y581951D01*
X202050Y581201D02*X202800Y581951D01*
X200550Y581201D02*X202050D01*
X199800Y581951D02*X200550Y581201D01*
X204600Y584201D02*Y581951D01*
X205350Y581201D01*
X206850D01*
X207600Y581951D01*
Y584201D02*Y581951D01*
X210150Y587201D02*Y581951D01*
X210900Y581201D01*
X209400Y584951D02*X210900D01*
X212400Y579701D02*X213900Y581201D01*
X218400Y586451D02*X219150Y587201D01*
X221400D01*
X222150Y586451D01*
Y584951D01*
X218400Y581201D02*X222150Y584951D01*
X218400Y581201D02*X222150D01*
X223950Y587201D02*X226950D01*
X223950D02*Y584201D01*
X224700Y584951D01*
X226200D01*
X226950Y584201D01*
Y581951D01*
X226200Y581201D02*X226950Y581951D01*
X224700Y581201D02*X226200D01*
X223950Y581951D02*X224700Y581201D01*
X228750Y587201D02*X231750D01*
X228750D02*Y584201D01*
X229500Y584951D01*
X231000D01*
X231750Y584201D01*
Y581951D01*
X231000Y581201D02*X231750Y581951D01*
X229500Y581201D02*X231000D01*
X228750Y581951D02*X229500Y581201D01*
X236250Y587201D02*Y581201D01*
Y583451D02*X237000Y584201D01*
X238500D01*
X239250Y583451D01*
Y581201D01*
X241050Y583451D02*Y581951D01*
Y583451D02*X241800Y584201D01*
X243300D01*
X244050Y583451D01*
Y581951D01*
X243300Y581201D02*X244050Y581951D01*
X241800Y581201D02*X243300D01*
X241050Y581951D02*X241800Y581201D01*
X245850Y587201D02*Y581951D01*
X246600Y581201D01*
X248850D02*X251100D01*
X248100Y581951D02*X248850Y581201D01*
X248100Y583451D02*Y581951D01*
Y583451D02*X248850Y584201D01*
X250350D01*
X251100Y583451D01*
X248100Y582701D02*X251100D01*
Y583451D02*Y582701D01*
X253650Y581201D02*X255900D01*
X256650Y581951D01*
X255900Y582701D02*X256650Y581951D01*
X253650Y582701D02*X255900D01*
X252900Y583451D02*X253650Y582701D01*
X252900Y583451D02*X253650Y584201D01*
X255900D01*
X256650Y583451D01*
X252900Y581951D02*X253650Y581201D01*
X261900Y587201D02*Y581951D01*
X262650Y581201D01*
X261150Y584951D02*X262650D01*
X264150Y583451D02*Y581951D01*
Y583451D02*X264900Y584201D01*
X266400D01*
X267150Y583451D01*
Y581951D01*
X266400Y581201D02*X267150Y581951D01*
X264900Y581201D02*X266400D01*
X264150Y581951D02*X264900Y581201D01*
X269700Y587201D02*Y581951D01*
X270450Y581201D01*
X268950Y584951D02*X270450D01*
X274200Y584201D02*X274950Y583451D01*
X272700Y584201D02*X274200D01*
X271950Y583451D02*X272700Y584201D01*
X271950Y583451D02*Y581951D01*
X272700Y581201D01*
X274950Y584201D02*Y581951D01*
X275700Y581201D01*
X272700D02*X274200D01*
X274950Y581951D01*
X277500Y587201D02*Y581951D01*
X278250Y581201D01*
G54D112*X0Y393701D02*X314961D01*
X0D02*Y0D01*
X314961Y393701D02*Y0D01*
X0D02*X314961D01*
G54D110*X200000Y407201D02*Y401201D01*
Y407201D02*X202250Y404201D01*
X204500Y407201D01*
Y401201D01*
X208550Y404201D02*X209300Y403451D01*
X207050Y404201D02*X208550D01*
X206300Y403451D02*X207050Y404201D01*
X206300Y403451D02*Y401951D01*
X207050Y401201D01*
X209300Y404201D02*Y401951D01*
X210050Y401201D01*
X207050D02*X208550D01*
X209300Y401951D01*
X211850Y404201D02*X214850Y401201D01*
X211850D02*X214850Y404201D01*
G54D111*X216650Y405701D02*Y405551D01*
G54D110*Y403451D02*Y401201D01*
X218900Y403451D02*Y401201D01*
Y403451D02*X219650Y404201D01*
X220400D01*
X221150Y403451D01*
Y401201D01*
Y403451D02*X221900Y404201D01*
X222650D01*
X223400Y403451D01*
Y401201D01*
X218150Y404201D02*X218900Y403451D01*
X225200Y404201D02*Y401951D01*
X225950Y401201D01*
X227450D01*
X228200Y401951D01*
Y404201D02*Y401951D01*
X230750Y403451D02*Y401201D01*
Y403451D02*X231500Y404201D01*
X232250D01*
X233000Y403451D01*
Y401201D01*
Y403451D02*X233750Y404201D01*
X234500D01*
X235250Y403451D01*
Y401201D01*
X230000Y404201D02*X230750Y403451D01*
X240500Y407201D02*Y401201D01*
X242450Y407201D02*X243500Y406151D01*
Y402251D01*
X242450Y401201D02*X243500Y402251D01*
X239750Y401201D02*X242450D01*
X239750Y407201D02*X242450D01*
G54D111*X245300Y405701D02*Y405551D01*
G54D110*Y403451D02*Y401201D01*
X247550Y403451D02*Y401201D01*
Y403451D02*X248300Y404201D01*
X249050D01*
X249800Y403451D01*
Y401201D01*
Y403451D02*X250550Y404201D01*
X251300D01*
X252050Y403451D01*
Y401201D01*
X246800Y404201D02*X247550Y403451D01*
X254600Y401201D02*X256850D01*
X253850Y401951D02*X254600Y401201D01*
X253850Y403451D02*Y401951D01*
Y403451D02*X254600Y404201D01*
X256100D01*
X256850Y403451D01*
X253850Y402701D02*X256850D01*
Y403451D02*Y402701D01*
X259400Y403451D02*Y401201D01*
Y403451D02*X260150Y404201D01*
X260900D01*
X261650Y403451D01*
Y401201D01*
X258650Y404201D02*X259400Y403451D01*
X264200Y401201D02*X266450D01*
X267200Y401951D01*
X266450Y402701D02*X267200Y401951D01*
X264200Y402701D02*X266450D01*
X263450Y403451D02*X264200Y402701D01*
X263450Y403451D02*X264200Y404201D01*
X266450D01*
X267200Y403451D01*
X263450Y401951D02*X264200Y401201D01*
G54D111*X269000Y405701D02*Y405551D01*
G54D110*Y403451D02*Y401201D01*
X270500Y403451D02*Y401951D01*
Y403451D02*X271250Y404201D01*
X272750D01*
X273500Y403451D01*
Y401951D01*
X272750Y401201D02*X273500Y401951D01*
X271250Y401201D02*X272750D01*
X270500Y401951D02*X271250Y401201D01*
X276050Y403451D02*Y401201D01*
Y403451D02*X276800Y404201D01*
X277550D01*
X278300Y403451D01*
Y401201D01*
X275300Y404201D02*X276050Y403451D01*
X280850Y401201D02*X283100D01*
X283850Y401951D01*
X283100Y402701D02*X283850Y401951D01*
X280850Y402701D02*X283100D01*
X280100Y403451D02*X280850Y402701D01*
X280100Y403451D02*X280850Y404201D01*
X283100D01*
X283850Y403451D01*
X280100Y401951D02*X280850Y401201D01*
X285650Y404951D02*X286400D01*
X285650Y403451D02*X286400D01*
X290900Y406451D02*X291650Y407201D01*
X293150D01*
X293900Y406451D01*
X293150Y401201D02*X293900Y401951D01*
X291650Y401201D02*X293150D01*
X290900Y401951D02*X291650Y401201D01*
Y404501D02*X293150D01*
X293900Y406451D02*Y405251D01*
Y403751D02*Y401951D01*
Y403751D02*X293150Y404501D01*
X293900Y405251D02*X293150Y404501D01*
X295700Y406001D02*X296900Y407201D01*
Y401201D01*
X295700D02*X297950D01*
X299750Y403451D02*X302750Y407201D01*
X299750Y403451D02*X303500D01*
X302750Y407201D02*Y401201D01*
X306050D02*X308300Y404201D01*
Y406451D02*Y404201D01*
X307550Y407201D02*X308300Y406451D01*
X306050Y407201D02*X307550D01*
X305300Y406451D02*X306050Y407201D01*
X305300Y406451D02*Y404951D01*
X306050Y404201D01*
X308300D01*
X310100Y401201D02*X310850D01*
X314900Y407201D02*X315650Y406451D01*
X313400Y407201D02*X314900D01*
X312650Y406451D02*X313400Y407201D01*
X312650Y406451D02*Y401951D01*
X313400Y401201D01*
X314900Y404501D02*X315650Y403751D01*
X312650Y404501D02*X314900D01*
X313400Y401201D02*X314900D01*
X315650Y401951D01*
Y403751D02*Y401951D01*
X317450D02*X318200Y401201D01*
X317450Y406451D02*Y401951D01*
Y406451D02*X318200Y407201D01*
X319700D01*
X320450Y406451D01*
Y401951D01*
X319700Y401201D02*X320450Y401951D01*
X318200Y401201D02*X319700D01*
X317450Y402701D02*X320450Y405701D01*
X324500Y407201D02*X325250Y406451D01*
X323000Y407201D02*X324500D01*
X322250Y406451D02*X323000Y407201D01*
X322250Y406451D02*Y401951D01*
X323000Y401201D01*
X324500Y404501D02*X325250Y403751D01*
X322250Y404501D02*X324500D01*
X323000Y401201D02*X324500D01*
X325250Y401951D01*
Y403751D02*Y401951D01*
X327050Y406451D02*X327800Y407201D01*
X330050D01*
X330800Y406451D01*
Y404951D01*
X327050Y401201D02*X330800Y404951D01*
X327050Y401201D02*X330800D01*
X333350D02*X335600Y404201D01*
Y406451D02*Y404201D01*
X334850Y407201D02*X335600Y406451D01*
X333350Y407201D02*X334850D01*
X332600Y406451D02*X333350Y407201D01*
X332600Y406451D02*Y404951D01*
X333350Y404201D01*
X335600D01*
X338150Y401201D02*X340400Y404201D01*
Y406451D02*Y404201D01*
X339650Y407201D02*X340400Y406451D01*
X338150Y407201D02*X339650D01*
X337400Y406451D02*X338150Y407201D01*
X337400Y406451D02*Y404951D01*
X338150Y404201D01*
X340400D01*
X345650Y403451D02*Y401201D01*
Y403451D02*X346400Y404201D01*
X347150D01*
X347900Y403451D01*
Y401201D01*
Y403451D02*X348650Y404201D01*
X349400D01*
X350150Y403451D01*
Y401201D01*
X344900Y404201D02*X345650Y403451D01*
G54D111*X351950Y405701D02*Y405551D01*
G54D110*Y403451D02*Y401201D01*
X353450Y407201D02*Y401951D01*
X354200Y401201D01*
X356450D02*X358700D01*
X359450Y401951D01*
X358700Y402701D02*X359450Y401951D01*
X356450Y402701D02*X358700D01*
X355700Y403451D02*X356450Y402701D01*
X355700Y403451D02*X356450Y404201D01*
X358700D01*
X359450Y403451D01*
X355700Y401951D02*X356450Y401201D01*
X363950Y404201D02*Y401951D01*
X364700Y401201D01*
X365450D01*
X366200Y401951D01*
Y404201D02*Y401951D01*
X366950Y401201D01*
X367700D01*
X368450Y401951D01*
Y404201D02*Y401951D01*
G54D111*X370250Y405701D02*Y405551D01*
G54D110*Y403451D02*Y401201D01*
X374750Y407201D02*Y401201D01*
X374000D02*X374750Y401951D01*
X372500Y401201D02*X374000D01*
X371750Y401951D02*X372500Y401201D01*
X371750Y403451D02*Y401951D01*
Y403451D02*X372500Y404201D01*
X374000D01*
X374750Y403451D01*
X377300Y401201D02*X379550D01*
X376550Y401951D02*X377300Y401201D01*
X376550Y403451D02*Y401951D01*
Y403451D02*X377300Y404201D01*
X378800D01*
X379550Y403451D01*
X376550Y402701D02*X379550D01*
Y403451D02*Y402701D01*
X381350Y399701D02*X382850Y401201D01*
X387350Y406451D02*X388100Y407201D01*
X389600D01*
X390350Y406451D01*
X389600Y401201D02*X390350Y401951D01*
X388100Y401201D02*X389600D01*
X387350Y401951D02*X388100Y401201D01*
Y404501D02*X389600D01*
X390350Y406451D02*Y405251D01*
Y403751D02*Y401951D01*
Y403751D02*X389600Y404501D01*
X390350Y405251D02*X389600Y404501D01*
X392900Y401201D02*X395150Y404201D01*
Y406451D02*Y404201D01*
X394400Y407201D02*X395150Y406451D01*
X392900Y407201D02*X394400D01*
X392150Y406451D02*X392900Y407201D01*
X392150Y406451D02*Y404951D01*
X392900Y404201D01*
X395150D01*
X396950Y406451D02*X397700Y407201D01*
X399200D01*
X399950Y406451D01*
X399200Y401201D02*X399950Y401951D01*
X397700Y401201D02*X399200D01*
X396950Y401951D02*X397700Y401201D01*
Y404501D02*X399200D01*
X399950Y406451D02*Y405251D01*
Y403751D02*Y401951D01*
Y403751D02*X399200Y404501D01*
X399950Y405251D02*X399200Y404501D01*
X402500Y401201D02*X405500Y407201D01*
X401750D02*X405500D01*
X407300Y401201D02*X408050D01*
X409850Y401951D02*X410600Y401201D01*
X409850Y406451D02*Y401951D01*
Y406451D02*X410600Y407201D01*
X412100D01*
X412850Y406451D01*
Y401951D01*
X412100Y401201D02*X412850Y401951D01*
X410600Y401201D02*X412100D01*
X409850Y402701D02*X412850Y405701D01*
X414650Y401951D02*X415400Y401201D01*
X414650Y406451D02*Y401951D01*
Y406451D02*X415400Y407201D01*
X416900D01*
X417650Y406451D01*
Y401951D01*
X416900Y401201D02*X417650Y401951D01*
X415400Y401201D02*X416900D01*
X414650Y402701D02*X417650Y405701D01*
X420200Y401201D02*X423200Y407201D01*
X419450D02*X423200D01*
X425000Y401951D02*X425750Y401201D01*
X425000Y403151D02*Y401951D01*
Y403151D02*X426050Y404201D01*
X426950D01*
X428000Y403151D01*
Y401951D01*
X427250Y401201D02*X428000Y401951D01*
X425750Y401201D02*X427250D01*
X425000Y405251D02*X426050Y404201D01*
X425000Y406451D02*Y405251D01*
Y406451D02*X425750Y407201D01*
X427250D01*
X428000Y406451D01*
Y405251D01*
X426950Y404201D02*X428000Y405251D01*
X430550Y401201D02*X433550Y407201D01*
X429800D02*X433550D01*
X435350Y403451D02*X438350Y407201D01*
X435350Y403451D02*X439100D01*
X438350Y407201D02*Y401201D01*
X444350Y403451D02*Y401201D01*
Y403451D02*X445100Y404201D01*
X445850D01*
X446600Y403451D01*
Y401201D01*
Y403451D02*X447350Y404201D01*
X448100D01*
X448850Y403451D01*
Y401201D01*
X443600Y404201D02*X444350Y403451D01*
G54D111*X450650Y405701D02*Y405551D01*
G54D110*Y403451D02*Y401201D01*
X452150Y407201D02*Y401951D01*
X452900Y401201D01*
X455150D02*X457400D01*
X458150Y401951D01*
X457400Y402701D02*X458150Y401951D01*
X455150Y402701D02*X457400D01*
X454400Y403451D02*X455150Y402701D01*
X454400Y403451D02*X455150Y404201D01*
X457400D01*
X458150Y403451D01*
X454400Y401951D02*X455150Y401201D01*
X462650Y407201D02*Y401201D01*
Y403451D02*X463400Y404201D01*
X464900D01*
X465650Y403451D01*
Y401201D01*
G54D111*X467450Y405701D02*Y405551D01*
G54D110*Y403451D02*Y401201D01*
X471200Y404201D02*X471950Y403451D01*
X469700Y404201D02*X471200D01*
X468950Y403451D02*X469700Y404201D01*
X468950Y403451D02*Y401951D01*
X469700Y401201D01*
X471200D01*
X471950Y401951D01*
X468950Y399701D02*X469700Y398951D01*
X471200D01*
X471950Y399701D01*
Y404201D02*Y399701D01*
X473750Y407201D02*Y401201D01*
Y403451D02*X474500Y404201D01*
X476000D01*
X476750Y403451D01*
Y401201D01*
X0Y-9500D02*X3000D01*
X3750Y-8750D01*
Y-6950D02*Y-8750D01*
X3000Y-6200D02*X3750Y-6950D01*
X750Y-6200D02*X3000D01*
X750Y-3500D02*Y-9500D01*
X0Y-3500D02*X3000D01*
X3750Y-4250D01*
Y-5450D01*
X3000Y-6200D02*X3750Y-5450D01*
X5550Y-7250D02*Y-8750D01*
Y-7250D02*X6300Y-6500D01*
X7800D01*
X8550Y-7250D01*
Y-8750D01*
X7800Y-9500D02*X8550Y-8750D01*
X6300Y-9500D02*X7800D01*
X5550Y-8750D02*X6300Y-9500D01*
X12600Y-6500D02*X13350Y-7250D01*
X11100Y-6500D02*X12600D01*
X10350Y-7250D02*X11100Y-6500D01*
X10350Y-7250D02*Y-8750D01*
X11100Y-9500D01*
X13350Y-6500D02*Y-8750D01*
X14100Y-9500D01*
X11100D02*X12600D01*
X13350Y-8750D01*
X16650Y-7250D02*Y-9500D01*
Y-7250D02*X17400Y-6500D01*
X18900D01*
X15900D02*X16650Y-7250D01*
X23700Y-3500D02*Y-9500D01*
X22950D02*X23700Y-8750D01*
X21450Y-9500D02*X22950D01*
X20700Y-8750D02*X21450Y-9500D01*
X20700Y-7250D02*Y-8750D01*
Y-7250D02*X21450Y-6500D01*
X22950D01*
X23700Y-7250D01*
X28200D02*Y-8750D01*
Y-7250D02*X28950Y-6500D01*
X30450D01*
X31200Y-7250D01*
Y-8750D01*
X30450Y-9500D02*X31200Y-8750D01*
X28950Y-9500D02*X30450D01*
X28200Y-8750D02*X28950Y-9500D01*
X33000Y-6500D02*Y-8750D01*
X33750Y-9500D01*
X35250D01*
X36000Y-8750D01*
Y-6500D02*Y-8750D01*
X38550Y-3500D02*Y-8750D01*
X39300Y-9500D01*
X37800Y-5750D02*X39300D01*
X40800Y-3500D02*Y-8750D01*
X41550Y-9500D01*
G54D111*X43050Y-5000D02*Y-5150D01*
G54D110*Y-7250D02*Y-9500D01*
X45300Y-7250D02*Y-9500D01*
Y-7250D02*X46050Y-6500D01*
X46800D01*
X47550Y-7250D01*
Y-9500D01*
X44550Y-6500D02*X45300Y-7250D01*
X50100Y-9500D02*X52350D01*
X49350Y-8750D02*X50100Y-9500D01*
X49350Y-7250D02*Y-8750D01*
Y-7250D02*X50100Y-6500D01*
X51600D01*
X52350Y-7250D01*
X49350Y-8000D02*X52350D01*
Y-7250D02*Y-8000D01*
G54D111*X56850Y-5000D02*Y-5150D01*
G54D110*Y-7250D02*Y-9500D01*
X59100D02*X61350D01*
X62100Y-8750D01*
X61350Y-8000D02*X62100Y-8750D01*
X59100Y-8000D02*X61350D01*
X58350Y-7250D02*X59100Y-8000D01*
X58350Y-7250D02*X59100Y-6500D01*
X61350D01*
X62100Y-7250D01*
X58350Y-8750D02*X59100Y-9500D01*
X67350Y-3500D02*Y-8750D01*
X68100Y-9500D01*
X66600Y-5750D02*X68100D01*
X69600Y-3500D02*Y-9500D01*
Y-7250D02*X70350Y-6500D01*
X71850D01*
X72600Y-7250D01*
Y-9500D01*
X75150D02*X77400D01*
X74400Y-8750D02*X75150Y-9500D01*
X74400Y-7250D02*Y-8750D01*
Y-7250D02*X75150Y-6500D01*
X76650D01*
X77400Y-7250D01*
X74400Y-8000D02*X77400D01*
Y-7250D02*Y-8000D01*
X82650Y-6500D02*X84900D01*
X81900Y-7250D02*X82650Y-6500D01*
X81900Y-7250D02*Y-8750D01*
X82650Y-9500D01*
X84900D01*
X87450D02*X89700D01*
X86700Y-8750D02*X87450Y-9500D01*
X86700Y-7250D02*Y-8750D01*
Y-7250D02*X87450Y-6500D01*
X88950D01*
X89700Y-7250D01*
X86700Y-8000D02*X89700D01*
Y-7250D02*Y-8000D01*
X92250Y-7250D02*Y-9500D01*
Y-7250D02*X93000Y-6500D01*
X93750D01*
X94500Y-7250D01*
Y-9500D01*
X91500Y-6500D02*X92250Y-7250D01*
X97050Y-3500D02*Y-8750D01*
X97800Y-9500D01*
X96300Y-5750D02*X97800D01*
X100050Y-9500D02*X102300D01*
X99300Y-8750D02*X100050Y-9500D01*
X99300Y-7250D02*Y-8750D01*
Y-7250D02*X100050Y-6500D01*
X101550D01*
X102300Y-7250D01*
X99300Y-8000D02*X102300D01*
Y-7250D02*Y-8000D01*
X104850Y-7250D02*Y-9500D01*
Y-7250D02*X105600Y-6500D01*
X107100D01*
X104100D02*X104850Y-7250D01*
X108900Y-3500D02*Y-8750D01*
X109650Y-9500D01*
G54D111*X111150Y-5000D02*Y-5150D01*
G54D110*Y-7250D02*Y-9500D01*
X113400Y-7250D02*Y-9500D01*
Y-7250D02*X114150Y-6500D01*
X114900D01*
X115650Y-7250D01*
Y-9500D01*
X112650Y-6500D02*X113400Y-7250D01*
X118200Y-9500D02*X120450D01*
X117450Y-8750D02*X118200Y-9500D01*
X117450Y-7250D02*Y-8750D01*
Y-7250D02*X118200Y-6500D01*
X119700D01*
X120450Y-7250D01*
X117450Y-8000D02*X120450D01*
Y-7250D02*Y-8000D01*
X124950Y-7250D02*Y-8750D01*
Y-7250D02*X125700Y-6500D01*
X127200D01*
X127950Y-7250D01*
Y-8750D01*
X127200Y-9500D02*X127950Y-8750D01*
X125700Y-9500D02*X127200D01*
X124950Y-8750D02*X125700Y-9500D01*
X130500Y-4250D02*Y-9500D01*
Y-4250D02*X131250Y-3500D01*
X132000D01*
X129750Y-6500D02*X131250D01*
X136950Y-3500D02*Y-8750D01*
X137700Y-9500D01*
X136200Y-5750D02*X137700D01*
X139200Y-3500D02*Y-9500D01*
Y-7250D02*X139950Y-6500D01*
X141450D01*
X142200Y-7250D01*
Y-9500D01*
G54D111*X144000Y-5000D02*Y-5150D01*
G54D110*Y-7250D02*Y-9500D01*
X146250D02*X148500D01*
X149250Y-8750D01*
X148500Y-8000D02*X149250Y-8750D01*
X146250Y-8000D02*X148500D01*
X145500Y-7250D02*X146250Y-8000D01*
X145500Y-7250D02*X146250Y-6500D01*
X148500D01*
X149250Y-7250D01*
X145500Y-8750D02*X146250Y-9500D01*
X153750Y-8750D02*X154500Y-9500D01*
X153750Y-7550D02*Y-8750D01*
Y-7550D02*X154800Y-6500D01*
X155700D01*
X156750Y-7550D01*
Y-8750D01*
X156000Y-9500D02*X156750Y-8750D01*
X154500Y-9500D02*X156000D01*
X153750Y-5450D02*X154800Y-6500D01*
X153750Y-4250D02*Y-5450D01*
Y-4250D02*X154500Y-3500D01*
X156000D01*
X156750Y-4250D01*
Y-5450D01*
X155700Y-6500D02*X156750Y-5450D01*
X158550Y-9500D02*X159300D01*
X161100Y-8750D02*X161850Y-9500D01*
X161100Y-4250D02*Y-8750D01*
Y-4250D02*X161850Y-3500D01*
X163350D01*
X164100Y-4250D01*
Y-8750D01*
X163350Y-9500D02*X164100Y-8750D01*
X161850Y-9500D02*X163350D01*
X161100Y-8000D02*X164100Y-5000D01*
X165900Y-8750D02*X166650Y-9500D01*
X165900Y-4250D02*Y-8750D01*
Y-4250D02*X166650Y-3500D01*
X168150D01*
X168900Y-4250D01*
Y-8750D01*
X168150Y-9500D02*X168900Y-8750D01*
X166650Y-9500D02*X168150D01*
X165900Y-8000D02*X168900Y-5000D01*
X170700Y-8750D02*X171450Y-9500D01*
X170700Y-4250D02*Y-8750D01*
Y-4250D02*X171450Y-3500D01*
X172950D01*
X173700Y-4250D01*
Y-8750D01*
X172950Y-9500D02*X173700Y-8750D01*
X171450Y-9500D02*X172950D01*
X170700Y-8000D02*X173700Y-5000D01*
X175500Y-8750D02*X176250Y-9500D01*
X175500Y-4250D02*Y-8750D01*
Y-4250D02*X176250Y-3500D01*
X177750D01*
X178500Y-4250D01*
Y-8750D01*
X177750Y-9500D02*X178500Y-8750D01*
X176250Y-9500D02*X177750D01*
X175500Y-8000D02*X178500Y-5000D01*
X180300Y-8750D02*X181050Y-9500D01*
X180300Y-4250D02*Y-8750D01*
Y-4250D02*X181050Y-3500D01*
X182550D01*
X183300Y-4250D01*
Y-8750D01*
X182550Y-9500D02*X183300Y-8750D01*
X181050Y-9500D02*X182550D01*
X180300Y-8000D02*X183300Y-5000D01*
X185100Y-8750D02*X185850Y-9500D01*
X185100Y-4250D02*Y-8750D01*
Y-4250D02*X185850Y-3500D01*
X187350D01*
X188100Y-4250D01*
Y-8750D01*
X187350Y-9500D02*X188100Y-8750D01*
X185850Y-9500D02*X187350D01*
X185100Y-8000D02*X188100Y-5000D01*
X193350Y-7250D02*Y-9500D01*
Y-7250D02*X194100Y-6500D01*
X194850D01*
X195600Y-7250D01*
Y-9500D01*
Y-7250D02*X196350Y-6500D01*
X197100D01*
X197850Y-7250D01*
Y-9500D01*
X192600Y-6500D02*X193350Y-7250D01*
G54D111*X199650Y-5000D02*Y-5150D01*
G54D110*Y-7250D02*Y-9500D01*
X201150Y-3500D02*Y-8750D01*
X201900Y-9500D01*
X206850Y-7250D02*Y-9500D01*
Y-7250D02*X207600Y-6500D01*
X209100D01*
X206100D02*X206850Y-7250D01*
X211650Y-9500D02*X213900D01*
X210900Y-8750D02*X211650Y-9500D01*
X210900Y-7250D02*Y-8750D01*
Y-7250D02*X211650Y-6500D01*
X213150D01*
X213900Y-7250D01*
X210900Y-8000D02*X213900D01*
Y-7250D02*Y-8000D01*
X216450Y-6500D02*X218700D01*
X215700Y-7250D02*X216450Y-6500D01*
X215700Y-7250D02*Y-8750D01*
X216450Y-9500D01*
X218700D01*
X221250Y-3500D02*Y-8750D01*
X222000Y-9500D01*
X220500Y-5750D02*X222000D01*
X225750Y-6500D02*X226500Y-7250D01*
X224250Y-6500D02*X225750D01*
X223500Y-7250D02*X224250Y-6500D01*
X223500Y-7250D02*Y-8750D01*
X224250Y-9500D01*
X226500Y-6500D02*Y-8750D01*
X227250Y-9500D01*
X224250D02*X225750D01*
X226500Y-8750D01*
X229800Y-7250D02*Y-9500D01*
Y-7250D02*X230550Y-6500D01*
X231300D01*
X232050Y-7250D01*
Y-9500D01*
X229050Y-6500D02*X229800Y-7250D01*
X236100Y-6500D02*X236850Y-7250D01*
X234600Y-6500D02*X236100D01*
X233850Y-7250D02*X234600Y-6500D01*
X233850Y-7250D02*Y-8750D01*
X234600Y-9500D01*
X236100D01*
X236850Y-8750D01*
X233850Y-11000D02*X234600Y-11750D01*
X236100D01*
X236850Y-11000D01*
Y-6500D02*Y-11000D01*
X238650Y-3500D02*Y-8750D01*
X239400Y-9500D01*
X241650D02*X243900D01*
X240900Y-8750D02*X241650Y-9500D01*
X240900Y-7250D02*Y-8750D01*
Y-7250D02*X241650Y-6500D01*
X243150D01*
X243900Y-7250D01*
X240900Y-8000D02*X243900D01*
Y-7250D02*Y-8000D01*
X248400Y-6500D02*X251400D01*
X255900Y-8750D02*X256650Y-9500D01*
X255900Y-4250D02*Y-8750D01*
Y-4250D02*X256650Y-3500D01*
X258150D01*
X258900Y-4250D01*
Y-8750D01*
X258150Y-9500D02*X258900Y-8750D01*
X256650Y-9500D02*X258150D01*
X255900Y-8000D02*X258900Y-5000D01*
X260700Y-11000D02*X262200Y-9500D01*
X264000Y-8750D02*X264750Y-9500D01*
X264000Y-4250D02*Y-8750D01*
Y-4250D02*X264750Y-3500D01*
X266250D01*
X267000Y-4250D01*
Y-8750D01*
X266250Y-9500D02*X267000Y-8750D01*
X264750Y-9500D02*X266250D01*
X264000Y-8000D02*X267000Y-5000D01*
X272250Y-3500D02*Y-8750D01*
X273000Y-9500D01*
X271500Y-5750D02*X273000D01*
X274500Y-7250D02*Y-8750D01*
Y-7250D02*X275250Y-6500D01*
X276750D01*
X277500Y-7250D01*
Y-8750D01*
X276750Y-9500D02*X277500Y-8750D01*
X275250Y-9500D02*X276750D01*
X274500Y-8750D02*X275250Y-9500D01*
X282000Y-4250D02*X282750Y-3500D01*
X284250D01*
X285000Y-4250D01*
X284250Y-9500D02*X285000Y-8750D01*
X282750Y-9500D02*X284250D01*
X282000Y-8750D02*X282750Y-9500D01*
Y-6200D02*X284250D01*
X285000Y-4250D02*Y-5450D01*
Y-6950D02*Y-8750D01*
Y-6950D02*X284250Y-6200D01*
X285000Y-5450D02*X284250Y-6200D01*
X286800Y-4700D02*X288000Y-3500D01*
Y-9500D01*
X286800D02*X289050D01*
X290850Y-7250D02*X293850Y-3500D01*
X290850Y-7250D02*X294600D01*
X293850Y-3500D02*Y-9500D01*
X297150D02*X299400Y-6500D01*
Y-4250D02*Y-6500D01*
X298650Y-3500D02*X299400Y-4250D01*
X297150Y-3500D02*X298650D01*
X296400Y-4250D02*X297150Y-3500D01*
X296400Y-4250D02*Y-5750D01*
X297150Y-6500D01*
X299400D01*
X301200Y-9500D02*X301950D01*
X306000Y-3500D02*X306750Y-4250D01*
X304500Y-3500D02*X306000D01*
X303750Y-4250D02*X304500Y-3500D01*
X303750Y-4250D02*Y-8750D01*
X304500Y-9500D01*
X306000Y-6200D02*X306750Y-6950D01*
X303750Y-6200D02*X306000D01*
X304500Y-9500D02*X306000D01*
X306750Y-8750D01*
Y-6950D02*Y-8750D01*
X308550D02*X309300Y-9500D01*
X308550Y-4250D02*Y-8750D01*
Y-4250D02*X309300Y-3500D01*
X310800D01*
X311550Y-4250D01*
Y-8750D01*
X310800Y-9500D02*X311550Y-8750D01*
X309300Y-9500D02*X310800D01*
X308550Y-8000D02*X311550Y-5000D01*
X315600Y-3500D02*X316350Y-4250D01*
X314100Y-3500D02*X315600D01*
X313350Y-4250D02*X314100Y-3500D01*
X313350Y-4250D02*Y-8750D01*
X314100Y-9500D01*
X315600Y-6200D02*X316350Y-6950D01*
X313350Y-6200D02*X315600D01*
X314100Y-9500D02*X315600D01*
X316350Y-8750D01*
Y-6950D02*Y-8750D01*
X318150Y-4250D02*X318900Y-3500D01*
X321150D01*
X321900Y-4250D01*
Y-5750D01*
X318150Y-9500D02*X321900Y-5750D01*
X318150Y-9500D02*X321900D01*
X324450D02*X326700Y-6500D01*
Y-4250D02*Y-6500D01*
X325950Y-3500D02*X326700Y-4250D01*
X324450Y-3500D02*X325950D01*
X323700Y-4250D02*X324450Y-3500D01*
X323700Y-4250D02*Y-5750D01*
X324450Y-6500D01*
X326700D01*
X329250Y-9500D02*X331500Y-6500D01*
Y-4250D02*Y-6500D01*
X330750Y-3500D02*X331500Y-4250D01*
X329250Y-3500D02*X330750D01*
X328500Y-4250D02*X329250Y-3500D01*
X328500Y-4250D02*Y-5750D01*
X329250Y-6500D01*
X331500D01*
X333300Y-11000D02*X334800Y-9500D01*
X336600Y-4250D02*X337350Y-3500D01*
X338850D01*
X339600Y-4250D01*
X338850Y-9500D02*X339600Y-8750D01*
X337350Y-9500D02*X338850D01*
X336600Y-8750D02*X337350Y-9500D01*
Y-6200D02*X338850D01*
X339600Y-4250D02*Y-5450D01*
Y-6950D02*Y-8750D01*
Y-6950D02*X338850Y-6200D01*
X339600Y-5450D02*X338850Y-6200D01*
X342150Y-9500D02*X344400Y-6500D01*
Y-4250D02*Y-6500D01*
X343650Y-3500D02*X344400Y-4250D01*
X342150Y-3500D02*X343650D01*
X341400Y-4250D02*X342150Y-3500D01*
X341400Y-4250D02*Y-5750D01*
X342150Y-6500D01*
X344400D01*
X346200Y-4250D02*X346950Y-3500D01*
X348450D01*
X349200Y-4250D01*
X348450Y-9500D02*X349200Y-8750D01*
X346950Y-9500D02*X348450D01*
X346200Y-8750D02*X346950Y-9500D01*
Y-6200D02*X348450D01*
X349200Y-4250D02*Y-5450D01*
Y-6950D02*Y-8750D01*
Y-6950D02*X348450Y-6200D01*
X349200Y-5450D02*X348450Y-6200D01*
X351750Y-9500D02*X354750Y-3500D01*
X351000D02*X354750D01*
X356550Y-9500D02*X357300D01*
X359100Y-8750D02*X359850Y-9500D01*
X359100Y-4250D02*Y-8750D01*
Y-4250D02*X359850Y-3500D01*
X361350D01*
X362100Y-4250D01*
Y-8750D01*
X361350Y-9500D02*X362100Y-8750D01*
X359850Y-9500D02*X361350D01*
X359100Y-8000D02*X362100Y-5000D01*
X363900Y-8750D02*X364650Y-9500D01*
X363900Y-4250D02*Y-8750D01*
Y-4250D02*X364650Y-3500D01*
X366150D01*
X366900Y-4250D01*
Y-8750D01*
X366150Y-9500D02*X366900Y-8750D01*
X364650Y-9500D02*X366150D01*
X363900Y-8000D02*X366900Y-5000D01*
X369450Y-9500D02*X372450Y-3500D01*
X368700D02*X372450D01*
X374250Y-8750D02*X375000Y-9500D01*
X374250Y-7550D02*Y-8750D01*
Y-7550D02*X375300Y-6500D01*
X376200D01*
X377250Y-7550D01*
Y-8750D01*
X376500Y-9500D02*X377250Y-8750D01*
X375000Y-9500D02*X376500D01*
X374250Y-5450D02*X375300Y-6500D01*
X374250Y-4250D02*Y-5450D01*
Y-4250D02*X375000Y-3500D01*
X376500D01*
X377250Y-4250D01*
Y-5450D01*
X376200Y-6500D02*X377250Y-5450D01*
X379800Y-9500D02*X382800Y-3500D01*
X379050D02*X382800D01*
X384600Y-7250D02*X387600Y-3500D01*
X384600Y-7250D02*X388350D01*
X387600Y-3500D02*Y-9500D01*
X393600Y-7250D02*Y-9500D01*
Y-7250D02*X394350Y-6500D01*
X395100D01*
X395850Y-7250D01*
Y-9500D01*
Y-7250D02*X396600Y-6500D01*
X397350D01*
X398100Y-7250D01*
Y-9500D01*
X392850Y-6500D02*X393600Y-7250D01*
G54D111*X399900Y-5000D02*Y-5150D01*
G54D110*Y-7250D02*Y-9500D01*
X401400Y-3500D02*Y-8750D01*
X402150Y-9500D01*
X404400D02*X406650D01*
X407400Y-8750D01*
X406650Y-8000D02*X407400Y-8750D01*
X404400Y-8000D02*X406650D01*
X403650Y-7250D02*X404400Y-8000D01*
X403650Y-7250D02*X404400Y-6500D01*
X406650D01*
X407400Y-7250D01*
X403650Y-8750D02*X404400Y-9500D01*
X200750Y422201D02*Y416201D01*
X202700Y422201D02*X203750Y421151D01*
Y417251D01*
X202700Y416201D02*X203750Y417251D01*
X200000Y416201D02*X202700D01*
X200000Y422201D02*X202700D01*
X207800Y419201D02*X208550Y418451D01*
X206300Y419201D02*X207800D01*
X205550Y418451D02*X206300Y419201D01*
X205550Y418451D02*Y416951D01*
X206300Y416201D01*
X208550Y419201D02*Y416951D01*
X209300Y416201D01*
X206300D02*X207800D01*
X208550Y416951D01*
X211850Y422201D02*Y416951D01*
X212600Y416201D01*
X211100Y419951D02*X212600D01*
X214850Y416201D02*X217100D01*
X214100Y416951D02*X214850Y416201D01*
X214100Y418451D02*Y416951D01*
Y418451D02*X214850Y419201D01*
X216350D01*
X217100Y418451D01*
X214100Y417701D02*X217100D01*
Y418451D02*Y417701D01*
X218900Y419951D02*X219650D01*
X218900Y418451D02*X219650D01*
X224150Y422201D02*Y416201D01*
Y422201D02*X227150D01*
X224150Y419501D02*X226400D01*
X229700Y418451D02*Y416201D01*
Y418451D02*X230450Y419201D01*
X231950D01*
X228950D02*X229700Y418451D01*
G54D111*X233750Y420701D02*Y420551D01*
G54D110*Y418451D02*Y416201D01*
X237950Y420701D02*Y416201D01*
Y420701D02*X239000Y422201D01*
X240650D01*
X241700Y420701D01*
Y416201D01*
X237950Y419201D02*X241700D01*
X243500D02*Y416951D01*
X244250Y416201D01*
X245750D01*
X246500Y416951D01*
Y419201D02*Y416951D01*
X250550Y419201D02*X251300Y418451D01*
X249050Y419201D02*X250550D01*
X248300Y418451D02*X249050Y419201D01*
X248300Y418451D02*Y416951D01*
X249050Y416201D01*
X250550D01*
X251300Y416951D01*
X248300Y414701D02*X249050Y413951D01*
X250550D01*
X251300Y414701D01*
Y419201D02*Y414701D01*
X255800Y421001D02*X257000Y422201D01*
Y416201D01*
X255800D02*X258050D01*
X262100Y422201D02*X262850Y421451D01*
X260600Y422201D02*X262100D01*
X259850Y421451D02*X260600Y422201D01*
X259850Y421451D02*Y416951D01*
X260600Y416201D01*
X262100Y419501D02*X262850Y418751D01*
X259850Y419501D02*X262100D01*
X260600Y416201D02*X262100D01*
X262850Y416951D01*
Y418751D02*Y416951D01*
X267350Y421451D02*X268100Y422201D01*
X270350D01*
X271100Y421451D01*
Y419951D01*
X267350Y416201D02*X271100Y419951D01*
X267350Y416201D02*X271100D01*
X272900Y416951D02*X273650Y416201D01*
X272900Y421451D02*Y416951D01*
Y421451D02*X273650Y422201D01*
X275150D01*
X275900Y421451D01*
Y416951D01*
X275150Y416201D02*X275900Y416951D01*
X273650Y416201D02*X275150D01*
X272900Y417701D02*X275900Y420701D01*
X277700Y419951D02*X278450D01*
X277700Y418451D02*X278450D01*
X280250D02*X283250Y422201D01*
X280250Y418451D02*X284000D01*
X283250Y422201D02*Y416201D01*
X285800Y418451D02*X288800Y422201D01*
X285800Y418451D02*X289550D01*
X288800Y422201D02*Y416201D01*
X291350Y419951D02*X292100D01*
X291350Y418451D02*X292100D01*
X293900Y421451D02*X294650Y422201D01*
X296150D01*
X296900Y421451D01*
X296150Y416201D02*X296900Y416951D01*
X294650Y416201D02*X296150D01*
X293900Y416951D02*X294650Y416201D01*
Y419501D02*X296150D01*
X296900Y421451D02*Y420251D01*
Y418751D02*Y416951D01*
Y418751D02*X296150Y419501D01*
X296900Y420251D02*X296150Y419501D01*
X298700Y421451D02*X299450Y422201D01*
X301700D01*
X302450Y421451D01*
Y419951D01*
X298700Y416201D02*X302450Y419951D01*
X298700Y416201D02*X302450D01*
X306950Y421451D02*X307700Y422201D01*
X309950D01*
X310700Y421451D01*
Y419951D01*
X306950Y416201D02*X310700Y419951D01*
X306950Y416201D02*X310700D01*
X312500Y416951D02*X313250Y416201D01*
X312500Y421451D02*Y416951D01*
Y421451D02*X313250Y422201D01*
X314750D01*
X315500Y421451D01*
Y416951D01*
X314750Y416201D02*X315500Y416951D01*
X313250Y416201D02*X314750D01*
X312500Y417701D02*X315500Y420701D01*
X317300Y421001D02*X318500Y422201D01*
Y416201D01*
X317300D02*X319550D01*
X322100D02*X324350Y419201D01*
Y421451D02*Y419201D01*
X323600Y422201D02*X324350Y421451D01*
X322100Y422201D02*X323600D01*
X321350Y421451D02*X322100Y422201D01*
X321350Y421451D02*Y419951D01*
X322100Y419201D01*
X324350D01*
X328850Y422201D02*Y416951D01*
X329600Y416201D01*
X331100D01*
X331850Y416951D01*
Y422201D02*Y416951D01*
X333650Y422201D02*X336650D01*
X335150D02*Y416201D01*
X339500D02*X341450D01*
X338450Y417251D02*X339500Y416201D01*
X338450Y421151D02*Y417251D01*
Y421151D02*X339500Y422201D01*
X341450D01*
X200000Y435701D02*Y431201D01*
Y435701D02*X201050Y437201D01*
X202700D01*
X203750Y435701D01*
Y431201D01*
X200000Y434201D02*X203750D01*
X205550D02*Y431951D01*
X206300Y431201D01*
X207800D01*
X208550Y431951D01*
Y434201D02*Y431951D01*
X211100Y437201D02*Y431951D01*
X211850Y431201D01*
X210350Y434951D02*X211850D01*
X213350Y437201D02*Y431201D01*
Y433451D02*X214100Y434201D01*
X215600D01*
X216350Y433451D01*
Y431201D01*
X218150Y433451D02*Y431951D01*
Y433451D02*X218900Y434201D01*
X220400D01*
X221150Y433451D01*
Y431951D01*
X220400Y431201D02*X221150Y431951D01*
X218900Y431201D02*X220400D01*
X218150Y431951D02*X218900Y431201D01*
X223700Y433451D02*Y431201D01*
Y433451D02*X224450Y434201D01*
X225950D01*
X222950D02*X223700Y433451D01*
X227750Y434951D02*X228500D01*
X227750Y433451D02*X228500D01*
X200000Y452201D02*X203000D01*
X201500D02*Y446201D01*
G54D111*X204800Y450701D02*Y450551D01*
G54D110*Y448451D02*Y446201D01*
X207050Y452201D02*Y446951D01*
X207800Y446201D01*
X206300Y449951D02*X207800D01*
X209300Y452201D02*Y446951D01*
X210050Y446201D01*
X212300D02*X214550D01*
X211550Y446951D02*X212300Y446201D01*
X211550Y448451D02*Y446951D01*
Y448451D02*X212300Y449201D01*
X213800D01*
X214550Y448451D01*
X211550Y447701D02*X214550D01*
Y448451D02*Y447701D01*
X216350Y449951D02*X217100D01*
X216350Y448451D02*X217100D01*
X221600Y446951D02*X222350Y446201D01*
X221600Y451451D02*X222350Y452201D01*
X221600Y451451D02*Y446951D01*
X224150Y449201D02*Y446951D01*
X224900Y446201D01*
X226400D01*
X227150Y446951D01*
Y449201D02*Y446951D01*
X229700Y448451D02*Y446201D01*
Y448451D02*X230450Y449201D01*
X231200D01*
X231950Y448451D01*
Y446201D01*
X228950Y449201D02*X229700Y448451D01*
X233750Y452201D02*Y446201D01*
Y448451D02*X236000Y446201D01*
X233750Y448451D02*X235250Y449951D01*
X238550Y448451D02*Y446201D01*
Y448451D02*X239300Y449201D01*
X240050D01*
X240800Y448451D01*
Y446201D01*
X237800Y449201D02*X238550Y448451D01*
X242600D02*Y446951D01*
Y448451D02*X243350Y449201D01*
X244850D01*
X245600Y448451D01*
Y446951D01*
X244850Y446201D02*X245600Y446951D01*
X243350Y446201D02*X244850D01*
X242600Y446951D02*X243350Y446201D01*
X247400Y449201D02*Y446951D01*
X248150Y446201D01*
X248900D01*
X249650Y446951D01*
Y449201D02*Y446951D01*
X250400Y446201D01*
X251150D01*
X251900Y446951D01*
Y449201D02*Y446951D01*
X254450Y448451D02*Y446201D01*
Y448451D02*X255200Y449201D01*
X255950D01*
X256700Y448451D01*
Y446201D01*
X253700Y449201D02*X254450Y448451D01*
X258500Y452201D02*X259250Y451451D01*
Y446951D01*
X258500Y446201D02*X259250Y446951D01*
X263750Y449201D02*X266750D01*
X271250Y452201D02*Y446201D01*
Y452201D02*X274250D01*
X271250Y449501D02*X273500D01*
X278300Y449201D02*X279050Y448451D01*
X276800Y449201D02*X278300D01*
X276050Y448451D02*X276800Y449201D01*
X276050Y448451D02*Y446951D01*
X276800Y446201D01*
X279050Y449201D02*Y446951D01*
X279800Y446201D01*
X276800D02*X278300D01*
X279050Y446951D01*
X281600Y452201D02*Y446201D01*
Y446951D02*X282350Y446201D01*
X283850D01*
X284600Y446951D01*
Y448451D02*Y446951D01*
X283850Y449201D02*X284600Y448451D01*
X282350Y449201D02*X283850D01*
X281600Y448451D02*X282350Y449201D01*
X287150Y448451D02*Y446201D01*
Y448451D02*X287900Y449201D01*
X289400D01*
X286400D02*X287150Y448451D01*
G54D111*X291200Y450701D02*Y450551D01*
G54D110*Y448451D02*Y446201D01*
X293450Y449201D02*X295700D01*
X292700Y448451D02*X293450Y449201D01*
X292700Y448451D02*Y446951D01*
X293450Y446201D01*
X295700D01*
X299750Y449201D02*X300500Y448451D01*
X298250Y449201D02*X299750D01*
X297500Y448451D02*X298250Y449201D01*
X297500Y448451D02*Y446951D01*
X298250Y446201D01*
X300500Y449201D02*Y446951D01*
X301250Y446201D01*
X298250D02*X299750D01*
X300500Y446951D01*
X303800Y452201D02*Y446951D01*
X304550Y446201D01*
X303050Y449951D02*X304550D01*
G54D111*X306050Y450701D02*Y450551D01*
G54D110*Y448451D02*Y446201D01*
X307550Y448451D02*Y446951D01*
Y448451D02*X308300Y449201D01*
X309800D01*
X310550Y448451D01*
Y446951D01*
X309800Y446201D02*X310550Y446951D01*
X308300Y446201D02*X309800D01*
X307550Y446951D02*X308300Y446201D01*
X313100Y448451D02*Y446201D01*
Y448451D02*X313850Y449201D01*
X314600D01*
X315350Y448451D01*
Y446201D01*
X312350Y449201D02*X313100Y448451D01*
X320600Y452201D02*Y446201D01*
X322550Y452201D02*X323600Y451151D01*
Y447251D01*
X322550Y446201D02*X323600Y447251D01*
X319850Y446201D02*X322550D01*
X319850Y452201D02*X322550D01*
X326150Y448451D02*Y446201D01*
Y448451D02*X326900Y449201D01*
X328400D01*
X325400D02*X326150Y448451D01*
X332450Y449201D02*X333200Y448451D01*
X330950Y449201D02*X332450D01*
X330200Y448451D02*X330950Y449201D01*
X330200Y448451D02*Y446951D01*
X330950Y446201D01*
X333200Y449201D02*Y446951D01*
X333950Y446201D01*
X330950D02*X332450D01*
X333200Y446951D01*
X335750Y449201D02*Y446951D01*
X336500Y446201D01*
X337250D01*
X338000Y446951D01*
Y449201D02*Y446951D01*
X338750Y446201D01*
X339500D01*
X340250Y446951D01*
Y449201D02*Y446951D01*
G54D111*X342050Y450701D02*Y450551D01*
G54D110*Y448451D02*Y446201D01*
X344300Y448451D02*Y446201D01*
Y448451D02*X345050Y449201D01*
X345800D01*
X346550Y448451D01*
Y446201D01*
X343550Y449201D02*X344300Y448451D01*
X350600Y449201D02*X351350Y448451D01*
X349100Y449201D02*X350600D01*
X348350Y448451D02*X349100Y449201D01*
X348350Y448451D02*Y446951D01*
X349100Y446201D01*
X350600D01*
X351350Y446951D01*
X348350Y444701D02*X349100Y443951D01*
X350600D01*
X351350Y444701D01*
Y449201D02*Y444701D01*
M02*
