G04 start of page 2 for group 0 idx 0 *
G04 Title: (unknown), top *
G04 Creator: pcb 4.1.3 *
G04 CreationDate: Fri Aug 16 20:44:32 2019 UTC *
G04 For: leha *
G04 Format: Gerber/RS-274X *
G04 PCB-Dimensions (mil): 3149.61 3937.01 *
G04 PCB-Coordinate-Origin: lower left *
%MOIN*%
%FSLAX25Y25*%
%LNTOP*%
%ADD43C,0.0512*%
%ADD42C,0.0480*%
%ADD41C,0.0433*%
%ADD40C,0.0300*%
%ADD39C,0.0380*%
%ADD38C,0.0500*%
%ADD37C,0.1378*%
%ADD36C,0.0350*%
%ADD35C,0.0200*%
%ADD34C,0.0757*%
%ADD33C,0.0281*%
%ADD32C,0.1969*%
%ADD31C,0.0360*%
%ADD30C,0.0340*%
%ADD29C,0.0240*%
%ADD28C,0.0900*%
%ADD27C,0.0748*%
%ADD26C,0.0669*%
%ADD25C,0.0550*%
%ADD24C,0.1100*%
%ADD23C,0.0600*%
%ADD22C,0.0198*%
%ADD21C,0.0120*%
%ADD20C,0.0171*%
%ADD19C,0.0407*%
%ADD18C,0.0335*%
%ADD17C,0.0298*%
%ADD16C,0.0256*%
%ADD15C,0.0177*%
%ADD14C,0.0400*%
%ADD13C,0.0250*%
%ADD12C,0.0098*%
%ADD11C,0.0001*%
G54D11*G36*
X121500Y141201D02*X140500D01*
Y121201D01*
X121500D01*
Y141201D01*
G37*
G36*
X95000Y124201D02*Y127701D01*
X100000D01*
X96500Y124201D01*
X95000D01*
G37*
G54D12*X132000Y91701D02*Y115157D01*
X131985Y115172D01*
X130000Y95701D02*Y115156D01*
X130016Y115172D01*
X139859D02*Y122060D01*
X147529Y120875D02*X150826D01*
X163500Y108201D01*
X141827Y115172D02*Y111374D01*
X144000Y109201D01*
X140500Y109701D02*Y107701D01*
X137890Y115172D02*Y112311D01*
X140500Y109701D01*
X135922Y115172D02*Y111279D01*
X137400Y109801D01*
X133953Y115172D02*Y110248D01*
X135400Y108801D01*
X137400Y109801D02*Y106301D01*
X140500Y103201D01*
X135400Y108801D02*Y105301D01*
X137400Y103301D01*
Y101801D01*
X140500Y98701D01*
X146500Y101701D02*Y107158D01*
X145957Y107701D01*
X161500Y107201D02*Y74701D01*
X163500Y108201D02*Y90701D01*
X169000Y85201D01*
Y80951D01*
X169500Y80451D01*
Y100951D02*X174500D01*
Y93201D01*
X174000Y113701D02*X172000Y115701D01*
X161500Y74701D02*X164500Y71701D01*
X172500D01*
X174500Y73701D01*
Y93201D02*X179500Y88201D01*
X174500Y73701D02*Y80451D01*
X179500Y88201D02*Y75201D01*
G54D13*Y72701D01*
X174500Y67701D01*
X156478D01*
X153500Y83658D02*Y75201D01*
X146500Y72201D02*Y101701D01*
G54D12*X137000Y67701D02*X139000D01*
G54D13*X143700Y68101D02*X141500Y70301D01*
Y73701D01*
X153000Y65701D02*X146500Y72201D01*
X275500Y139201D02*X269000Y132701D01*
X275500Y149201D02*X262500Y136201D01*
X285500Y159201D02*Y101701D01*
X262500Y136201D02*Y119701D01*
X275500Y159201D02*X257500Y141201D01*
Y139201D01*
X275500Y27701D02*Y75701D01*
X255000Y58201D02*X260500Y63701D01*
X285500Y101701D02*X265000Y81201D01*
Y39201D01*
X257000Y31201D01*
X260500Y63701D02*Y83701D01*
X275500Y98701D01*
X269000Y99701D02*X251500Y82201D01*
X275500Y129201D02*Y98701D01*
X269000Y132701D02*Y99701D01*
X262500Y119701D02*X251000Y108201D01*
X257500Y139201D02*X251000Y132701D01*
X205077Y20445D02*X207233Y22601D01*
X210800D01*
X219000Y18701D02*X222500Y22201D01*
X225500D01*
G54D12*X229500Y18201D02*X225500Y22201D01*
G54D13*X233700Y18401D02*X238500Y23201D01*
X239500D01*
G54D12*Y14201D02*X231000D01*
X240457Y7701D02*X234043D01*
Y6244D01*
X231000Y3201D01*
Y14201D02*X229500Y15701D01*
Y18201D01*
X240500Y15201D02*X239500Y14201D01*
G54D13*X247600Y23101D02*Y7758D01*
X247543Y7701D01*
G54D14*X247600Y8201D02*Y23101D01*
Y7701D02*X276200D01*
X285000Y18701D01*
G54D13*X265300D02*X275500Y27701D01*
X257000Y31201D02*X196000D01*
X190500Y36701D01*
X253211Y58146D02*X249711D01*
X253500Y58201D02*X255000D01*
G54D12*X209000Y51701D02*Y54201D01*
X209211Y43646D02*Y40646D01*
X217711Y47646D02*X222211D01*
X196500Y123201D02*Y114701D01*
X200000Y111201D01*
X204500D01*
X231000Y3201D02*X45500D01*
X175586Y7701D02*X40000D01*
X45500Y3201D02*X45000Y2701D01*
G54D13*X225957Y8701D02*X226957Y7701D01*
X225957Y8701D02*X226728Y7929D01*
X225500Y14501D02*X223800D01*
X220500Y11201D01*
Y8701D01*
X210800Y14801D02*Y12401D01*
X214500Y8701D01*
X225957D01*
X161000Y14701D02*X121000D01*
G54D12*X176500Y8615D02*X175586Y7701D01*
G54D13*X175000Y58701D02*X175500Y58201D01*
Y49201D01*
G54D12*Y44201D01*
G54D13*Y36701D01*
X104000Y32201D02*Y38601D01*
X104100Y31601D02*Y38701D01*
G54D12*X111900D02*Y33101D01*
G54D13*X104000Y38601D02*X104100Y38701D01*
G54D12*X130500Y19701D02*X131000Y20201D01*
X136500D01*
X122300Y23601D02*Y27501D01*
X127000Y32201D01*
G54D13*X121000Y14701D02*X104100Y31601D01*
G54D12*X111900Y33101D02*X107250Y28451D01*
X122300Y36101D02*X134900D01*
X136000Y37201D01*
X127000Y32201D02*X134957D01*
X136457Y30701D01*
X136250Y42451D02*Y45451D01*
X136000Y45701D01*
G54D15*X141500Y28658D02*Y14701D01*
G54D12*X148000Y26701D02*X147500Y26201D01*
X146421D01*
X145177Y24957D01*
X141500Y28658D02*X143800Y30958D01*
X151000Y37658D02*Y33701D01*
X148000Y30701D01*
Y26701D01*
G54D16*X143800Y37201D02*Y30958D01*
G54D13*Y37701D02*X143500D01*
X140500Y40701D01*
G54D12*X138000D01*
X136250Y42451D01*
X145177Y19445D02*X151787D01*
X152500Y20158D01*
X139900Y45401D02*X150343D01*
X151000Y44744D01*
G54D13*X152500Y64201D02*X153000D01*
X156500Y67701D01*
X152500Y54201D02*Y45901D01*
X152000Y45401D01*
X153000Y64201D02*Y65701D01*
X136000Y45701D02*Y59801D01*
X135500Y60301D01*
G54D12*X137100D01*
X139000Y67701D02*X141500Y65201D01*
Y63201D01*
X139000Y60701D01*
X136500D01*
G54D13*X140500Y45401D02*X157843D01*
X158500Y44744D01*
X190500Y36701D02*X168000D01*
X160500Y29201D01*
Y26201D01*
X161000Y25701D01*
X184914Y24201D02*Y36615D01*
X185000Y36701D01*
X161000Y25701D02*Y14701D01*
G54D12*X170000Y15701D02*Y23153D01*
X171905Y25058D01*
G54D13*X197400Y23201D02*X193000D01*
X192000Y24201D01*
G54D12*X176500Y15701D02*X170000D01*
G54D13*X176500D02*X183414D01*
X184914Y17201D01*
X197400Y17689D02*X192488D01*
X192000Y17201D01*
X176000Y28658D02*Y16201D01*
X176500Y15701D01*
G54D12*X209000Y77701D02*Y80701D01*
Y69701D02*Y66701D01*
X217500Y73701D02*X222000D01*
X209000Y103701D02*Y106701D01*
Y95701D02*Y92701D01*
X217500Y99701D02*X222000D01*
X189000Y110201D02*Y69701D01*
X192500Y117201D02*Y92701D01*
X189000Y69701D02*X199500Y59201D01*
X192500Y92701D02*X200000Y85201D01*
X205000D01*
X199500Y59201D02*X204500D01*
X209000Y129701D02*Y132701D01*
Y121701D02*Y118701D01*
X217500Y125701D02*X222000D01*
X217500Y151701D02*X222000D01*
X209000Y155701D02*Y158701D01*
Y147701D02*Y144701D01*
X190500D02*X198000Y137201D01*
X204500D01*
X173000Y124701D02*X185000D01*
X192500Y117201D01*
X191750Y127951D02*X196500Y123201D01*
X73500Y72701D02*X114500Y113701D01*
G54D17*X73000Y67701D02*X116000Y110701D01*
G54D12*X72500Y62701D02*X122142Y112343D01*
G54D13*X92500Y119201D02*X30000D01*
G54D12*X70500Y57701D02*X122000Y109201D01*
X68500Y52701D02*X124000Y108201D01*
X66500Y47701D02*X124000Y105201D01*
X65000Y42701D02*X126000Y103701D01*
X63000Y37701D02*X126000Y100701D01*
X61000Y32701D02*X128000Y99701D01*
X59000Y27701D02*X128000Y96701D01*
X57000Y22701D02*X130000Y95701D01*
X55000Y17701D02*X130000Y92701D01*
X53000Y12701D02*X132000Y91701D01*
X50000Y57701D02*X70500D01*
X40000D02*X30543D01*
Y67701D02*X40000D01*
Y57701D02*X45000Y52701D01*
X40000Y47701D02*X45000Y42701D01*
X40000Y37701D02*X45000Y32701D01*
X40000Y27701D02*X45000Y22701D01*
Y52701D02*X68500D01*
X50000Y47701D02*X66500D01*
X45000Y42701D02*X65000D01*
X30543Y47701D02*X40000D01*
X50000Y37701D02*X63000D01*
X45000Y32701D02*X61000D01*
X50000Y27701D02*X59000D01*
X45000Y22701D02*X57000D01*
X40000Y27701D02*X30543D01*
Y37701D02*X40000D01*
X50000Y17701D02*X55000D01*
X30543D02*X40000D01*
X45000Y12701D01*
X53000D01*
X45000Y2701D02*X24500D01*
X14000Y13201D01*
X40000Y77701D02*X30543D01*
Y87701D02*X40000D01*
X30543Y97701D02*X40000D01*
X30543Y107701D02*X40000D01*
G54D18*X23457D02*Y17701D01*
G54D13*X30000Y119201D02*X23457Y112658D01*
Y106744D01*
G54D12*X14000Y13201D02*Y166201D01*
X21500Y173701D01*
X78000D01*
X40000Y107701D02*X45000Y102701D01*
X86300D01*
X40000Y97701D02*X45000Y92701D01*
X81600D01*
X50000Y107701D02*X88500D01*
X50000Y97701D02*X84000D01*
X40000Y87701D02*X45000Y82701D01*
X40000Y77701D02*X45000Y72701D01*
X51500D01*
X40000Y67701D02*X45000Y62701D01*
Y82701D02*X77500D01*
X50000Y87701D02*X79700D01*
X50000Y77701D02*X75500D01*
X51000Y72701D02*X73500D01*
X50000Y67701D02*X73000D01*
X45000Y62701D02*X72500D01*
X86300Y102701D02*X108410Y124811D01*
X114471D01*
X111741Y122842D02*X114471D01*
X114500Y120403D02*X114471Y120874D01*
X88500Y107701D02*X105500Y124701D01*
X77500Y82701D02*X114500Y119701D01*
X84000Y97701D02*X109000Y122701D01*
X79700Y87701D02*X110700Y118701D01*
X75500Y77701D02*X115500Y117701D01*
X122142Y112343D02*Y115172D01*
X124000Y108201D02*Y115061D01*
X124111Y115172D01*
X126000Y103701D02*Y113201D01*
X128000Y99701D02*Y114201D01*
X114500Y119701D02*Y120403D01*
Y113701D02*X120000D01*
X122500Y168701D02*Y154701D01*
X124110Y148230D02*Y153091D01*
X122500Y154701D02*X124110Y153091D01*
X126078Y148230D02*Y155279D01*
X126500Y155701D01*
X122500Y168701D02*X125500Y171701D01*
X128000D01*
G54D19*X118000Y147701D02*X114500Y151201D01*
X110500D01*
X107500Y154201D01*
G54D12*X103000Y153201D02*X112500Y143701D01*
Y142701D01*
G54D19*X107500Y154201D02*Y166701D01*
G54D12*X103000Y159201D02*Y153201D01*
X36500Y156701D02*X43500D01*
X69500Y130701D01*
X94500Y149201D02*X87000D01*
G54D20*X88000Y126701D02*X90500D01*
G54D12*X85000Y151701D02*X76543D01*
X75543Y152701D01*
X95293Y140451D02*X93043Y142701D01*
X90500Y183701D02*Y185701D01*
G54D16*X91000Y178701D02*X90500Y179201D01*
G54D12*X70600Y186301D02*X89700Y167201D01*
X85000Y161701D02*X76543D01*
X75543Y160701D01*
X114471Y126779D02*X104578D01*
X114471Y128748D02*X102547D01*
X101586Y132701D02*X114000D01*
X114471Y134653D02*X102048D01*
X114471Y136622D02*X109579D01*
X114471Y138590D02*X108111D01*
X107079Y136622D02*X109921D01*
X102547Y128748D02*X102000Y128201D01*
X69500Y130701D02*X114500D01*
G54D21*X102000Y128201D02*X93500D01*
G54D22*X101000Y124701D02*X95000Y118701D01*
G54D12*X104578Y126779D02*X95000Y117201D01*
X102000Y132701D02*X96043D01*
X93043Y135701D01*
X96250Y140451D02*X95293D01*
X102048Y134653D02*X96250Y140451D01*
X94500Y149201D02*X107079Y136622D01*
X108111Y138590D02*X85000Y161701D01*
X111800Y176701D02*Y190701D01*
X101000Y180201D02*X104000Y176701D01*
Y183201D02*X101000Y180201D01*
X97500Y176701D02*X101500Y172701D01*
X102500Y167201D02*X91000Y178701D01*
G54D19*X101000Y166701D02*X90600Y177101D01*
G54D12*X95000Y167201D02*X103000Y159201D01*
X89700Y167201D02*X95000D01*
X101500Y172701D02*X115500D01*
X117000Y174201D01*
Y175701D01*
X118000Y176701D01*
G54D16*X107500Y167201D02*X102500D01*
G54D19*X107500Y166701D02*X101000D01*
G54D12*X97500Y177201D02*Y176701D01*
G54D16*X90500Y179201D02*Y186201D01*
G54D19*X90600Y177101D02*Y186201D01*
G54D13*X16500Y280201D02*Y279701D01*
X23000Y316701D02*X32000Y307701D01*
X44500D01*
X23000Y330701D02*Y316701D01*
X20000Y333701D02*X23000Y330701D01*
X65000Y307701D02*X36500Y279201D01*
X20000Y338201D02*Y333701D01*
X38400Y376701D02*X58400Y356701D01*
X60000Y355201D02*Y338201D01*
X58500Y356701D02*X60000Y355201D01*
X78000Y366701D02*X86500Y358201D01*
X78000Y376701D02*Y366701D01*
X74500Y321701D02*Y307701D01*
X87000Y269201D02*X72500D01*
X137000Y376701D02*Y363201D01*
X117000Y376901D02*Y391201D01*
X116800Y376701D02*X117000Y376901D01*
X87260Y347941D02*X116500D01*
X86500Y358201D02*Y348701D01*
X87000Y348201D01*
X175800Y376701D02*X176500Y377401D01*
X151260Y347941D02*X180500D01*
X137000Y363201D02*X151000Y349201D01*
Y348201D01*
X65000Y307701D02*X285000D01*
X176500Y377401D02*Y391201D01*
X72300D02*X285500D01*
X57800Y376701D02*X72300Y391201D01*
X255000Y376701D02*Y366701D01*
X273500Y348201D01*
X279000D01*
X235500Y377401D02*Y391201D01*
X234800Y376701D02*X235500Y377401D01*
X293800Y382501D02*Y376701D01*
X294000Y382701D02*X293800Y382501D01*
X285500Y391201D02*X294000Y382701D01*
X215260Y347941D02*X244500D01*
X196000Y376701D02*Y367201D01*
X215000Y348201D01*
X279120Y348321D02*X308120D01*
X116500Y269201D02*Y307701D01*
G54D12*X124000Y242701D02*X107500Y259201D01*
X72500D01*
G54D13*X151000Y269201D02*X136500D01*
G54D12*X144000Y232701D02*Y251701D01*
X136500Y259201D01*
X164000Y244701D02*X170000Y250701D01*
X192000D01*
X200500Y259201D01*
X177500Y227701D02*X198500Y248701D01*
X215500D01*
X217500Y250701D01*
G54D13*X285000Y307701D02*X308500Y284201D01*
Y269201D01*
X279000D02*X264500D01*
X244500D02*Y307701D01*
X180500Y269201D02*Y307701D01*
X215000Y269201D02*X200500D01*
G54D12*X217500Y250701D02*X256500D01*
X264500Y258701D01*
G54D13*X275500Y199201D02*X249000Y225701D01*
X275500Y189201D02*X266000D01*
X260500Y194701D01*
X249500D01*
X275500Y179201D02*X250500D01*
X275500Y169201D02*X267000D01*
X259500Y161701D01*
X250500D01*
G54D12*X122141Y148230D02*Y142560D01*
Y148230D02*Y152060D01*
X117000Y157201D01*
X111642Y140559D02*X91000Y161201D01*
X122141Y142701D02*Y140560D01*
X128047Y148230D02*Y140748D01*
X114471Y140559D02*X111642D01*
X117500Y166701D02*X117000Y166201D01*
Y159701D01*
X127500Y166701D02*X130000Y164201D01*
X131984Y161185D02*X137500Y166701D01*
X133952Y158153D02*X136500Y160701D01*
X130000Y164201D02*Y148201D01*
X131984Y148230D02*Y161185D01*
X133952Y148230D02*Y158153D01*
X137889Y148230D02*Y152090D01*
X137100Y156101D02*X135900Y154901D01*
Y149901D01*
X91000Y161201D02*Y162701D01*
X64500Y152701D02*X71000Y146201D01*
Y134701D01*
X80043Y142701D02*X85957D01*
X80043Y135701D02*X85957D01*
X81600Y92701D02*X111600Y122701D01*
X168000Y179701D02*X173000Y184701D01*
X209000Y181701D02*Y184701D01*
Y173701D02*Y170701D01*
X217500Y177701D02*X222000D01*
X173000Y174701D02*X195000D01*
X204500Y184201D01*
X173000Y164701D02*X191500D01*
X168000Y176201D02*Y179701D01*
X173000Y184701D02*X182000D01*
X189500Y192201D01*
X188000Y164701D02*X198000D01*
X199500Y163201D01*
X204000D01*
X168000Y169701D02*X173000Y174701D01*
X168000Y166201D02*Y169701D01*
X163500Y165201D02*Y171701D01*
X168000Y176201D01*
X161000Y172201D02*X163500Y174701D01*
X161000Y172201D02*Y165701D01*
X159000Y170201D02*X153000Y164201D01*
X159000Y173201D02*Y170201D01*
X160000Y174201D02*X159000Y173201D01*
X157000Y181701D02*X157500Y181201D01*
Y174701D01*
X153000Y170201D01*
X149500D01*
X209000Y207701D02*Y210701D01*
Y199701D02*Y196701D01*
X217500Y203701D02*X222000D01*
X209000Y233701D02*Y236701D01*
Y225701D02*Y222701D01*
X217500Y229701D02*X222000D01*
X167500Y189201D02*X163500Y185201D01*
Y174701D01*
X165500Y199201D02*Y221201D01*
X159000Y227701D01*
X169000Y202201D02*Y227701D01*
X159000D02*X164000Y232701D01*
X168500Y196201D02*X165500Y199201D01*
X168000Y189701D02*X184500Y206201D01*
X171000Y200201D02*X169000Y202201D01*
X189500Y192201D02*Y195201D01*
X169000Y227701D02*X177500D01*
X184500Y206201D02*Y216201D01*
X205000Y236701D01*
X189500Y195201D02*X205000Y210701D01*
X132000Y190701D02*Y177201D01*
X139800Y190401D02*Y176701D01*
X132000D02*Y176201D01*
X128000Y171701D02*X131500Y175201D01*
X136000Y171701D02*X132500Y175201D01*
X131500D02*Y176201D01*
X132500Y175201D02*Y175701D01*
X132000Y176201D01*
X131500D02*X132000Y176701D01*
X142500Y164201D02*Y169201D01*
X140000Y171701D01*
X136000D01*
X146000Y157201D02*Y190701D01*
X144000Y192701D01*
X139800Y190701D02*Y201901D01*
X153800Y176701D02*Y202901D01*
X149000Y207701D01*
X139800Y201701D02*Y206901D01*
X139000Y207701D01*
X144000Y209701D02*Y192701D01*
X160000Y216701D02*Y174201D01*
X164000Y232701D02*Y244701D01*
X157000Y209201D02*Y181701D01*
Y209201D02*Y208701D01*
X144000Y209701D02*X141000Y212701D01*
X144000Y222701D02*Y213701D01*
X145000Y212701D01*
X144000Y222701D02*X134000Y232701D01*
X160000Y216701D02*X144000Y232701D01*
X141000Y212701D02*X136500D01*
X145000D02*X153500D01*
X157000Y209201D01*
X136500Y212701D02*X134000Y215201D01*
X125800Y176701D02*Y204501D01*
X132000Y191201D02*Y203701D01*
X111800Y191401D02*Y200501D01*
X119000Y207701D01*
X118000Y176701D02*Y200701D01*
G54D19*X90500Y244201D02*Y185701D01*
G54D12*X91000Y162701D02*X86500Y167201D01*
X84500D01*
X78000Y173701D01*
X70500Y220701D02*Y186201D01*
X104000Y183201D02*Y217201D01*
X101500Y219701D01*
X109000Y217701D02*Y227701D01*
X124000Y222701D02*X119000Y227701D01*
X101500Y225201D02*Y219701D01*
X114000Y212701D02*X109000Y217701D01*
G54D19*X119000Y237701D02*X112500Y244201D01*
G54D12*X126500Y232701D02*X124000Y235201D01*
Y242701D01*
X118000Y200701D02*X120000Y202701D01*
G54D13*X100500Y201701D02*X90500D01*
G54D19*X112000Y244201D02*X90500D01*
G54D12*X121500Y212701D02*X114000D01*
X120000Y202701D02*X121000D01*
X124000Y205701D01*
Y210201D02*X121500Y212701D01*
X124000Y210201D02*Y205701D01*
X126000Y212701D02*X124000Y214701D01*
Y222701D01*
X125800Y204501D02*X129000Y207701D01*
X132000Y203701D02*X134000Y205701D01*
Y209701D02*X131000Y212701D01*
X126000D01*
X134000Y209701D02*Y205701D01*
Y215201D02*Y222701D01*
X129000Y227701D01*
X134000Y232701D02*X126500D01*
X147529Y140560D02*X141859D01*
X148457Y147701D02*X146500Y145744D01*
Y142701D01*
X147529Y140560D02*X150359D01*
X154000Y144201D01*
Y145201D01*
X142000Y140560D02*X140141D01*
X142500Y164201D02*X140500Y162201D01*
Y154701D01*
X142500Y153701D03*
X141826Y148230D02*Y150027D01*
X146500Y154701D01*
X139858Y151059D02*X146500Y157701D01*
X146000Y157201D02*X144750Y155951D01*
X146500Y154701D02*X153000D01*
X152500Y157201D02*X146000D01*
X149500Y163701D02*Y164201D01*
X153000D02*X149500D01*
X140500Y154701D02*X137889Y152090D01*
X139858Y148230D02*Y151059D01*
X147529Y128749D02*X158952D01*
X147529Y126780D02*X151421D01*
X152358Y122843D02*X147529D01*
Y124812D02*X144111D01*
X143500Y124201D01*
X147529Y130717D02*X166984D01*
X147529Y132686D02*X160985D01*
X151421Y126780D02*X167000Y111201D01*
X166000Y109201D02*X152358Y122843D01*
X150000Y118701D02*X161500Y107201D01*
X189000Y110201D02*X185500Y113701D01*
X174000D01*
X143500Y124201D02*Y119701D01*
X144500Y118701D01*
X150000D01*
X168000Y149701D02*X173000Y144701D01*
X168000Y139701D02*X173000Y134701D01*
X160985Y132686D02*X168000Y139701D01*
X163500Y145201D02*X168000Y149701D01*
X173000Y164701D02*X161500Y153201D01*
X159500Y141701D02*Y157701D01*
X168000Y166201D01*
X147529Y134654D02*X158953D01*
X147529Y136623D02*X157922D01*
X147529Y138591D02*X156390D01*
X158953Y134654D02*X163500Y139201D01*
Y145201D01*
X157922Y136623D02*X161500Y140201D01*
Y153201D01*
X153000Y154701D02*X163500Y165201D01*
X156390Y138591D02*X159500Y141701D01*
X161000Y165701D02*X152500Y157201D01*
X173000Y114701D02*X158952Y128749D01*
X173000Y124701D02*X166984Y130717D01*
X167000Y111201D02*X181500D01*
X166000Y109201D02*X177500D01*
X179500Y107201D01*
X181500Y111201D02*X184500Y108201D01*
Y103201D01*
X179500Y107201D02*Y100951D01*
X173000Y134701D02*X185000D01*
X192000Y127701D01*
X173000Y144701D02*X190500D01*
G54D23*X168000Y149701D03*
Y159701D03*
Y169701D03*
Y179701D03*
G54D11*G36*
X165000Y122701D02*Y116701D01*
X171000D01*
Y122701D01*
X165000D01*
G37*
G54D23*X168000Y129701D03*
Y139701D03*
Y189701D03*
X178000D03*
G54D11*G36*
X175000Y122701D02*Y116701D01*
X181000D01*
Y122701D01*
X175000D01*
G37*
G54D23*X178000Y129701D03*
Y139701D03*
Y149701D03*
Y159701D03*
Y169701D03*
Y179701D03*
G54D11*G36*
X272500Y132201D02*Y126201D01*
X278500D01*
Y132201D01*
X272500D01*
G37*
G54D23*X275500Y139201D03*
Y149201D03*
Y159201D03*
Y169201D03*
Y179201D03*
Y189201D03*
Y199201D03*
X285500D03*
G54D11*G36*
X282500Y132201D02*Y126201D01*
X288500D01*
Y132201D01*
X282500D01*
G37*
G54D23*X285500Y139201D03*
Y149201D03*
Y159201D03*
Y169201D03*
Y179201D03*
Y189201D03*
G54D11*G36*
X187500Y39701D02*Y33701D01*
X193500D01*
Y39701D01*
X187500D01*
G37*
G36*
Y49701D02*Y43701D01*
X193500D01*
Y49701D01*
X187500D01*
G37*
G54D23*X180500Y36701D03*
X170500D03*
G54D11*G36*
X172000Y61701D02*Y55701D01*
X178000D01*
Y61701D01*
X172000D01*
G37*
G54D23*X185000Y58701D03*
X180500Y46701D03*
X170500D03*
G54D24*X285000Y18701D03*
X265300D03*
G54D11*G36*
X272500Y57701D02*Y51701D01*
X278500D01*
Y57701D01*
X272500D01*
G37*
G54D23*X275500Y64701D03*
Y74701D03*
G54D11*G36*
X282500Y57701D02*Y51701D01*
X288500D01*
Y57701D01*
X282500D01*
G37*
G54D23*X285500Y64701D03*
Y74701D03*
G54D11*G36*
X104500Y169701D02*Y163701D01*
X110500D01*
Y169701D01*
X104500D01*
G37*
G54D23*X117500Y166701D03*
X127500D03*
X137500D03*
G54D11*G36*
X82000Y154701D02*Y148701D01*
X88000D01*
Y154701D01*
X82000D01*
G37*
G54D23*X85000Y161701D03*
G54D11*G36*
X87850Y188951D02*Y183451D01*
X93350D01*
Y188951D01*
X87850D01*
G37*
G36*
X33500Y159701D02*Y153701D01*
X39500D01*
Y159701D01*
X33500D01*
G37*
G36*
X37000Y110701D02*Y104701D01*
X43000D01*
Y110701D01*
X37000D01*
G37*
G54D23*X50000Y107701D03*
G54D11*G36*
X37000Y100701D02*Y94701D01*
X43000D01*
Y100701D01*
X37000D01*
G37*
G54D25*X70600Y186201D03*
G54D11*G36*
X37000Y40701D02*Y34701D01*
X43000D01*
Y40701D01*
X37000D01*
G37*
G54D23*X50000Y37701D03*
G54D11*G36*
X37000Y50701D02*Y44701D01*
X43000D01*
Y50701D01*
X37000D01*
G37*
G54D23*X50000Y47701D03*
Y97701D03*
Y87701D03*
Y77701D03*
Y67701D03*
Y57701D03*
G54D11*G36*
X37000Y90701D02*Y84701D01*
X43000D01*
Y90701D01*
X37000D01*
G37*
G36*
Y80701D02*Y74701D01*
X43000D01*
Y80701D01*
X37000D01*
G37*
G36*
Y70701D02*Y64701D01*
X43000D01*
Y70701D01*
X37000D01*
G37*
G36*
Y60701D02*Y54701D01*
X43000D01*
Y60701D01*
X37000D01*
G37*
G36*
Y30701D02*Y24701D01*
X43000D01*
Y30701D01*
X37000D01*
G37*
G54D23*X50000Y27701D03*
G54D11*G36*
X37000Y20701D02*Y14701D01*
X43000D01*
Y20701D01*
X37000D01*
G37*
G54D23*X50000Y17701D03*
G54D11*G36*
X37000Y10701D02*Y4701D01*
X43000D01*
Y10701D01*
X37000D01*
G37*
G36*
X146000Y210701D02*Y204701D01*
X152000D01*
Y210701D01*
X146000D01*
G37*
G54D23*X139000Y207701D03*
G54D11*G36*
X146000Y220701D02*Y214701D01*
X152000D01*
Y220701D01*
X146000D01*
G37*
G54D23*X139000Y217701D03*
X129000Y207701D03*
X119000D03*
X129000Y217701D03*
X119000D03*
G54D11*G36*
X149500Y57201D02*Y51201D01*
X155500D01*
Y57201D01*
X149500D01*
G37*
G54D23*X152500Y64201D03*
Y74201D03*
X149000Y227701D03*
X159000D03*
X169000D03*
G54D11*G36*
X96000Y230701D02*Y224701D01*
X102000D01*
Y230701D01*
X96000D01*
G37*
G54D23*X109000Y227701D03*
G54D11*G36*
X96000Y240701D02*Y234701D01*
X102000D01*
Y240701D01*
X96000D01*
G37*
G54D23*X109000Y237701D03*
X119000Y227701D03*
X129000D03*
X139000D03*
X119000Y237701D03*
G54D26*X116500Y269201D03*
G54D23*X129000Y237701D03*
X36500Y166701D03*
G54D11*G36*
X67500Y223701D02*Y217701D01*
X73500D01*
Y223701D01*
X67500D01*
G37*
G54D24*X78000Y376701D03*
X97400D03*
X116800D03*
X137000D03*
X156400D03*
X175800D03*
G54D27*X150972Y334161D03*
X180500Y347941D03*
G54D25*X74500Y307701D03*
G54D27*X86972Y334161D03*
X116500Y347941D03*
G54D25*X74500Y321701D03*
G54D24*X196000Y376701D03*
X215400D03*
X234800D03*
X255000D03*
X274400D03*
X293800D03*
G54D26*X278972Y269201D03*
X308500D03*
G54D27*X278972Y334161D03*
X214972D03*
X308500Y347941D03*
X244500D03*
G54D26*X214972Y269201D03*
X244500D03*
G54D11*G36*
X260000Y263701D02*Y254701D01*
X269000D01*
Y263701D01*
X260000D01*
G37*
G54D28*X264500Y269201D03*
Y279201D03*
G54D23*X139000Y237701D03*
G54D11*G36*
X132000Y263701D02*Y254701D01*
X141000D01*
Y263701D01*
X132000D01*
G37*
G54D28*X136500Y269201D03*
Y279201D03*
G54D26*X150972Y269201D03*
G54D23*X149000Y237701D03*
X159000D03*
X169000D03*
G54D26*X180500Y269201D03*
G54D11*G36*
X196000Y263701D02*Y254701D01*
X205000D01*
Y263701D01*
X196000D01*
G37*
G54D28*X200500Y269201D03*
Y279201D03*
G54D23*X50500Y220701D03*
G54D24*X57800Y376701D03*
G54D25*X60000Y338201D03*
G54D11*G36*
X41750Y310451D02*Y304951D01*
X47250D01*
Y310451D01*
X41750D01*
G37*
G36*
X5250Y324451D02*Y318951D01*
X10750D01*
Y324451D01*
X5250D01*
G37*
G36*
Y310451D02*Y304951D01*
X10750D01*
Y310451D01*
X5250D01*
G37*
G54D25*X38000Y307701D03*
G54D11*G36*
X41750Y324451D02*Y318951D01*
X47250D01*
Y324451D01*
X41750D01*
G37*
G36*
X68000Y263701D02*Y254701D01*
X77000D01*
Y263701D01*
X68000D01*
G37*
G54D28*X72500Y269201D03*
Y279201D03*
G54D26*X86972Y269201D03*
G54D24*X19000Y376701D03*
X38400D03*
G54D11*G36*
X33500Y282701D02*Y276701D01*
X39500D01*
Y282701D01*
X33500D01*
G37*
G54D23*X16500Y279701D03*
G54D11*G36*
X17250Y340951D02*Y335451D01*
X22750D01*
Y340951D01*
X17250D01*
G37*
G54D25*X38000Y321701D03*
G54D11*G36*
X185500Y105201D02*X183500D01*
Y96701D01*
X185500D01*
Y105201D01*
G37*
G36*
X180500D02*X178500D01*
Y96701D01*
X180500D01*
Y105201D01*
G37*
G36*
X175500D02*X173500D01*
Y96701D01*
X175500D01*
Y105201D01*
G37*
G36*
X170500Y84701D02*X168500D01*
Y76201D01*
X170500D01*
Y84701D01*
G37*
G36*
X175500D02*X173500D01*
Y76201D01*
X175500D01*
Y84701D01*
G37*
G36*
X180500D02*X178500D01*
Y76201D01*
X180500D01*
Y84701D01*
G37*
G36*
X185500D02*X183500D01*
Y76201D01*
X185500D01*
Y84701D01*
G37*
G36*
X170500Y105201D02*X168500D01*
Y96701D01*
X170500D01*
Y105201D01*
G37*
G36*
X155602Y110653D02*X150484D01*
Y104749D01*
X155602D01*
Y110653D01*
G37*
G36*
X148516D02*X143398D01*
Y104749D01*
X148516D01*
Y110653D01*
G37*
G36*
X150548Y93303D02*Y88185D01*
X156452D01*
Y93303D01*
X150548D01*
G37*
G36*
Y86217D02*Y81099D01*
X156452D01*
Y86217D01*
X150548D01*
G37*
G36*
X158102Y150653D02*X152984D01*
Y144749D01*
X158102D01*
Y150653D01*
G37*
G36*
X151016D02*X145898D01*
Y144749D01*
X151016D01*
Y150653D01*
G37*
G36*
X145279Y121426D02*Y120324D01*
X149779D01*
Y121426D01*
X145279D01*
G37*
G36*
Y123394D02*Y122292D01*
X149779D01*
Y123394D01*
X145279D01*
G37*
G36*
Y125363D02*Y124261D01*
X149779D01*
Y125363D01*
X145279D01*
G37*
G36*
Y127331D02*Y126229D01*
X149779D01*
Y127331D01*
X145279D01*
G37*
G36*
Y129300D02*Y128198D01*
X149779D01*
Y129300D01*
X145279D01*
G37*
G36*
Y131268D02*Y130166D01*
X149779D01*
Y131268D01*
X145279D01*
G37*
G36*
Y133237D02*Y132135D01*
X149779D01*
Y133237D01*
X145279D01*
G37*
G36*
Y135205D02*Y134103D01*
X149779D01*
Y135205D01*
X145279D01*
G37*
G36*
Y137174D02*Y136072D01*
X149779D01*
Y137174D01*
X145279D01*
G37*
G36*
Y139142D02*Y138040D01*
X149779D01*
Y139142D01*
X145279D01*
G37*
G36*
Y141111D02*Y140009D01*
X149779D01*
Y141111D01*
X145279D01*
G37*
G36*
Y143079D02*Y141977D01*
X149779D01*
Y143079D01*
X145279D01*
G37*
G36*
X122964Y62515D02*X117846D01*
Y51887D01*
X122964D01*
Y62515D01*
G37*
G36*
X133500Y69301D02*Y66901D01*
X137500D01*
Y69301D01*
X133500D01*
G37*
G36*
Y65401D02*Y63001D01*
X137500D01*
Y65401D01*
X133500D01*
G37*
G36*
Y61501D02*Y59101D01*
X137500D01*
Y61501D01*
X133500D01*
G37*
G36*
X111154Y62515D02*X106036D01*
Y51887D01*
X111154D01*
Y62515D01*
G37*
G36*
X113100Y48901D02*X110700D01*
Y44901D01*
X113100D01*
Y48901D01*
G37*
G36*
X105300D02*X102900D01*
Y44901D01*
X105300D01*
Y48901D01*
G37*
G36*
Y40701D02*X102900D01*
Y36701D01*
X105300D01*
Y40701D01*
G37*
G36*
X109200D02*X106800D01*
Y36701D01*
X109200D01*
Y40701D01*
G37*
G36*
X113100D02*X110700D01*
Y36701D01*
X113100D01*
Y40701D01*
G37*
G36*
X128500Y41701D02*Y38301D01*
X132500D01*
Y41701D01*
X128500D01*
G37*
G36*
X120300Y37801D02*Y34401D01*
X124300D01*
Y37801D01*
X120300D01*
G37*
G36*
X137700Y39201D02*X134300D01*
Y35201D01*
X137700D01*
Y39201D01*
G37*
G36*
X141600Y47401D02*X138200D01*
Y43401D01*
X141600D01*
Y47401D01*
G37*
G36*
X145500Y39201D02*X142100D01*
Y35201D01*
X145500D01*
Y39201D01*
G37*
G54D29*X142900Y60301D02*X144500D01*
X142900Y68101D02*X144500D01*
G54D11*G36*
X157686Y57855D02*Y52737D01*
X168314D01*
Y57855D01*
X157686D01*
G37*
G36*
Y69665D02*Y64547D01*
X168314D01*
Y69665D01*
X157686D01*
G37*
G36*
X148048Y40217D02*Y35099D01*
X153952D01*
Y40217D01*
X148048D01*
G37*
G36*
Y47303D02*Y42185D01*
X153952D01*
Y47303D01*
X148048D01*
G37*
G36*
X155548D02*Y42185D01*
X161452D01*
Y47303D01*
X155548D01*
G37*
G36*
Y40217D02*Y35099D01*
X161452D01*
Y40217D01*
X155548D01*
G37*
G36*
X229516Y10653D02*X224398D01*
Y4749D01*
X229516D01*
Y10653D01*
G37*
G36*
X236602D02*X231484D01*
Y4749D01*
X236602D01*
Y10653D01*
G37*
G36*
X243016D02*X237898D01*
Y4749D01*
X243016D01*
Y10653D01*
G37*
G36*
X250102D02*X244984D01*
Y4749D01*
X250102D01*
Y10653D01*
G37*
G36*
X250145Y18153D02*X245027D01*
Y12249D01*
X250145D01*
Y18153D01*
G37*
G36*
X249300Y25101D02*X245900D01*
Y21101D01*
X249300D01*
Y25101D01*
G37*
G36*
X245400Y33301D02*X242000D01*
Y29301D01*
X245400D01*
Y33301D01*
G37*
G36*
X206652Y23004D02*X203502D01*
Y17886D01*
X206652D01*
Y23004D01*
G37*
G36*
X208800Y24301D02*Y20901D01*
X212800D01*
Y24301D01*
X208800D01*
G37*
G36*
Y16501D02*Y13101D01*
X212800D01*
Y16501D01*
X208800D01*
G37*
G36*
X223500Y24001D02*Y20601D01*
X227500D01*
Y24001D01*
X223500D01*
G37*
G36*
Y16201D02*Y12801D01*
X227500D01*
Y16201D01*
X223500D01*
G37*
G36*
X231700Y20101D02*Y16701D01*
X235700D01*
Y20101D01*
X231700D01*
G37*
G36*
X243059Y18153D02*X237941D01*
Y12249D01*
X243059D01*
Y18153D01*
G37*
G36*
X241500Y25101D02*X238100D01*
Y21101D01*
X241500D01*
Y25101D01*
G37*
G36*
X217000Y20401D02*Y17001D01*
X221000D01*
Y20401D01*
X217000D01*
G37*
G36*
X195628Y24972D02*Y21429D01*
X199172D01*
Y24972D01*
X195628D01*
G37*
G36*
X194559Y27153D02*X189441D01*
Y21249D01*
X194559D01*
Y27153D01*
G37*
G36*
X187473D02*X182355D01*
Y21249D01*
X187473D01*
Y27153D01*
G37*
G36*
X195628Y19461D02*Y15917D01*
X199172D01*
Y19461D01*
X195628D01*
G37*
G36*
X187473Y20153D02*X182355D01*
Y14249D01*
X187473D01*
Y20153D01*
G37*
G36*
X194559D02*X189441D01*
Y14249D01*
X194559D01*
Y20153D01*
G37*
G36*
X159548Y11174D02*Y6056D01*
X165452D01*
Y11174D01*
X159548D01*
G37*
G36*
Y18260D02*Y13142D01*
X165452D01*
Y18260D01*
X159548D01*
G37*
G36*
X173548D02*Y13142D01*
X179452D01*
Y18260D01*
X173548D01*
G37*
G36*
Y11174D02*Y6056D01*
X179452D01*
Y11174D01*
X173548D01*
G37*
G36*
X167048Y18260D02*Y13142D01*
X172952D01*
Y18260D01*
X167048D01*
G37*
G36*
Y11174D02*Y6056D01*
X172952D01*
Y11174D01*
X167048D01*
G37*
G36*
X174464Y30372D02*X169346D01*
Y19744D01*
X174464D01*
Y30372D01*
G37*
G36*
X162654D02*X157536D01*
Y19744D01*
X162654D01*
Y30372D01*
G37*
G36*
X149548Y29803D02*Y24685D01*
X155452D01*
Y29803D01*
X149548D01*
G37*
G36*
Y22717D02*Y17599D01*
X155452D01*
Y22717D01*
X149548D01*
G37*
G36*
X143406Y21217D02*Y17673D01*
X146949D01*
Y21217D01*
X143406D01*
G37*
G36*
Y26728D02*Y23185D01*
X146949D01*
Y26728D01*
X143406D01*
G37*
G36*
X139075Y24760D02*X135925D01*
Y19642D01*
X139075D01*
Y24760D01*
G37*
G36*
X128500Y21401D02*Y18001D01*
X132500D01*
Y21401D01*
X128500D01*
G37*
G36*
Y29201D02*Y25801D01*
X132500D01*
Y29201D01*
X128500D01*
G37*
G36*
X120300Y25301D02*Y21901D01*
X124300D01*
Y25301D01*
X120300D01*
G37*
G36*
X128500Y33901D02*Y30501D01*
X132500D01*
Y33901D01*
X128500D01*
G37*
G36*
X139016Y33653D02*X133898D01*
Y27749D01*
X139016D01*
Y33653D01*
G37*
G36*
X146102D02*X140984D01*
Y27749D01*
X146102D01*
Y33653D01*
G37*
G36*
X207000Y53401D02*Y50001D01*
X211000D01*
Y53401D01*
X207000D01*
G37*
G36*
X215200Y49501D02*Y46101D01*
X219200D01*
Y49501D01*
X215200D01*
G37*
G36*
X203822Y41795D02*Y35496D01*
X217602D01*
Y41795D01*
X203822D01*
G37*
G36*
Y59905D02*Y53606D01*
X217602D01*
Y59905D01*
X203822D01*
G37*
G36*
Y67795D02*Y61496D01*
X217602D01*
Y67795D01*
X203822D01*
G37*
G36*
X207000Y45601D02*Y42201D01*
X211000D01*
Y45601D01*
X207000D01*
G37*
G36*
Y79401D02*Y76001D01*
X211000D01*
Y79401D01*
X207000D01*
G37*
G36*
X215200Y75501D02*Y72101D01*
X219200D01*
Y75501D01*
X215200D01*
G37*
G36*
X207000Y71601D02*Y68201D01*
X211000D01*
Y71601D01*
X207000D01*
G37*
G36*
X33102Y30653D02*X27984D01*
Y24749D01*
X33102D01*
Y30653D01*
G37*
G36*
Y50653D02*X27984D01*
Y44749D01*
X33102D01*
Y50653D01*
G37*
G36*
Y40653D02*X27984D01*
Y34749D01*
X33102D01*
Y40653D01*
G37*
G36*
X26016Y30653D02*X20898D01*
Y24749D01*
X26016D01*
Y30653D01*
G37*
G36*
Y60653D02*X20898D01*
Y54749D01*
X26016D01*
Y60653D01*
G37*
G36*
Y50653D02*X20898D01*
Y44749D01*
X26016D01*
Y50653D01*
G37*
G36*
Y80653D02*X20898D01*
Y74749D01*
X26016D01*
Y80653D01*
G37*
G36*
Y70653D02*X20898D01*
Y64749D01*
X26016D01*
Y70653D01*
G37*
G36*
Y40653D02*X20898D01*
Y34749D01*
X26016D01*
Y40653D01*
G37*
G36*
X33102Y20653D02*X27984D01*
Y14749D01*
X33102D01*
Y20653D01*
G37*
G36*
X26016D02*X20898D01*
Y14749D01*
X26016D01*
Y20653D01*
G37*
G36*
X33102Y60653D02*X27984D01*
Y54749D01*
X33102D01*
Y60653D01*
G37*
G36*
Y80653D02*X27984D01*
Y74749D01*
X33102D01*
Y80653D01*
G37*
G36*
Y70653D02*X27984D01*
Y64749D01*
X33102D01*
Y70653D01*
G37*
G36*
Y90653D02*X27984D01*
Y84749D01*
X33102D01*
Y90653D01*
G37*
G36*
Y100653D02*X27984D01*
Y94749D01*
X33102D01*
Y100653D01*
G37*
G36*
Y110653D02*X27984D01*
Y104749D01*
X33102D01*
Y110653D01*
G37*
G36*
X26016Y90653D02*X20898D01*
Y84749D01*
X26016D01*
Y90653D01*
G37*
G36*
Y100653D02*X20898D01*
Y94749D01*
X26016D01*
Y100653D01*
G37*
G36*
Y110653D02*X20898D01*
Y104749D01*
X26016D01*
Y110653D01*
G37*
G36*
X111548Y160846D02*Y155728D01*
X117452D01*
Y160846D01*
X111548D01*
G37*
G36*
Y153760D02*Y148642D01*
X117452D01*
Y153760D01*
X111548D01*
G37*
G36*
X112221Y143078D02*Y141976D01*
X116721D01*
Y143078D01*
X112221D01*
G37*
G36*
Y141110D02*Y140008D01*
X116721D01*
Y141110D01*
X112221D01*
G37*
G36*
Y139141D02*Y138039D01*
X116721D01*
Y139141D01*
X112221D01*
G37*
G36*
Y137173D02*Y136071D01*
X116721D01*
Y137173D01*
X112221D01*
G37*
G36*
Y135204D02*Y134102D01*
X116721D01*
Y135204D01*
X112221D01*
G37*
G36*
X105700Y178701D02*X102300D01*
Y174701D01*
X105700D01*
Y178701D01*
G37*
G36*
X113500D02*X110100D01*
Y174701D01*
X113500D01*
Y178701D01*
G37*
G36*
X109600Y186901D02*X106200D01*
Y182901D01*
X109600D01*
Y186901D01*
G37*
G36*
X105700Y192701D02*X102300D01*
Y188701D01*
X105700D01*
Y192701D01*
G37*
G36*
X113500D02*X110100D01*
Y188701D01*
X113500D01*
Y192701D01*
G37*
G36*
X109600Y200901D02*X106200D01*
Y196901D01*
X109600D01*
Y200901D01*
G37*
G36*
X119700Y178701D02*X116300D01*
Y174701D01*
X119700D01*
Y178701D01*
G37*
G36*
X123600Y186901D02*X120200D01*
Y182901D01*
X123600D01*
Y186901D01*
G37*
G36*
X119700Y192701D02*X116300D01*
Y188701D01*
X119700D01*
Y192701D01*
G37*
G36*
X123600Y200901D02*X120200D01*
Y196901D01*
X123600D01*
Y200901D01*
G37*
G36*
X127500Y178701D02*X124100D01*
Y174701D01*
X127500D01*
Y178701D01*
G37*
G36*
X133700D02*X130300D01*
Y174701D01*
X133700D01*
Y178701D01*
G37*
G36*
Y192701D02*X130300D01*
Y188701D01*
X133700D01*
Y192701D01*
G37*
G36*
X127500D02*X124100D01*
Y188701D01*
X127500D01*
Y192701D01*
G37*
G36*
X141500Y178701D02*X138100D01*
Y174701D01*
X141500D01*
Y178701D01*
G37*
G36*
X137600Y186901D02*X134200D01*
Y182901D01*
X137600D01*
Y186901D01*
G37*
G36*
X147700Y178701D02*X144300D01*
Y174701D01*
X147700D01*
Y178701D01*
G37*
G36*
X141500Y192701D02*X138100D01*
Y188701D01*
X141500D01*
Y192701D01*
G37*
G54D30*X153800Y177001D02*Y176401D01*
G54D11*G36*
X151600Y186901D02*X148200D01*
Y182901D01*
X151600D01*
Y186901D01*
G37*
G36*
X147700Y192701D02*X144300D01*
Y188701D01*
X147700D01*
Y192701D01*
G37*
G36*
X155500D02*X152100D01*
Y188701D01*
X155500D01*
Y192701D01*
G37*
G36*
X151600Y200901D02*X148200D01*
Y196901D01*
X151600D01*
Y200901D01*
G37*
G36*
X137600D02*X134200D01*
Y196901D01*
X137600D01*
Y200901D01*
G37*
G36*
X89548Y128846D02*Y123728D01*
X95452D01*
Y128846D01*
X89548D01*
G37*
G36*
Y121760D02*Y116642D01*
X95452D01*
Y121760D01*
X89548D01*
G37*
G36*
X88516Y138653D02*X83398D01*
Y132749D01*
X88516D01*
Y138653D01*
G37*
G36*
X95602D02*X90484D01*
Y132749D01*
X95602D01*
Y138653D01*
G37*
G36*
Y145653D02*X90484D01*
Y139749D01*
X95602D01*
Y145653D01*
G37*
G36*
X82602Y138653D02*X77484D01*
Y132749D01*
X82602D01*
Y138653D01*
G37*
G36*
X75516D02*X70398D01*
Y132749D01*
X75516D01*
Y138653D01*
G37*
G36*
Y145653D02*X70398D01*
Y139749D01*
X75516D01*
Y145653D01*
G37*
G36*
X82602D02*X77484D01*
Y139749D01*
X82602D01*
Y145653D01*
G37*
G36*
X88516D02*X83398D01*
Y139749D01*
X88516D01*
Y145653D01*
G37*
G36*
X112221Y133236D02*Y132134D01*
X116721D01*
Y133236D01*
X112221D01*
G37*
G36*
Y131267D02*Y130165D01*
X116721D01*
Y131267D01*
X112221D01*
G37*
G36*
Y129299D02*Y128197D01*
X116721D01*
Y129299D01*
X112221D01*
G37*
G36*
Y127330D02*Y126228D01*
X116721D01*
Y127330D01*
X112221D01*
G37*
G36*
Y125362D02*Y124260D01*
X116721D01*
Y125362D01*
X112221D01*
G37*
G36*
Y123393D02*Y122291D01*
X116721D01*
Y123393D01*
X112221D01*
G37*
G36*
Y121425D02*Y120323D01*
X116721D01*
Y121425D01*
X112221D01*
G37*
G36*
X120725Y117422D02*X119623D01*
Y112922D01*
X120725D01*
Y117422D01*
G37*
G36*
X122693D02*X121591D01*
Y112922D01*
X122693D01*
Y117422D01*
G37*
G36*
X124662D02*X123560D01*
Y112922D01*
X124662D01*
Y117422D01*
G37*
G36*
X126630D02*X125528D01*
Y112922D01*
X126630D01*
Y117422D01*
G37*
G36*
X128599D02*X127497D01*
Y112922D01*
X128599D01*
Y117422D01*
G37*
G36*
X130567D02*X129465D01*
Y112922D01*
X130567D01*
Y117422D01*
G37*
G36*
X132536D02*X131434D01*
Y112922D01*
X132536D01*
Y117422D01*
G37*
G36*
X134504D02*X133402D01*
Y112922D01*
X134504D01*
Y117422D01*
G37*
G36*
X136473D02*X135371D01*
Y112922D01*
X136473D01*
Y117422D01*
G37*
G36*
X138441D02*X137339D01*
Y112922D01*
X138441D01*
Y117422D01*
G37*
G36*
X140410D02*X139308D01*
Y112922D01*
X140410D01*
Y117422D01*
G37*
G36*
X142378D02*X141276D01*
Y112922D01*
X142378D01*
Y117422D01*
G37*
G36*
X142377Y150480D02*X141275D01*
Y145980D01*
X142377D01*
Y150480D01*
G37*
G36*
X140409D02*X139307D01*
Y145980D01*
X140409D01*
Y150480D01*
G37*
G36*
X138440D02*X137338D01*
Y145980D01*
X138440D01*
Y150480D01*
G37*
G36*
X136472D02*X135370D01*
Y145980D01*
X136472D01*
Y150480D01*
G37*
G36*
X134503D02*X133401D01*
Y145980D01*
X134503D01*
Y150480D01*
G37*
G36*
X132535D02*X131433D01*
Y145980D01*
X132535D01*
Y150480D01*
G37*
G36*
X130566D02*X129464D01*
Y145980D01*
X130566D01*
Y150480D01*
G37*
G36*
X128598D02*X127496D01*
Y145980D01*
X128598D01*
Y150480D01*
G37*
G36*
X126629D02*X125527D01*
Y145980D01*
X126629D01*
Y150480D01*
G37*
G36*
X124661D02*X123559D01*
Y145980D01*
X124661D01*
Y150480D01*
G37*
G36*
X122692D02*X121590D01*
Y145980D01*
X122692D01*
Y150480D01*
G37*
G36*
X120724D02*X119622D01*
Y145980D01*
X120724D01*
Y150480D01*
G37*
G36*
X71016Y155653D02*X65898D01*
Y149749D01*
X71016D01*
Y155653D01*
G37*
G36*
X78102D02*X72984D01*
Y149749D01*
X78102D01*
Y155653D01*
G37*
G36*
X71016Y163653D02*X65898D01*
Y157749D01*
X71016D01*
Y163653D01*
G37*
G36*
X78102D02*X72984D01*
Y157749D01*
X78102D01*
Y163653D01*
G37*
G36*
X220752Y59512D02*Y35890D01*
X252248D01*
Y59512D01*
X220752D01*
G37*
G36*
Y85512D02*Y61890D01*
X252248D01*
Y85512D01*
X220752D01*
G37*
G36*
Y111512D02*Y87890D01*
X252248D01*
Y111512D01*
X220752D01*
G37*
G36*
X203822Y85905D02*Y79606D01*
X217602D01*
Y85905D01*
X203822D01*
G37*
G36*
Y93795D02*Y87496D01*
X217602D01*
Y93795D01*
X203822D01*
G37*
G36*
X207000Y97601D02*Y94201D01*
X211000D01*
Y97601D01*
X207000D01*
G37*
G36*
X203822Y111905D02*Y105606D01*
X217602D01*
Y111905D01*
X203822D01*
G37*
G36*
X207000Y105401D02*Y102001D01*
X211000D01*
Y105401D01*
X207000D01*
G37*
G36*
X215200Y101501D02*Y98101D01*
X219200D01*
Y101501D01*
X215200D01*
G37*
G36*
X203822Y119795D02*Y113496D01*
X217602D01*
Y119795D01*
X203822D01*
G37*
G36*
Y137905D02*Y131606D01*
X217602D01*
Y137905D01*
X203822D01*
G37*
G36*
Y145795D02*Y139496D01*
X217602D01*
Y145795D01*
X203822D01*
G37*
G36*
X207000Y149601D02*Y146201D01*
X211000D01*
Y149601D01*
X207000D01*
G37*
G36*
Y131401D02*Y128001D01*
X211000D01*
Y131401D01*
X207000D01*
G37*
G36*
X215200Y127501D02*Y124101D01*
X219200D01*
Y127501D01*
X215200D01*
G37*
G36*
X207000Y123601D02*Y120201D01*
X211000D01*
Y123601D01*
X207000D01*
G37*
G36*
X203822Y163905D02*Y157606D01*
X217602D01*
Y163905D01*
X203822D01*
G37*
G36*
X207000Y157401D02*Y154001D01*
X211000D01*
Y157401D01*
X207000D01*
G37*
G36*
X215200Y153501D02*Y150101D01*
X219200D01*
Y153501D01*
X215200D01*
G37*
G36*
X203822Y171795D02*Y165496D01*
X217602D01*
Y171795D01*
X203822D01*
G37*
G36*
Y189905D02*Y183606D01*
X217602D01*
Y189905D01*
X203822D01*
G37*
G36*
X207000Y183401D02*Y180001D01*
X211000D01*
Y183401D01*
X207000D01*
G37*
G36*
X215200Y179501D02*Y176101D01*
X219200D01*
Y179501D01*
X215200D01*
G37*
G36*
X207000Y175601D02*Y172201D01*
X211000D01*
Y175601D01*
X207000D01*
G37*
G36*
X220752Y137512D02*Y113890D01*
X252248D01*
Y137512D01*
X220752D01*
G37*
G36*
Y163512D02*Y139890D01*
X252248D01*
Y163512D01*
X220752D01*
G37*
G36*
Y189512D02*Y165890D01*
X252248D01*
Y189512D01*
X220752D01*
G37*
G36*
Y215512D02*Y191890D01*
X252248D01*
Y215512D01*
X220752D01*
G37*
G36*
Y241512D02*Y217890D01*
X252248D01*
Y241512D01*
X220752D01*
G37*
G36*
X215200Y231501D02*Y228101D01*
X219200D01*
Y231501D01*
X215200D01*
G37*
G36*
X203822Y197795D02*Y191496D01*
X217602D01*
Y197795D01*
X203822D01*
G37*
G36*
X207000Y201601D02*Y198201D01*
X211000D01*
Y201601D01*
X207000D01*
G37*
G36*
X203822Y215905D02*Y209606D01*
X217602D01*
Y215905D01*
X203822D01*
G37*
G36*
X207000Y209401D02*Y206001D01*
X211000D01*
Y209401D01*
X207000D01*
G37*
G36*
X215200Y205501D02*Y202101D01*
X219200D01*
Y205501D01*
X215200D01*
G37*
G36*
X203822Y223795D02*Y217496D01*
X217602D01*
Y223795D01*
X203822D01*
G37*
G36*
Y241905D02*Y235606D01*
X217602D01*
Y241905D01*
X203822D01*
G37*
G36*
X207000Y235401D02*Y232001D01*
X211000D01*
Y235401D01*
X207000D01*
G37*
G36*
Y227601D02*Y224201D01*
X211000D01*
Y227601D01*
X207000D01*
G37*
G54D31*X136500Y160701D03*
X136000Y181701D03*
X122000D03*
X137100Y156101D03*
X126500Y155701D03*
X118000Y147701D03*
X123500Y139201D03*
X138500D03*
X146500Y158201D03*
X148000Y151201D03*
X149500Y164201D03*
Y170201D03*
X155500Y151701D03*
X150000Y181701D03*
X168500Y196201D03*
X171000Y200201D03*
X108000Y202201D03*
X136500D03*
X149500Y201201D03*
X203000Y141201D03*
Y145201D03*
Y167201D03*
Y171201D03*
Y193201D03*
Y197201D03*
X140500Y107701D03*
Y103201D03*
X138500Y126201D03*
X140500Y98701D03*
G54D23*X146500Y101701D03*
G54D31*X154500Y103301D03*
X157000Y106701D03*
X185000Y75201D03*
X155500Y94701D03*
X138000Y64201D03*
X141500Y73701D03*
X203000Y67201D03*
Y89201D03*
Y93201D03*
Y115201D03*
Y119201D03*
Y63201D03*
X122000Y195701D03*
X108000Y181701D03*
X101000Y180201D03*
X97500Y177201D03*
X64500Y160701D03*
X100500Y201701D03*
X64500Y152701D03*
G54D32*X15748Y224291D03*
G54D31*X101000Y124701D03*
X88000Y126701D03*
X97000Y127201D03*
X84500Y126701D03*
X86200Y123801D03*
G54D33*X112000Y106701D03*
X114000Y108701D03*
X116000Y110701D03*
G54D31*X116500Y60701D03*
Y57201D03*
Y53701D03*
G54D23*X104000Y50701D03*
G54D33*X96500Y91201D03*
G54D31*X104600Y58701D03*
Y55201D03*
X108000Y42201D03*
Y35201D03*
G54D33*X94500Y89201D03*
X92500Y87201D03*
G54D34*X87000Y348201D03*
G54D31*X176000Y28658D03*
Y25158D03*
X128000Y25201D03*
X176000Y21658D03*
X216500Y8701D03*
X220500D03*
X166500Y51201D03*
X163000D03*
X159500D03*
X154000Y30701D03*
X133000Y42701D03*
X157500Y34201D03*
X202711Y41146D03*
Y36646D03*
G54D32*X279528Y224291D03*
G54D31*X203000Y219201D03*
Y223201D03*
G54D34*X279000Y348201D03*
X308500Y334201D03*
X215000Y348201D03*
X151000D03*
G54D35*G54D36*G54D35*G54D37*G54D35*G54D36*G54D35*G54D38*G54D35*G54D37*G54D35*G54D38*G54D39*G54D23*G54D39*G54D40*G54D39*G54D40*G54D39*G54D41*G54D39*G54D40*G54D42*G54D43*G54D40*G54D43*G54D40*G54D42*G54D41*G54D43*G54D41*G54D23*G54D39*G54D23*G54D41*G54D39*G54D41*G54D23*G54D40*G54D42*G54D40*G54D23*G54D41*G54D42*G54D40*M02*
